<svg width="30" height="30" viewBox="0 0 30 30" fill="none" xmlns="http://www.w3.org/2000/svg">
<path d="M6.55556 8.32353C6.55556 7.30017 7.41367 6.47059 8.47222 6.47059C9.53077 6.47059 10.3889 7.30017 10.3889 8.32353C10.3889 9.34688 9.53077 10.1765 8.47222 10.1765C7.41367 10.1765 6.55556 9.34688 6.55556 8.32353ZM8.47222 4C6.00228 4 4 5.93571 4 8.32353C4 10.7114 6.00228 12.6471 8.47222 12.6471C10.9422 12.6471 12.9444 10.7114 12.9444 8.32353C12.9444 5.93571 10.9422 4 8.47222 4ZM15.5 9.55882H25.7222V7.08824H15.5V9.55882ZM20.6111 20.6765C20.6111 19.6532 21.4693 18.8235 22.5278 18.8235C23.5863 18.8235 24.4444 19.6532 24.4444 20.6765C24.4444 21.6998 23.5863 22.5294 22.5278 22.5294C21.4693 22.5294 20.6111 21.6998 20.6111 20.6765ZM22.5278 16.3529C20.0578 16.3529 18.0556 18.2886 18.0556 20.6765C18.0556 23.0643 20.0578 25 22.5278 25C24.9977 25 27 23.0643 27 20.6765C27 18.2886 24.9977 16.3529 22.5278 16.3529ZM5.27778 19.4412V21.9118H15.5V19.4412H5.27778Z" fill="black"/>
</svg>
