<svg width="180" height="37" viewBox="0 0 180 37" fill="none" xmlns="http://www.w3.org/2000/svg">
<g clip-path="url(#clip0_2195_6323)">
<path d="M0 2H5.03302V13.9358H9.96698V2H15V35H9.96698V18.3581H5.03302V35H0V2Z" fill="black"/>
<path d="M21.5834 11.8197C23.4598 10.1866 25.9074 9.37157 28.923 9.37157L28.974 6.42234H19.573V2H34V35H28.974V24.2536H24.248L24.8 35H19.774L19.0209 19.4509C18.8518 15.9945 19.707 13.4528 21.5834 11.8197ZM23.9959 19.8312H28.974V13.7909C27.2987 13.7909 26.0254 14.2346 25.1543 15.1221C24.2831 16.0096 23.897 17.4525 23.9991 19.4509V19.8312H23.9959Z" fill="black"/>
<path d="M46 2H50.8234V13.0312C51.3073 13.0644 51.9963 13.1429 52.8967 13.2696L54.7771 2.00302H61V6.42455H58.5868L56.9943 14.9356C59.3401 16.6801 60.4028 19.4054 60.1793 23.1147L59.4565 35H54.6331L55.4049 23.1147L55.4539 22.3058C55.4539 20.7213 55.068 19.5473 54.2962 18.7867C53.5245 18.0262 52.3669 17.5976 50.8234 17.504V35H46V2Z" fill="black"/>
<path d="M94 2H109V5.09083C109 9.8146 108.048 13.2857 106.14 15.5043C107.914 17.0255 108.799 19.1656 108.799 21.9244L108.748 22.9234L107.997 35H94V2ZM102.529 12.1056C103.497 10.8861 103.984 9.18074 103.984 6.99543V6.42495H99.0159V13.9377C100.389 13.9377 101.557 13.328 102.529 12.1086V12.1056ZM103.331 30.5781L103.831 22.9234C103.965 20.5148 103.363 18.8818 102.025 18.0276C101.121 18.251 100.118 18.3596 99.0159 18.3596V30.5781H103.331Z" fill="black"/>
<path d="M111.352 2.00302H116.385L116.033 8.51669C115.899 11.2755 116.301 13.328 117.241 14.6742C118.18 16.0204 119.42 16.6935 120.967 16.6935V2.00302H126V35H120.967V21.1154C119.254 21.1154 117.644 20.72 116.135 19.9262C114.624 19.1354 113.39 17.8495 112.435 16.0747C111.479 14.2999 111 12.0029 111 9.18074C111 8.61026 111.016 8.16656 111.051 7.84963L111.352 2V2.00302Z" fill="black"/>
<path d="M130 8.46538C130 6.34346 130.62 4.73164 131.868 3.63898C133.112 2.54633 134.783 2 136.878 2H144V11.3208H139.089V6.42495H137.221C135.681 6.42495 134.914 7.20068 134.914 8.75515V13.9377H141.3V18.3596H134.914V30.5781H138.989V24.158H143.9V35H130V8.46538Z" fill="black"/>
<path d="M149 2H163V11.3208H158.072V6.42495H153.932V35H149.003V2H149Z" fill="black"/>
<path d="M166 8.46538C166 6.34346 166.62 4.73164 167.868 3.63898C169.112 2.54633 170.783 2 172.878 2H180V11.3208H175.089V6.42495H173.221C171.681 6.42495 170.914 7.20068 170.914 8.75515V13.9377H177.3V18.3596H170.914V30.5781H174.989V24.158H179.9V35H166V8.46538Z" fill="black"/>
<path d="M85.6221 3.21951C83.3806 1.08211 80.6607 0 77.5441 0C75.4852 0 73.5397 0.494851 71.7579 1.47561C69.976 2.45339 68.5531 3.79783 67.5363 5.47019C66.5163 7.14255 66 9.00271 66 10.994C66 13.9691 67.1081 16.5745 69.2929 18.7358C71.484 20.903 74.27 22 77.5724 22C80.8748 22 83.4531 20.9298 85.6662 18.8222C87.8793 16.7146 89 14.1033 89 11.0596C89 8.01599 87.8635 5.35095 85.6221 3.21653V3.21951ZM82.2599 15.6981C80.9566 16.965 79.4235 17.5821 77.5724 17.5821C75.9322 17.5821 74.5156 17.1051 73.2469 16.1274C71.6194 14.8783 70.826 13.2209 70.826 11.0656C70.826 9.12493 71.4557 7.5748 72.7527 6.32276C74.0465 5.07371 75.5985 4.46558 77.5 4.46558C79.4014 4.46558 80.9314 5.08862 82.2442 6.37046C83.5601 7.65528 84.1992 9.18157 84.1992 11.0388C84.1992 12.8959 83.5632 14.4282 82.2599 15.7011V15.6981Z" fill="#C4321A"/>
<path d="M77.5 37C80.5376 37 83 34.7614 83 32C83 29.2386 80.5376 27 77.5 27C74.4624 27 72 29.2386 72 32C72 34.7614 74.4624 37 77.5 37Z" fill="#C4321A"/>
</g>
<defs>
<clipPath id="clip0_2195_6323">
<rect width="180" height="37" fill="white"/>
</clipPath>
</defs>
</svg>
