<svg width="80" height="16" viewBox="0 0 80 16" fill="none" xmlns="http://www.w3.org/2000/svg">
<g clip-path="url(#clip0_2195_6353)">
<path d="M0 1H2.34874V6.06367H4.65126V1H7V15H4.65126V7.93981H2.34874V15H0V1Z" fill="white"/>
<path d="M9.20559 5.16593C10.0812 4.47311 11.2234 4.12733 12.6307 4.12733L12.6545 2.87614H8.2674V1H15V15H12.6545V10.4409H10.4491L10.7067 15H8.36122L8.00977 8.4034C7.93085 6.93707 8.32995 5.85876 9.20559 5.16593ZM10.3314 8.56476H12.6545V6.0022C11.8727 6.0022 11.2785 6.19045 10.872 6.56696C10.4654 6.94347 10.2852 7.55562 10.3329 8.4034V8.56476H10.3314Z" fill="white"/>
<path d="M21 1H23.2509V5.6799C23.4767 5.69398 23.7983 5.72727 24.2185 5.78105L25.096 1.00128H28V2.87708H26.8738L26.1307 6.48784C27.2254 7.22791 27.7213 8.38412 27.617 9.95775L27.2797 15H25.0288L25.3889 9.95775L25.4118 9.6146C25.4118 8.94238 25.2317 8.4443 24.8716 8.12164C24.5114 7.79898 23.9712 7.61716 23.2509 7.57747V15H21V1Z" fill="white"/>
<path d="M42 1H49V2.31126C49 4.31528 48.5556 5.78789 47.6654 6.72908C48.4932 7.37446 48.9064 8.28236 48.9064 9.45276L48.8826 9.87661L48.5318 15H42V1ZM45.98 5.2872C46.4318 4.76987 46.6592 4.04637 46.6592 3.11927V2.87725H44.3408V6.06448C44.9813 6.06448 45.5268 5.80582 45.98 5.28849V5.2872ZM46.3546 13.124L46.5879 9.87661C46.6503 8.85475 46.3694 8.16199 45.7452 7.7996C45.3231 7.89436 44.855 7.94046 44.3408 7.94046V13.124H46.3546Z" fill="white"/>
<path d="M49.164 1.00128H51.5128L51.3487 3.76466C51.2861 4.93506 51.474 5.80582 51.9124 6.37693C52.3509 6.94805 52.9295 7.2336 53.6513 7.2336V1.00128H56V15H53.6513V9.10958C52.8519 9.10958 52.1003 8.94183 51.3965 8.60505C50.6911 8.26955 50.1155 7.72405 49.6696 6.9711C49.2237 6.21815 49 5.24367 49 4.04637C49 3.80435 49.0075 3.61612 49.0239 3.48166L49.164 1V1.00128Z" fill="white"/>
<path d="M58 3.74289C58 2.84268 58.2659 2.15888 58.8004 1.69533C59.3336 1.23178 60.0499 1 60.9479 1H64V4.95427H61.8953V2.87725H61.0949C60.4347 2.87725 60.106 3.20635 60.106 3.86582V6.06448H62.8428V7.94045H60.106V13.124H61.8526V10.4003H63.9572V15H58V3.74289Z" fill="white"/>
<path d="M66 1H72V4.95427H69.8878V2.87725H68.1135V15H66.0013V1H66Z" fill="white"/>
<path d="M74 3.74289C74 2.84268 74.2659 2.15888 74.8004 1.69533C75.3336 1.23178 76.0499 1 76.9479 1H80V4.95427H77.8953V2.87725H77.0949C76.4347 2.87725 76.106 3.20635 76.106 3.86582V6.06448H78.8428V7.94045H76.106V13.124H77.8526V10.4003H79.9572V15H74V3.74289Z" fill="white"/>
<path d="M37.5313 1.46341C36.5568 0.49187 35.3742 0 34.0192 0C33.124 0 32.2781 0.224932 31.5034 0.670732C30.7287 1.11518 30.11 1.72629 29.6679 2.48645C29.2245 3.24661 29 4.09214 29 4.99729C29 6.34959 29.4818 7.53387 30.4317 8.51626C31.3843 9.50136 32.5957 10 34.0315 10C35.4673 10 36.5883 9.51355 37.5505 8.55556C38.5127 7.59756 39 6.41057 39 5.0271C39 3.64363 38.5059 2.43225 37.5313 1.46206V1.46341ZM36.0695 7.1355C35.5029 7.71138 34.8363 7.99187 34.0315 7.99187C33.3184 7.99187 32.7024 7.77507 32.1508 7.33062C31.4432 6.76287 31.0983 6.00948 31.0983 5.02981C31.0983 4.1477 31.372 3.44309 31.9359 2.87398C32.4985 2.30623 33.1733 2.02981 34 2.02981C34.8267 2.02981 35.4919 2.31301 36.0627 2.89566C36.6348 3.47967 36.9127 4.17344 36.9127 5.01761C36.9127 5.86179 36.6362 6.55827 36.0695 7.13686V7.1355Z" fill="white"/>
<path d="M34.5 16C35.8807 16 37 14.8807 37 13.5C37 12.1193 35.8807 11 34.5 11C33.1193 11 32 12.1193 32 13.5C32 14.8807 33.1193 16 34.5 16Z" fill="white"/>
</g>
<defs>
<clipPath id="clip0_2195_6353">
<rect width="80" height="16" fill="white"/>
</clipPath>
</defs>
</svg>
