<svg width="1440" height="201" viewBox="0 0 1440 201" fill="none" xmlns="http://www.w3.org/2000/svg">
<path d="M493 81.2637C495.803 81.5163 498 83.8713 498 86.7402C498 89.609 495.803 91.9621 493 92.2148V133.255C497.462 133.514 501 137.214 501 141.74C501 146.267 497.462 149.965 493 150.224V157.264C495.803 157.516 498 159.871 498 162.74C498 165.609 495.803 167.963 493 168.216V200.24H492V168.216C489.197 167.963 487 165.609 487 162.74C487 159.871 489.197 157.516 492 157.264V150.224C487.538 149.965 484 146.267 484 141.74C484 137.214 487.538 133.514 492 133.255V92.2148C489.197 91.9621 487 89.609 487 86.7402C487 83.8713 489.197 81.5163 492 81.2637V64.9971H492.663L492.658 59.916L486.367 59.9082L486.362 53.5605L480.072 53.5537L480.077 59.9014L473.786 59.8945L473.791 64.9971H455.357L455.352 59.8086L449.064 59.8008L449.059 53.4531L442.771 53.4463L442.776 59.7939L436.488 59.7871L436.493 64.9971H417.685L417.68 59.7656L423.967 59.7725L423.962 53.4248L430.25 53.4316L430.244 47.084L436.531 47.0908L436.525 40.7432L430.237 40.7363L430.232 34.3877L423.945 34.3809L423.95 40.7285L417.662 40.7217L417.668 47.0693L411.381 47.0625L411.387 53.4111L405.099 53.4033L405.093 47.0557L398.805 47.0488L398.799 40.7002L405.087 40.708L405.081 34.3594L411.369 34.3662L411.363 28.0186L417.651 28.0254L417.646 21.6777L411.358 21.6709L411.352 15.3223L405.064 15.3154L405.059 8.96777L398.771 8.95996L398.765 2.6123L405.053 2.61914L405.051 0H411.339L411.341 2.62695L417.629 2.63379L417.635 8.98145L423.923 8.98926L423.928 15.3369L430.216 15.3438L430.21 8.99609L436.498 9.00293L436.492 2.65527L430.204 2.64746L430.202 0H460.767L460.77 3.31738L454.516 3.31055L454.521 9.63867L448.267 9.63184L448.272 15.9609L442.019 15.9531L442.024 22.2822L435.771 22.2744L435.775 28.6035L442.029 28.6104L442.036 34.9385L448.29 34.9453L448.295 41.2744L454.549 41.2812L454.555 47.6094L460.809 47.6162L460.813 53.9453L467.067 53.9521L467.062 47.624L473.316 47.6309L473.311 41.3027L479.564 41.3096L479.56 34.9814L485.813 34.9883L485.808 28.6592L492.062 28.667L492.057 22.3379L485.803 22.3311L485.796 16.0029L479.542 15.9961L479.536 9.66699L473.282 9.66016L473.277 3.33203L467.023 3.3252L467.021 0H498.896L498.897 2.79102L492.606 2.78418L492.612 9.13184L498.902 9.13867L498.908 15.4863L505.199 15.4941L505.192 9.14551L511.483 9.15332L511.479 2.80469L517.769 2.8125L517.767 0H524.057L524.059 2.81934L530.35 2.82617L530.354 9.17383L524.064 9.16699L524.07 15.5156L517.78 15.5078L517.786 21.8564L511.495 21.8486L511.501 28.1973L517.791 28.2041L517.797 34.5518L524.088 34.5596L524.093 40.9072L530.383 40.9141L530.389 47.2627L524.099 47.2549L524.104 53.6035L517.814 53.5957L517.809 47.248L511.518 47.2412L511.512 40.8926L505.222 40.8857L505.216 34.5381L498.926 34.5312L498.931 40.8789L492.641 40.8721L492.646 47.2197L498.937 47.2266L498.943 53.5752L505.233 53.582L505.238 59.9297L511.529 59.9375L511.534 64.9971H493V81.2637Z" fill="#C43418"/>
<path d="M567.5 79.2637C570.303 79.5163 572.5 81.8713 572.5 84.7402C572.5 87.609 570.303 89.9621 567.5 90.2148V97.2549C571.962 97.5137 575.5 101.214 575.5 105.74C575.5 110.267 571.962 113.965 567.5 114.224V122.264C570.303 122.516 572.5 124.871 572.5 127.74C572.5 130.609 570.303 132.963 567.5 133.216V171.264C570.303 171.516 572.5 173.871 572.5 176.74C572.5 179.609 570.303 181.963 567.5 182.216V200.24H566.5V182.216C563.697 181.963 561.5 179.609 561.5 176.74C561.5 173.871 563.697 171.516 566.5 171.264V133.216C563.697 132.963 561.5 130.609 561.5 127.74C561.5 124.871 563.697 122.516 566.5 122.264V114.224C562.038 113.965 558.5 110.267 558.5 105.74C558.5 101.214 562.038 97.5137 566.5 97.2549V90.2148C563.697 89.9621 561.5 87.609 561.5 84.7402C561.5 81.8713 563.697 79.5163 566.5 79.2637V64.9971H567.5V79.2637Z" fill="#C43418"/>
<path d="M642 81.2637C644.803 81.5163 647 83.8713 647 86.7402C647 89.609 644.803 91.9621 642 92.2148V133.255C646.462 133.514 650 137.214 650 141.74C650 146.267 646.462 149.965 642 150.224V157.264C644.803 157.516 647 159.871 647 162.74C647 165.609 644.803 167.963 642 168.216V200.24H641V168.216C638.197 167.963 636 165.609 636 162.74C636 159.871 638.197 157.516 641 157.264V150.224C636.538 149.965 633 146.267 633 141.74C633 137.214 636.538 133.514 641 133.255V92.2148C638.197 91.9621 636 89.609 636 86.7402C636 83.8713 638.197 81.5163 641 81.2637V64.9971H642V81.2637Z" fill="#C43418"/>
<path d="M716.5 79.2637C719.303 79.5163 721.5 81.8713 721.5 84.7402C721.5 87.609 719.303 89.9621 716.5 90.2148V97.2549C720.962 97.5137 724.5 101.214 724.5 105.74C724.5 110.267 720.962 113.965 716.5 114.224V122.264C719.303 122.516 721.5 124.871 721.5 127.74C721.5 130.609 719.303 132.963 716.5 133.216V171.264C719.303 171.516 721.5 173.871 721.5 176.74C721.5 179.609 719.303 181.963 716.5 182.216V200.24H715.5V182.216C712.697 181.963 710.5 179.609 710.5 176.74C710.5 173.871 712.697 171.516 715.5 171.264V133.216C712.697 132.963 710.5 130.609 710.5 127.74C710.5 124.871 712.697 122.516 715.5 122.264V114.224C711.038 113.965 707.5 110.267 707.5 105.74C707.5 101.214 711.038 97.5137 715.5 97.2549V90.2148C712.697 89.9621 710.5 87.609 710.5 84.7402C710.5 81.8713 712.697 79.5163 715.5 79.2637V64.9971H716.5V79.2637Z" fill="#C43418"/>
<path d="M791 81.2637C793.803 81.5163 796 83.8713 796 86.7402C796 89.609 793.803 91.9621 791 92.2148V133.255C795.462 133.514 799 137.214 799 141.74C799 146.267 795.462 149.965 791 150.224V157.264C793.803 157.516 796 159.871 796 162.74C796 165.609 793.803 167.963 791 168.216V200.24H790V168.216C787.197 167.963 785 165.609 785 162.74C785 159.871 787.197 157.516 790 157.264V150.224C785.538 149.965 782 146.267 782 141.74C782 137.214 785.538 133.514 790 133.255V92.2148C787.197 91.9621 785 89.609 785 86.7402C785 83.8713 787.197 81.5163 790 81.2637V64.9971H791V81.2637Z" fill="#C43418"/>
<path d="M865.5 79.2637C868.303 79.5163 870.5 81.8713 870.5 84.7402C870.5 87.609 868.303 89.9621 865.5 90.2148V97.2549C869.962 97.5137 873.5 101.214 873.5 105.74C873.5 110.267 869.962 113.965 865.5 114.224V122.264C868.303 122.516 870.5 124.871 870.5 127.74C870.5 130.609 868.303 132.963 865.5 133.216V171.264C868.303 171.516 870.5 173.871 870.5 176.74C870.5 179.609 868.303 181.963 865.5 182.216V200.24H864.5V182.216C861.697 181.963 859.5 179.609 859.5 176.74C859.5 173.871 861.697 171.516 864.5 171.264V133.216C861.697 132.963 859.5 130.609 859.5 127.74C859.5 124.871 861.697 122.516 864.5 122.264V114.224C860.038 113.965 856.5 110.267 856.5 105.74C856.5 101.214 860.038 97.5137 864.5 97.2549V90.2148C861.697 89.9621 859.5 87.609 859.5 84.7402C859.5 81.8713 861.697 79.5163 864.5 79.2637V64.9971H865.5V79.2637Z" fill="#C43418"/>
<path d="M940 81.2637C942.803 81.5163 945 83.8713 945 86.7402C945 89.609 942.803 91.9621 940 92.2148V133.255C944.462 133.514 948 137.214 948 141.74C948 146.267 944.462 149.965 940 150.224V157.264C942.803 157.516 945 159.871 945 162.74C945 165.609 942.803 167.963 940 168.216V200.24H939V168.216C936.197 167.963 934 165.609 934 162.74C934 159.871 936.197 157.516 939 157.264V150.224C934.538 149.965 931 146.267 931 141.74C931 137.214 934.538 133.514 939 133.255V92.2148C936.197 91.9621 934 89.609 934 86.7402C934 83.8713 936.197 81.5163 939 81.2637V64.9971H940V81.2637Z" fill="#C43418"/>
<path d="M1014.5 79.2637C1017.3 79.5163 1019.5 81.8713 1019.5 84.7402C1019.5 87.609 1017.3 89.9621 1014.5 90.2148V97.2549C1018.96 97.5137 1022.5 101.214 1022.5 105.74C1022.5 110.267 1018.96 113.965 1014.5 114.224V122.264C1017.3 122.516 1019.5 124.871 1019.5 127.74C1019.5 130.609 1017.3 132.963 1014.5 133.216V171.264C1017.3 171.516 1019.5 173.871 1019.5 176.74C1019.5 179.609 1017.3 181.963 1014.5 182.216V200.24H1013.5V182.216C1010.7 181.963 1008.5 179.609 1008.5 176.74C1008.5 173.871 1010.7 171.516 1013.5 171.264V133.216C1010.7 132.963 1008.5 130.609 1008.5 127.74C1008.5 124.871 1010.7 122.516 1013.5 122.264V114.224C1009.04 113.965 1005.5 110.267 1005.5 105.74C1005.5 101.214 1009.04 97.5137 1013.5 97.2549V90.2148C1010.7 89.9621 1008.5 87.609 1008.5 84.7402C1008.5 81.8713 1010.7 79.5163 1013.5 79.2637V64.9971H1014.5V79.2637Z" fill="#C43418"/>
<path d="M1089 81.2637C1091.8 81.5163 1094 83.8713 1094 86.7402C1094 89.609 1091.8 91.9621 1089 92.2148V133.255C1093.46 133.514 1097 137.214 1097 141.74C1097 146.267 1093.46 149.965 1089 150.224V157.264C1091.8 157.516 1094 159.871 1094 162.74C1094 165.609 1091.8 167.963 1089 168.216V200.24H1088V168.216C1085.2 167.963 1083 165.609 1083 162.74C1083 159.871 1085.2 157.516 1088 157.264V150.224C1083.54 149.965 1080 146.267 1080 141.74C1080 137.214 1083.54 133.514 1088 133.255V92.2148C1085.2 91.9621 1083 89.609 1083 86.7402C1083 83.8713 1085.2 81.5163 1088 81.2637V64.9971H1089V81.2637Z" fill="#C43418"/>
<path fill-rule="evenodd" clip-rule="evenodd" d="M1163.5 79.2637C1166.3 79.5163 1168.5 81.8713 1168.5 84.7402C1168.5 87.609 1166.3 89.9621 1163.5 90.2148V97.2549C1167.96 97.5137 1171.5 101.214 1171.5 105.74C1171.5 110.267 1167.96 113.965 1163.5 114.224V122.264C1166.3 122.516 1168.5 124.871 1168.5 127.74C1168.5 130.609 1166.3 132.963 1163.5 133.216V171.264C1166.3 171.516 1168.5 173.871 1168.5 176.74C1168.5 179.609 1166.3 181.963 1163.5 182.216V200.24H1162.5V182.216C1159.7 181.963 1157.5 179.609 1157.5 176.74C1157.5 173.871 1159.7 171.516 1162.5 171.264V133.216C1159.7 132.963 1157.5 130.609 1157.5 127.74C1157.5 124.871 1159.7 122.516 1162.5 122.264V114.224C1158.04 113.965 1154.5 110.267 1154.5 105.74C1154.5 101.214 1158.04 97.5137 1162.5 97.2549V90.2148C1159.7 89.9621 1157.5 87.609 1157.5 84.7402C1157.5 81.8713 1159.7 79.5163 1162.5 79.2637V64.9971H1158.48L1158.48 60.7246L1152.19 60.7314L1152.19 54.3838L1145.9 54.3906L1145.9 60.7383L1139.61 60.7461L1139.6 64.9971H1120.73L1120.74 60.7666L1127.03 60.7598L1127.03 54.4121L1133.32 54.4043L1133.33 48.0566L1139.62 48.0498L1139.62 41.7012L1133.33 41.709L1133.34 35.3604L1127.05 35.3682L1127.04 41.7158L1120.75 41.7227L1120.75 48.0713L1117.01 48.0762L1117.01 33.793L1117 48.0762L1113.27 48.0713L1113.26 41.7227L1106.97 41.7158L1106.97 35.3682L1100.68 35.3604L1100.68 41.709L1094.39 41.7012L1094.4 48.0498L1100.69 48.0566L1100.69 54.4043L1106.98 54.4121L1106.99 60.7598L1113.28 60.7666L1113.28 64.9971H1094.41L1094.41 60.7461L1088.12 60.7383L1088.11 54.3906L1081.82 54.3838L1081.83 60.7314L1075.54 60.7246L1075.54 64.9971H1057.11L1057.1 60.6377L1050.82 60.6309L1050.81 54.2832L1044.52 54.2764L1044.53 60.624L1038.24 60.6172L1038.25 64.9971H1019.44L1019.43 60.5957L1025.72 60.6025L1025.71 54.2549L1032 54.2617L1032 47.9141L1038.28 47.9209L1038.28 41.5732L1031.99 41.5654L1031.99 35.2178L1025.7 35.2109L1025.7 41.5586L1019.41 41.5518L1019.42 47.8994L1013.13 47.8926L1013.14 54.2402L1006.85 54.2334L1006.84 47.8857L1000.56 47.8779L1000.55 41.5303L1006.84 41.5371L1006.83 35.1895L1013.12 35.1963L1013.12 28.8486L1019.4 28.8555L1019.4 22.5078L1013.11 22.501L1013.1 16.1523L1006.82 16.1455L1006.81 9.79785L1000.52 9.79004L1000.52 3.44238L1006.8 3.44922L1006.8 0H1013.09L1013.09 3.45605L1019.38 3.46387L1019.39 9.81152L1025.67 9.81836L1025.68 16.167L1031.97 16.1738L1031.96 9.82617L1038.25 9.83301L1038.24 3.48535L1031.96 3.47754L1031.95 0H1062.52L1062.52 4.14746L1056.27 4.14062L1056.27 10.4688L1050.02 10.4619L1050.02 16.79L1043.77 16.7832L1043.77 23.1123L1037.52 23.1045L1037.53 29.4336L1043.78 29.4404L1043.79 35.7686L1050.04 35.7754L1050.04 42.1045L1056.3 42.1113L1056.3 48.4395L1062.56 48.4463L1062.56 54.7754L1068.82 54.7822L1068.81 48.4541L1075.07 48.4609L1075.06 42.1328L1081.31 42.1396L1081.31 35.8115L1087.56 35.8184L1087.56 29.4893L1093.81 29.4971L1093.81 23.168L1087.55 23.1611L1087.55 16.833L1081.29 16.8262L1081.29 10.4971L1075.03 10.4902L1075.03 4.16211L1068.77 4.15527L1068.77 0H1100.64L1100.65 3.62109L1094.36 3.61328L1094.36 9.96191L1100.65 9.96875L1100.66 16.3164L1106.95 16.3242L1106.94 9.97559L1113.23 9.98242L1113.23 3.63477L1117.01 3.63867L1120.79 3.63477L1120.78 9.98242L1127.07 9.97559L1127.07 16.3242L1133.36 16.3164L1133.36 9.96875L1139.65 9.96191L1139.66 3.61328L1133.37 3.62109L1133.37 0H1165.25L1165.24 4.15527L1158.99 4.16211L1158.98 10.4902L1152.73 10.4971L1152.72 16.8262L1146.47 16.833L1146.46 23.1611L1140.21 23.168L1140.2 29.4971L1146.46 29.4893L1146.45 35.8184L1152.71 35.8115L1152.7 42.1396L1158.96 42.1328L1158.95 48.4609L1165.2 48.4541L1165.2 54.7822L1171.45 54.7754L1171.46 48.4463L1177.71 48.4395L1177.72 42.1113L1183.97 42.1045L1183.98 35.7754L1190.23 35.7686L1190.24 29.4404L1196.49 29.4336L1196.5 23.1045L1190.24 23.1123L1190.25 16.7832L1183.99 16.79L1184 10.4619L1177.75 10.4688L1177.75 4.14062L1171.5 4.14746L1171.5 0H1202.06L1202.06 3.47754L1195.77 3.48535L1195.77 9.83301L1202.05 9.82617L1202.05 16.1738L1208.34 16.167L1208.34 9.81836L1214.63 9.81152L1214.63 3.46387L1220.92 3.45605L1220.93 0H1227.21L1227.21 3.44922L1233.5 3.44238L1233.49 9.79004L1227.21 9.79785L1227.2 16.1455L1220.91 16.1523L1220.91 22.501L1214.62 22.5078L1214.61 28.8555L1220.9 28.8486L1220.89 35.1963L1227.18 35.1895L1227.18 41.5371L1233.46 41.5303L1233.46 47.8779L1227.17 47.8857L1227.17 54.2334L1220.88 54.2402L1220.88 47.8926L1214.59 47.8994L1214.6 41.5518L1208.31 41.5586L1208.32 35.2109L1202.03 35.2178L1202.03 41.5654L1195.74 41.5732L1195.73 47.9209L1202.02 47.9141L1202.01 54.2617L1208.3 54.2549L1208.3 60.6025L1214.58 60.5957L1214.58 64.9971H1195.77L1195.78 60.6172L1189.49 60.624L1189.49 54.2764L1183.21 54.2832L1183.2 60.6309L1176.91 60.6377L1176.91 64.9971H1163.5V79.2637ZM1117.01 22.6826L1117.01 22.6836L1117 22.6826L1113.24 22.6787L1113.25 29.0273L1117.01 29.0312L1120.76 29.0273L1120.77 22.6787L1117.01 22.6826Z" fill="#C43418"/>
<path d="M1238 81.2637C1240.8 81.5163 1243 83.8713 1243 86.7402C1243 89.609 1240.8 91.9621 1238 92.2148V133.255C1242.46 133.514 1246 137.214 1246 141.74C1246 146.267 1242.46 149.965 1238 150.224V157.264C1240.8 157.516 1243 159.871 1243 162.74C1243 165.609 1240.8 167.963 1238 168.216V200.24H1237V168.216C1234.2 167.963 1232 165.609 1232 162.74C1232 159.871 1234.2 157.516 1237 157.264V150.224C1232.54 149.965 1229 146.267 1229 141.74C1229 137.214 1232.54 133.514 1237 133.255V92.2148C1234.2 91.9621 1232 89.609 1232 86.7402C1232 83.8713 1234.2 81.5163 1237 81.2637V64.9971H1233.45L1233.45 60.6016L1239.74 60.5947L1239.75 54.2471L1246.04 54.2393L1246.03 60.5879L1252.32 60.5811L1252.31 64.9971H1238V81.2637Z" fill="#C43418"/>
<path d="M1312.5 79.2637C1315.3 79.5163 1317.5 81.8713 1317.5 84.7402C1317.5 87.609 1315.3 89.9621 1312.5 90.2148V97.2549C1316.96 97.5137 1320.5 101.214 1320.5 105.74C1320.5 110.267 1316.96 113.965 1312.5 114.224V122.264C1315.3 122.516 1317.5 124.871 1317.5 127.74C1317.5 130.609 1315.3 132.963 1312.5 133.216V171.264C1315.3 171.516 1317.5 173.871 1317.5 176.74C1317.5 179.609 1315.3 181.963 1312.5 182.216V200.24H1311.5V182.216C1308.7 181.963 1306.5 179.609 1306.5 176.74C1306.5 173.871 1308.7 171.516 1311.5 171.264V133.216C1308.7 132.963 1306.5 130.609 1306.5 127.74C1306.5 124.871 1308.7 122.516 1311.5 122.264V114.224C1307.04 113.965 1303.5 110.267 1303.5 105.74C1303.5 101.214 1307.04 97.5137 1311.5 97.2549V90.2148C1308.7 89.9621 1306.5 87.609 1306.5 84.7402C1306.5 81.8713 1308.7 79.5163 1311.5 79.2637V64.9971H1308.91L1308.92 60.5166L1302.63 60.5234L1302.63 54.1758L1296.35 54.1826L1296.34 60.5312L1290.05 60.5381L1290.05 64.9971H1271.18L1271.19 60.5596L1277.48 60.5518L1277.48 54.2041L1283.77 54.1973L1283.77 47.8496L1290.06 47.8418L1290.07 41.4941L1283.78 41.501L1283.79 35.1533L1277.5 35.1602L1277.49 41.5078L1271.21 41.5156L1271.2 47.8633L1264.91 47.8701L1264.91 54.2188L1258.62 54.2256L1258.62 47.8779L1252.34 47.8848L1252.34 41.5361L1258.63 41.5293L1258.63 35.1816L1264.92 35.1748L1264.93 28.8262L1271.22 28.8193L1271.22 22.4717L1264.93 22.4785L1264.94 16.1309L1258.65 16.1377L1258.66 9.78906L1252.37 9.79688L1252.38 3.44824L1258.66 3.44141L1258.67 0H1264.95L1264.95 3.43457L1271.24 3.42773L1271.23 9.77539L1277.52 9.76855L1277.52 16.1162L1283.8 16.1094L1283.81 9.76074L1290.1 9.75391L1290.1 3.40625L1283.81 3.41309L1283.82 0H1315.69L1315.68 3.94727L1309.43 3.9541L1309.42 10.2822L1303.17 10.29L1303.16 16.6182L1296.91 16.625L1296.9 22.9531L1290.65 22.9609L1290.64 29.2891L1296.9 29.2822L1296.89 35.6104L1303.15 35.6035L1303.14 41.9316L1309.4 41.9248L1309.39 48.2529L1315.64 48.2461L1315.64 54.5742L1321.89 54.5674L1321.9 48.2393L1328.15 48.2314L1328.16 41.9033L1334.41 41.8965L1334.42 35.5684L1340.67 35.5605L1340.68 29.2324L1346.93 29.2256L1346.94 22.8975L1340.68 22.9043L1340.69 16.5762L1334.43 16.583L1334.44 10.2539L1328.19 10.2617L1328.19 3.93262L1321.94 3.94043L1321.94 0H1353.18L1353.18 3.34668L1346.89 3.35352L1346.89 9.70215L1353.17 9.69531L1353.17 16.043L1359.45 16.0361L1359.46 9.6875L1365.75 9.68066L1365.75 3.33301L1372.04 3.3252L1372.04 0H1378.33L1378.33 3.31836L1384.61 3.31152L1384.61 9.65918L1378.32 9.66602L1378.32 16.0146L1372.03 16.0215L1372.02 22.3691L1365.74 22.377L1365.73 28.7246L1372.02 28.7178L1372.01 35.0654L1378.3 35.0586L1378.29 41.4062L1384.58 41.3994L1384.57 47.7471L1378.29 47.7549L1378.28 54.1025L1371.99 54.1094L1372 47.7617L1365.71 47.7686L1365.72 41.4209L1359.43 41.4277L1359.44 35.0801L1353.15 35.0869L1353.15 41.4346L1346.86 41.4424L1346.85 47.79L1353.14 47.7832L1353.13 54.1309L1359.42 54.124L1359.42 60.4717L1365.7 60.4648L1365.7 64.9971H1346.87L1346.88 60.4863L1340.59 60.4932L1340.59 54.1455L1334.31 54.1523L1334.3 60.5L1328.01 60.5068L1328.01 64.9971H1312.5V79.2637Z" fill="#C43418"/>
<path d="M1387 81.2637C1389.8 81.5163 1392 83.8713 1392 86.7402C1392 89.609 1389.8 91.9621 1387 92.2148V133.255C1391.46 133.514 1395 137.214 1395 141.74C1395 146.267 1391.46 149.965 1387 150.224V157.264C1389.8 157.516 1392 159.871 1392 162.74C1392 165.609 1389.8 167.963 1387 168.216V200.24H1386V168.216C1383.2 167.963 1381 165.609 1381 162.74C1381 159.871 1383.2 157.516 1386 157.264V150.224C1381.54 149.965 1378 146.267 1378 141.74C1378 137.214 1381.54 133.514 1386 133.255V92.2148C1383.2 91.9621 1381 89.609 1381 86.7402C1381 83.8713 1383.2 81.5163 1386 81.2637V64.9971H1384.56L1384.57 60.4707L1390.86 60.4639L1390.86 54.1162L1397.15 54.1084L1397.14 60.457L1403.43 60.4492L1403.43 64.9971H1387V81.2637Z" fill="#C43418"/>
<path d="M417 81.2549C421.462 81.5137 425 85.2137 425 89.7402C425 94.2666 421.461 97.9648 417 98.2236V106.264C419.803 106.516 422 108.871 422 111.74C422 114.609 419.803 116.963 417 117.216V155.264C419.803 155.516 422 157.871 422 160.74C422 163.609 419.803 165.963 417 166.216V189.192H416V166.216C413.197 165.963 411 163.609 411 160.74C411 157.871 413.197 155.516 416 155.264V117.216C413.197 116.963 411 114.609 411 111.74C411 108.871 413.197 106.516 416 106.264V98.2236C411.539 97.9648 408 94.2666 408 89.7402C408 85.2137 411.538 81.5137 416 81.2549V64.9971H417V81.2549Z" fill="#C43418"/>
<path d="M341.5 87.2549C345.962 87.5137 349.5 91.2137 349.5 95.7402C349.5 100.267 345.961 103.965 341.5 104.224V112.264C344.303 112.516 346.5 114.871 346.5 117.74C346.5 120.609 344.303 122.963 341.5 123.216V169.169H340.5V123.216C337.697 122.963 335.5 120.609 335.5 117.74C335.5 114.871 337.697 112.516 340.5 112.264V104.224C336.039 103.965 332.5 100.267 332.5 95.7402C332.5 91.2137 336.038 87.5137 340.5 87.2549V64.9971H341.5V87.2549Z" fill="#C43418"/>
<path d="M46.9873 2.91016L40.6992 2.90332L40.7041 9.25098L46.9922 9.25781L46.998 15.6064L53.2861 15.6133L53.2803 9.26562L59.5684 9.27246L59.5625 2.9248L65.8506 2.93164L65.8486 0H72.1367L72.1387 2.93848L78.4268 2.94531L78.4316 9.29395L72.1436 9.28711L72.1494 15.6348L65.8623 15.6279L65.8682 21.9756L59.5801 21.9688L59.585 28.3164L65.873 28.3232L65.8789 34.6719L72.167 34.6787L72.1719 41.0264L78.46 41.0342L78.4658 47.3818L72.1777 47.375L72.1846 53.7227L65.8965 53.7158L65.8906 47.3672L59.6025 47.3604L59.5967 41.0127L53.3086 41.0059L53.3037 34.6572L47.0156 34.6504L47.0205 40.998L40.7334 40.9912L40.7393 47.3389L47.0273 47.3467L47.0332 53.6943L53.3203 53.7012L53.3262 60.0498L59.6133 60.0566L59.6182 64.9971H40.7549L40.75 60.0352L34.4629 60.0283L34.457 53.6797L28.1699 53.6729L28.1748 60.0215L21.8867 60.0137L21.8906 64.9971H2.82227L2.81738 59.8955L0 59.8926L0.00390625 40.6553L3.23535 40.6582L3.24121 46.9863L9.49512 46.9941L9.50098 53.3223L15.7549 53.3291L15.749 47.001L22.0029 47.0078L21.9971 40.6797L28.251 40.6865L28.2461 34.3584L34.5 34.3652L34.4941 28.0371L40.748 28.0439L40.7432 21.7158L34.4893 21.708L34.4824 15.3799L28.2285 15.373L28.2236 9.04492L21.9697 9.03711L21.9639 2.70898L15.71 2.70215L15.708 0H46.9854L46.9873 2.91016Z" fill="#C43418"/>
<path d="M91.0547 53.7441L91.0596 60.0918L97.3477 60.0986L97.3516 64.9971H78.4883L78.4844 60.0781L84.7715 60.085L84.7666 53.7373L91.0547 53.7441Z" fill="#C43418"/>
<path d="M109.879 2.9541L116.167 2.96094L116.172 9.30859L122.46 9.31641L122.466 15.6641L128.754 15.6709L128.747 9.32324L135.035 9.33008L135.03 2.98242L128.742 2.97461L128.74 0H159.892L159.894 2.90234L153.64 2.89551L153.645 9.22363L147.391 9.2168L147.396 15.5449L141.143 15.5381L141.148 21.8662L134.895 21.8594L134.9 28.1875L141.154 28.1953L141.16 34.5234L147.414 34.5303L147.419 40.8594L153.673 40.8662L153.679 47.1943L159.933 47.2012L159.939 53.5303L166.193 53.5371L166.188 47.209L172.441 47.2158L172.435 40.8867L178.688 40.8945L178.684 34.5654L184.938 34.5732L184.932 28.2441L191.186 28.252L191.181 21.9229L184.927 21.916L184.921 15.5879L178.667 15.5801L178.66 9.25195L172.406 9.24512L172.401 2.91699L166.147 2.90918L166.146 0H197.343L197.345 2.45215L191.058 2.44531L191.063 8.79297L197.351 8.7998L197.355 15.1484L203.643 15.1553L203.638 8.80762L209.924 8.81445L209.918 2.46582L216.205 2.47363L216.203 0H222.489L222.491 2.48047L228.778 2.4873L228.784 8.83594L222.498 8.82812L222.503 15.1768L216.216 15.1689L216.222 21.5176L209.936 21.5107L209.94 27.8584L216.228 27.8652L216.233 34.2139L222.521 34.2207L222.525 40.5684L228.812 40.5752L228.818 46.9238L222.531 46.916L222.537 53.2646L216.251 53.2578L216.244 46.9092L209.958 46.9023L209.951 40.5547L203.665 40.5469L203.659 34.1992L197.373 34.1924L197.378 40.54L191.091 40.5332L191.097 46.8809L197.384 46.8877L197.39 53.2363L203.677 53.2432L203.682 59.5908L209.969 59.5986L209.974 64.9971H191.113L191.108 59.5771L184.821 59.5703L184.816 53.2217L178.529 53.2148L178.535 59.5625L172.248 59.5557L172.253 64.9971H153.895L153.89 60.1357L147.603 60.1279L147.597 53.7803L141.31 53.7734L141.314 60.1211L135.026 60.1143L135.03 64.9971H116.222L116.218 60.0928L122.506 60.0996L122.5 53.752L128.788 53.7588L128.782 47.4111L135.07 47.418L135.063 41.0703L128.776 41.0635L128.771 34.7148L122.483 34.708L122.488 41.0557L116.2 41.0488L116.206 47.3965L109.919 47.3896L109.925 53.7373L103.637 53.7305L103.631 47.3828L97.3428 47.376L97.3369 41.0273L103.625 41.0352L103.619 34.6865L109.907 34.6934L109.901 28.3457L116.189 28.3525L116.184 22.0049L109.896 21.998L109.891 15.6494L103.603 15.6426L103.597 9.29492L97.3086 9.28711L97.3037 2.93945L103.591 2.94629L103.589 0H109.877L109.879 2.9541Z" fill="#C43418"/>
<path d="M241.405 53.2861L241.41 59.6338L247.696 59.6406L247.702 64.9971H228.842L228.836 59.6191L235.123 59.627L235.118 53.2783L241.405 53.2861Z" fill="#C43418"/>
<path d="M260.227 2.49512L266.513 2.50293L266.52 8.85059L272.806 8.85742L272.812 15.2061L279.098 15.2129L279.093 8.86523L285.38 8.87207L285.374 2.52344L279.087 2.5166L279.085 0H310.329L310.331 3.11035L304.077 3.10254L304.083 9.43164L297.828 9.4248L297.835 15.7529L291.581 15.7461L291.587 22.0742L285.333 22.0674L285.338 28.3955L291.592 28.4023L291.598 34.7305L297.852 34.7383L297.856 41.0664L304.111 41.0732L304.117 47.4014L310.371 47.4092L310.377 53.7373L316.631 53.7441L316.625 47.416L322.879 47.4229L322.873 41.0947L329.127 41.1016L329.122 34.7734L335.376 34.7803L335.369 28.4521L341.623 28.459L341.618 22.1309L335.364 22.123L335.358 15.7949L329.104 15.7881L329.099 9.45996L322.845 9.45215L322.839 3.12402L316.585 3.11719L316.583 0H348.447L348.449 2.58301L342.161 2.57617L342.167 8.92383L348.455 8.93164L348.46 15.2793L354.748 15.2861L354.743 8.93848L361.03 8.94531L361.024 2.59766L367.312 2.60449L367.311 0H373.599L373.601 2.61133L379.888 2.61816L379.895 8.9668L373.606 8.95996L373.611 15.3076L367.323 15.3008L367.33 21.6484L361.042 21.6416L361.047 27.9893L367.335 27.9961L367.341 34.3447L373.629 34.3516L373.634 40.6992L379.922 40.707L379.928 47.0547L373.64 47.0479L373.646 53.3955L367.358 53.3887L367.353 47.04L361.064 47.0332L361.059 40.6855L354.771 40.6787L354.766 34.3301L348.478 34.3232L348.482 40.6709L342.194 40.6641L342.201 47.0117L348.488 47.0195L348.495 53.3672L354.782 53.374L354.788 59.7227L361.075 59.7295L361.081 64.9971H342.217L342.212 59.708L335.924 59.7012L335.919 53.3525L329.631 53.3457L329.637 59.6943L323.349 59.6865L323.354 64.9971H304.256L304.251 59.6768L297.964 59.6699L297.959 53.3223L291.672 53.3154L291.678 59.6631L285.391 59.6562L285.396 64.9971H266.569L266.564 59.6348L272.851 59.6416L272.846 53.2939L279.133 53.3008L279.127 46.9531L285.413 46.96L285.407 40.6123L279.12 40.6045L279.115 34.2568L272.828 34.25L272.834 40.5977L266.547 40.5908L266.553 46.9385L260.266 46.9316L260.272 53.2793L253.985 53.2725L253.979 46.9248L247.692 46.917L247.687 40.5693L253.973 40.5762L253.968 34.2285L260.255 34.2354L260.249 27.8877L266.535 27.8945L266.53 21.5469L260.243 21.5391L260.237 15.1914L253.951 15.1846L253.945 8.83691L247.659 8.8291L247.652 2.48145L253.939 2.48828L253.938 0H260.225L260.227 2.49512Z" fill="#C43418"/>
<path d="M392.517 53.417L392.521 59.7646L398.81 59.7725L398.814 64.9971H379.951L379.945 59.751L386.233 59.7578L386.229 53.4102L392.517 53.417Z" fill="#C43418"/>
<path d="M542.982 53.625L542.988 59.9727L549.278 59.9795L549.283 64.9971H530.412L530.407 59.958L536.697 59.9658L536.692 53.6172L542.982 53.625Z" fill="#C43418"/>
<path d="M561.815 2.86816L568.105 2.87598L568.11 9.22363L574.401 9.23047L574.407 15.5791L580.697 15.5859L580.691 9.23828L586.982 9.24512L586.977 2.89746L580.687 2.88965L580.685 0H611.203L611.206 3.52441L604.952 3.51758L604.957 9.84668L598.703 9.83887L598.709 16.168L592.455 16.1602L592.46 22.4893L586.206 22.4814L586.212 28.8105L592.466 28.8174L592.472 35.1455L598.727 35.1523L598.731 41.4814L604.985 41.4883L604.991 47.8164L611.245 47.8242L611.25 54.1523L617.504 54.1592L617.499 47.8311L623.753 47.8379L623.747 41.5098L630.001 41.5166L629.996 35.1885L636.25 35.1953L636.244 28.8672L642.498 28.874L642.491 22.5449L636.237 22.5381L636.232 16.21L629.979 16.2031L629.973 9.87402L623.719 9.86719L623.714 3.53906L617.46 3.53223L617.457 0H648.734L648.737 3.74023L642.449 3.7334L642.454 10.0811L648.742 10.0879L648.748 16.4365L655.036 16.4434L655.03 10.0957L661.317 10.1025L661.312 3.75488L667.601 3.76172L667.598 0H673.885L673.889 3.76855L680.176 3.77539L680.182 10.124L673.894 10.1162L673.899 16.4648L667.611 16.457L667.617 22.8057L661.329 22.7988L661.335 29.1465L667.623 29.1533L667.629 35.502L673.917 35.5088L673.922 41.8564L680.21 41.8633L680.216 48.2119L673.928 48.2051L673.934 54.5527L667.646 54.5459L667.641 48.1973L661.353 48.1904L661.347 41.8428L655.059 41.835L655.054 35.4873L648.766 35.4805L648.771 41.8281L642.482 41.8213L642.489 48.1689L648.776 48.1758L648.782 54.5244L655.069 54.5312L655.076 60.8789L661.363 60.8867L661.367 64.9971H642.504L642.5 60.8652L636.212 60.8584L636.206 54.5098L629.919 54.5029L629.925 60.8506L623.637 60.8438L623.641 64.9971H604.571L604.567 60.7256L598.315 60.7178L598.31 54.3545L592.051 54.3477L592.057 60.7109L585.805 60.7041L585.809 64.9971H568.161L568.156 60.0078L574.447 60.0146L574.441 53.667L580.732 53.6738L580.727 47.3262L587.017 47.333L587.011 40.9854L580.72 40.9775L580.715 34.6299L574.425 34.623L574.43 40.9707L568.14 40.9639L568.146 47.3115L561.854 47.3047L561.861 53.6523L555.57 53.6455L555.564 47.2979L549.274 47.29L549.268 40.9424L555.559 40.9492L555.554 34.6016L561.844 34.6084L561.838 28.2607L568.128 28.2676L568.123 21.9199L561.832 21.9131L561.826 15.5645L555.536 15.5576L555.53 9.20996L549.239 9.20215L549.234 2.85449L555.524 2.86133L555.522 0H561.813L561.815 2.86816Z" fill="#C43418"/>
<path d="M692.804 54.5742L692.81 60.9219L699.098 60.9287L699.101 64.9971H680.238L680.234 60.9082L686.521 60.915L686.516 54.5664L692.804 54.5742Z" fill="#C43418"/>
<path d="M711.629 3.7832L717.917 3.79102L717.922 10.1387L724.21 10.1455L724.216 16.4941L730.504 16.501L730.497 10.1533L736.785 10.1602L736.78 3.8125L730.492 3.80469L730.489 0H761.641L761.644 3.73242L755.39 3.72559L755.395 10.0537L749.141 10.0469L749.146 16.375L742.893 16.3682L742.897 22.6963L736.644 22.6895L736.65 29.0176L742.904 29.0254L742.91 35.3535L749.164 35.3604L749.169 41.6895L755.423 41.6963L755.429 48.0244L761.683 48.0312L761.688 54.3604L767.942 54.3672L767.937 48.0381L774.191 48.0459L774.185 41.7168L780.438 41.7246L780.434 35.3955L786.688 35.4033L786.682 29.0742L792.936 29.0811L792.93 22.7529L786.676 22.7461L786.671 16.418L780.417 16.4102L780.41 10.082L774.156 10.0752L774.151 3.74707L767.897 3.73926L767.895 0H799.092L799.095 3.28223L792.808 3.27539L792.812 9.62305L799.1 9.62988L799.105 15.9785L805.393 15.9854L805.386 9.6377L811.673 9.64453L811.668 3.2959L817.955 3.30371L817.952 0H824.238L824.241 3.31055L830.528 3.31738L830.533 9.66602L824.247 9.6582L824.253 16.0068L817.966 15.999L817.972 22.3477L811.686 22.3408L811.69 28.6885L817.978 28.6953L817.983 35.0439L824.271 35.0508L824.275 41.3984L830.562 41.4053L830.568 47.7539L824.281 47.7461L824.286 54.0947L818 54.0879L817.994 47.7393L811.708 47.7324L811.701 41.3848L805.415 41.377L805.409 35.0293L799.123 35.0225L799.128 41.3701L792.841 41.3633L792.847 47.7109L799.134 47.7178L799.139 54.0664L805.426 54.0732L805.432 60.4209L811.719 60.4287L811.723 64.9971H792.862L792.858 60.4072L786.571 60.4004L786.565 54.0518L780.278 54.0449L780.284 60.3926L773.998 60.3857L774.002 64.9971H755.644L755.64 60.9648L749.353 60.958L749.346 54.6104L743.059 54.6035L743.064 60.9512L736.776 60.9443L736.779 64.9971H717.971L717.968 60.9229L724.255 60.9297L724.249 54.582L730.537 54.5889L730.532 48.2412L736.819 48.248L736.813 41.9004L730.526 41.8926L730.521 35.5449L724.233 35.5381L724.238 41.8857L717.95 41.8789L717.956 48.2266L711.669 48.2197L711.674 54.5674L705.386 54.5605L705.381 48.2129L699.093 48.2051L699.087 41.8574L705.375 41.8643L705.369 35.5166L711.657 35.5234L711.651 29.1758L717.939 29.1826L717.933 22.835L711.646 22.8281L711.64 16.4795L705.353 16.4727L705.346 10.125L699.059 10.1172L699.054 3.76953L705.341 3.77637L705.338 0H711.626L711.629 3.7832Z" fill="#C43418"/>
<path d="M843.153 54.1162L843.16 60.4639L849.446 60.4707L849.451 64.9971H830.59L830.586 60.4492L836.873 60.457L836.867 54.1084L843.153 54.1162Z" fill="#C43418"/>
<path d="M861.977 3.3252L868.263 3.33301L868.269 9.68066L874.555 9.6875L874.562 16.0361L880.848 16.043L880.842 9.69531L887.129 9.70215L887.124 3.35352L880.837 3.34668L880.834 0H912.076L912.079 3.94043L905.825 3.93262L905.83 10.2617L899.576 10.2539L899.582 16.583L893.328 16.5762L893.333 22.9043L887.079 22.8975L887.086 29.2256L893.34 29.2324L893.346 35.5605L899.6 35.5684L899.604 41.8965L905.858 41.9033L905.864 48.2314L912.118 48.2393L912.124 54.5674L918.378 54.5742L918.373 48.2461L924.627 48.2529L924.62 41.9248L930.874 41.9316L930.869 35.6035L937.123 35.6104L937.117 29.2822L943.371 29.2891L943.365 22.9609L937.111 22.9531L937.106 16.625L930.853 16.6182L930.846 10.29L924.592 10.2822L924.587 3.9541L918.333 3.94727L918.33 0H950.198L950.201 3.41309L943.913 3.40625L943.919 9.75391L950.206 9.76074L950.213 16.1094L956.5 16.1162L956.494 9.76855L962.782 9.77539L962.776 3.42773L969.064 3.43457L969.062 0H975.35L975.353 3.44141L981.641 3.44824L981.646 9.79688L975.357 9.78906L975.363 16.1377L969.076 16.1309L969.082 22.4785L962.794 22.4717L962.799 28.8193L969.087 28.8262L969.093 35.1748L975.381 35.1816L975.386 41.5293L981.674 41.5361L981.68 47.8848L975.393 47.8779L975.397 54.2256L969.109 54.2188L969.104 47.8701L962.816 47.8633L962.811 41.5156L956.522 41.5078L956.518 35.1602L950.229 35.1533L950.234 41.501L943.947 41.4941L943.953 47.8418L950.241 47.8496L950.246 54.1973L956.534 54.2041L956.54 60.5518L962.828 60.5596L962.832 64.9971H943.969L943.964 60.5381L937.677 60.5312L937.67 54.1826L931.383 54.1758L931.389 60.5234L925.101 60.5166L925.104 64.9971H906.005L906.001 60.5068L899.714 60.5L899.708 54.1523L893.421 54.1455L893.428 60.4932L887.141 60.4863L887.145 64.9971H868.318L868.314 60.4648L874.601 60.4717L874.595 54.124L880.882 54.1309L880.876 47.7832L887.163 47.79L887.157 41.4424L880.87 41.4346L880.865 35.0869L874.578 35.0801L874.584 41.4277L868.297 41.4209L868.303 47.7686L862.016 47.7617L862.021 54.1094L855.734 54.1025L855.729 47.7549L849.442 47.7471L849.437 41.3994L855.723 41.4062L855.718 35.0586L862.005 35.0654L861.999 28.7178L868.285 28.7246L868.28 22.377L861.993 22.3691L861.987 16.0215L855.7 16.0146L855.694 9.66602L849.407 9.65918L849.402 3.31152L855.689 3.31836L855.687 0H861.974L861.977 3.3252Z" fill="#C43418"/>
<path d="M994.268 54.2471L994.273 60.5947L1000.56 60.6016L1000.57 64.9971H981.702L981.698 60.5811L987.985 60.5879L987.979 54.2393L994.268 54.2471Z" fill="#C43418"/>
<path d="M1440 64.9971H1422.29L1422.3 60.4287L1428.58 60.4209L1428.59 54.0732L1434.88 54.0664L1434.88 47.7178L1440 47.7119V64.9971Z" fill="#C43418"/>
<path d="M1416.06 3.30371L1422.35 3.2959L1422.34 9.64453L1428.63 9.6377L1428.62 15.9854L1434.91 15.9785L1434.92 9.62988L1440 9.62402V41.3643L1434.89 41.3701L1434.89 35.0225L1428.61 35.0293L1428.6 41.377L1422.31 41.3848L1422.31 47.7324L1416.02 47.7393L1416.02 54.0879L1409.73 54.0947L1409.73 47.7461L1403.45 47.7539L1403.45 41.4053L1409.74 41.3984L1409.75 35.0508L1416.03 35.0439L1416.04 28.6953L1422.33 28.6885L1422.33 22.3408L1416.04 22.3477L1416.05 15.999L1409.76 16.0068L1409.77 9.6582L1403.48 9.66602L1403.49 3.31738L1409.77 3.31055L1409.78 0H1416.06L1416.06 3.30371Z" fill="#C43418"/>
<path d="M1068.78 16.8047L1068.79 23.1328L1075.04 23.1406L1075.05 29.4688L1068.8 29.4619L1068.8 35.79L1062.55 35.7832L1062.54 29.4551L1056.29 29.4473L1056.28 23.1191L1062.54 23.126L1062.53 16.7979L1068.78 16.8047Z" fill="#C43418"/>
<path d="M1171.48 23.126L1177.73 23.1191L1177.73 29.4473L1171.47 29.4551L1171.47 35.7832L1165.21 35.79L1165.22 29.4619L1158.97 29.4688L1158.97 23.1406L1165.23 23.1328L1165.23 16.8047L1171.49 16.7979L1171.48 23.126Z" fill="#C43418"/>
<path d="M918.344 16.5967L918.35 22.9258L924.604 22.9326L924.609 29.2607L918.355 29.2539L918.361 35.582L912.107 35.5752L912.102 29.2471L905.848 29.2402L905.842 22.9111L912.096 22.918L912.09 16.5898L918.344 16.5967Z" fill="#C43418"/>
<path d="M1321.92 22.918L1328.17 22.9111L1328.17 29.2402L1321.91 29.2471L1321.91 35.5752L1315.65 35.582L1315.66 29.2539L1309.41 29.2607L1309.41 22.9326L1315.67 22.9258L1315.67 16.5967L1321.93 16.5898L1321.92 22.918Z" fill="#C43418"/>
<path d="M692.763 16.4717L692.769 22.8203L699.056 22.8271L699.062 29.1748L692.774 29.168L692.78 35.5166L686.492 35.5088L686.486 29.1611L680.198 29.1543L680.192 22.8057L686.48 22.8135L686.476 16.4648L692.763 16.4717Z" fill="#C43418"/>
<path d="M767.908 16.3896L767.914 22.7178L774.168 22.7256L774.174 29.0537L767.92 29.0469L767.926 35.375L761.672 35.3682L761.666 29.0391L755.412 29.0322L755.406 22.7041L761.66 22.7109L761.654 16.3828L767.908 16.3896Z" fill="#C43418"/>
<path d="M994.228 16.1445L994.232 22.4932L1000.52 22.5L1000.53 28.8477L994.238 28.8408L994.244 35.1895L987.957 35.1816L987.95 28.834L981.663 28.8271L981.657 22.4785L987.944 22.4863L987.939 16.1377L994.228 16.1445Z" fill="#C43418"/>
<path d="M1246.07 22.4863L1252.36 22.4785L1252.35 28.8271L1246.07 28.834L1246.06 35.1816L1239.77 35.1895L1239.78 28.8408L1233.49 28.8477L1233.5 22.5L1239.78 22.4932L1239.79 16.1445L1246.08 16.1377L1246.07 22.4863Z" fill="#C43418"/>
<path d="M617.478 16.1953L617.482 22.5244L623.736 22.5312L623.742 28.8594L617.488 28.8525L617.495 35.1807L611.241 35.1738L611.234 28.8457L604.98 28.8379L604.975 22.5098L611.229 22.5166L611.224 16.1885L617.478 16.1953Z" fill="#C43418"/>
<path d="M843.113 16.0137L843.119 22.3623L849.406 22.3691L849.411 28.7168L843.125 28.71L843.131 35.0576L836.844 35.0508L836.838 28.7031L830.551 28.6963L830.546 22.3477L836.833 22.3545L836.826 16.0068L843.113 16.0137Z" fill="#C43418"/>
<path d="M1397.18 22.3545L1403.47 22.3477L1403.46 28.6963L1397.18 28.7031L1397.17 35.0508L1390.88 35.0576L1390.89 28.71L1384.6 28.7168L1384.61 22.3691L1390.9 22.3623L1390.9 16.0137L1397.19 16.0068L1397.18 22.3545Z" fill="#C43418"/>
<path d="M467.034 15.9746L467.04 22.3027L473.294 22.3105L473.3 28.6387L467.046 28.6318L467.052 34.96L460.798 34.9531L460.792 28.625L454.537 28.6172L454.532 22.2891L460.786 22.2959L460.78 15.9678L467.034 15.9746Z" fill="#C43418"/>
<path d="M316.597 15.7666L316.603 22.0957L322.856 22.1025L322.861 28.4307L316.607 28.4238L316.613 34.752L310.359 34.7451L310.354 28.417L304.1 28.4102L304.095 22.0811L310.349 22.0889L310.343 15.7598L316.597 15.7666Z" fill="#C43418"/>
<path d="M91.0127 15.6426L91.0195 21.9902L97.3066 21.9971L97.3125 28.3457L91.0244 28.3379L91.0303 34.6865L84.7422 34.6787L84.7363 28.3311L78.4482 28.3242L78.4434 21.9756L84.7314 21.9834L84.7256 15.6348L91.0127 15.6426Z" fill="#C43418"/>
<path d="M542.941 15.5225L542.947 21.8711L549.238 21.8779L549.243 28.2256L542.953 28.2188L542.959 34.5664L536.668 34.5596L536.662 28.2119L530.372 28.2041L530.366 21.8564L536.657 21.8633L536.651 15.5156L542.941 15.5225Z" fill="#C43418"/>
<path d="M166.158 15.5596L166.165 21.8877L172.419 21.8955L172.424 28.2236L166.17 28.2168L166.176 34.5449L159.922 34.5381L159.916 28.209L153.662 28.2021L153.657 21.874L159.911 21.8809L159.904 15.5527L166.158 15.5596Z" fill="#C43418"/>
<path d="M392.475 15.3154L392.481 21.6631L398.769 21.6699L398.773 28.0186L392.486 28.0107L392.492 34.3594L386.204 34.3516L386.198 28.0039L379.91 27.9971L379.905 21.6484L386.193 21.6562L386.188 15.3076L392.475 15.3154Z" fill="#C43418"/>
<path d="M15.7275 15.3652L15.7334 21.6943L21.9873 21.7012L21.9932 28.0293L15.7393 28.0225L15.7451 34.3506L9.49121 34.3438L9.48438 28.0156L3.23047 28.0088L3.22559 21.6797L9.47949 21.6875L9.47363 15.3584L15.7275 15.3652Z" fill="#C43418"/>
<path d="M241.363 15.1836L241.369 21.5322L247.656 21.5391L247.661 27.8867L241.375 27.8799L241.381 34.2275L235.094 34.2207L235.088 27.873L228.801 27.8662L228.796 21.5176L235.083 21.5254L235.076 15.1768L241.363 15.1836Z" fill="#C43418"/>
<path d="M9.45605 2.69531L3.20215 2.6875L3.20801 9.0166L0.0117188 9.0127L0.0136719 0H9.4541L9.45605 2.69531Z" fill="#C43418"/>
<path d="M1440 3.27637L1434.92 3.28223L1434.92 0H1440V3.27637Z" fill="#C43418"/>
</svg>
