<svg width="364" height="63" viewBox="0 0 364 63" fill="none" xmlns="http://www.w3.org/2000/svg">
<path d="M142.045 8.26465L143.678 8.2627L143.676 9.98535L142.044 9.9873L142.042 11.7109L140.408 11.7129L140.41 9.98926L138.776 9.99121L138.777 8.26855L140.411 8.2666L140.413 6.54395L142.047 6.54199L142.045 8.26465Z" fill="#C43418"/>
<path fill-rule="evenodd" clip-rule="evenodd" d="M135.212 1.38281L136.817 1.38086L136.818 0.277344H145.152L145.151 1.19238L146.807 1.19043L146.808 0.277344H151.772V1.18457L150.116 1.18652L150.115 2.92188L148.461 2.92383L148.459 4.65723L150.114 4.65527L150.112 6.38965L151.768 6.3877L151.769 4.65332L153.424 4.65137L153.426 2.91797L155.08 2.91504L155.082 1.18066L156.737 1.17969L156.735 2.91309L158.392 2.91113L158.39 4.64551L156.734 4.64746L156.732 6.38184L155.077 6.38379L155.076 8.11914L153.422 8.12012L153.42 9.85449L155.074 9.85254L155.072 11.5869L156.729 11.585L156.727 13.3193L158.382 13.3174L158.381 15.0518L156.726 15.0547L156.724 16.7881L155.068 16.79L155.069 15.0566L153.415 15.0586L153.417 13.3232L151.762 13.3252L151.763 11.5908L150.107 11.5928L150.106 13.3271L148.452 13.3291L148.45 15.0635L150.104 15.0615L150.104 16.7959L151.759 16.7939L151.758 18H146.792L146.793 16.7998L145.138 16.8018L145.137 18H141.134V20.0166C142.123 20.1367 142.89 20.9779 142.89 22C142.89 23.0221 142.123 23.8622 141.134 23.9824V39.0107C142.676 39.1346 143.889 40.4251 143.889 42C143.889 43.5749 142.676 44.8654 141.134 44.9893V48.0166C142.123 48.1367 142.89 48.9779 142.89 50C142.89 51.0221 142.123 51.8622 141.134 51.9824V63H140.648V51.9824C139.659 51.8623 138.893 51.0221 138.893 50C138.893 48.9778 139.659 48.1367 140.648 48.0166V44.9893C139.107 44.8654 137.894 43.575 137.894 42C137.894 40.425 139.107 39.1346 140.648 39.0107V23.9824C139.659 23.8623 138.893 23.0221 138.893 22C138.893 20.9778 139.659 20.1367 140.648 20.0166V18H136.822L136.823 17.165L135.218 17.167V18H130.833V17.0488L132.481 17.0469L132.482 15.3125L134.131 15.3105L134.132 13.5762L132.484 13.5781L132.485 11.8438L130.838 11.8457L130.837 13.5801L129.188 13.582L129.187 15.3164L127.538 15.3184L127.537 17.0527L125.89 17.0547L125.892 15.3203L124.243 15.3223L124.244 13.5879L125.893 13.5859L125.895 11.8516L127.542 11.8496L127.543 10.1152L129.191 10.1133L129.192 8.37891L127.545 8.38086L127.546 6.64648L125.898 6.64844L125.9 4.91406L124.252 4.91602L124.254 3.18164L125.901 3.17969L125.903 1.44531L127.551 1.44336L127.549 3.17773L129.197 3.17578L129.195 4.91016L130.844 4.9082L130.843 6.64258L132.49 6.64062L132.491 4.90625L134.14 4.9043L134.142 3.16992L132.493 3.17188L132.494 1.4375L130.848 1.43945L130.849 0.277344H135.213L135.212 1.38281ZM140.416 1.37695L140.414 3.09961L138.78 3.10156L138.779 4.82422L137.146 4.82617L137.146 6.54883L135.512 6.55078L135.51 8.27441L133.876 8.27637L133.875 9.99902L135.508 9.99707L135.507 11.7207L137.141 11.7188L137.139 13.4414L138.771 13.4395L138.771 15.1621L140.403 15.1611L140.402 16.8838L142.036 16.8818L142.037 15.1592L143.67 15.1572L143.672 13.4336L145.305 13.4316L145.307 11.709L146.94 11.707L146.941 9.9834L148.575 9.98145L148.577 8.25879L146.943 8.26074L146.944 6.53809L145.312 6.54004L145.312 4.81738L143.679 4.81934L143.681 3.0957L142.048 3.09766L142.049 1.375L140.416 1.37695Z" fill="#C43418"/>
<path d="M167.114 19.0166C168.103 19.1368 168.87 19.9779 168.87 21C168.87 22.0221 168.103 22.8622 167.114 22.9824V26.0107C168.656 26.1347 169.869 27.4251 169.869 29C169.869 30.5749 168.656 31.8653 167.114 31.9893V35.0166C168.103 35.1368 168.87 35.9779 168.87 37C168.87 38.0221 168.103 38.8622 167.114 38.9824V52.0166C168.103 52.1368 168.87 52.9779 168.87 54C168.87 55.0221 168.103 55.8622 167.114 55.9824V63H166.628V55.9824C165.639 55.8622 164.873 55.022 164.873 54C164.873 52.9779 165.639 52.1368 166.628 52.0166V38.9824C165.639 38.8622 164.873 38.022 164.873 37C164.873 35.9779 165.639 35.1368 166.628 35.0166V31.9893C165.086 31.8653 163.873 30.5749 163.873 29C163.873 27.4251 165.086 26.1347 166.628 26.0107V22.9824C165.639 22.8622 164.873 22.022 164.873 21C164.873 19.9779 165.639 19.1368 166.628 19.0166V18H167.114V19.0166Z" fill="#C43418"/>
<path d="M193.094 20.0166C194.083 20.1367 194.85 20.9779 194.85 22C194.85 23.0221 194.083 23.8622 193.094 23.9824V39.0107C194.636 39.1346 195.849 40.4251 195.849 42C195.849 43.5749 194.636 44.8654 193.094 44.9893V48.0166C194.083 48.1367 194.85 48.9779 194.85 50C194.85 51.0221 194.083 51.8622 193.094 51.9824V63H192.608V51.9824C191.619 51.8623 190.853 51.0221 190.853 50C190.853 48.9778 191.619 48.1367 192.608 48.0166V44.9893C191.066 44.8654 189.854 43.575 189.854 42C189.854 40.425 191.066 39.1346 192.608 39.0107V23.9824C191.619 23.8623 190.853 23.0221 190.853 22C190.853 20.9778 191.619 20.1367 192.608 20.0166V18H193.094V20.0166Z" fill="#C43418"/>
<path d="M220.889 8.26855L222.521 8.2666L222.521 9.98926L220.887 9.99121L220.886 11.7148L219.253 11.7168L219.254 9.99316L217.62 9.99512L217.622 8.27246L219.256 8.27051L219.257 6.54688L220.89 6.54492L220.889 8.26855Z" fill="#C43418"/>
<path fill-rule="evenodd" clip-rule="evenodd" d="M214.488 1.44238L216.144 1.44043L216.145 0.277344H224.532L224.531 1.46973L226.187 1.46777L226.188 0.277344H231.153L231.151 1.46191L229.497 1.46387L229.496 3.19824L227.841 3.2002L227.839 4.93457L229.494 4.93262L229.493 6.66699L231.147 6.66504L231.148 4.93066L232.805 4.92871L232.806 3.19434L234.461 3.19238L234.463 1.45801L236.117 1.45605L236.115 3.19043L237.771 3.18848L237.77 4.92285L236.113 4.9248L236.112 6.65918L234.458 6.66113L234.456 8.39551L232.801 8.39746L232.8 10.1318L234.455 10.1299L234.453 11.8643L236.108 11.8623L236.106 13.5967L237.762 13.5947L237.76 15.3291L236.104 15.3311L236.104 17.0654L234.449 17.0674L234.45 15.333L232.795 15.335L232.797 13.6006L231.142 13.6025L231.143 11.8682L229.488 11.8701L229.486 13.6045L227.832 13.6064L227.83 15.3408L229.485 15.3389L229.483 17.0732L231.139 17.0713L231.138 18H226.173L226.174 17.0771L224.519 17.0791L224.518 18H219.074V19.0166C220.063 19.1368 220.829 19.9779 220.829 21C220.829 22.022 220.063 22.8621 219.074 22.9824V26.0107C220.616 26.1347 221.829 27.4251 221.829 29C221.829 30.5749 220.616 31.8653 219.074 31.9893V35.0166C220.063 35.1368 220.829 35.9779 220.829 37C220.829 38.022 220.063 38.8621 219.074 38.9824V52.0166C220.063 52.1368 220.829 52.9779 220.829 54C220.829 55.022 220.063 55.8621 219.074 55.9824V63H218.588V55.9824C217.599 55.8622 216.833 55.0221 216.833 54C216.833 52.9779 217.599 52.1368 218.588 52.0166V38.9824C217.599 38.8622 216.833 38.0221 216.833 37C216.833 35.9779 217.599 35.1368 218.588 35.0166V31.9893C217.046 31.8654 215.833 30.5749 215.833 29C215.833 27.4251 217.046 26.1346 218.588 26.0107V22.9824C217.599 22.8622 216.833 22.0221 216.833 21C216.833 19.9779 217.599 19.1368 218.588 19.0166V18H216.129L216.13 17.0479L214.476 17.0498L214.475 18H209.519L209.52 17.0576L211.175 17.0557L211.177 15.3213L212.832 15.3193L212.833 13.585L211.178 13.5869L211.179 11.8525L209.524 11.8545L209.522 13.5889L207.868 13.5908L207.867 15.3242L206.212 15.3262L206.21 17.0615L204.556 17.0635L204.557 15.3281L202.902 15.3301L202.904 13.5967L204.559 13.5947L204.56 11.8604L206.215 11.8584L206.217 10.124L207.872 10.1221L207.873 8.38672L206.218 8.38867L206.22 6.65527L204.564 6.65723L204.566 4.92285L202.912 4.9248L202.913 3.18945L204.567 3.18848L204.568 1.4541L206.224 1.45215L206.222 3.18652L207.877 3.18457L207.876 4.91895L209.53 4.91699L209.528 6.65137L211.184 6.64941L211.186 4.91504L212.84 4.91309L212.842 3.17871L211.187 3.18066L211.188 1.44629L209.533 1.44824L209.534 0.277344H214.489L214.488 1.44238ZM219.261 1.37695L219.26 3.09961L217.626 3.10156L217.625 4.82422L215.991 4.82617L215.99 6.54883L214.357 6.55078L214.355 8.27441L212.722 8.27637L212.721 9.99902L214.354 9.99707L214.353 11.7207L215.985 11.7188L215.983 13.4414L217.617 13.4395L217.616 15.1621L219.249 15.1611L219.248 16.8838L220.881 16.8818L220.882 15.1592L222.516 15.1572L222.518 13.4336L224.15 13.4316L224.152 11.709L225.785 11.707L225.787 9.9834L227.42 9.98145L227.422 8.25879L225.788 8.26074L225.789 6.53809L224.157 6.54004L224.158 4.81738L222.524 4.81934L222.526 3.0957L220.893 3.09766L220.894 1.375L219.261 1.37695Z" fill="#C43418"/>
<path d="M245.054 20.0166C246.043 20.1367 246.81 20.9779 246.81 22C246.81 23.0221 246.043 23.8622 245.054 23.9824V39.0107C246.596 39.1346 247.809 40.4251 247.809 42C247.809 43.5749 246.596 44.8654 245.054 44.9893V48.0166C246.043 48.1367 246.81 48.9779 246.81 50C246.81 51.0221 246.043 51.8622 245.054 51.9824V63H244.568V51.9824C243.579 51.8623 242.812 51.0221 242.812 50C242.812 48.9778 243.579 48.1367 244.568 48.0166V44.9893C243.026 44.8654 241.813 43.575 241.813 42C241.813 40.425 243.026 39.1346 244.568 39.0107V23.9824C243.579 23.8623 242.812 23.0221 242.812 22C242.812 20.9778 243.579 20.1367 244.568 20.0166V18H245.054V20.0166Z" fill="#C43418"/>
<path d="M260.445 7.99121L262.078 7.99023V8.2627H262.081L262.079 9.98535L261.373 9.98633V9.71289L260.443 9.71484L260.441 11.4375L258.808 11.4395L258.81 9.7168L257.177 9.71777L257.179 7.99512L258.812 7.99316L258.812 6.27051L260.446 6.26855L260.445 7.99121Z" fill="#C43418"/>
<path fill-rule="evenodd" clip-rule="evenodd" d="M263.556 0.277344H264.082L264.081 1.11816L265.209 1.11719L265.21 0H270.175V0.277344H270.674L270.673 1.18457L269.024 1.18652L269.023 2.92188L267.376 2.92383L267.374 4.55371L268.517 4.55273L268.516 4.65527H269.021L269.021 6.27246L270.169 6.27148L270.171 4.55176L271.826 4.5498L271.827 2.83008L273.483 2.82812L273.484 1.10742L275.139 1.10645L275.138 1.17969H275.617L275.615 2.8252L276.793 2.82422L276.792 2.91113H277.264L277.263 4.64551L275.613 4.64746L275.612 6.38184L273.964 6.38379L273.963 8.11914L272.315 8.12109L272.314 9.70801L273.478 9.70703L273.477 9.85254H273.961L273.96 11.4258L275.13 11.4248L275.129 11.585H275.608L275.606 13.1436L276.784 13.1426L276.783 13.3184H277.255L277.253 15.0518L275.605 15.0547L275.604 16.7881L273.955 16.79V16.585L273.471 16.5859L273.472 15.0566L272.31 15.0586V14.8672L271.817 14.8682L271.818 13.3232L270.662 13.3252V13.1494L270.163 13.1504L270.164 11.5908L269.016 11.5928L269.015 13.3271L267.367 13.3291L267.365 14.873L268.508 14.8721L268.507 15.0615H269.013L269.012 16.5908L270.161 16.5898L270.16 16.7939H270.659L270.658 18H271.034V19.0166C272.023 19.1369 272.789 19.978 272.789 21C272.789 22.022 272.023 22.8621 271.034 22.9824V26.0107C272.576 26.1348 273.789 27.4252 273.789 29C273.789 30.5748 272.576 31.8652 271.034 31.9893V35.0166C272.023 35.1369 272.789 35.978 272.789 37C272.789 38.022 272.023 38.8621 271.034 38.9824V52.0166C272.023 52.1369 272.789 52.978 272.789 54C272.789 55.022 272.023 55.8621 271.034 55.9824V63H270.548V55.9824C269.559 55.8622 268.792 55.0221 268.792 54C268.792 52.9779 269.559 52.1367 270.548 52.0166V38.9824C269.559 38.8622 268.792 38.0221 268.792 37C268.792 35.9779 269.559 35.1367 270.548 35.0166V31.9893C269.006 31.8654 267.793 30.5749 267.793 29C267.793 27.4251 269.006 26.1346 270.548 26.0107V22.9824C269.559 22.8622 268.792 22.0221 268.792 21C268.792 19.9778 269.559 19.1367 270.548 19.0166V18H265.715V17.7227H265.194V16.7998L264.067 16.8018L264.066 18H255.953L255.954 17.0479L254.299 17.0498L254.298 18H249.348V17.0576L251.003 17.0557L251.005 15.3213L252.659 15.3193L252.66 13.585L251.006 13.5869L251.008 11.8525L249.353 11.8545L249.352 13.5889L247.695 13.5908L247.694 15.3242L246.039 15.3262L246.037 17.0615L244.383 17.0635L244.384 15.3281L242.729 15.3301L242.73 13.5967L244.386 13.5947L244.387 11.8604L246.042 11.8584L246.043 10.124L247.698 10.1221L247.7 8.38672L246.044 8.38867L246.046 6.65527L244.392 6.65723L244.394 4.92285L242.737 4.9248L242.739 3.18945L244.395 3.18848L244.396 1.4541L246.051 1.45215L246.049 3.18652L247.705 3.18457L247.703 4.91895L249.358 4.91699L249.356 6.65137L251.013 6.64941L251.014 4.91504L252.668 4.91309L252.67 3.17871L251.015 3.18066L251.017 1.44629L249.361 1.44824L249.362 0.277344H254.313L254.312 1.44238L255.967 1.44043L255.969 0.277344H261.371V0H263.556V0.277344ZM258.817 1.09961L258.815 2.82227L257.183 2.82422L257.182 4.54785L255.548 4.5498L255.547 6.27246L253.913 6.27441L253.911 7.99707L252.279 7.99902L252.277 9.72168L253.909 9.71973L253.908 11.4434L255.542 11.4414L255.54 13.165L257.174 13.1631L257.173 14.8857L258.806 14.8838L258.804 16.6074L260.438 16.6055L260.438 14.8818L262.072 14.8799L262.074 13.1562L263.706 13.1543L263.708 11.4316L265.342 11.4297L265.344 9.70703L266.977 9.70508L266.979 8.25879L265.345 8.26074V7.98438L265.347 6.53809L263.713 6.54004V4.81641L262.082 4.81836V4.54102L262.081 4.54199L262.083 3.0957H261.372L261.371 2.81836L260.449 2.82031L260.45 1.09766L258.817 1.09961Z" fill="#C43418"/>
<path d="M297.014 20.0166C298.003 20.1367 298.77 20.9779 298.77 22C298.77 23.0221 298.003 23.8622 297.014 23.9824V39.0107C298.556 39.1346 299.769 40.4251 299.769 42C299.769 43.5749 298.556 44.8654 297.014 44.9893V48.0166C298.003 48.1367 298.77 48.9779 298.77 50C298.77 51.0221 298.003 51.8622 297.014 51.9824V63H296.528V51.9824C295.539 51.8623 294.772 51.0221 294.772 50C294.772 48.9778 295.539 48.1367 296.528 48.0166V44.9893C294.986 44.8654 293.773 43.575 293.773 42C293.773 40.425 294.986 39.1346 296.528 39.0107V23.9824C295.539 23.8623 294.772 23.0221 294.772 22C294.772 20.9778 295.539 20.1367 296.528 20.0166V18H297.014V20.0166Z" fill="#C43418"/>
<path d="M322.994 19.0166C323.983 19.1369 324.749 19.978 324.749 21C324.749 22.022 323.983 22.862 322.994 22.9824V26.0107C324.536 26.1348 325.748 27.4252 325.748 29C325.748 30.5748 324.536 31.8652 322.994 31.9893V35.0166C323.983 35.1369 324.749 35.978 324.749 37C324.749 38.022 323.983 38.862 322.994 38.9824V52.0166C323.983 52.1369 324.749 52.978 324.749 54C324.749 55.022 323.983 55.862 322.994 55.9824V63H322.508V55.9824C321.519 55.8623 320.752 55.0221 320.752 54C320.752 52.9778 321.519 52.1367 322.508 52.0166V38.9824C321.519 38.8623 320.752 38.0221 320.752 37C320.752 35.9778 321.519 35.1367 322.508 35.0166V31.9893C320.966 31.8654 319.753 30.575 319.753 29C319.753 27.425 320.966 26.1346 322.508 26.0107V22.9824C321.519 22.8623 320.752 22.0221 320.752 21C320.752 19.9778 321.519 19.1367 322.508 19.0166V18H322.994V19.0166Z" fill="#C43418"/>
<path d="M348.974 20.0166C349.963 20.1367 350.729 20.9779 350.729 22C350.729 23.0221 349.963 23.8622 348.974 23.9824V39.0107C350.515 39.1346 351.729 40.4251 351.729 42C351.729 43.5749 350.515 44.8654 348.974 44.9893V48.0166C349.963 48.1367 350.729 48.9779 350.729 50C350.729 51.0221 349.963 51.8622 348.974 51.9824V63H348.487V51.9824C347.499 51.8621 346.732 51.022 346.732 50C346.732 48.978 347.499 48.1369 348.487 48.0166V44.9893C346.946 44.8652 345.733 43.5748 345.733 42C345.733 40.4252 346.946 39.1348 348.487 39.0107V23.9824C347.499 23.8621 346.732 23.022 346.732 22C346.732 20.978 347.499 20.1369 348.487 20.0166V18H348.974V20.0166Z" fill="#C43418"/>
<path d="M3.73242 18H2.07617L2.07715 17.0625L3.7334 17.0605L3.73242 18Z" fill="#C43418"/>
<path d="M23.375 8.54688L25.0078 8.54492L25.0059 10.2676L23.374 10.2695L23.3721 11.9922L21.7383 11.9941L21.7402 10.2715L20.1064 10.2734L20.1074 8.55078L21.7412 8.54883L21.7432 6.8252L23.376 6.82324L23.375 8.54688Z" fill="#C43418"/>
<path fill-rule="evenodd" clip-rule="evenodd" d="M16.9746 1.44336L18.6289 1.44141L18.6299 0.277344H26.752L26.751 1.74805L28.4053 1.74609L28.4062 0.277344H33.3711L33.3701 1.74023L31.7148 1.74219L31.7129 3.47559L30.0576 3.47754L30.0566 5.21191L31.7119 5.20996L31.71 6.94434L33.3652 6.94336L33.3662 5.20801L35.0205 5.20605L35.0225 3.47168L36.6777 3.46973L36.6787 1.73633L38.334 1.73438L38.333 3.46777L39.9883 3.46582L39.9863 5.2002L38.3311 5.20215L38.3301 6.9375L36.6748 6.93945L36.6729 8.67383L35.0176 8.67578L35.0166 10.4092L36.6719 10.4072L36.6699 12.1416L38.3252 12.1396L38.3232 13.875L39.9785 13.873L39.9775 15.6064L38.3223 15.6084L38.3203 17.3428L36.666 17.3447L36.667 15.6104L35.0117 15.6123L35.0127 13.8789L33.3594 13.8809L33.3613 12.1455L31.7061 12.1475L31.7041 13.8828L30.0488 13.8838L30.0479 15.6191L31.7031 15.6172L31.7012 17.3506L33.3564 17.3486L33.3555 18H28.3916V17.3545L26.7363 17.3564V18H18.6152V17.0488L16.9619 17.0508L16.9609 18H12.0098L12.0107 17.0586L13.665 17.0566L13.666 15.3223L15.3213 15.3203L15.3232 13.5859L13.668 13.5879L13.6699 11.8535L12.0146 11.8555L12.0137 13.5898L10.3584 13.5918L10.3564 15.3252L8.70117 15.3271L8.7002 17.0625L7.04492 17.0645L7.04688 15.3291L5.3916 15.3311L5.39355 13.5977L7.04785 13.5957L7.0498 11.8613L8.7041 11.8594L8.70605 10.125L10.3613 10.123L10.3623 8.3877L8.70703 8.39062L8.70898 6.65625L7.05469 6.6582L7.05566 4.92383L5.40039 4.92578L5.40234 3.19043L7.05762 3.18945L7.05859 1.45508L8.71289 1.45312L8.71191 3.1875L10.3672 3.18555L10.3662 4.91992L12.0205 4.91797L12.0195 6.65234L13.6738 6.65039L13.6748 4.91602L15.3311 4.91406L15.332 3.17969L13.6768 3.18164L13.6787 1.44727L12.0244 1.44922L12.0254 0.277344H16.9756L16.9746 1.44336ZM21.7471 1.6543L21.7461 3.37695L20.1123 3.37891L20.1104 5.10254L18.4775 5.10449L18.4766 6.82715L16.8428 6.8291L16.8418 8.55273L15.208 8.55371L15.2061 10.2773L16.8398 10.2754L16.8379 11.998L18.4717 11.9961L18.4707 13.7188L20.1035 13.7168L20.1016 15.4404L21.7354 15.4385L21.7334 17.1621L23.3672 17.1602L23.3691 15.4365L25.002 15.4346L25.0029 13.7119L26.6367 13.71L26.6387 11.9873L28.2725 11.9854L28.2734 10.2617L29.9062 10.2598L29.9072 8.53711L28.2744 8.53906L28.2764 6.81543L26.6426 6.81738L26.6445 5.09473L25.0107 5.09668L25.0117 3.37305L23.3789 3.375L23.3809 1.65234L21.7471 1.6543Z" fill="#C43418"/>
<path d="M43.2861 18H41.6309L41.6318 17.3389L43.2871 17.3369L43.2861 18Z" fill="#C43418"/>
<path d="M62.9307 8.54688L64.5645 8.54492L64.5625 10.2676L62.9297 10.2695L62.9277 11.9922L61.2949 11.9941L61.2969 10.2715L59.6631 10.2734L59.6641 8.55078L61.2979 8.54883L61.2998 6.8252L62.9316 6.82324L62.9307 8.54688Z" fill="#C43418"/>
<path fill-rule="evenodd" clip-rule="evenodd" d="M56.5312 1.71973L58.1865 1.71777L58.1875 0.277344H66.5742L66.5732 1.74805L68.2295 1.74609L68.2305 0.277344H73.1953L73.1943 1.74023L71.54 1.74219L71.5381 3.47559L69.8828 3.47754L69.8809 5.21191L71.5371 5.20996L71.5352 6.94434L73.1895 6.94336L73.1914 5.20801L74.8467 5.20605L74.8477 3.47168L76.5039 3.46973L76.5049 1.73633L78.1592 1.73438L78.1572 3.46777L79.8135 3.46582L79.8115 5.2002L78.1562 5.20215L78.1543 6.9375L76.5 6.93945L76.499 8.67383L74.8438 8.67578L74.8418 10.4092L76.4971 10.4072L76.4961 12.1416L78.1504 12.1396L78.1484 13.875L79.8037 13.873L79.8027 15.6064L78.1475 15.6084L78.1455 17.3428L76.4912 17.3447L76.4932 15.6104L74.8379 15.6123L74.8389 13.8789L73.1836 13.8809L73.1846 12.1455L71.5312 12.1475L71.5293 13.8828L69.874 13.8838L69.8721 15.6191L71.5273 15.6172L71.5264 17.3506L73.1807 17.3486L73.1797 18H68.2158V17.3545L66.5605 17.3564L66.5596 18H58.1719V17.3252L56.5176 17.3271L56.5166 18H51.5615L51.5625 17.335L53.2178 17.333L53.2188 15.5986L54.874 15.5967L54.875 13.8633L53.2207 13.8643L53.2217 12.1299L51.5664 12.1318L51.5654 13.8662L49.9111 13.8682L49.9092 15.6025L48.2539 15.6045L48.2529 17.3389L46.5977 17.3408L46.5996 15.6064L44.9453 15.6084L44.9463 13.874L46.6006 13.8721L46.6025 12.1377L48.2578 12.1357L48.2588 10.4014L49.9141 10.3994L49.916 8.66504L48.2607 8.66699L48.2617 6.93262L46.6064 6.93457L46.6084 5.2002L44.9541 5.20215L44.9561 3.46777L46.6104 3.46582L46.6113 1.73145L48.2666 1.73047L48.2646 3.46387L49.9199 3.46191L49.918 5.19629L51.5723 5.19434L51.5713 6.92871L53.2256 6.92676L53.2275 5.19238L54.8828 5.19043L54.8838 3.45605L53.2295 3.45801L53.2305 1.72363L51.5752 1.72656L51.5762 0.277344H56.5322L56.5312 1.71973ZM61.3037 1.6543L61.3027 3.37695L59.6689 3.37891L59.667 5.10254L58.0332 5.10449L58.0322 6.82715L56.3994 6.8291L56.3984 8.55273L54.7646 8.55371L54.7627 10.2773L56.3965 10.2754L56.3945 11.998L58.0273 11.9961L58.0264 13.7188L59.6602 13.7168L59.6582 15.4404L61.292 15.4385L61.291 17.1621L62.9229 17.1602L62.9248 15.4365L64.5586 15.4346L64.5596 13.7119L66.1934 13.71L66.1943 11.9873L67.8281 11.9854L67.8291 10.2617L69.4629 10.2598L69.4639 8.53711L67.8301 8.53906L67.832 6.81543L66.1992 6.81738L66.2012 5.09473L64.5674 5.09668L64.5684 3.37305L62.9346 3.375L62.9365 1.65234L61.3037 1.6543Z" fill="#C43418"/>
<path d="M83.1123 18H81.458L81.459 17.3389L83.1123 17.3369V18Z" fill="#C43418"/>
<path d="M102.487 8.26953L104.121 8.26758L104.119 9.99023L102.485 9.99219L102.484 11.7158L100.851 11.7178L100.852 9.99414L99.2197 9.99609L99.2207 8.27344L100.854 8.27148L100.855 6.54785L102.489 6.5459L102.487 8.26953Z" fill="#C43418"/>
<path fill-rule="evenodd" clip-rule="evenodd" d="M96.3545 1.71973L98.0098 1.71777L98.0107 0.277344H106.125L106.123 1.4707L107.771 1.46875L107.772 0.277344H112.717L112.716 1.46289L111.067 1.46484L111.065 3.19922L109.419 3.20117L109.417 4.93555L111.064 4.93359L111.062 6.66797L112.711 6.66602L112.713 4.93164L114.36 4.92969L114.362 3.19531L116.01 3.19336L116.011 1.45898L117.659 1.45703L117.657 3.19141L119.307 3.18945L119.305 4.92383L117.656 4.92578L117.654 6.66016L116.007 6.66211L116.005 8.39648L114.357 8.39844L114.356 10.1328L116.004 10.1309L116.002 11.8652L117.65 11.8633L117.649 13.5977L119.297 13.5957L119.296 15.3301L117.647 15.332L117.646 17.0664L115.997 17.0684L115.999 15.334L114.352 15.3359L114.354 13.6016L112.705 13.6035L112.706 11.8691L111.059 11.8711L111.057 13.6055L109.409 13.6074L109.408 15.3418L111.056 15.3398L111.054 17.0742L112.702 17.0723L112.701 18H107.758V17.0781L106.109 17.0801L106.108 18H97.9951L97.9961 17.3252L96.3408 17.3271V18H91.3896L91.3906 17.335L93.0459 17.333L93.0469 15.5986L94.7012 15.5967L94.7031 13.8633L93.0488 13.8643L93.0498 12.1299L91.3945 12.1318L91.3936 13.8662L89.7383 13.8682L89.7363 15.6025L88.0811 15.6045L88.0801 17.3389L86.4248 17.3408L86.4268 15.6064L84.7715 15.6084L84.7725 13.874L86.4277 13.8721L86.4297 12.1377L88.084 12.1357L88.0859 10.4014L89.7412 10.3994L89.7422 8.66504L88.0869 8.66699L88.0879 6.93262L86.4346 6.93457L86.4355 5.2002L84.7803 5.20215L84.7812 3.46777L86.4375 3.46582L86.4385 1.73145L88.0928 1.72949L88.0918 3.46387L89.7471 3.46191L89.7451 5.19629L91.4004 5.19434L91.3994 6.92871L93.0547 6.92676L93.0566 5.19238L94.7109 5.19043L94.7119 3.45605L93.0576 3.45801L93.0586 1.72363L91.4033 1.72656L91.4053 0.277344H96.3555L96.3545 1.71973ZM100.859 1.37793L100.858 3.10059L99.2256 3.10254L99.2236 4.8252L97.5908 4.82715L97.5889 6.5498L95.9551 6.55176L95.9541 8.27539L94.3213 8.27734L94.3193 10L95.9521 9.99805L95.9502 11.7217L97.584 11.7197L97.583 13.4424L99.2168 13.4404L99.2148 15.1631L100.848 15.1621L100.847 16.8848L102.479 16.8828L102.481 15.1602L104.115 15.1582L104.116 13.4346L105.749 13.4326L105.75 11.71L107.384 11.708L107.386 9.98438L109.02 9.98242L109.021 8.25977L107.388 8.26172L107.389 6.53906L105.755 6.54102L105.757 4.81836L104.124 4.82031L104.125 3.09668L102.491 3.09863L102.493 1.37598L100.859 1.37793Z" fill="#C43418"/>
<path d="M122.591 18H120.942L120.943 17.0625L122.592 17.0605L122.591 18Z" fill="#C43418"/>
<path d="M161.689 18H160.035L160.036 16.7842L161.69 16.7822L161.689 18Z" fill="#C43418"/>
<path d="M181.333 8.26855L182.965 8.2666L182.964 9.98926L181.331 9.99121L181.33 11.7148L179.696 11.7168L179.697 9.99316L178.063 9.99512L178.065 8.27246L179.699 8.27051L179.7 6.54688L181.334 6.54492L181.333 8.26855Z" fill="#C43418"/>
<path fill-rule="evenodd" clip-rule="evenodd" d="M174.933 1.16504L176.587 1.16309V0.277344H184.709L184.708 1.46973L186.362 1.46777L186.364 0.277344H191.328L191.327 1.46191L189.672 1.46387L189.671 3.19824L188.016 3.2002L188.014 4.93457L189.669 4.93262L189.668 6.66699L191.322 6.66504L191.324 4.93066L192.979 4.92871L192.979 3.19434L194.635 3.19238L194.637 1.45801L196.292 1.45605L196.29 3.19043L197.945 3.18848L197.944 4.92285L196.289 4.9248L196.287 6.65918L194.632 6.66113L194.631 8.39551L192.976 8.39746L192.974 10.1318L194.629 10.1299L194.627 11.8643L196.282 11.8623L196.281 13.5967L197.937 13.5947L197.935 15.3291L196.279 15.3311L196.278 17.0654L194.623 17.0674L194.624 15.333L192.97 15.335L192.971 13.6006L191.317 13.6025L191.318 11.8682L189.663 11.8701L189.662 13.6045L188.007 13.6064L188.005 15.3408L189.66 15.3389L189.659 17.0732L191.313 17.0713V18H186.349L186.35 17.0771L184.694 17.0791L184.693 18H176.572L176.573 16.7705L174.919 16.7725L174.918 18H169.967L169.969 16.7803L171.622 16.7783L171.624 15.0439L173.279 15.042L173.28 13.3076L171.626 13.3096L171.627 11.5752L169.973 11.5771L169.971 13.3115L168.315 13.3135L168.314 15.0479L166.659 15.0498L166.657 16.7842L165.003 16.7861L165.004 15.0518L163.35 15.0537L163.351 13.3193L165.006 13.3174L165.008 11.583L166.662 11.5811L166.663 9.84668L168.318 9.84473L168.32 8.11035L166.665 8.1123L166.666 6.37793L165.012 6.37988L165.014 4.64551L163.358 4.64746L163.359 2.91309L165.015 2.91113L165.017 1.17676L166.671 1.1748L166.669 2.90918L168.324 2.90723L168.323 4.6416L169.979 4.63965L169.977 6.37402L171.631 6.37207L171.633 4.6377L173.288 4.63574L173.29 2.90137L171.634 2.90332L171.636 1.16895L169.981 1.1709L169.982 0.277344H174.934L174.933 1.16504ZM179.704 1.37695L179.703 3.09961L178.069 3.10156L178.068 4.82422L176.436 4.82617L176.435 6.54883L174.801 6.55078L174.799 8.27441L173.165 8.27637L173.164 9.99902L174.798 9.99707L174.796 11.7207L176.43 11.7188L176.428 13.4414L178.061 13.4395L178.06 15.1621L179.692 15.1611L179.691 16.8838L181.325 16.8818L181.326 15.1592L182.959 15.1572L182.961 13.4336L184.594 13.4316L184.596 11.709L186.229 11.707L186.231 9.9834L187.864 9.98145L187.866 8.25879L186.232 8.26074L186.233 6.53809L184.601 6.54004L184.602 4.81738L182.968 4.81934L182.97 3.0957L181.337 3.09766L181.339 1.375L179.704 1.37695Z" fill="#C43418"/>
<path d="M201.244 18H199.589V17.0615L201.244 17.0596V18Z" fill="#C43418"/>
<path d="M241.069 18H239.415L239.416 17.0615L241.07 17.0596L241.069 18Z" fill="#C43418"/>
<path d="M280.093 17.7227H278.438V16.5801L280.094 16.5781L280.093 17.7227Z" fill="#C43418"/>
<path d="M299.734 7.99121L301.368 7.98926L301.366 9.71289L299.733 9.71484L299.731 11.4375L298.098 11.4395L298.1 9.7168L296.467 9.71875L296.468 7.99512L298.101 7.99316L298.103 6.27051L299.735 6.26855L299.734 7.99121Z" fill="#C43418"/>
<path fill-rule="evenodd" clip-rule="evenodd" d="M293.334 1.09277L294.989 1.09082L294.99 0H303.11V1.39648L304.765 1.39453L304.766 0H309.73L309.729 1.38867L308.074 1.39062L308.072 3.11035L306.418 3.1123L306.417 4.83203L308.071 4.83008L308.069 6.5498L309.725 6.54785L309.727 4.82812L311.382 4.82617L311.383 3.10645L313.037 3.10449L313.039 1.38477L314.693 1.38281L314.692 3.10254L316.348 3.10059L316.346 4.82031L314.69 4.82227L314.689 6.54297L313.034 6.54492L313.032 8.26367L311.378 8.26562L311.377 9.98633L313.031 9.98438L313.029 11.7031L314.685 11.7012L314.683 13.4219L316.338 13.4199L316.337 15.1396L314.682 15.1416L314.68 16.8613L313.025 16.8633L313.026 15.1436L311.373 15.1455L311.374 13.4258L309.719 13.4277L309.721 11.707L308.065 11.709L308.063 13.4297L306.409 13.4316L306.408 15.1504L308.062 15.1484L308.061 16.8691L309.716 16.8672L309.715 17.7227H304.751V16.873L303.097 16.875L303.096 17.7227H294.975L294.977 16.5664L293.321 16.5684L293.319 17.7227H288.369L288.37 16.5762L290.025 16.5742L290.027 14.8545L291.681 14.8525L291.683 13.1328L290.028 13.1348L290.03 11.415L288.374 11.417L288.373 13.1367L286.718 13.1387L286.716 14.8584L285.062 14.8604L285.061 16.5801L283.404 16.582L283.406 14.8623L281.751 14.8643L281.753 13.1445L283.408 13.1426L283.409 11.4229L285.065 11.4209L285.066 9.70117L286.721 9.69922L286.723 7.97949L285.067 7.98145L285.069 6.26172L283.414 6.26367L283.416 4.54297L281.76 4.54492L281.762 2.82617L283.417 2.82422L283.419 1.10352L285.074 1.10156L285.072 2.82227L286.727 2.82031L286.726 4.53906L288.381 4.53809L288.379 6.25781L290.034 6.25586L290.036 4.53613L291.69 4.53418L291.691 2.81445L290.037 2.81641L290.039 1.0957L288.384 1.09766L288.385 0H293.336L293.334 1.09277ZM298.107 1.09961L298.105 2.82227L296.473 2.82422L296.471 4.54688L294.837 4.54883L294.836 6.27246L293.202 6.27441L293.201 7.99707L291.567 7.99902L291.565 9.72168L293.199 9.71973L293.198 11.4434L294.832 11.4414L294.83 13.1641L296.464 13.1621L296.462 14.8857L298.095 14.8838L298.093 16.6064L299.727 16.6045L299.729 14.8818L301.361 14.8799L301.363 13.1572L302.996 13.1553L302.998 11.4316L304.632 11.4297L304.633 9.70703L306.267 9.70508L306.268 7.98145L304.634 7.9834L304.636 6.26074L303.002 6.2627L303.004 4.54004L301.371 4.54102L301.373 2.81836L299.738 2.82031L299.74 1.09766L298.107 1.09961Z" fill="#C43418"/>
<path d="M319.646 17.7227H317.991L317.992 16.8574L319.646 16.8555L319.646 17.7227Z" fill="#C43418"/>
<path d="M339.291 7.99121L340.924 7.98926L340.922 9.71289L339.29 9.71484L339.288 11.4375L337.654 11.4395L337.656 9.7168L336.022 9.71875L336.023 7.99512L337.657 7.99316L337.659 6.27051L339.292 6.26855L339.291 7.99121Z" fill="#C43418"/>
<path fill-rule="evenodd" clip-rule="evenodd" d="M332.892 1.36914L334.546 1.36719L334.547 0H342.668L342.667 1.39648L344.322 1.39453L344.323 0H349.288L349.287 1.38867L347.632 1.39062L347.63 3.11035L345.975 3.1123L345.974 4.83203L347.629 4.83008L347.628 6.5498L349.282 6.54785L349.284 4.82812L350.938 4.82617L350.94 3.10645L352.596 3.10449L352.597 1.38477L354.252 1.38281L354.251 3.10254L355.906 3.10059L355.905 4.82031L354.249 4.82227L354.248 6.54297L352.593 6.54492L352.591 8.26367L350.936 8.26562L350.935 9.98633L352.59 9.98438L352.588 11.7031L354.243 11.7012L354.242 13.4219L355.897 13.4199L355.896 15.1396L354.24 15.1416L354.239 16.8613L352.583 16.8633L352.585 15.1436L350.93 15.1455L350.932 13.4258L349.276 13.4277L349.278 11.707L347.623 11.709L347.621 13.4297L345.966 13.4316L345.965 15.1504L347.62 15.1484L347.618 16.8691L349.274 16.8672L349.273 17.7227H344.309V16.873L342.653 16.875L342.652 17.7227H334.531L334.532 16.8438L332.878 16.8457L332.877 17.7227H327.922L327.923 16.8535L329.577 16.8516L329.578 15.1318L331.233 15.1299L331.234 13.4102L329.58 13.4121L329.581 11.6914L327.927 11.6934L327.926 13.4141L326.271 13.416L326.269 15.1348L324.614 15.1367L324.612 16.8574L322.958 16.8594L322.96 15.1387L321.305 15.1406L321.306 13.4219L322.961 13.4199L322.963 11.6992L324.617 11.6973L324.618 9.97754L326.273 9.97656L326.275 8.25586L324.62 8.25781L324.621 6.53809L322.968 6.54004L322.969 4.82031L321.313 4.82227L321.315 3.10254L322.971 3.10059L322.972 1.38086L324.626 1.37891L324.624 3.09863L326.279 3.09668L326.277 4.81641L327.933 4.81445L327.932 6.53418L329.586 6.53223L329.587 4.8125L331.242 4.81055L331.244 3.09082L329.589 3.09277L329.59 1.37305L327.936 1.375L327.938 0H332.893L332.892 1.36914ZM337.664 1.09961L337.662 2.82227L336.028 2.82422L336.026 4.54688L334.394 4.54883L334.393 6.27246L332.759 6.27441L332.758 7.99707L331.124 7.99902L331.123 9.72168L332.756 9.71973L332.755 11.4434L334.389 11.4414L334.387 13.1641L336.02 13.1621L336.018 14.8857L337.651 14.8838L337.649 16.6064L339.283 16.6045L339.285 14.8818L340.918 14.8799L340.919 13.1572L342.553 13.1553L342.555 11.4316L344.188 11.4297L344.189 9.70703L345.823 9.70508L345.824 7.98145L344.19 7.9834L344.192 6.26074L342.559 6.2627L342.561 4.54004L340.927 4.54102L340.928 2.81836L339.295 2.82031L339.297 1.09766L337.664 1.09961Z" fill="#C43418"/>
<path d="M359.205 17.7227H357.55V16.8574L359.206 16.8555L359.205 17.7227Z" fill="#C43418"/>
<path d="M364 16.8574L362.517 16.8594L362.519 15.1387L360.864 15.1406L360.866 13.4219L362.521 13.4199L362.521 11.6992L364 11.6973V16.8574Z" fill="#C43418"/>
<path d="M0.422852 15.3301H0V13.5957H0.424805L0.422852 15.3301Z" fill="#C43418"/>
<path d="M43.293 8.66895L44.9473 8.66699L44.9463 10.4014L43.291 10.4033L43.29 12.1377L41.6348 12.1396L41.6357 10.4053L39.9814 10.4072L39.9834 8.67383L41.6377 8.67188L41.6387 6.93652L43.2939 6.93457L43.293 8.66895Z" fill="#C43418"/>
<path d="M83.1182 8.66895L84.7734 8.66699L84.7725 10.4014L83.1172 10.4033L83.1152 12.1377L81.4609 12.1396L81.4619 10.4053L79.8076 10.4072L79.8086 8.67383L81.4639 8.67188L81.4658 6.93652L83.1201 6.93457L83.1182 8.66895Z" fill="#C43418"/>
<path d="M3.73926 8.39258L5.39355 8.39062L5.39258 10.125L3.7373 10.127L3.73535 11.8613L2.08008 11.8633L2.08203 10.1289L0.427734 10.1309L0.428711 8.39648L2.08301 8.39453L2.08496 6.66016L3.74023 6.6582L3.73926 8.39258Z" fill="#C43418"/>
<path d="M122.598 8.39258L124.245 8.39062L124.244 10.125L122.596 10.127L122.594 11.8613L120.946 11.8633L120.947 10.1289L119.3 10.1309L119.302 8.39648L120.948 8.39453L120.95 6.66016L122.599 6.6582L122.598 8.39258Z" fill="#C43418"/>
<path d="M201.25 8.3916L202.905 8.38965L202.904 10.124L201.249 10.126L201.247 11.8604L199.592 11.8623L199.594 10.1279L197.939 10.1299L197.94 8.39551L199.595 8.39355L199.597 6.65918L201.251 6.65723L201.25 8.3916Z" fill="#C43418"/>
<path d="M241.076 8.3916L242.731 8.38965L242.729 10.124L241.074 10.126L241.073 11.8604L239.418 11.8623L239.42 10.1279L237.765 10.1299L237.767 8.39551L239.422 8.39355L239.423 6.65918L241.077 6.65723L241.076 8.3916Z" fill="#C43418"/>
<path d="M319.652 8.25977L321.307 8.25781L321.306 9.97852L319.65 9.98047L319.649 11.6992L317.995 11.7012L317.996 9.98242L316.341 9.9834L316.343 8.26367L317.998 8.26172L317.999 6.54199L319.653 6.54004L319.652 8.25977Z" fill="#C43418"/>
<path d="M359.212 8.25977L360.867 8.25781L360.865 9.97852L359.21 9.98047L359.209 11.6992L357.553 11.7012L357.555 9.98242L355.9 9.9834L355.901 8.26367L357.556 8.26172L357.558 6.54199L359.213 6.54004L359.212 8.25977Z" fill="#C43418"/>
<path d="M161.696 8.11426L163.352 8.1123L163.35 9.84668L161.695 9.84863L161.693 11.583L160.039 11.585L160.04 9.85059L158.385 9.85254L158.387 8.11816L160.042 8.11621L160.043 6.38184L161.697 6.37988L161.696 8.11426Z" fill="#C43418"/>
<path d="M280.1 7.9834L281.754 7.98145L281.752 9.70117L280.098 9.70312L280.097 11.4229L278.44 11.4248L278.442 9.70508H278.211L278.212 9.85156L277.258 9.85254V9.70605L276.787 9.70703L276.788 7.9873L278.443 7.98535L278.445 6.26562L280.101 6.26367L280.1 7.9834Z" fill="#C43418"/>
<path d="M364 6.53809L362.526 6.54004L362.528 4.82031L360.873 4.82227L360.875 3.10254L362.529 3.10059L362.531 1.38086L364 1.37891V6.53809Z" fill="#C43418"/>
<path d="M0.431641 4.92383H0V3.18945H0.433594L0.431641 4.92383Z" fill="#C43418"/>
<path d="M43.2998 1.72852L41.6445 1.73047L41.6465 0.277344H43.3018L43.2998 1.72852Z" fill="#C43418"/>
<path d="M83.126 1.72852L81.4717 1.73047L81.4727 0.277344H83.127L83.126 1.72852Z" fill="#C43418"/>
<path d="M3.74609 1.45117L2.09082 1.45312L2.09277 0.277344H3.74707L3.74609 1.45117Z" fill="#C43418"/>
<path d="M122.604 1.45117L120.957 1.45312L120.958 0.277344H122.605L122.604 1.45117Z" fill="#C43418"/>
<path d="M201.258 1.4502L199.603 1.45215L199.604 0.277344H201.259L201.258 1.4502Z" fill="#C43418"/>
<path d="M241.084 1.4502L239.43 1.45215L239.431 0.277344H241.085L241.084 1.4502Z" fill="#C43418"/>
<path d="M319.66 1.37695L318.006 1.37891L318.007 0H319.661L319.66 1.37695Z" fill="#C43418"/>
<path d="M359.219 1.37695L357.564 1.37891V0H359.221L359.219 1.37695Z" fill="#C43418"/>
<path d="M161.704 1.17383L160.05 1.17578L160.051 0.277344H161.705L161.704 1.17383Z" fill="#C43418"/>
<path d="M280.106 1.10059L278.452 1.10254L278.453 0H280.108L280.106 1.10059Z" fill="#C43418"/>
</svg>
