<svg width="1440" height="290" viewBox="0 0 1440 290" fill="none" xmlns="http://www.w3.org/2000/svg">
<path d="M338 0V245" stroke="#C43418"/>
<path d="M413 29V274" stroke="#C43418"/>
<path d="M564 45V290" stroke="#C43418"/>
<path d="M715 45V290" stroke="#C43418"/>
<path d="M866 45V290" stroke="#C43418"/>
<path d="M1017 45V290" stroke="#C43418"/>
<path d="M1168 45V290" stroke="#C43418"/>
<path d="M1319 45V290" stroke="#C43418"/>
<path d="M489 45V290" stroke="#C43418"/>
<path d="M640 45V290" stroke="#C43418"/>
<path d="M791 45V290" stroke="#C43418"/>
<path d="M942 45V290" stroke="#C43418"/>
<path d="M1093 45V290" stroke="#C43418"/>
<path d="M1244 45V290" stroke="#C43418"/>
<path d="M1394 45V290" stroke="#C43418"/>
<circle cx="563.5" cy="174.5" r="5.5" fill="#C43418"/>
<circle cx="714.5" cy="174.5" r="5.5" fill="#C43418"/>
<circle cx="865.5" cy="174.5" r="5.5" fill="#C43418"/>
<circle cx="1016.5" cy="174.5" r="5.5" fill="#C43418"/>
<circle cx="1167.5" cy="174.5" r="5.5" fill="#C43418"/>
<circle cx="1318.5" cy="174.5" r="5.5" fill="#C43418"/>
<circle cx="488.5" cy="176.5" r="5.5" fill="#C43418"/>
<circle cx="639.5" cy="176.5" r="5.5" fill="#C43418"/>
<circle cx="790.5" cy="176.5" r="5.5" fill="#C43418"/>
<circle cx="941.5" cy="176.5" r="5.5" fill="#C43418"/>
<circle cx="1092.5" cy="176.5" r="5.5" fill="#C43418"/>
<circle cx="1243.5" cy="176.5" r="5.5" fill="#C43418"/>
<circle cx="1393.5" cy="176.5" r="5.5" fill="#C43418"/>
<circle cx="412.5" cy="201.5" r="5.5" fill="#C43418"/>
<circle cx="563.5" cy="217.5" r="5.5" fill="#C43418"/>
<circle cx="714.5" cy="217.5" r="5.5" fill="#C43418"/>
<circle cx="865.5" cy="217.5" r="5.5" fill="#C43418"/>
<circle cx="1016.5" cy="217.5" r="5.5" fill="#C43418"/>
<circle cx="1167.5" cy="217.5" r="5.5" fill="#C43418"/>
<circle cx="1318.5" cy="217.5" r="5.5" fill="#C43418"/>
<circle cx="337.5" cy="207.5" r="5.5" fill="#C43418"/>
<circle cx="488.5" cy="252.5" r="5.5" fill="#C43418"/>
<circle cx="639.5" cy="252.5" r="5.5" fill="#C43418"/>
<circle cx="790.5" cy="252.5" r="5.5" fill="#C43418"/>
<circle cx="941.5" cy="252.5" r="5.5" fill="#C43418"/>
<circle cx="1092.5" cy="252.5" r="5.5" fill="#C43418"/>
<circle cx="1243.5" cy="252.5" r="5.5" fill="#C43418"/>
<circle cx="1393.5" cy="252.5" r="5.5" fill="#C43418"/>
<circle cx="412.5" cy="250.5" r="5.5" fill="#C43418"/>
<circle cx="563.5" cy="266.5" r="5.5" fill="#C43418"/>
<circle cx="714.5" cy="266.5" r="5.5" fill="#C43418"/>
<circle cx="865.5" cy="266.5" r="5.5" fill="#C43418"/>
<circle cx="1016.5" cy="266.5" r="5.5" fill="#C43418"/>
<circle cx="1167.5" cy="266.5" r="5.5" fill="#C43418"/>
<circle cx="1318.5" cy="266.5" r="5.5" fill="#C43418"/>
<circle cx="412.5" cy="179.5" r="8.5" fill="#C43418"/>
<circle cx="563.5" cy="195.5" r="8.5" fill="#C43418"/>
<circle cx="714.5" cy="195.5" r="8.5" fill="#C43418"/>
<circle cx="865.5" cy="195.5" r="8.5" fill="#C43418"/>
<circle cx="1016.5" cy="195.5" r="8.5" fill="#C43418"/>
<circle cx="1167.5" cy="195.5" r="8.5" fill="#C43418"/>
<circle cx="1318.5" cy="195.5" r="8.5" fill="#C43418"/>
<circle cx="337.5" cy="185.5" r="8.5" fill="#C43418"/>
<circle cx="488.5" cy="231.5" r="8.5" fill="#C43418"/>
<circle cx="639.5" cy="231.5" r="8.5" fill="#C43418"/>
<circle cx="790.5" cy="231.5" r="8.5" fill="#C43418"/>
<circle cx="941.5" cy="231.5" r="8.5" fill="#C43418"/>
<circle cx="1092.5" cy="231.5" r="8.5" fill="#C43418"/>
<circle cx="1243.5" cy="231.5" r="8.5" fill="#C43418"/>
<circle cx="1393.5" cy="231.5" r="8.5" fill="#C43418"/>
<rect width="1097" height="64" transform="translate(-16 101)" fill="white"/>
<path d="M16.9336 105.281L10.7412 105.288L10.7357 111.551L4.54332 111.558L4.53785 117.821L10.7302 117.814L10.7248 124.077L16.9171 124.07L16.9226 117.808L23.115 117.8L23.1205 111.537L29.3128 111.53L29.3183 105.267L35.5107 105.26L35.5052 111.523L41.6976 111.517L41.6921 117.779L35.4998 117.786L35.4943 124.05L29.3019 124.057L29.2964 130.319L23.1041 130.326L23.0986 136.59L29.291 136.583L29.2845 142.846L35.4769 142.839L35.4714 149.103L41.6638 149.095L41.6583 155.358L35.466 155.365L35.4605 161.628L29.2681 161.636L29.2736 155.372L23.0812 155.379L23.0867 149.116L16.8943 149.123L16.8998 142.859L10.7074 142.867L10.7019 149.13L4.50953 149.137L4.50406 155.4L10.6964 155.394L10.691 161.656L16.8834 161.649L16.8802 165H-1.69697L-1.69379 161.67L-7.88617 161.677L-7.88935 165H-15.986L-15.9881 155.738L-13.3777 155.736L-13.3722 149.515L-7.2609 149.508L-7.25542 143.285L-1.14507 143.278L-1.13862 137.056L4.97173 137.049L4.97721 130.827L-1.13314 130.834L-1.12766 124.611L-7.23899 124.618L-7.23351 118.396L-13.3448 118.403L-13.3394 112.181L-15.9976 112.184L-16 101H-7.83203L-7.83597 105.309L-1.64359 105.302L-1.63965 101H16.9375L16.9336 105.281ZM54.0413 165H47.8489L47.8521 161.614L54.0445 161.607L54.0413 165ZM164.929 106.281L158.737 106.288L158.732 112.551L152.541 112.558L152.535 118.821L158.727 118.814L158.721 125.077L164.912 125.07L164.918 118.808L171.109 118.8L171.115 112.537L177.306 112.53L177.312 106.267L183.503 106.26L183.498 112.523L189.689 112.517L189.684 118.779L183.492 118.786L183.487 125.05L177.295 125.057L177.29 131.319L171.098 131.326L171.092 137.59L177.283 137.583L177.278 143.846L183.469 143.839L183.464 150.103L189.655 150.095L189.65 156.358L183.458 156.365L183.453 162.628L177.261 162.636L177.267 156.372L171.076 156.379L171.081 150.116L164.89 150.123L164.895 143.859L158.704 143.867L158.698 150.13L152.507 150.137L152.501 156.4L158.693 156.394L158.687 162.656L164.879 162.649L164.876 165H146.302L146.304 162.67L140.113 162.677L140.111 165H109.726L109.729 161.565L103.537 161.572L103.533 165H85.0101L85.0132 161.6L91.2056 161.593L91.2111 155.329L97.4035 155.322L97.4089 149.06L91.2165 149.066L91.222 142.804L85.0296 142.811L85.0242 149.073L78.8318 149.08L78.8263 155.344L72.6339 155.351L72.6285 161.613L66.4361 161.621L66.4415 155.357L60.2492 155.364L60.2546 149.102L66.447 149.095L66.4525 142.831L72.6449 142.824L72.6503 136.561L78.8427 136.554L78.8482 130.291L72.6558 130.298L72.6623 124.035L66.4699 124.042L66.4753 117.778L60.283 117.785L60.2884 111.522L66.4808 111.516L66.4863 105.252L72.6787 105.245L72.6732 111.509L78.8656 111.501L78.8601 117.765L85.0525 117.758L85.047 124.021L91.2394 124.014L91.2449 117.751L97.4372 117.744L97.4427 111.48L91.2503 111.487L91.2558 105.225L85.0634 105.231L85.0674 101H103.591L103.587 105.21L109.779 105.203L109.783 101H140.168L140.163 106.309L146.355 106.302L146.359 101H164.934L164.929 106.281ZM202.032 165H195.84L195.843 162.614L202.034 162.607L202.032 165ZM313.934 106.281L307.741 106.288L307.736 112.551L301.544 112.558L301.538 118.821L307.73 118.814L307.725 125.077L313.917 125.07L313.923 118.808L320.115 118.8L320.121 112.537L326.313 112.53L326.319 106.267L332.511 106.26L332.505 112.523L338.698 112.517L338.692 118.779L332.5 118.786L332.495 125.05L326.302 125.057L326.296 131.319L320.103 131.326L320.098 137.59L326.29 137.583L326.285 143.846L332.477 143.839L332.472 150.103L338.664 150.095L338.659 156.358L332.466 156.365L332.461 162.628L326.268 162.636L326.274 156.372L320.081 156.379L320.087 150.116L313.895 150.123L313.9 143.859L307.708 143.867L307.702 150.13L301.51 150.137L301.504 156.4L307.697 156.394L307.691 162.656L313.884 162.649L313.881 165H295.304L295.306 162.67L289.114 162.677L289.112 165H257.728L257.73 162.565L251.539 162.572L251.536 165H232.995L232.998 162.6L239.189 162.593L239.195 156.329L245.386 156.322L245.392 150.06L239.2 150.066L239.206 143.804L233.014 143.811L233.009 150.073L226.817 150.08L226.812 156.344L220.62 156.351L220.615 162.613L214.424 162.621L214.429 156.357L208.238 156.364L208.243 150.102L214.435 150.095L214.44 143.831L220.631 143.824L220.637 137.562L226.828 137.554L226.835 131.291L220.643 131.298L220.649 125.035L214.457 125.042L214.463 118.778L208.271 118.785L208.277 112.522L214.468 112.516L214.474 106.252L220.665 106.245L220.66 112.509L226.851 112.501L226.846 118.765L233.037 118.758L233.032 125.021L239.223 125.014L239.228 118.751L245.42 118.744L245.425 112.48L239.234 112.487L239.239 106.225L233.048 106.231L233.053 101H251.594L251.589 106.21L257.78 106.203L257.785 101H289.169L289.164 106.309L295.357 106.302L295.361 101H313.938L313.934 106.281ZM351.042 165H344.85L344.852 162.614L351.045 162.607L351.042 165ZM461.802 105.281L455.636 105.288L455.63 111.551L449.464 111.558L449.459 117.821L455.625 117.814L455.618 124.077L461.784 124.07L461.79 117.808L467.956 117.801L467.962 111.537L474.127 111.53L474.134 105.268L480.299 105.26L480.293 111.523L486.459 111.517L486.454 117.779L480.288 117.786L480.282 124.05L474.116 124.057L474.111 130.319L467.945 130.327L467.939 136.59L474.105 136.583L474.1 142.846L480.266 142.839L480.26 149.103L486.426 149.096L486.42 155.358L480.254 155.365L480.249 161.629L474.083 161.636L474.088 155.372L467.922 155.379L467.928 149.116L461.762 149.123L461.768 142.86L455.602 142.867L455.596 149.13L449.43 149.137L449.425 155.4L455.591 155.394L455.586 161.656L461.751 161.649L461.747 165H443.25L443.253 161.67L437.087 161.677L437.084 165H406.727L406.729 162.565L400.537 162.572L400.534 165H382.01L382.012 162.6L388.205 162.593L388.211 156.329L394.404 156.322L394.409 150.06L388.217 150.066L388.222 143.804L382.03 143.811L382.024 150.073L375.832 150.08L375.827 156.344L369.634 156.351L369.628 162.613L363.435 162.621L363.442 156.357L357.249 156.364L357.255 150.102L363.447 150.095L363.453 143.831L369.645 143.824L369.651 137.561L375.843 137.554L375.848 131.291L369.656 131.298L369.661 125.035L363.469 125.042L363.476 118.778L357.283 118.785L357.289 112.522L363.481 112.516L363.486 106.252L369.679 106.245L369.673 112.509L375.866 112.501L375.86 118.765L382.053 118.758L382.046 125.021L388.239 125.014L388.245 118.751L394.437 118.744L394.443 112.48L388.251 112.487L388.256 106.225L382.064 106.231L382.068 101H400.592L400.587 106.21L406.779 106.203L406.784 101H437.142L437.138 105.309L443.304 105.302L443.308 101H461.806L461.802 105.281ZM498.75 165H492.584L492.587 161.614L498.753 161.607L498.75 165ZM607.933 104.281L601.741 104.288L601.735 110.551L595.543 110.558L595.538 116.821L601.73 116.814L601.725 123.077L607.917 123.07L607.922 116.808L614.115 116.8L614.12 110.537L620.313 110.53L620.318 104.267L626.51 104.26L626.505 110.523L632.697 110.517L632.692 116.779L626.5 116.786L626.494 123.05L620.302 123.057L620.296 129.319L614.104 129.326L614.098 135.59L620.291 135.583L620.284 141.846L626.477 141.839L626.471 148.103L632.664 148.095L632.658 154.358L626.466 154.365L626.46 160.628L620.268 160.636L620.273 154.372L614.081 154.379L614.086 148.116L607.894 148.123L607.9 141.859L601.707 141.867L601.702 148.13L595.509 148.137L595.504 154.4L601.696 154.394L601.691 160.656L607.883 160.649L607.879 165H589.302L589.306 160.67L583.114 160.677L583.11 165H551.999L552.002 161.986L545.998 161.993L545.995 165H529.586L529.589 161.566L535.755 161.56L535.761 155.296L541.927 155.289L541.932 149.026L535.766 149.033L535.772 142.77L529.606 142.776L529.6 149.04L523.434 149.047L523.429 155.31L517.263 155.317L517.257 161.58L511.091 161.587L511.097 155.324L504.932 155.331L504.937 149.067L511.103 149.061L511.109 142.798L517.275 142.791L517.28 136.527L523.446 136.521L523.452 130.258L517.286 130.265L517.291 124.001L511.125 124.008L511.131 117.745L504.965 117.752L504.971 111.489L511.137 111.481L511.143 105.219L517.309 105.212L517.302 111.475L523.468 111.468L523.463 117.731L529.629 117.725L529.623 123.987L535.789 123.98L535.795 117.717L541.961 117.71L541.966 111.447L535.8 111.454L535.806 105.19L529.64 105.198L529.644 101H545.979L545.975 104.993L551.979 104.986L551.982 101H583.167L583.164 104.309L589.356 104.302L589.359 101H607.937L607.933 104.281ZM645.04 165H638.848L638.852 160.614L645.044 160.607L645.04 165ZM755.929 105.281L749.737 105.288L749.732 111.551L743.54 111.558L743.535 117.821L749.726 117.814L749.721 124.077L755.912 124.07L755.918 117.808L762.109 117.8L762.115 111.537L768.306 111.53L768.311 105.267L774.503 105.26L774.497 111.523L780.689 111.517L780.683 117.779L774.492 117.786L774.486 124.05L768.295 124.057L768.29 130.319L762.098 130.326L762.092 136.59L768.283 136.583L768.278 142.846L774.469 142.839L774.464 149.103L780.655 149.095L780.65 155.358L774.458 155.365L774.453 161.628L768.261 161.636L768.267 155.372L762.075 155.379L762.081 149.116L755.889 149.123L755.895 142.859L749.703 142.867L749.698 149.13L743.507 149.137L743.501 155.4L749.693 155.394L749.687 161.656L755.878 161.649L755.875 165H737.301L737.304 161.67L731.113 161.677L731.11 165H700.725L700.729 160.565L694.536 160.572L694.533 165H676.009L676.013 160.6L682.205 160.593L682.211 154.329L688.403 154.322L688.409 148.06L682.216 148.066L682.222 141.804L676.029 141.811L676.024 148.073L669.832 148.08L669.826 154.344L663.634 154.351L663.628 160.613L657.436 160.621L657.441 154.357L651.249 154.364L651.254 148.102L657.447 148.095L657.452 141.831L663.645 141.824L663.65 135.561L669.843 135.554L669.848 129.291L663.656 129.298L663.662 123.035L657.47 123.042L657.475 116.778L651.283 116.785L651.288 110.522L657.481 110.516L657.486 104.252L663.678 104.245L663.673 110.509L669.865 110.501L669.86 116.765L676.052 116.758L676.047 123.021L682.239 123.014L682.245 116.751L688.437 116.744L688.442 110.48L682.25 110.487L682.256 104.225L676.063 104.231L676.066 101H694.59L694.587 104.21L700.779 104.203L700.782 101H731.167L731.163 105.309L737.354 105.302L737.358 101H755.933L755.929 105.281ZM793.031 165H786.839L786.842 161.614L793.034 161.607L793.031 165ZM904.934 105.281L898.741 105.288L898.736 111.551L892.543 111.558L892.538 117.821L898.73 117.814L898.725 124.077L904.917 124.07L904.923 117.808L911.115 117.8L911.12 111.537L917.313 111.53L917.318 105.267L923.511 105.26L923.505 111.523L929.698 111.517L929.692 117.779L923.5 117.786L923.494 124.05L917.302 124.057L917.295 130.319L911.103 130.326L911.098 136.59L917.29 136.583L917.285 142.846L923.477 142.839L923.471 149.103L929.664 149.095L929.658 155.358L923.466 155.365L923.46 161.628L917.268 161.636L917.274 155.372L911.081 155.379L911.087 149.116L904.894 149.123L904.9 142.859L898.707 142.867L898.702 149.13L892.51 149.137L892.504 155.4L898.696 155.394L898.691 161.656L904.883 161.649L904.88 165H886.303L886.306 161.67L880.114 161.677L880.111 165H848.727L848.73 161.565L842.539 161.572L842.535 165H823.994L823.998 161.6L830.189 161.593L830.194 155.329L836.386 155.322L836.391 149.06L830.2 149.066L830.205 142.804L824.014 142.811L824.009 149.073L817.817 149.08L817.812 155.344L811.62 155.351L811.615 161.613L805.423 161.621L805.429 155.357L799.237 155.364L799.243 149.102L805.434 149.095L805.44 142.831L811.631 142.824L811.637 136.562L817.828 136.554L817.835 130.291L811.643 130.298L811.649 124.035L805.457 124.042L805.463 117.778L799.271 117.785L799.277 111.522L805.468 111.516L805.474 105.252L811.665 105.245L811.66 111.509L817.851 111.501L817.845 117.765L824.037 117.758L824.031 124.021L830.223 124.014L830.228 117.751L836.42 117.744L836.425 111.48L830.234 111.487L830.239 105.225L824.048 105.231L824.052 101H842.593L842.589 105.21L848.78 105.203L848.784 101H880.168L880.164 105.309L886.356 105.302L886.36 101H904.938L904.934 105.281ZM942.041 165H935.849L935.852 161.614L942.044 161.607L942.041 165ZM1052.8 104.281L1046.64 104.288L1046.63 110.551L1040.46 110.558L1040.46 116.821L1046.62 116.814L1046.62 123.077L1052.78 123.07L1052.79 116.808L1058.96 116.801L1058.96 110.537L1065.13 110.53L1065.13 104.268L1071.3 104.26L1071.29 110.523L1077.46 110.517L1077.45 116.779L1071.29 116.786L1071.28 123.05L1065.12 123.057L1065.11 129.319L1058.94 129.327L1058.94 135.59L1065.11 135.583L1065.1 141.846L1071.27 141.839L1071.26 148.103L1077.43 148.096L1077.42 154.358L1071.25 154.365L1071.25 160.629L1065.08 160.636L1065.09 154.372L1058.92 154.379L1058.93 148.116L1052.76 148.123L1052.77 141.86L1046.6 141.867L1046.6 148.13L1040.43 148.137L1040.42 154.4L1046.59 154.394L1046.59 160.656L1052.75 160.649L1052.75 165H1034.25L1034.25 160.67L1028.09 160.677L1028.08 165H997.726L997.729 161.565L991.537 161.572L991.533 165H973.009L973.012 161.6L979.205 161.593L979.211 155.329L985.403 155.322L985.409 149.06L979.217 149.066L979.222 142.804L973.03 142.811L973.024 149.073L966.832 149.08L966.826 155.344L960.634 155.351L960.627 161.613L954.435 161.621L954.442 155.357L948.249 155.364L948.255 149.102L954.447 149.095L954.452 142.831L960.645 142.824L960.65 136.561L966.843 136.554L966.848 130.291L960.656 130.298L960.661 124.035L954.469 124.042L954.475 117.778L948.283 117.785L948.288 111.522L954.481 111.516L954.486 105.252L960.679 105.245L960.673 111.509L966.866 111.501L966.86 117.765L973.052 117.758L973.046 124.021L979.238 124.014L979.245 117.751L985.437 117.744L985.443 111.48L979.25 111.487L979.256 105.225L973.063 105.231L973.067 101H991.591L991.587 105.21L997.779 105.203L997.783 101H1028.14L1028.14 104.309L1034.3 104.302L1034.31 101H1052.8L1052.8 104.281ZM121.444 105.973L121.439 112.194L115.328 112.201L115.322 118.424L109.211 118.431L109.205 124.653L103.094 124.66L103.089 130.882L96.9772 130.889L96.9717 137.111L103.083 137.104L103.078 143.326L109.189 143.319L109.183 149.542L115.294 149.535L115.288 155.757L121.4 155.75L121.394 161.973L127.505 161.966L127.511 155.743L133.622 155.736L133.628 149.515L139.739 149.508L139.745 143.285L145.855 143.278L145.861 137.056L151.972 137.049L151.977 130.827L145.867 130.834L145.872 124.611L139.761 124.618L139.766 118.396L133.655 118.403L133.661 112.181L127.55 112.188L127.556 105.966L121.444 105.973ZM269.444 105.973L269.439 112.194L263.328 112.201L263.322 118.424L257.211 118.431L257.205 124.653L251.094 124.66L251.089 130.882L244.977 130.889L244.972 137.111L251.083 137.104L251.078 143.326L257.189 143.319L257.183 149.542L263.294 149.535L263.288 155.757L269.4 155.75L269.394 161.973L275.505 161.966L275.511 155.743L281.622 155.736L281.628 149.515L287.739 149.508L287.745 143.285L293.855 143.278L293.86 137.056L299.972 137.049L299.977 130.827L293.867 130.834L293.872 124.611L287.761 124.618L287.766 118.396L281.655 118.403L281.661 112.181L275.55 112.188L275.556 105.966L269.444 105.973ZM417.444 104.973L417.439 111.194L411.327 111.201L411.322 117.424L405.211 117.431L405.205 123.653L399.095 123.66L399.088 129.882L392.978 129.889L392.973 136.111L399.083 136.104L399.077 142.326L405.189 142.319L405.183 148.542L411.295 148.535L411.289 154.757L417.399 154.75L417.394 160.973L423.505 160.966L423.511 154.743L429.622 154.736L429.628 148.515L435.739 148.508L435.744 142.285L441.856 142.278L441.861 136.056L447.972 136.049L447.978 129.827L441.867 129.834L441.872 123.611L435.761 123.618L435.766 117.396L429.656 117.403L429.661 111.181L423.55 111.188L423.556 104.966L417.444 104.973ZM565.444 104.973L565.439 111.194L559.327 111.201L559.322 117.424L553.211 117.431L553.205 123.653L547.094 123.66L547.088 129.882L540.977 129.889L540.972 136.111L547.083 136.104L547.077 142.326L553.189 142.319L553.183 148.542L559.294 148.535L559.288 154.757L565.399 154.75L565.394 160.973L571.505 160.966L571.511 154.743L577.622 154.736L577.628 148.515L583.739 148.508L583.744 142.285L589.855 142.278L589.861 136.056L595.972 136.049L595.977 129.827L589.867 129.834L589.872 123.611L583.761 123.618L583.766 117.396L577.655 117.403L577.66 111.181L571.55 111.188L571.556 104.966L565.444 104.973ZM712.444 104.973L712.439 111.194L706.327 111.201L706.322 117.424L700.211 117.431L700.205 123.653L694.094 123.66L694.088 129.882L687.977 129.889L687.972 136.111L694.083 136.104L694.077 142.326L700.189 142.319L700.183 148.542L706.294 148.535L706.288 154.757L712.399 154.75L712.394 160.973L718.505 160.966L718.511 154.743L724.622 154.736L724.628 148.515L730.739 148.508L730.744 142.285L736.855 142.278L736.861 136.056L742.972 136.049L742.977 129.827L736.867 129.834L736.872 123.611L730.761 123.618L730.766 117.396L724.655 117.403L724.66 111.181L718.55 111.188L718.556 104.966L712.444 104.973ZM860.444 104.973L860.439 111.194L854.327 111.201L854.322 117.424L848.211 117.431L848.205 123.653L842.094 123.66L842.088 129.882L835.977 129.889L835.972 136.111L842.083 136.104L842.077 142.326L848.189 142.319L848.183 148.542L854.294 148.535L854.288 154.757L860.399 154.75L860.394 160.973L866.505 160.966L866.511 154.743L872.622 154.736L872.628 148.515L878.739 148.508L878.744 142.285L884.855 142.278L884.86 136.056L890.972 136.049L890.977 129.827L884.867 129.834L884.872 123.611L878.761 123.618L878.766 117.396L872.655 117.403L872.66 111.181L866.55 111.188L866.556 104.966L860.444 104.973ZM1008.44 103.973L1008.44 110.194L1002.33 110.201L1002.32 116.424L996.21 116.431L996.205 122.653L990.095 122.66L990.088 128.882L983.978 128.889L983.972 135.111L990.083 135.104L990.077 141.326L996.188 141.319L996.183 147.542L1002.29 147.535L1002.29 153.757L1008.4 153.75L1008.39 159.973L1014.51 159.966L1014.51 153.743L1020.62 153.736L1020.63 147.515L1026.74 147.508L1026.74 141.285L1032.86 141.278L1032.86 135.056L1038.97 135.049L1038.98 128.827L1032.87 128.834L1032.87 122.611L1026.76 122.618L1026.77 116.396L1020.66 116.403L1020.66 110.181L1014.55 110.188L1014.56 103.966L1008.44 103.973ZM202.055 131.306L208.247 131.298L208.241 137.562L202.05 137.568L202.044 143.832L195.852 143.839L195.859 137.575L189.666 137.582L189.673 131.319L195.864 131.312L195.87 125.049L202.061 125.042L202.055 131.306ZM351.065 131.306L357.258 131.298L357.252 137.562L351.06 137.568L351.054 143.832L344.862 143.839L344.867 137.575L338.675 137.582L338.68 131.319L344.873 131.312L344.879 125.049L351.072 125.042L351.065 131.306ZM127.533 130.861L133.644 130.854L133.639 137.076L127.527 137.083L127.522 143.306L121.411 143.312L121.416 137.09L115.306 137.098L115.311 130.875L121.423 130.868L121.428 124.646L127.538 124.639L127.533 130.861ZM275.533 130.861L281.644 130.854L281.639 137.076L275.527 137.083L275.522 143.306L269.411 143.312L269.416 137.09L263.306 137.098L263.311 130.875L269.423 130.868L269.428 124.646L275.538 124.639L275.533 130.861ZM54.066 130.306L60.2583 130.298L60.2529 136.562L54.0605 136.568L54.054 142.832L47.8617 142.839L47.8681 136.575L41.6757 136.582L41.6812 130.319L47.8736 130.312L47.8791 124.049L54.0714 124.042L54.066 130.306ZM498.775 130.306L504.94 130.299L504.935 136.562L498.769 136.568L498.763 142.832L492.597 142.839L492.603 136.575L486.437 136.583L486.443 130.319L492.609 130.312L492.614 124.05L498.78 124.042L498.775 130.306ZM793.055 130.306L799.247 130.298L799.241 136.562L793.05 136.568L793.043 142.832L786.852 142.839L786.858 136.575L780.666 136.582L780.672 130.319L786.864 130.312L786.869 124.049L793.061 124.042L793.055 130.306ZM942.065 130.306L948.257 130.298L948.252 136.562L942.06 136.568L942.054 142.832L935.862 142.839L935.867 136.575L929.675 136.582L929.68 130.319L935.873 130.312L935.879 124.049L942.071 124.042L942.065 130.306ZM423.534 129.861L429.644 129.854L429.639 136.076L423.527 136.083L423.522 142.306L417.411 142.312L417.417 136.09L411.306 136.098L411.311 129.875L417.422 129.868L417.428 123.646L423.539 123.639L423.534 129.861ZM718.533 129.861L724.644 129.854L724.639 136.076L718.527 136.083L718.522 142.306L712.41 142.312L712.416 136.09L706.306 136.098L706.311 129.875L712.422 129.868L712.428 123.646L718.538 123.639L718.533 129.861ZM866.533 129.861L872.644 129.854L872.639 136.076L866.527 136.083L866.522 142.306L860.41 142.312L860.416 136.09L854.306 136.098L854.311 129.875L860.422 129.868L860.428 123.646L866.538 123.639L866.533 129.861ZM571.539 129.848L577.651 129.841L577.645 136.063L571.534 136.07L571.529 142.292L565.417 142.299L565.423 136.077L559.311 136.084L559.318 129.861L565.428 129.854L565.434 123.633L571.545 123.626L571.539 129.848ZM645.066 129.306L651.258 129.298L651.253 135.562L645.06 135.568L645.054 141.832L638.861 141.839L638.868 135.575L632.676 135.582L632.681 129.319L638.873 129.312L638.879 123.049L645.071 123.042L645.066 129.306ZM1014.53 128.861L1020.64 128.854L1020.64 135.076L1014.53 135.083L1014.52 141.306L1008.41 141.312L1008.42 135.09L1002.31 135.098L1002.31 128.875L1008.42 128.868L1008.43 122.646L1014.54 122.639L1014.53 128.861ZM-13.3544 137.063L-15.9921 137.066L-15.9935 130.844L-13.349 130.841L-13.3544 137.063ZM1081.01 135.578L1077.44 135.583L1077.44 129.319L1081.01 129.314L1081.01 135.578ZM202.084 106.239L195.893 106.246L195.897 101H202.089L202.084 106.239ZM351.095 106.239L344.903 106.246L344.907 101H351.1L351.095 106.239ZM54.0947 105.239L47.9023 105.246L47.9062 101H54.0986L54.0947 105.239ZM498.804 105.239L492.638 105.246L492.642 101H498.808L498.804 105.239ZM793.084 105.239L786.893 105.246L786.896 101H793.088L793.084 105.239ZM942.095 105.239L935.902 105.246L935.906 101H942.099L942.095 105.239ZM645.094 104.239L638.902 104.246L638.905 101H645.098L645.094 104.239Z" fill="#C43418"/>
<g clip-path="url(#clip0_1756_1262)">
<rect width="1034" height="63" transform="translate(1081 101)" fill="white"/>
<path d="M1050.93 104.018L1044.74 104.025L1044.74 110.235L1038.54 110.242L1038.54 116.453L1044.73 116.446L1044.72 122.656L1050.92 122.649L1050.92 116.439L1057.11 116.432L1057.12 110.222L1063.31 110.215L1063.32 104.004L1069.51 103.997L1069.51 110.208L1075.7 110.201L1075.69 116.411L1069.5 116.418L1069.49 122.629L1063.3 122.636L1063.3 128.847L1057.1 128.854L1057.1 135.063L1063.29 135.057L1063.29 141.268L1069.48 141.261L1069.47 147.471L1075.66 147.464L1075.66 153.675L1069.47 153.682L1069.46 159.892L1063.27 159.898L1063.27 153.688L1057.08 153.695L1057.09 147.484L1050.89 147.491L1050.9 141.281L1044.71 141.288L1044.7 147.499L1038.51 147.506L1038.5 153.716L1044.7 153.709L1044.69 159.92L1050.88 159.913L1050.88 164H1032.3L1032.31 159.934L1026.11 159.94L1026.11 164H1018.01L1018.01 154.738L1020.62 154.736L1020.63 148.515L1026.74 148.508L1026.74 142.285L1032.85 142.278L1032.86 136.057L1038.97 136.05L1038.98 129.827L1032.87 129.834L1032.87 123.612L1026.76 123.619L1026.77 117.396L1020.66 117.403L1020.66 111.182L1018 111.185L1018 100H1026.17L1026.16 104.046L1032.36 104.039L1032.36 100H1050.94L1050.93 104.018ZM1088.04 164H1081.85L1081.85 159.878L1088.04 159.871L1088.04 164ZM1198.93 105.018L1192.74 105.025L1192.73 111.235L1186.54 111.242L1186.54 117.453L1192.73 117.446L1192.72 123.656L1198.91 123.649L1198.92 117.439L1205.11 117.432L1205.11 111.222L1211.31 111.215L1211.31 105.004L1217.5 104.997L1217.5 111.208L1223.69 111.201L1223.68 117.411L1217.49 117.418L1217.49 123.629L1211.3 123.636L1211.29 129.847L1205.1 129.854L1205.09 136.063L1211.28 136.057L1211.28 142.268L1217.47 142.261L1217.46 148.471L1223.66 148.464L1223.65 154.675L1217.46 154.682L1217.45 160.892L1211.26 160.898L1211.27 154.688L1205.08 154.695L1205.08 148.484L1198.89 148.491L1198.89 142.281L1192.7 142.288L1192.7 148.499L1186.51 148.506L1186.5 154.716L1192.69 154.709L1192.69 160.92L1198.88 160.913L1198.88 164H1180.3L1180.3 160.934L1174.11 160.94L1174.11 164H1143.72L1143.73 159.829L1137.54 159.836L1137.53 164H1119.01L1119.01 159.863L1125.21 159.856L1125.21 153.646L1131.4 153.639L1131.41 147.429L1125.22 147.436L1125.22 141.225L1119.03 141.231L1119.02 147.442L1112.83 147.449L1112.83 153.66L1106.63 153.667L1106.63 159.877L1100.44 159.884L1100.44 153.674L1094.25 153.681L1094.25 147.47L1100.45 147.463L1100.45 141.253L1106.64 141.246L1106.65 135.035L1112.84 135.028L1112.85 128.817L1106.66 128.824L1106.66 122.614L1100.47 122.621L1100.48 116.41L1094.28 116.417L1094.29 110.207L1100.48 110.2L1100.49 103.989L1106.68 103.982L1106.67 110.193L1112.87 110.187L1112.86 116.396L1119.05 116.39L1119.05 122.601L1125.24 122.594L1125.24 116.383L1131.44 116.376L1131.44 110.165L1125.25 110.172L1125.26 103.962L1119.06 103.969L1119.07 100H1137.59L1137.59 103.948L1143.78 103.941L1143.78 100H1174.17L1174.16 105.046L1180.35 105.039L1180.36 100H1198.93L1198.93 105.018ZM1236.03 164H1229.84L1229.84 160.878L1236.03 160.871L1236.03 164ZM1346.93 105.018L1340.74 105.025L1340.74 111.235L1334.54 111.242L1334.54 117.453L1340.73 117.446L1340.72 123.656L1346.92 123.649L1346.92 117.439L1353.12 117.432L1353.12 111.222L1359.31 111.215L1359.32 105.004L1365.51 104.997L1365.51 111.208L1371.7 111.201L1371.69 117.411L1365.5 117.418L1365.49 123.629L1359.3 123.636L1359.3 129.847L1353.1 129.854L1353.1 136.063L1359.29 136.057L1359.28 142.268L1365.48 142.261L1365.47 148.471L1371.66 148.464L1371.66 154.675L1365.47 154.682L1365.46 160.892L1359.27 160.898L1359.27 154.688L1353.08 154.695L1353.09 148.484L1346.89 148.491L1346.9 142.281L1340.71 142.288L1340.7 148.499L1334.51 148.506L1334.5 154.716L1340.7 154.709L1340.69 160.92L1346.88 160.913L1346.88 164H1328.3L1328.31 160.934L1322.11 160.94L1322.11 164H1291.73L1291.73 160.829L1285.54 160.836L1285.54 164H1266.99L1267 160.863L1273.19 160.856L1273.19 154.646L1279.39 154.639L1279.39 148.429L1273.2 148.436L1273.21 142.225L1267.01 142.231L1267.01 148.442L1260.82 148.449L1260.81 154.66L1254.62 154.667L1254.61 160.877L1248.42 160.884L1248.43 154.674L1242.24 154.681L1242.24 148.47L1248.43 148.463L1248.44 142.253L1254.63 142.246L1254.64 136.035L1260.83 136.028L1260.83 129.817L1254.64 129.824L1254.65 123.614L1248.46 123.621L1248.46 117.41L1242.27 117.417L1242.28 111.207L1248.47 111.2L1248.47 104.989L1254.67 104.982L1254.66 111.193L1260.85 111.187L1260.85 117.396L1267.04 117.39L1267.03 123.601L1273.22 123.594L1273.23 117.383L1279.42 117.376L1279.43 111.165L1273.23 111.172L1273.24 104.962L1267.05 104.969L1267.05 100H1285.59L1285.59 104.948L1291.78 104.941L1291.79 100H1322.17L1322.16 105.046L1328.36 105.039L1328.36 100H1346.94L1346.93 105.018ZM1384.04 164H1377.85L1377.85 160.878L1384.04 160.871L1384.04 164ZM1494.8 104.019L1488.64 104.025L1488.63 110.235L1482.46 110.242L1482.46 116.453L1488.62 116.446L1488.62 122.656L1494.78 122.649L1494.79 116.439L1500.96 116.433L1500.96 110.222L1507.13 110.215L1507.13 104.004L1513.3 103.997L1513.29 110.208L1519.46 110.201L1519.45 116.411L1513.29 116.419L1513.28 122.629L1507.12 122.636L1507.11 128.847L1500.94 128.854L1500.94 135.063L1507.11 135.057L1507.1 141.268L1513.27 141.261L1513.26 147.471L1519.43 147.464L1519.42 153.675L1513.25 153.682L1513.25 159.893L1507.08 159.899L1507.09 153.688L1500.92 153.695L1500.93 147.485L1494.76 147.492L1494.77 141.281L1488.6 141.288L1488.6 147.499L1482.43 147.506L1482.42 153.716L1488.59 153.709L1488.59 159.92L1494.75 159.913L1494.75 164H1476.25L1476.25 159.934L1470.09 159.94L1470.08 164H1439.73L1439.73 160.829L1433.54 160.836L1433.53 164H1415.01L1415.01 160.863L1421.21 160.856L1421.21 154.646L1427.4 154.639L1427.41 148.429L1421.22 148.436L1421.22 142.225L1415.03 142.231L1415.02 148.442L1408.83 148.449L1408.83 154.66L1402.63 154.667L1402.63 160.877L1396.44 160.884L1396.44 154.674L1390.25 154.681L1390.25 148.47L1396.45 148.463L1396.45 142.253L1402.64 142.246L1402.65 136.035L1408.84 136.028L1408.85 129.817L1402.66 129.824L1402.66 123.614L1396.47 123.621L1396.48 117.41L1390.28 117.417L1390.29 111.207L1396.48 111.2L1396.49 104.989L1402.68 104.982L1402.67 111.193L1408.87 111.187L1408.86 117.396L1415.05 117.39L1415.05 123.601L1421.24 123.594L1421.25 117.383L1427.44 117.376L1427.44 111.165L1421.25 111.172L1421.26 104.962L1415.06 104.969L1415.07 100H1433.59L1433.59 104.948L1439.78 104.941L1439.78 100H1470.14L1470.14 104.046L1476.3 104.039L1476.31 100H1494.81L1494.8 104.019ZM1531.75 164H1525.58L1525.59 159.878L1531.75 159.871L1531.75 164ZM1641.93 103.018L1635.74 103.025L1635.74 109.235L1629.54 109.242L1629.54 115.453L1635.73 115.446L1635.72 121.656L1641.92 121.649L1641.92 115.439L1648.11 115.432L1648.12 109.222L1654.31 109.215L1654.32 103.004L1660.51 102.997L1660.5 109.208L1666.7 109.201L1666.69 115.411L1660.5 115.418L1660.49 121.629L1654.3 121.636L1654.3 127.847L1648.1 127.854L1648.1 134.063L1654.29 134.057L1654.29 140.268L1660.48 140.261L1660.47 146.471L1666.66 146.464L1666.66 152.675L1660.47 152.682L1660.46 158.892L1654.27 158.898L1654.27 152.688L1648.08 152.695L1648.09 146.484L1641.89 146.491L1641.9 140.281L1635.71 140.288L1635.7 146.499L1629.51 146.506L1629.5 152.716L1635.7 152.709L1635.69 158.92L1641.88 158.913L1641.88 164H1623.3L1623.31 158.934L1617.11 158.94L1617.11 164H1586L1586 159.986L1580 159.993L1579.99 164H1562.59L1562.59 159.83L1568.76 159.823L1568.76 153.612L1574.93 153.605L1574.93 147.396L1568.77 147.402L1568.77 141.191L1562.61 141.198L1562.6 147.409L1556.44 147.416L1556.43 153.627L1550.26 153.634L1550.26 159.844L1544.09 159.851L1544.1 153.641L1537.93 153.647L1537.94 147.437L1544.1 147.43L1544.11 141.22L1550.27 141.213L1550.28 135.002L1556.45 134.995L1556.45 128.784L1550.29 128.791L1550.29 122.581L1544.13 122.588L1544.13 116.377L1537.97 116.384L1537.97 110.174L1544.14 110.167L1544.14 103.956L1550.31 103.949L1550.3 110.16L1556.47 110.153L1556.46 116.363L1562.63 116.356L1562.62 122.567L1568.79 122.561L1568.79 116.35L1574.96 116.343L1574.97 110.132L1568.8 110.139L1568.81 103.929L1562.64 103.936L1562.64 100H1579.98L1579.98 102.993L1585.98 102.986L1585.98 100H1617.17L1617.16 103.046L1623.36 103.039L1623.36 100H1641.94L1641.93 103.018ZM1679.04 164H1672.85L1672.85 158.878L1679.04 158.871L1679.04 164ZM1789.93 104.018L1783.74 104.025L1783.73 110.235L1777.54 110.242L1777.53 116.453L1783.73 116.446L1783.72 122.656L1789.91 122.649L1789.92 116.439L1796.11 116.432L1796.11 110.222L1802.31 110.215L1802.31 104.004L1808.5 103.997L1808.5 110.208L1814.69 110.201L1814.68 116.411L1808.49 116.418L1808.49 122.629L1802.29 122.636L1802.29 128.847L1796.1 128.854L1796.09 135.063L1802.28 135.057L1802.28 141.268L1808.47 141.261L1808.46 147.471L1814.65 147.464L1814.65 153.675L1808.46 153.682L1808.45 159.892L1802.26 159.898L1802.27 153.688L1796.08 153.695L1796.08 147.484L1789.89 147.491L1789.89 141.281L1783.7 141.288L1783.7 147.499L1777.51 147.506L1777.5 153.716L1783.69 153.709L1783.69 159.92L1789.88 159.913L1789.87 164H1771.3L1771.3 159.934L1765.11 159.94L1765.11 164H1734.72L1734.73 158.829L1728.54 158.836L1728.53 164H1710.01L1710.01 158.863L1716.21 158.856L1716.21 152.646L1722.4 152.639L1722.41 146.429L1716.22 146.436L1716.22 140.225L1710.03 140.231L1710.02 146.442L1703.83 146.449L1703.83 152.66L1697.63 152.667L1697.63 158.877L1691.44 158.884L1691.44 152.674L1685.25 152.681L1685.25 146.47L1691.45 146.463L1691.45 140.253L1697.64 140.246L1697.65 134.035L1703.84 134.028L1703.85 127.817L1697.66 127.824L1697.66 121.614L1691.47 121.621L1691.48 115.41L1685.28 115.417L1685.29 109.207L1691.48 109.2L1691.49 102.989L1697.68 102.982L1697.67 109.193L1703.87 109.187L1703.86 115.396L1710.05 115.39L1710.05 121.601L1716.24 121.594L1716.24 115.383L1722.44 115.376L1722.44 109.165L1716.25 109.172L1716.26 102.962L1710.06 102.969L1710.07 100H1728.59L1728.59 102.948L1734.78 102.941L1734.78 100H1765.17L1765.16 104.046L1771.35 104.039L1771.36 100H1789.93L1789.93 104.018ZM1827.03 164H1820.84L1820.84 159.878L1827.03 159.871L1827.03 164ZM1937.93 104.018L1931.74 104.025L1931.74 110.235L1925.54 110.242L1925.54 116.453L1931.73 116.446L1931.72 122.656L1937.92 122.649L1937.92 116.439L1944.11 116.432L1944.12 110.222L1950.31 110.215L1950.32 104.004L1956.51 103.997L1956.51 110.208L1962.7 110.201L1962.69 116.411L1956.5 116.418L1956.49 122.629L1950.3 122.636L1950.3 128.847L1944.1 128.854L1944.1 135.063L1950.29 135.057L1950.28 141.268L1956.48 141.261L1956.47 147.471L1962.66 147.464L1962.66 153.675L1956.47 153.682L1956.46 159.892L1950.27 159.898L1950.27 153.688L1944.08 153.695L1944.09 147.484L1937.89 147.491L1937.9 141.281L1931.71 141.288L1931.7 147.499L1925.51 147.506L1925.5 153.716L1931.7 153.709L1931.69 159.92L1937.88 159.913L1937.88 164H1919.3L1919.31 159.934L1913.11 159.94L1913.11 164H1882.73L1882.73 159.829L1876.54 159.836L1876.53 164H1857.99L1858 159.863L1864.19 159.856L1864.19 153.646L1870.39 153.639L1870.39 147.429L1864.2 147.436L1864.21 141.225L1858.01 141.231L1858.01 147.442L1851.82 147.449L1851.81 153.66L1845.62 153.667L1845.61 159.877L1839.42 159.884L1839.43 153.674L1833.24 153.681L1833.24 147.47L1839.43 147.463L1839.44 141.253L1845.63 141.246L1845.64 135.035L1851.83 135.028L1851.83 128.817L1845.64 128.824L1845.65 122.614L1839.46 122.621L1839.46 116.41L1833.27 116.417L1833.28 110.207L1839.47 110.2L1839.47 103.989L1845.66 103.982L1845.66 110.193L1851.85 110.187L1851.85 116.396L1858.04 116.39L1858.03 122.601L1864.22 122.594L1864.23 116.383L1870.42 116.376L1870.43 110.165L1864.23 110.172L1864.24 103.962L1858.05 103.969L1858.05 100H1876.59L1876.59 103.948L1882.78 103.941L1882.78 100H1913.17L1913.16 104.046L1919.36 104.039L1919.36 100H1937.94L1937.93 104.018ZM1975.04 164H1968.85L1968.85 159.878L1975.04 159.871L1975.04 164ZM2085.8 103.019L2079.64 103.025L2079.63 109.235L2073.46 109.242L2073.46 115.453L2079.62 115.446L2079.62 121.656L2085.78 121.649L2085.79 115.439L2091.96 115.433L2091.96 109.222L2098.13 109.215L2098.13 103.004L2104.3 102.997L2104.29 109.208L2110.46 109.201L2110.45 115.411L2104.29 115.419L2104.28 121.629L2098.12 121.636L2098.11 127.847L2091.94 127.854L2091.94 134.063L2098.11 134.057L2098.1 140.268L2104.27 140.261L2104.26 146.471L2110.43 146.464L2110.42 152.675L2104.25 152.682L2104.25 158.893L2098.08 158.899L2098.09 152.688L2091.92 152.695L2091.93 146.485L2085.76 146.492L2085.77 140.281L2079.6 140.288L2079.6 146.499L2073.43 146.506L2073.42 152.716L2079.59 152.709L2079.59 158.92L2085.75 158.913L2085.75 164H2067.25L2067.25 158.934L2061.09 158.94L2061.08 164H2030.72L2030.73 159.829L2024.54 159.836L2024.53 164H2006.01L2006.01 159.863L2012.21 159.856L2012.21 153.646L2018.4 153.639L2018.41 147.429L2012.22 147.436L2012.22 141.225L2006.03 141.231L2006.02 147.442L1999.83 147.449L1999.83 153.66L1993.63 153.667L1993.63 159.877L1987.44 159.884L1987.44 153.674L1981.25 153.681L1981.25 147.47L1987.45 147.463L1987.45 141.253L1993.64 141.246L1993.65 135.035L1999.84 135.028L1999.85 128.817L1993.66 128.824L1993.66 122.614L1987.47 122.621L1987.48 116.41L1981.28 116.417L1981.29 110.207L1987.48 110.2L1987.49 103.989L1993.68 103.982L1993.67 110.193L1999.87 110.187L1999.86 116.396L2006.05 116.39L2006.05 122.601L2012.24 122.594L2012.24 116.383L2018.44 116.376L2018.44 110.165L2012.25 110.172L2012.26 103.962L2006.06 103.969L2006.07 100H2024.59L2024.59 103.948L2030.78 103.941L2030.78 100H2061.14L2061.14 103.046L2067.3 103.039L2067.31 100H2085.8L2085.8 103.019ZM1155.44 103.973L1155.44 110.195L1149.33 110.202L1149.32 116.424L1143.21 116.431L1143.21 122.653L1137.09 122.66L1137.09 128.882L1130.98 128.889L1130.97 135.111L1137.08 135.104L1137.08 141.326L1143.19 141.319L1143.18 147.542L1149.29 147.535L1149.29 153.757L1155.4 153.75L1155.39 159.973L1161.51 159.966L1161.51 153.743L1167.62 153.736L1167.63 147.515L1173.74 147.508L1173.74 141.285L1179.85 141.278L1179.86 135.057L1185.97 135.05L1185.98 128.827L1179.87 128.834L1179.87 122.612L1173.76 122.619L1173.77 116.396L1167.65 116.403L1167.66 110.182L1161.55 110.188L1161.56 103.966L1155.44 103.973ZM1303.44 103.973L1303.44 110.195L1297.33 110.202L1297.32 116.424L1291.21 116.431L1291.21 122.653L1285.09 122.66L1285.09 128.882L1278.98 128.889L1278.97 135.111L1285.08 135.104L1285.08 141.326L1291.19 141.319L1291.18 147.542L1297.29 147.535L1297.29 153.757L1303.4 153.75L1303.39 159.973L1309.51 159.966L1309.51 153.743L1315.62 153.736L1315.63 147.515L1321.74 147.508L1321.74 141.285L1327.85 141.278L1327.86 135.057L1333.97 135.05L1333.98 128.827L1327.87 128.834L1327.87 122.612L1321.76 122.619L1321.77 116.396L1315.65 116.403L1315.66 110.182L1309.55 110.188L1309.56 103.966L1303.44 103.973ZM1451.44 103.973L1451.44 110.195L1445.33 110.202L1445.32 116.424L1439.21 116.431L1439.21 122.653L1433.09 122.66L1433.09 128.882L1426.98 128.889L1426.97 135.111L1433.08 135.104L1433.08 141.326L1439.19 141.319L1439.18 147.542L1445.29 147.535L1445.29 153.757L1451.4 153.75L1451.39 159.973L1457.51 159.966L1457.51 153.743L1463.62 153.736L1463.63 147.515L1469.74 147.508L1469.74 141.285L1475.85 141.278L1475.86 135.057L1481.97 135.05L1481.98 128.827L1475.87 128.834L1475.87 122.612L1469.76 122.619L1469.77 116.396L1463.65 116.403L1463.66 110.182L1457.55 110.188L1457.56 103.966L1451.44 103.973ZM1599.44 103.973L1599.44 110.195L1593.33 110.202L1593.32 116.424L1587.21 116.431L1587.21 122.653L1581.09 122.66L1581.09 128.882L1574.98 128.889L1574.97 135.111L1581.08 135.104L1581.08 141.326L1587.19 141.319L1587.18 147.542L1593.29 147.535L1593.29 153.757L1599.4 153.75L1599.39 159.973L1605.5 159.966L1605.51 153.743L1611.62 153.736L1611.63 147.515L1617.74 147.508L1617.74 141.285L1623.85 141.278L1623.86 135.057L1629.97 135.05L1629.98 128.827L1623.87 128.834L1623.87 122.612L1617.76 122.619L1617.77 116.396L1611.65 116.403L1611.66 110.182L1605.55 110.188L1605.56 103.966L1599.44 103.973ZM1746.44 102.973L1746.44 109.195L1740.33 109.202L1740.32 115.424L1734.21 115.431L1734.2 121.653L1728.09 121.66L1728.09 127.882L1721.98 127.889L1721.97 134.111L1728.08 134.104L1728.08 140.326L1734.19 140.319L1734.18 146.542L1740.29 146.535L1740.29 152.757L1746.4 152.75L1746.39 158.973L1752.51 158.966L1752.51 152.743L1758.62 152.736L1758.63 146.515L1764.74 146.508L1764.74 140.285L1770.85 140.278L1770.86 134.057L1776.97 134.05L1776.98 127.827L1770.87 127.834L1770.87 121.612L1764.76 121.619L1764.77 115.396L1758.65 115.403L1758.66 109.182L1752.55 109.188L1752.56 102.966L1746.44 102.973ZM1894.44 102.973L1894.44 109.195L1888.33 109.202L1888.32 115.424L1882.21 115.431L1882.2 121.653L1876.09 121.66L1876.09 127.882L1869.98 127.889L1869.97 134.111L1876.08 134.104L1876.08 140.326L1882.19 140.319L1882.18 146.542L1888.29 146.535L1888.29 152.757L1894.4 152.75L1894.39 158.973L1900.51 158.966L1900.51 152.743L1906.62 152.736L1906.63 146.515L1912.74 146.508L1912.74 140.285L1918.85 140.278L1918.86 134.057L1924.97 134.05L1924.98 127.827L1918.87 127.834L1918.87 121.612L1912.76 121.619L1912.77 115.396L1906.65 115.403L1906.66 109.182L1900.55 109.188L1900.56 102.966L1894.44 102.973ZM2042.44 102.973L2042.44 109.195L2036.33 109.202L2036.32 115.424L2030.21 115.431L2030.2 121.653L2024.09 121.66L2024.09 127.882L2017.98 127.889L2017.97 134.111L2024.08 134.104L2024.08 140.326L2030.19 140.319L2030.18 146.542L2036.29 146.535L2036.29 152.757L2042.4 152.75L2042.39 158.973L2048.51 158.966L2048.51 152.743L2054.62 152.736L2054.63 146.515L2060.74 146.508L2060.74 140.285L2066.85 140.278L2066.86 134.057L2072.97 134.05L2072.98 127.827L2066.87 127.834L2066.87 121.612L2060.76 121.619L2060.77 115.396L2054.65 115.403L2054.66 109.182L2048.55 109.188L2048.56 102.966L2042.44 102.973ZM1236.06 129.832L1242.25 129.825L1242.24 136.035L1236.05 136.043L1236.04 142.253L1229.85 142.26L1229.86 136.05L1223.67 136.057L1223.67 129.846L1229.86 129.839L1229.87 123.628L1236.06 123.621L1236.06 129.832ZM1384.07 129.832L1390.26 129.825L1390.25 136.035L1384.06 136.043L1384.05 142.253L1377.86 142.26L1377.87 136.05L1371.67 136.057L1371.68 129.846L1377.87 129.839L1377.88 123.628L1384.07 123.621L1384.07 129.832ZM1161.53 128.861L1167.64 128.854L1167.64 135.077L1161.53 135.084L1161.52 141.306L1155.41 141.312L1155.42 135.091L1149.31 135.098L1149.31 128.875L1155.42 128.868L1155.43 122.646L1161.54 122.64L1161.53 128.861ZM1309.53 128.861L1315.64 128.854L1315.64 135.077L1309.53 135.084L1309.52 141.306L1303.41 141.312L1303.42 135.091L1297.31 135.098L1297.31 128.875L1303.42 128.868L1303.43 122.646L1309.54 122.64L1309.53 128.861ZM1457.53 128.861L1463.64 128.854L1463.64 135.077L1457.53 135.084L1457.52 141.306L1451.41 141.312L1451.42 135.091L1445.31 135.098L1445.31 128.875L1451.42 128.868L1451.43 122.646L1457.54 122.64L1457.53 128.861ZM1605.54 128.848L1611.65 128.841L1611.65 135.063L1605.53 135.07L1605.53 141.292L1599.42 141.299L1599.42 135.077L1593.31 135.084L1593.32 128.861L1599.43 128.854L1599.43 122.633L1605.54 122.626L1605.54 128.848ZM1088.07 128.832L1094.26 128.825L1094.25 135.035L1088.06 135.043L1088.05 141.253L1081.86 141.26L1081.87 135.05L1075.68 135.057L1075.68 128.846L1081.87 128.839L1081.88 122.628L1088.07 122.621L1088.07 128.832ZM1531.77 128.832L1537.94 128.825L1537.93 135.036L1531.77 135.043L1531.76 141.253L1525.6 141.26L1525.6 135.05L1519.44 135.057L1519.44 128.846L1525.61 128.839L1525.61 122.629L1531.78 122.622L1531.77 128.832ZM1827.06 128.832L1833.25 128.825L1833.24 135.035L1827.05 135.043L1827.04 141.253L1820.85 141.26L1820.86 135.05L1814.67 135.057L1814.67 128.846L1820.86 128.839L1820.87 122.628L1827.06 122.621L1827.06 128.832ZM1975.07 128.832L1981.26 128.825L1981.25 135.035L1975.06 135.043L1975.05 141.253L1968.86 141.26L1968.87 135.05L1962.67 135.057L1962.68 128.846L1968.87 128.839L1968.88 122.628L1975.07 122.621L1975.07 128.832ZM1752.53 127.861L1758.64 127.854L1758.64 134.077L1752.53 134.084L1752.52 140.306L1746.41 140.312L1746.42 134.091L1740.31 134.098L1740.31 127.875L1746.42 127.868L1746.43 121.646L1752.54 121.64L1752.53 127.861ZM1900.53 127.861L1906.64 127.854L1906.64 134.077L1900.53 134.084L1900.52 140.306L1894.41 140.312L1894.42 134.091L1888.31 134.098L1888.31 127.875L1894.42 127.868L1894.43 121.646L1900.54 121.64L1900.53 127.861ZM2048.53 127.861L2054.64 127.854L2054.64 134.077L2048.53 134.084L2048.52 140.306L2042.41 140.312L2042.42 134.091L2036.31 134.098L2036.31 127.875L2042.42 127.868L2042.43 121.646L2048.54 121.64L2048.53 127.861ZM1679.07 127.832L1685.26 127.825L1685.25 134.035L1679.06 134.043L1679.05 140.253L1672.86 140.26L1672.87 134.05L1666.68 134.057L1666.68 127.846L1672.87 127.839L1672.88 121.628L1679.07 121.621L1679.07 127.832ZM1020.65 136.063L1018.01 136.066L1018.01 129.844L1020.65 129.841L1020.65 136.063ZM2115.01 134.051L2110.44 134.057L2110.44 127.846L2115.01 127.84L2115.01 134.051ZM1236.08 104.977L1229.89 104.983L1229.9 100H1236.09L1236.08 104.977ZM1384.09 104.977L1377.9 104.983L1377.91 100H1384.1L1384.09 104.977ZM1088.09 103.977L1081.9 103.983L1081.91 100H1088.1L1088.09 103.977ZM1531.8 103.977L1525.64 103.983L1525.64 100H1531.81L1531.8 103.977ZM1827.08 103.977L1820.89 103.983L1820.9 100H1827.09L1827.08 103.977ZM1975.09 103.977L1968.9 103.983L1968.91 100H1975.1L1975.09 103.977ZM1679.09 102.977L1672.9 102.983L1672.9 100H1679.1L1679.09 102.977Z" fill="#C43418"/>
</g>
<defs>
<clipPath id="clip0_1756_1262">
<rect width="1034" height="63" fill="white" transform="translate(1081 101)"/>
</clipPath>
</defs>
</svg>
