<svg width="1440" height="64" viewBox="0 0 1440 64" fill="none" xmlns="http://www.w3.org/2000/svg">
<rect width="1097" height="64" transform="translate(-10)" fill="white"/>
<path d="M22.9336 4.28125L16.7412 4.28809L16.7357 10.5508L10.5433 10.5576L10.5379 16.8213L16.7302 16.8145L16.7248 23.0771L22.9171 23.0703L22.9226 16.8076L29.115 16.7998L29.1205 10.5371L35.3128 10.5303L35.3183 4.2666L41.5107 4.25977L41.5052 10.5234L47.6976 10.5156L47.6921 16.7793L41.4998 16.7861L41.4943 23.0498L35.3019 23.0566L35.2964 29.3193L29.1041 29.3262L29.0986 35.5898L35.291 35.583L35.2855 41.8457L41.4779 41.8389L41.4714 48.1016L47.6638 48.0947L47.6583 54.3584L41.466 54.3652L41.4605 60.6279L35.2681 60.6357L35.2736 54.3721L29.0812 54.3789L29.0867 48.1162L22.8943 48.123L22.9007 41.8594L16.7084 41.8672L16.7019 48.1299L10.5095 48.1367L10.5041 54.4004L16.6964 54.3926L16.691 60.6562L22.8834 60.6494L22.8802 64H4.30303L4.30621 60.6699L-1.88617 60.6768L-1.88935 64H-9.98603L-9.98806 54.7383L-7.3777 54.7363L-7.37223 48.5137L-1.2609 48.5068L-1.25542 42.2852L4.85591 42.2783L4.86138 36.0557L10.9717 36.0488L10.9772 29.8271L4.86686 29.834L4.87234 23.6113L-1.23899 23.6182L-1.23351 17.3965L-7.34484 17.4033L-7.33936 11.1807L-9.99756 11.1836L-10 0H-1.83203L-1.83597 4.30859L4.35641 4.30176L4.36035 0H22.9375L22.9336 4.28125ZM60.0413 64H53.8489L53.8521 60.6143L60.0445 60.6074L60.0413 64ZM170.929 5.28125L164.737 5.28809L164.732 11.5508L158.541 11.5576L158.535 17.8213L164.727 17.8145L164.721 24.0771L170.912 24.0703L170.918 17.8076L177.109 17.7998L177.115 11.5371L183.306 11.5303L183.312 5.2666L189.503 5.25977L189.498 11.5234L195.689 11.5156L195.684 17.7793L189.492 17.7861L189.487 24.0498L183.295 24.0566L183.29 30.3193L177.098 30.3262L177.093 36.5898L183.284 36.583L183.278 42.8457L189.469 42.8389L189.464 49.1016L195.655 49.0947L195.65 55.3584L189.458 55.3652L189.453 61.6279L183.261 61.6357L183.267 55.3721L177.076 55.3789L177.081 49.1162L170.89 49.123L170.895 42.8594L164.704 42.8672L164.698 49.1299L158.507 49.1367L158.501 55.4004L164.693 55.3936L164.687 61.6562L170.879 61.6494L170.876 64H152.302L152.304 61.6699L146.113 61.6768L146.111 64H115.726L115.729 60.5645L109.537 60.5723L109.533 64H91.0101L91.0132 60.5996L97.2056 60.5928L97.2111 54.3291L103.403 54.3223L103.409 48.0596L97.2165 48.0664L97.222 41.8027L91.0296 41.8096L91.0242 48.0732L84.8318 48.0801L84.8263 54.3438L78.6339 54.3506L78.6285 60.6133L72.4361 60.6201L72.4415 54.3574L66.2492 54.3643L66.2546 48.1016L72.447 48.0938L72.4525 41.8311L78.6449 41.8242L78.6503 35.5605L84.8427 35.5537L84.8492 29.291L78.6568 29.2979L78.6623 23.0342L72.4699 23.042L72.4753 16.7783L66.283 16.7852L66.2884 10.5225L72.4808 10.5156L72.4863 4.25195L78.6787 4.24512L78.6732 10.5078L84.8656 10.501L84.8601 16.7646L91.0525 16.7578L91.047 23.0205L97.2394 23.0137L97.2449 16.75L103.437 16.7432L103.443 10.4805L97.2503 10.4873L97.2558 4.22363L91.0634 4.23145L91.0674 0H109.591L109.587 4.20996L115.779 4.20312L115.783 0H146.168L146.163 5.30859L152.355 5.30176L152.359 0H170.934L170.929 5.28125ZM208.032 64H201.84L201.843 61.6143L208.034 61.6074L208.032 64ZM319.934 5.28125L313.741 5.28809L313.736 11.5508L307.544 11.5576L307.538 17.8213L313.73 17.8145L313.725 24.0771L319.917 24.0703L319.923 17.8076L326.115 17.7998L326.121 11.5371L332.313 11.5303L332.319 5.2666L338.511 5.25977L338.505 11.5234L344.698 11.5156L344.692 17.7793L338.5 17.7861L338.495 24.0498L332.302 24.0566L332.297 30.3193L326.104 30.3262L326.098 36.5898L332.29 36.583L332.285 42.8457L338.477 42.8389L338.472 49.1016L344.664 49.0947L344.659 55.3584L338.466 55.3652L338.461 61.6279L332.268 61.6357L332.274 55.3721L326.081 55.3789L326.087 49.1162L319.895 49.123L319.9 42.8594L313.708 42.8672L313.702 49.1299L307.51 49.1367L307.504 55.4004L313.697 55.3926L313.691 61.6562L319.884 61.6494L319.881 64H301.304L301.306 61.6699L295.114 61.6768L295.112 64H263.728L263.73 61.5645L257.539 61.5723L257.536 64H238.995L238.998 61.5996L245.189 61.5928L245.195 55.3291L251.386 55.3223L251.392 49.0596L245.2 49.0664L245.206 42.8027L239.014 42.8096L239.009 49.0732L232.817 49.0801L232.812 55.3438L226.62 55.3506L226.615 61.6133L220.424 61.6201L220.429 55.3574L214.238 55.3643L214.243 49.1016L220.435 49.0938L220.44 42.8311L226.631 42.8242L226.637 36.5605L232.829 36.5537L232.835 30.291L226.643 30.2979L226.649 24.0342L220.457 24.042L220.463 17.7783L214.271 17.7852L214.277 11.5225L220.468 11.5156L220.474 5.25195L226.665 5.24512L226.66 11.5078L232.851 11.501L232.846 17.7646L239.037 17.7578L239.032 24.0205L245.223 24.0137L245.228 17.75L251.42 17.7432L251.425 11.4805L245.234 11.4873L245.239 5.22363L239.048 5.23145L239.053 0H257.594L257.589 5.20996L263.78 5.20312L263.785 0H295.169L295.164 5.30859L301.357 5.30176L301.361 0H319.938L319.934 5.28125ZM357.042 64H350.85L350.852 61.6143L357.045 61.6074L357.042 64ZM467.802 4.28125L461.636 4.28809L461.63 10.5508L455.464 10.5576L455.459 16.8213L461.625 16.8145L461.619 23.0771L467.784 23.0703L467.791 16.8076L473.956 16.8008L473.962 10.5371L480.128 10.5303L480.134 4.2666L486.3 4.25977L486.293 10.5234L492.459 10.5166L492.454 16.7793L486.288 16.7861L486.282 23.0498L480.116 23.0566L480.111 29.3193L473.945 29.3262L473.939 35.5898L480.105 35.583L480.1 41.8457L486.266 41.8389L486.26 48.1025L492.426 48.0957L492.42 54.3584L486.254 54.3652L486.249 60.6289L480.083 60.6357L480.089 54.3721L473.923 54.3789L473.928 48.1162L467.762 48.123L467.768 41.8604L461.602 41.8672L461.596 48.1299L455.43 48.1367L455.425 54.4004L461.591 54.3936L461.586 60.6562L467.752 60.6494L467.748 64H449.25L449.253 60.6699L443.087 60.6768L443.084 64H412.727L412.729 61.5645L406.537 61.5723L406.534 64H388.011L388.013 61.5996L394.206 61.5928L394.211 55.3291L400.404 55.3223L400.409 49.0596L394.217 49.0664L394.222 42.8027L388.03 42.8096L388.024 49.0732L381.832 49.0801L381.827 55.3438L375.634 55.3506L375.629 61.6133L369.436 61.6201L369.442 55.3574L363.249 55.3643L363.255 49.1016L369.447 49.0938L369.453 42.8311L375.645 42.8242L375.651 36.5605L381.843 36.5537L381.848 30.291L375.656 30.2979L375.661 24.0342L369.469 24.042L369.476 17.7783L363.283 17.7852L363.289 11.5225L369.481 11.5156L369.486 5.25195L375.679 5.24512L375.673 11.5078L381.866 11.501L381.86 17.7646L388.053 17.7578L388.047 24.0205L394.24 24.0137L394.245 17.75L400.437 17.7432L400.443 11.4805L394.251 11.4873L394.256 5.22363L388.064 5.23145L388.068 0H406.592L406.587 5.20996L412.779 5.20312L412.784 0H443.142L443.138 4.30859L449.304 4.30176L449.308 0H467.806L467.802 4.28125ZM504.75 64H498.584L498.587 60.6143L504.753 60.6074L504.75 64ZM613.933 3.28125L607.741 3.28809L607.735 9.55078L601.543 9.55762L601.538 15.8213L607.73 15.8145L607.725 22.0771L613.917 22.0703L613.922 15.8076L620.115 15.7998L620.12 9.53711L626.313 9.53027L626.318 3.2666L632.51 3.25977L632.505 9.52344L638.697 9.51562L638.692 15.7793L632.5 15.7861L632.494 22.0498L626.302 22.0566L626.296 28.3193L620.104 28.3262L620.098 34.5898L626.291 34.583L626.285 40.8457L632.478 40.8389L632.471 47.1016L638.664 47.0947L638.658 53.3584L632.466 53.3652L632.46 59.6279L626.268 59.6357L626.273 53.3721L620.081 53.3789L620.086 47.1162L613.894 47.123L613.901 40.8594L607.708 40.8672L607.702 47.1299L601.509 47.1367L601.504 53.4004L607.696 53.3926L607.691 59.6562L613.883 59.6494L613.879 64H595.302L595.306 59.6699L589.114 59.6768L589.11 64H557.999L558.002 60.9863L551.998 60.9932L551.995 64H535.586L535.589 60.5664L541.755 60.5586L541.761 54.2959L547.927 54.2891L547.932 48.0254L541.766 48.0332L541.773 41.7695L535.607 41.7764L535.601 48.04L529.435 48.0469L529.429 54.3096L523.264 54.3164L523.257 60.5801L517.092 60.5869L517.098 54.3242L510.932 54.3311L510.937 48.0674L517.103 48.0605L517.109 41.7979L523.275 41.79L523.28 35.5273L529.446 35.5205L529.452 29.2568L523.286 29.2646L523.291 23.001L517.125 23.0078L517.131 16.7451L510.966 16.752L510.971 10.4883L517.137 10.4814L517.143 4.21875L523.309 4.21191L523.303 10.4746L529.468 10.4678L529.463 16.7305L535.629 16.7236L535.623 22.9873L541.789 22.9805L541.795 16.7168L547.961 16.71L547.966 10.4473L541.8 10.4541L541.806 4.19043L535.64 4.19727L535.644 0H551.979L551.975 3.99316L557.979 3.98633L557.982 0H589.167L589.164 3.30859L595.356 3.30176L595.359 0H613.937L613.933 3.28125ZM651.04 64H644.848L644.852 59.6143L651.044 59.6074L651.04 64ZM761.929 4.28125L755.737 4.28809L755.732 10.5508L749.54 10.5576L749.535 16.8213L755.726 16.8145L755.721 23.0771L761.912 23.0703L761.918 16.8076L768.109 16.7998L768.115 10.5371L774.306 10.5303L774.311 4.2666L780.503 4.25977L780.497 10.5234L786.689 10.5156L786.683 16.7793L780.492 16.7861L780.486 23.0498L774.295 23.0566L774.29 29.3193L768.098 29.3262L768.093 35.5898L774.284 35.583L774.278 41.8457L780.469 41.8389L780.464 48.1016L786.655 48.0947L786.65 54.3584L780.458 54.3652L780.453 60.6279L774.261 60.6357L774.267 54.3721L768.075 54.3789L768.081 48.1162L761.889 48.123L761.895 41.8594L755.703 41.8672L755.698 48.1299L749.507 48.1367L749.501 54.4004L755.693 54.3936L755.687 60.6562L761.878 60.6494L761.875 64H743.301L743.304 60.6699L737.113 60.6768L737.11 64H706.725L706.729 59.5645L700.536 59.5723L700.533 64H682.009L682.013 59.5996L688.205 59.5928L688.211 53.3291L694.403 53.3223L694.409 47.0596L688.216 47.0664L688.222 40.8027L682.029 40.8096L682.024 47.0732L675.832 47.0801L675.826 53.3438L669.634 53.3506L669.628 59.6133L663.436 59.6201L663.441 53.3574L657.249 53.3643L657.254 47.1016L663.447 47.0938L663.452 40.8311L669.645 40.8242L669.65 34.5605L675.843 34.5537L675.849 28.291L669.657 28.2979L669.662 22.0342L663.47 22.042L663.475 15.7783L657.283 15.7852L657.288 9.52246L663.481 9.51562L663.486 3.25195L669.678 3.24512L669.673 9.50781L675.865 9.50098L675.86 15.7646L682.052 15.7578L682.047 22.0205L688.239 22.0137L688.245 15.75L694.437 15.7432L694.442 9.48047L688.25 9.4873L688.256 3.22363L682.063 3.23145L682.066 0H700.59L700.587 3.20996L706.779 3.20312L706.782 0H737.167L737.163 4.30859L743.354 4.30176L743.358 0H761.933L761.929 4.28125ZM799.031 64H792.839L792.842 60.6143L799.034 60.6074L799.031 64ZM910.934 4.28125L904.741 4.28809L904.736 10.5508L898.543 10.5576L898.538 16.8213L904.73 16.8145L904.725 23.0771L910.917 23.0703L910.923 16.8076L917.115 16.7998L917.12 10.5371L923.313 10.5303L923.318 4.2666L929.511 4.25977L929.505 10.5234L935.698 10.5156L935.692 16.7793L929.5 16.7861L929.494 23.0498L923.302 23.0566L923.296 29.3193L917.104 29.3262L917.098 35.5898L923.29 35.583L923.285 41.8457L929.477 41.8389L929.471 48.1016L935.664 48.0947L935.658 54.3584L929.466 54.3652L929.46 60.6279L923.268 60.6357L923.274 54.3721L917.081 54.3789L917.087 48.1162L910.894 48.123L910.9 41.8594L904.707 41.8672L904.702 48.1299L898.51 48.1367L898.504 54.4004L904.696 54.3926L904.691 60.6562L910.883 60.6494L910.88 64H892.303L892.306 60.6699L886.114 60.6768L886.111 64H854.727L854.73 60.5645L848.539 60.5723L848.535 64H829.994L829.998 60.5996L836.189 60.5928L836.194 54.3291L842.386 54.3223L842.391 48.0596L836.2 48.0664L836.205 41.8027L830.014 41.8096L830.009 48.0732L823.817 48.0801L823.812 54.3438L817.62 54.3506L817.615 60.6133L811.423 60.6201L811.429 54.3574L805.237 54.3643L805.243 48.1016L811.434 48.0938L811.44 41.8311L817.631 41.8242L817.637 35.5605L823.829 35.5537L823.835 29.291L817.643 29.2979L817.649 23.0342L811.457 23.042L811.463 16.7783L805.271 16.7852L805.277 10.5225L811.468 10.5156L811.474 4.25195L817.665 4.24512L817.66 10.5078L823.851 10.501L823.845 16.7646L830.037 16.7578L830.031 23.0205L836.223 23.0137L836.228 16.75L842.42 16.7432L842.425 10.4805L836.234 10.4873L836.239 4.22363L830.048 4.23145L830.052 0H848.593L848.589 4.20996L854.78 4.20312L854.784 0H886.168L886.164 4.30859L892.356 4.30176L892.36 0H910.938L910.934 4.28125ZM948.041 64H941.849L941.852 60.6143L948.044 60.6074L948.041 64ZM1058.8 3.28125L1052.64 3.28809L1052.63 9.55078L1046.46 9.55762L1046.46 15.8213L1052.62 15.8145L1052.62 22.0771L1058.78 22.0703L1058.79 15.8076L1064.96 15.8008L1064.96 9.53711L1071.13 9.53027L1071.13 3.2666L1077.3 3.25977L1077.29 9.52344L1083.46 9.5166L1083.45 15.7793L1077.29 15.7861L1077.28 22.0498L1071.12 22.0566L1071.11 28.3193L1064.94 28.3262L1064.94 34.5898L1071.11 34.583L1071.1 40.8457L1077.27 40.8389L1077.26 47.1025L1083.43 47.0957L1083.42 53.3584L1077.25 53.3652L1077.25 59.6289L1071.08 59.6357L1071.09 53.3721L1064.92 53.3789L1064.93 47.1162L1058.76 47.123L1058.77 40.8604L1052.6 40.8672L1052.6 47.1299L1046.43 47.1367L1046.42 53.4004L1052.59 53.3936L1052.59 59.6562L1058.75 59.6494L1058.75 64H1040.25L1040.25 59.6699L1034.09 59.6768L1034.08 64H1003.73L1003.73 60.5645L997.537 60.5723L997.533 64H979.01L979.013 60.5996L985.206 60.5928L985.211 54.3291L991.403 54.3223L991.409 48.0596L985.217 48.0664L985.222 41.8027L979.03 41.8096L979.024 48.0732L972.832 48.0801L972.826 54.3438L966.634 54.3506L966.628 60.6133L960.436 60.6201L960.442 54.3574L954.249 54.3643L954.255 48.1016L960.447 48.0938L960.452 41.8311L966.645 41.8242L966.65 35.5605L972.843 35.5537L972.848 29.291L966.656 29.2979L966.661 23.0342L960.469 23.042L960.475 16.7783L954.283 16.7852L954.288 10.5225L960.481 10.5156L960.486 4.25195L966.679 4.24512L966.673 10.5078L972.866 10.501L972.86 16.7646L979.052 16.7578L979.047 23.0205L985.239 23.0137L985.245 16.75L991.437 16.7432L991.443 10.4805L985.25 10.4873L985.256 4.22363L979.063 4.23145L979.067 0H997.591L997.587 4.20996L1003.78 4.20312L1003.78 0H1034.14L1034.14 3.30859L1040.3 3.30176L1040.31 0H1058.8L1058.8 3.28125ZM127.444 4.97266L127.439 11.1943L121.328 11.2012L121.322 17.4238L115.211 17.4307L115.205 23.6533L109.094 23.6602L109.089 29.8818L102.977 29.8887L102.972 36.1113L109.083 36.1045L109.078 42.3262L115.189 42.3193L115.183 48.542L121.295 48.5352L121.288 54.7568L127.4 54.75L127.394 60.9727L133.505 60.9658L133.511 54.7432L139.622 54.7363L139.628 48.5146L145.739 48.5068L145.745 42.2852L151.855 42.2783L151.861 36.0557L157.972 36.0488L157.977 29.8271L151.867 29.834L151.872 23.6113L145.761 23.6182L145.766 17.3965L139.655 17.4033L139.661 11.1807L133.55 11.1875L133.556 4.96582L127.444 4.97266ZM275.444 4.97266L275.439 11.1943L269.328 11.2012L269.322 17.4238L263.211 17.4307L263.205 23.6533L257.094 23.6602L257.089 29.8818L250.977 29.8887L250.972 36.1113L257.083 36.1045L257.078 42.3262L263.189 42.3193L263.183 48.542L269.295 48.5352L269.288 54.7568L275.4 54.75L275.394 60.9727L281.505 60.9658L281.511 54.7432L287.622 54.7363L287.628 48.5146L293.739 48.5068L293.745 42.2852L299.855 42.2783L299.861 36.0557L305.972 36.0488L305.977 29.8271L299.867 29.834L299.872 23.6113L293.761 23.6182L293.766 17.3965L287.655 17.4033L287.661 11.1807L281.55 11.1875L281.556 4.96582L275.444 4.97266ZM423.444 3.97266L423.439 10.1943L417.327 10.2012L417.322 16.4238L411.211 16.4307L411.205 22.6533L405.095 22.6602L405.088 28.8818L398.978 28.8887L398.973 35.1113L405.083 35.1045L405.077 41.3262L411.189 41.3193L411.183 47.542L417.295 47.5352L417.289 53.7568L423.399 53.75L423.394 59.9727L429.505 59.9658L429.511 53.7432L435.622 53.7363L435.628 47.5146L441.739 47.5068L441.744 41.2852L447.856 41.2783L447.861 35.0557L453.972 35.0488L453.978 28.8271L447.867 28.834L447.872 22.6113L441.761 22.6182L441.766 16.3965L435.656 16.4033L435.661 10.1807L429.55 10.1875L429.556 3.96582L423.444 3.97266ZM571.444 3.97266L571.439 10.1943L565.327 10.2012L565.322 16.4238L559.211 16.4307L559.205 22.6533L553.094 22.6602L553.088 28.8818L546.977 28.8887L546.972 35.1113L553.083 35.1045L553.077 41.3262L559.189 41.3193L559.183 47.542L565.295 47.5352L565.288 53.7568L571.399 53.75L571.394 59.9727L577.505 59.9658L577.511 53.7432L583.622 53.7363L583.628 47.5137L589.739 47.5068L589.744 41.2852L595.856 41.2783L595.861 35.0557L601.972 35.0488L601.977 28.8271L595.867 28.834L595.872 22.6113L589.761 22.6182L589.766 16.3965L583.655 16.4033L583.66 10.1807L577.55 10.1875L577.556 3.96582L571.444 3.97266ZM718.444 3.97266L718.439 10.1943L712.327 10.2012L712.322 16.4238L706.211 16.4307L706.205 22.6533L700.094 22.6602L700.088 28.8818L693.977 28.8887L693.972 35.1113L700.083 35.1045L700.077 41.3262L706.189 41.3193L706.183 47.542L712.295 47.5352L712.288 53.7568L718.399 53.75L718.394 59.9727L724.505 59.9658L724.511 53.7432L730.622 53.7363L730.628 47.5146L736.739 47.5068L736.744 41.2852L742.855 41.2783L742.861 35.0557L748.972 35.0488L748.977 28.8271L742.867 28.834L742.872 22.6113L736.761 22.6182L736.766 16.3965L730.655 16.4033L730.66 10.1807L724.55 10.1875L724.556 3.96582L718.444 3.97266ZM866.444 3.97266L866.439 10.1943L860.327 10.2012L860.322 16.4238L854.211 16.4307L854.205 22.6533L848.094 22.6602L848.088 28.8818L841.977 28.8887L841.972 35.1113L848.083 35.1045L848.077 41.3262L854.189 41.3193L854.183 47.542L860.295 47.5352L860.288 53.7568L866.399 53.75L866.394 59.9727L872.505 59.9658L872.511 53.7432L878.622 53.7363L878.628 47.5146L884.739 47.5068L884.744 41.2852L890.855 41.2783L890.861 35.0557L896.972 35.0488L896.977 28.8271L890.867 28.834L890.872 22.6113L884.761 22.6182L884.766 16.3965L878.655 16.4033L878.66 10.1807L872.55 10.1875L872.556 3.96582L866.444 3.97266ZM1014.44 2.97266L1014.44 9.19434L1008.33 9.20117L1008.32 15.4238L1002.21 15.4307L1002.2 21.6533L996.095 21.6602L996.088 27.8818L989.978 27.8887L989.972 34.1113L996.083 34.1045L996.077 40.3262L1002.19 40.3193L1002.18 46.542L1008.29 46.5352L1008.29 52.7568L1014.4 52.75L1014.39 58.9727L1020.51 58.9658L1020.51 52.7432L1026.62 52.7363L1026.63 46.5146L1032.74 46.5068L1032.74 40.2852L1038.86 40.2783L1038.86 34.0557L1044.97 34.0488L1044.98 27.8271L1038.87 27.834L1038.87 21.6113L1032.76 21.6182L1032.77 15.3965L1026.66 15.4033L1026.66 9.18066L1020.55 9.1875L1020.56 2.96582L1014.44 2.97266ZM208.055 30.3047L214.247 30.2979L214.241 36.5615L208.05 36.5684L208.045 42.8311L201.853 42.8389L201.859 36.5752L195.667 36.582L195.673 30.3193L201.864 30.3125L201.87 24.0488L208.061 24.042L208.055 30.3047ZM357.066 30.3047L363.259 30.2979L363.252 36.5615L357.06 36.5684L357.054 42.8311L350.862 42.8389L350.867 36.5752L344.675 36.582L344.681 30.3193L350.874 30.3125L350.879 24.0488L357.072 24.042L357.066 30.3047ZM133.533 29.8613L139.644 29.8545L139.639 36.0762L133.527 36.083L133.522 42.3057L127.411 42.3125L127.416 36.0898L121.306 36.0967L121.311 29.875L127.423 29.8682L127.428 23.6455L133.538 23.6387L133.533 29.8613ZM281.533 29.8613L287.644 29.8545L287.639 36.0762L281.527 36.083L281.522 42.3057L275.411 42.3125L275.416 36.0898L269.306 36.0967L269.311 29.875L275.423 29.8682L275.428 23.6455L281.538 23.6387L281.533 29.8613ZM60.066 29.3047L66.2583 29.2979L66.2529 35.5615L60.0605 35.5684L60.055 41.8311L53.8626 41.8389L53.8681 35.5752L47.6757 35.582L47.6812 29.3193L53.8736 29.3125L53.8791 23.0488L60.0714 23.042L60.066 29.3047ZM504.775 29.3057L510.941 29.2988L510.935 35.5615L504.769 35.5684L504.763 41.832L498.598 41.8389L498.603 35.5752L492.437 35.582L492.443 29.3193L498.609 29.3125L498.614 23.0488L504.78 23.042L504.775 29.3057ZM799.055 29.3047L805.247 29.2979L805.241 35.5615L799.05 35.5684L799.044 41.8311L792.853 41.8389L792.858 35.5752L786.667 35.582L786.672 29.3193L792.864 29.3125L792.869 23.0488L799.061 23.042L799.055 29.3047ZM948.066 29.3047L954.258 29.2979L954.252 35.5615L948.06 35.5684L948.054 41.8311L941.862 41.8389L941.867 35.5752L935.675 35.582L935.681 29.3193L941.874 29.3125L941.879 23.0488L948.071 23.042L948.066 29.3047ZM429.534 28.8613L435.644 28.8545L435.639 35.0762L429.527 35.083L429.522 41.3057L423.411 41.3125L423.417 35.0898L417.306 35.0967L417.311 28.875L423.422 28.8682L423.428 22.6455L429.539 22.6387L429.534 28.8613ZM724.533 28.8613L730.644 28.8545L730.639 35.0762L724.527 35.083L724.522 41.3057L718.41 41.3125L718.416 35.0898L712.306 35.0967L712.311 28.875L718.422 28.8682L718.428 22.6455L724.538 22.6387L724.533 28.8613ZM872.533 28.8613L878.644 28.8545L878.639 35.0762L872.527 35.083L872.522 41.3057L866.41 41.3125L866.416 35.0898L860.306 35.0967L860.311 28.875L866.422 28.8682L866.428 22.6455L872.538 22.6387L872.533 28.8613ZM577.539 28.8477L583.651 28.8408L583.645 35.0625L577.534 35.0703L577.529 41.292L571.417 41.2988L571.423 35.0771L565.312 35.084L565.318 28.8613L571.428 28.8545L571.434 22.6318L577.545 22.625L577.539 28.8477ZM651.066 28.3047L657.258 28.2979L657.253 34.5615L651.06 34.5684L651.055 40.8311L644.862 40.8389L644.868 34.5752L638.676 34.582L638.681 28.3193L644.873 28.3125L644.879 22.0488L651.071 22.042L651.066 28.3047ZM1020.53 27.8613L1026.64 27.8545L1026.64 34.0762L1020.53 34.083L1020.52 40.3057L1014.41 40.3125L1014.42 34.0898L1008.31 34.0967L1008.31 27.875L1014.42 27.8682L1014.43 21.6455L1020.54 21.6387L1020.53 27.8613ZM-7.35444 36.0625L-9.99213 36.0654L-9.99349 29.8438L-7.34896 29.8408L-7.35444 36.0625ZM1087.01 34.5771L1083.44 34.582L1083.44 28.3193L1087.01 28.3145L1087.01 34.5771ZM208.084 5.23926L201.893 5.24609L201.897 0H208.089L208.084 5.23926ZM357.095 5.23926L350.903 5.24609L350.907 0H357.1L357.095 5.23926ZM60.0947 4.23926L53.9023 4.24609L53.9062 0H60.0986L60.0947 4.23926ZM504.804 4.23926L498.638 4.24609L498.642 0H504.808L504.804 4.23926ZM799.084 4.23926L792.893 4.24609L792.896 0H799.088L799.084 4.23926ZM948.095 4.23926L941.902 4.24609L941.906 0H948.099L948.095 4.23926ZM651.094 3.23926L644.902 3.24609L644.905 0H651.098L651.094 3.23926Z" fill="#C43418"/>
<g clip-path="url(#clip0_1726_889)">
<rect width="1034" height="63" transform="translate(1087)" fill="white"/>
<path d="M1056.93 3.01758L1050.74 3.02441L1050.74 9.23535L1044.54 9.24219L1044.54 15.4531L1050.73 15.4463L1050.72 21.6562L1056.92 21.6494L1056.92 15.4385L1063.11 15.4316L1063.12 9.22168L1069.31 9.21484L1069.32 3.00391L1075.51 2.99707L1075.51 9.20801L1081.7 9.2002L1081.69 15.4111L1075.5 15.418L1075.49 21.6289L1069.3 21.6357L1069.3 27.8457L1063.1 27.8535L1063.1 34.0635L1069.29 34.0566L1069.29 40.2676L1075.48 40.2598L1075.47 46.4707L1081.66 46.4639L1081.66 52.6748L1075.47 52.6816L1075.46 58.8916L1069.27 58.8984L1069.27 52.6885L1063.08 52.6953L1063.09 46.4844L1056.9 46.4912L1056.9 40.2812L1050.71 40.2881L1050.7 46.498L1044.51 46.5059L1044.5 52.7158L1050.7 52.709L1050.69 58.9199L1056.88 58.9131L1056.88 63H1038.3L1038.31 58.9336L1032.11 58.9404L1032.11 63H1024.01L1024.01 53.7383L1026.62 53.7363L1026.63 47.5146L1032.74 47.5078L1032.74 41.2852L1038.85 41.2783L1038.86 35.0566L1044.97 35.0498L1044.98 28.8271L1038.87 28.834L1038.87 22.6123L1032.76 22.6191L1032.77 16.3965L1026.66 16.4033L1026.66 10.1807L1024 10.1836L1024 -1H1032.17L1032.16 3.0459L1038.36 3.03906L1038.36 -1H1056.94L1056.93 3.01758ZM1094.04 63H1087.85L1087.85 58.8779L1094.04 58.8711L1094.04 63ZM1204.93 4.01758L1198.74 4.02441L1198.73 10.2354L1192.54 10.2422L1192.54 16.4531L1198.73 16.4463L1198.72 22.6562L1204.91 22.6494L1204.92 16.4385L1211.11 16.4316L1211.11 10.2217L1217.31 10.2148L1217.31 4.00391L1223.5 3.99707L1223.5 10.208L1229.69 10.2002L1229.68 16.4111L1223.49 16.418L1223.49 22.6289L1217.3 22.6357L1217.29 28.8457L1211.1 28.8535L1211.09 35.0635L1217.28 35.0566L1217.28 41.2676L1223.47 41.2598L1223.46 47.4707L1229.66 47.4639L1229.65 53.6748L1223.46 53.6816L1223.45 59.8916L1217.26 59.8984L1217.27 53.6885L1211.08 53.6953L1211.08 47.4844L1204.89 47.4912L1204.9 41.2812L1198.7 41.2881L1198.7 47.498L1192.51 47.5059L1192.5 53.7158L1198.69 53.709L1198.69 59.9199L1204.88 59.9131L1204.88 63H1186.3L1186.3 59.9336L1180.11 59.9404L1180.11 63H1149.72L1149.73 58.8291L1143.54 58.8359L1143.53 63H1125.01L1125.01 58.8633L1131.21 58.8564L1131.21 52.6455L1137.4 52.6387L1137.41 46.4287L1131.22 46.4355L1131.22 40.2246L1125.03 40.2314L1125.02 46.4424L1118.83 46.4492L1118.83 52.6592L1112.63 52.667L1112.63 58.877L1106.44 58.8838L1106.44 52.6738L1100.25 52.6807L1100.25 46.4697L1106.45 46.4629L1106.45 40.252L1112.65 40.2451L1112.65 34.0352L1118.84 34.0283L1118.85 27.8174L1112.66 27.8242L1112.66 21.6143L1106.47 21.6211L1106.48 15.4102L1100.28 15.417L1100.29 9.20703L1106.48 9.2002L1106.49 2.98926L1112.68 2.98242L1112.67 9.19238L1118.87 9.18555L1118.86 15.3965L1125.05 15.3896L1125.05 21.5996L1131.24 21.5928L1131.24 15.3828L1137.44 15.376L1137.44 9.16504L1131.25 9.17188L1131.26 2.96191L1125.06 2.96875L1125.07 -1H1143.59L1143.59 2.94727L1149.78 2.94043L1149.78 -1H1180.17L1180.16 4.0459L1186.35 4.03906L1186.36 -1H1204.93L1204.93 4.01758ZM1242.03 63H1235.84L1235.84 59.8779L1242.03 59.8711L1242.03 63ZM1352.93 4.01758L1346.74 4.02441L1346.74 10.2354L1340.54 10.2422L1340.54 16.4531L1346.73 16.4463L1346.72 22.6562L1352.92 22.6494L1352.92 16.4385L1359.12 16.4316L1359.12 10.2217L1365.31 10.2148L1365.32 4.00391L1371.51 3.99707L1371.51 10.208L1377.7 10.2002L1377.69 16.4111L1371.5 16.418L1371.49 22.6289L1365.3 22.6357L1365.3 28.8457L1359.1 28.8535L1359.1 35.0635L1365.29 35.0566L1365.29 41.2676L1371.48 41.2598L1371.47 47.4707L1377.66 47.4639L1377.66 53.6748L1371.47 53.6816L1371.46 59.8916L1365.27 59.8984L1365.27 53.6885L1359.08 53.6953L1359.09 47.4844L1352.89 47.4912L1352.9 41.2812L1346.71 41.2881L1346.7 47.498L1340.51 47.5059L1340.5 53.7158L1346.7 53.709L1346.69 59.9199L1352.88 59.9131L1352.88 63H1334.3L1334.31 59.9336L1328.11 59.9404L1328.11 63H1297.73L1297.73 59.8291L1291.54 59.8359L1291.54 63H1272.99L1273 59.8633L1279.19 59.8564L1279.19 53.6455L1285.39 53.6387L1285.39 47.4287L1279.2 47.4355L1279.21 41.2246L1273.02 41.2314L1273.01 47.4424L1266.82 47.4492L1266.81 53.6592L1260.62 53.667L1260.61 59.877L1254.42 59.8838L1254.43 53.6738L1248.24 53.6807L1248.24 47.4697L1254.43 47.4629L1254.44 41.252L1260.63 41.2451L1260.64 35.0352L1266.83 35.0283L1266.83 28.8174L1260.64 28.8242L1260.65 22.6143L1254.46 22.6211L1254.46 16.4102L1248.27 16.417L1248.28 10.207L1254.47 10.2002L1254.47 3.98926L1260.67 3.98242L1260.66 10.1924L1266.85 10.1855L1266.85 16.3965L1273.04 16.3896L1273.03 22.5996L1279.22 22.5928L1279.23 16.3828L1285.42 16.376L1285.43 10.165L1279.23 10.1719L1279.24 3.96191L1273.05 3.96875L1273.05 -1H1291.59L1291.59 3.94727L1297.78 3.94043L1297.79 -1H1328.17L1328.16 4.0459L1334.36 4.03906L1334.36 -1H1352.94L1352.93 4.01758ZM1390.04 63H1383.85L1383.85 59.8779L1390.04 59.8711L1390.04 63ZM1500.8 3.01758L1494.64 3.02539L1494.63 9.23535L1488.46 9.24219L1488.46 15.4531L1494.62 15.4463L1494.62 21.6562L1500.79 21.6494L1500.79 15.4395L1506.96 15.4326L1506.96 9.22168L1513.13 9.21484L1513.13 3.00391L1519.3 2.99707L1519.29 9.20801L1525.46 9.20117L1525.45 15.4111L1519.29 15.418L1519.28 21.6289L1513.12 21.6357L1513.11 27.8467L1506.94 27.8535L1506.94 34.0635L1513.11 34.0566L1513.1 40.2676L1519.27 40.2607L1519.26 46.4707L1525.43 46.4639L1525.42 52.6748L1519.25 52.6816L1519.25 58.8916L1513.08 58.8994L1513.09 52.6885L1506.92 52.6953L1506.93 46.4844L1500.76 46.4922L1500.77 40.2812L1494.6 40.2881L1494.6 46.499L1488.43 46.5059L1488.42 52.7158L1494.59 52.709L1494.59 58.9199L1500.75 58.9131L1500.75 63H1482.25L1482.25 58.9336L1476.09 58.9404L1476.08 63H1445.73L1445.73 59.8291L1439.54 59.8359L1439.53 63H1421.01L1421.01 59.8633L1427.21 59.8564L1427.21 53.6455L1433.4 53.6387L1433.41 47.4287L1427.22 47.4355L1427.22 41.2246L1421.03 41.2314L1421.02 47.4424L1414.83 47.4492L1414.83 53.6592L1408.63 53.667L1408.63 59.877L1402.44 59.8838L1402.44 53.6738L1396.25 53.6807L1396.25 47.4697L1402.45 47.4629L1402.45 41.252L1408.64 41.2451L1408.65 35.0352L1414.84 35.0283L1414.85 28.8174L1408.66 28.8242L1408.66 22.6143L1402.47 22.6211L1402.48 16.4102L1396.28 16.417L1396.29 10.207L1402.48 10.2002L1402.49 3.98926L1408.68 3.98242L1408.67 10.1924L1414.87 10.1855L1414.86 16.3965L1421.05 16.3896L1421.05 22.5996L1427.24 22.5928L1427.25 16.3828L1433.44 16.376L1433.44 10.165L1427.25 10.1719L1427.26 3.96191L1421.06 3.96875L1421.07 -1H1439.59L1439.59 3.94727L1445.78 3.94043L1445.78 -1H1476.14L1476.14 3.0459L1482.3 3.03906L1482.31 -1H1500.81L1500.8 3.01758ZM1537.75 63H1531.58L1531.59 58.8779L1537.75 58.8711L1537.75 63ZM1647.93 2.01758L1641.74 2.02441L1641.74 8.23535L1635.54 8.24219L1635.54 14.4531L1641.73 14.4463L1641.72 20.6562L1647.92 20.6494L1647.92 14.4385L1654.11 14.4316L1654.12 8.22168L1660.31 8.21484L1660.32 2.00391L1666.51 1.99707L1666.5 8.20801L1672.7 8.2002L1672.69 14.4111L1666.5 14.418L1666.49 20.6289L1660.3 20.6357L1660.3 26.8457L1654.1 26.8535L1654.1 33.0635L1660.29 33.0566L1660.29 39.2676L1666.48 39.2598L1666.47 45.4707L1672.66 45.4639L1672.66 51.6748L1666.47 51.6816L1666.46 57.8916L1660.27 57.8984L1660.27 51.6885L1654.08 51.6953L1654.09 45.4844L1647.89 45.4912L1647.9 39.2812L1641.71 39.2881L1641.7 45.498L1635.51 45.5059L1635.5 51.7158L1641.7 51.709L1641.69 57.9199L1647.88 57.9131L1647.88 63H1629.3L1629.31 57.9336L1623.11 57.9404L1623.11 63H1592L1592 58.9863L1586 58.9932L1585.99 63H1568.59L1568.59 58.8301L1574.76 58.8232L1574.76 52.6123L1580.93 52.6055L1580.93 46.3955L1574.77 46.4023L1574.77 40.1914L1568.61 40.1982L1568.6 46.4092L1562.44 46.416L1562.43 52.626L1556.26 52.6328L1556.26 58.8438L1550.09 58.8506L1550.1 52.6406L1543.93 52.6475L1543.94 46.4365L1550.1 46.4297L1550.11 40.2188L1556.27 40.2119L1556.28 34.002L1562.45 33.9951L1562.45 27.7842L1556.29 27.791L1556.29 21.5811L1550.13 21.5879L1550.13 15.377L1543.97 15.3838L1543.97 9.17383L1550.14 9.16699L1550.14 2.95605L1556.31 2.94922L1556.3 9.15918L1562.47 9.15234L1562.46 15.3633L1568.63 15.3564L1568.62 21.5664L1574.79 21.5596L1574.79 15.3496L1580.96 15.3428L1580.97 9.13184L1574.8 9.13867L1574.81 2.92871L1568.64 2.93555L1568.64 -1H1585.98L1585.98 1.99316L1591.98 1.98633L1591.98 -1H1623.17L1623.16 2.0459L1629.36 2.03906L1629.36 -1H1647.94L1647.93 2.01758ZM1685.04 63H1678.85L1678.85 57.8779L1685.04 57.8711L1685.04 63ZM1795.93 3.01758L1789.74 3.02441L1789.73 9.23535L1783.54 9.24219L1783.53 15.4531L1789.73 15.4463L1789.72 21.6562L1795.91 21.6494L1795.92 15.4385L1802.11 15.4316L1802.11 9.22168L1808.31 9.21484L1808.31 3.00391L1814.5 2.99707L1814.5 9.20801L1820.69 9.2002L1820.68 15.4111L1814.49 15.418L1814.49 21.6289L1808.29 21.6357L1808.29 27.8457L1802.1 27.8535L1802.09 34.0635L1808.28 34.0566L1808.28 40.2676L1814.47 40.2598L1814.46 46.4707L1820.66 46.4639L1820.65 52.6748L1814.46 52.6816L1814.45 58.8916L1808.26 58.8984L1808.27 52.6885L1802.08 52.6953L1802.08 46.4844L1795.89 46.4912L1795.9 40.2812L1789.7 40.2881L1789.7 46.498L1783.51 46.5059L1783.5 52.7158L1789.69 52.709L1789.69 58.9199L1795.88 58.9131L1795.87 63H1777.3L1777.3 58.9336L1771.11 58.9404L1771.11 63H1740.72L1740.73 57.8291L1734.54 57.8359L1734.53 63H1716.01L1716.01 57.8633L1722.21 57.8564L1722.21 51.6455L1728.4 51.6387L1728.41 45.4287L1722.22 45.4355L1722.22 39.2246L1716.03 39.2314L1716.02 45.4424L1709.83 45.4492L1709.83 51.6592L1703.63 51.667L1703.63 57.877L1697.44 57.8838L1697.44 51.6738L1691.25 51.6807L1691.25 45.4697L1697.45 45.4629L1697.45 39.252L1703.65 39.2451L1703.65 33.0352L1709.84 33.0283L1709.85 26.8174L1703.66 26.8242L1703.66 20.6143L1697.47 20.6211L1697.48 14.4102L1691.28 14.417L1691.29 8.20703L1697.48 8.2002L1697.49 1.98926L1703.68 1.98242L1703.67 8.19238L1709.87 8.18555L1709.86 14.3965L1716.05 14.3896L1716.05 20.5996L1722.24 20.5928L1722.24 14.3828L1728.44 14.376L1728.44 8.16504L1722.25 8.17188L1722.26 1.96191L1716.06 1.96875L1716.07 -1H1734.59L1734.59 1.94727L1740.78 1.94043L1740.78 -1H1771.17L1771.16 3.0459L1777.35 3.03906L1777.36 -1H1795.93L1795.93 3.01758ZM1833.03 63H1826.84L1826.84 58.8779L1833.03 58.8711L1833.03 63ZM1943.93 3.01758L1937.74 3.02441L1937.74 9.23535L1931.54 9.24219L1931.54 15.4531L1937.73 15.4463L1937.72 21.6562L1943.92 21.6494L1943.92 15.4385L1950.11 15.4316L1950.12 9.22168L1956.31 9.21484L1956.32 3.00391L1962.51 2.99707L1962.51 9.20801L1968.7 9.2002L1968.69 15.4111L1962.5 15.418L1962.49 21.6289L1956.3 21.6357L1956.3 27.8457L1950.1 27.8535L1950.1 34.0635L1956.29 34.0566L1956.29 40.2676L1962.48 40.2598L1962.47 46.4707L1968.66 46.4639L1968.66 52.6748L1962.47 52.6816L1962.46 58.8916L1956.27 58.8984L1956.27 52.6885L1950.08 52.6953L1950.09 46.4844L1943.89 46.4912L1943.9 40.2812L1937.71 40.2881L1937.7 46.498L1931.51 46.5059L1931.5 52.7158L1937.7 52.709L1937.69 58.9199L1943.88 58.9131L1943.88 63H1925.3L1925.31 58.9336L1919.11 58.9404L1919.11 63H1888.73L1888.73 58.8291L1882.54 58.8359L1882.53 63H1863.99L1864 58.8633L1870.19 58.8564L1870.19 52.6455L1876.39 52.6387L1876.39 46.4287L1870.2 46.4355L1870.21 40.2246L1864.01 40.2314L1864.01 46.4424L1857.82 46.4492L1857.81 52.6592L1851.62 52.667L1851.61 58.877L1845.42 58.8838L1845.43 52.6738L1839.24 52.6807L1839.24 46.4697L1845.43 46.4629L1845.44 40.252L1851.63 40.2451L1851.64 34.0352L1857.83 34.0283L1857.83 27.8174L1851.64 27.8242L1851.65 21.6143L1845.46 21.6211L1845.46 15.4102L1839.27 15.417L1839.28 9.20703L1845.47 9.2002L1845.47 2.98926L1851.66 2.98242L1851.66 9.19238L1857.85 9.18555L1857.85 15.3965L1864.04 15.3896L1864.03 21.5996L1870.22 21.5928L1870.23 15.3828L1876.42 15.376L1876.43 9.16504L1870.23 9.17188L1870.24 2.96191L1864.05 2.96875L1864.05 -1H1882.59L1882.59 2.94727L1888.78 2.94043L1888.78 -1H1919.17L1919.16 3.0459L1925.36 3.03906L1925.36 -1H1943.94L1943.93 3.01758ZM1981.04 63H1974.85L1974.85 58.8779L1981.04 58.8711L1981.04 63ZM2091.8 2.01758L2085.64 2.02539L2085.63 8.23535L2079.46 8.24219L2079.46 14.4531L2085.62 14.4463L2085.62 20.6562L2091.78 20.6494L2091.79 14.4395L2097.96 14.4326L2097.96 8.22168L2104.13 8.21484L2104.13 2.00391L2110.3 1.99707L2110.29 8.20801L2116.46 8.20117L2116.45 14.4111L2110.29 14.418L2110.28 20.6289L2104.12 20.6357L2104.11 26.8467L2097.94 26.8535L2097.94 33.0635L2104.11 33.0566L2104.1 39.2676L2110.27 39.2607L2110.26 45.4707L2116.43 45.4639L2116.42 51.6748L2110.25 51.6816L2110.25 57.8916L2104.08 57.8994L2104.09 51.6885L2097.92 51.6953L2097.93 45.4844L2091.76 45.4922L2091.77 39.2812L2085.6 39.2881L2085.6 45.499L2079.43 45.5059L2079.42 51.7158L2085.59 51.709L2085.59 57.9199L2091.75 57.9131L2091.75 63H2073.25L2073.25 57.9336L2067.09 57.9404L2067.08 63H2036.72L2036.73 58.8291L2030.54 58.8359L2030.53 63H2012.01L2012.01 58.8633L2018.21 58.8564L2018.21 52.6455L2024.4 52.6387L2024.41 46.4287L2018.22 46.4355L2018.22 40.2246L2012.03 40.2314L2012.02 46.4424L2005.83 46.4492L2005.83 52.6592L1999.63 52.667L1999.63 58.877L1993.44 58.8838L1993.44 52.6738L1987.25 52.6807L1987.25 46.4697L1993.45 46.4629L1993.45 40.252L1999.64 40.2451L1999.65 34.0352L2005.84 34.0283L2005.85 27.8174L1999.66 27.8242L1999.66 21.6143L1993.47 21.6211L1993.48 15.4102L1987.28 15.417L1987.29 9.20703L1993.48 9.2002L1993.49 2.98926L1999.68 2.98242L1999.67 9.19238L2005.87 9.18555L2005.86 15.3965L2012.05 15.3896L2012.05 21.5996L2018.24 21.5928L2018.24 15.3828L2024.44 15.376L2024.44 9.16504L2018.25 9.17188L2018.26 2.96191L2012.06 2.96875L2012.07 -1H2030.59L2030.59 2.94727L2036.78 2.94043L2036.78 -1H2067.14L2067.14 2.0459L2073.3 2.03906L2073.31 -1H2091.8L2091.8 2.01758ZM1161.44 2.97266L1161.44 9.19434L1155.33 9.20215L1155.32 15.4238L1149.21 15.4307L1149.21 21.6533L1143.09 21.6602L1143.09 27.8818L1136.98 27.8887L1136.97 34.1113L1143.08 34.1045L1143.08 40.3262L1149.19 40.3193L1149.18 46.542L1155.29 46.5352L1155.29 52.7568L1161.4 52.75L1161.39 58.9727L1167.51 58.9658L1167.51 52.7432L1173.62 52.7363L1173.63 46.5146L1179.74 46.5078L1179.74 40.2852L1185.85 40.2783L1185.86 34.0566L1191.97 34.0498L1191.98 27.8271L1185.87 27.834L1185.87 21.6123L1179.76 21.6191L1179.77 15.3965L1173.65 15.4033L1173.66 9.18066L1167.55 9.1875L1167.56 2.96582L1161.44 2.97266ZM1309.44 2.97266L1309.44 9.19434L1303.33 9.20215L1303.32 15.4238L1297.21 15.4307L1297.21 21.6533L1291.09 21.6602L1291.09 27.8818L1284.98 27.8887L1284.97 34.1113L1291.08 34.1045L1291.08 40.3262L1297.19 40.3193L1297.18 46.542L1303.29 46.5352L1303.29 52.7568L1309.4 52.75L1309.39 58.9727L1315.51 58.9658L1315.51 52.7432L1321.62 52.7363L1321.63 46.5146L1327.74 46.5078L1327.74 40.2852L1333.85 40.2783L1333.86 34.0566L1339.97 34.0498L1339.98 27.8271L1333.87 27.834L1333.87 21.6123L1327.76 21.6191L1327.77 15.3965L1321.65 15.4033L1321.66 9.18066L1315.55 9.1875L1315.56 2.96582L1309.44 2.97266ZM1457.44 2.97266L1457.44 9.19434L1451.33 9.20215L1451.32 15.4238L1445.21 15.4307L1445.21 21.6533L1439.09 21.6602L1439.09 27.8818L1432.98 27.8887L1432.97 34.1113L1439.08 34.1045L1439.08 40.3262L1445.19 40.3193L1445.18 46.542L1451.29 46.5352L1451.29 52.7568L1457.4 52.75L1457.39 58.9727L1463.51 58.9658L1463.51 52.7432L1469.62 52.7363L1469.63 46.5146L1475.74 46.5078L1475.74 40.2852L1481.85 40.2783L1481.86 34.0566L1487.97 34.0498L1487.98 27.8271L1481.87 27.834L1481.87 21.6123L1475.76 21.6191L1475.77 15.3965L1469.65 15.4033L1469.66 9.18066L1463.55 9.1875L1463.56 2.96582L1457.44 2.97266ZM1605.44 2.97266L1605.44 9.19434L1599.33 9.20215L1599.32 15.4238L1593.21 15.4307L1593.21 21.6533L1587.09 21.6602L1587.09 27.8818L1580.98 27.8887L1580.97 34.1113L1587.08 34.1045L1587.08 40.3262L1593.19 40.3193L1593.18 46.542L1599.29 46.5352L1599.29 52.7568L1605.4 52.75L1605.39 58.9727L1611.51 58.9658L1611.51 52.7432L1617.62 52.7363L1617.63 46.5146L1623.74 46.5078L1623.74 40.2852L1629.85 40.2783L1629.86 34.0566L1635.97 34.0498L1635.98 27.8271L1629.87 27.834L1629.87 21.6123L1623.76 21.6191L1623.77 15.3965L1617.65 15.4033L1617.66 9.18066L1611.55 9.1875L1611.56 2.96582L1605.44 2.97266ZM1752.44 1.97266L1752.44 8.19434L1746.33 8.20215L1746.32 14.4238L1740.21 14.4307L1740.2 20.6533L1734.09 20.6602L1734.09 26.8818L1727.98 26.8887L1727.97 33.1113L1734.08 33.1045L1734.08 39.3262L1740.19 39.3193L1740.18 45.542L1746.29 45.5352L1746.29 51.7568L1752.4 51.75L1752.39 57.9727L1758.51 57.9658L1758.51 51.7432L1764.62 51.7363L1764.63 45.5146L1770.74 45.5078L1770.74 39.2852L1776.85 39.2783L1776.86 33.0566L1782.97 33.0498L1782.98 26.8271L1776.87 26.834L1776.87 20.6123L1770.76 20.6191L1770.77 14.3965L1764.65 14.4033L1764.66 8.18066L1758.55 8.1875L1758.56 1.96582L1752.44 1.97266ZM1900.44 1.97266L1900.44 8.19434L1894.33 8.20215L1894.32 14.4238L1888.21 14.4307L1888.2 20.6533L1882.09 20.6602L1882.09 26.8818L1875.98 26.8887L1875.97 33.1113L1882.08 33.1045L1882.08 39.3262L1888.19 39.3193L1888.18 45.542L1894.29 45.5352L1894.29 51.7568L1900.4 51.75L1900.39 57.9727L1906.51 57.9658L1906.51 51.7432L1912.62 51.7363L1912.63 45.5146L1918.74 45.5078L1918.74 39.2852L1924.85 39.2783L1924.86 33.0566L1930.97 33.0498L1930.98 26.8271L1924.87 26.834L1924.87 20.6123L1918.76 20.6191L1918.77 14.3965L1912.65 14.4033L1912.66 8.18066L1906.55 8.1875L1906.56 1.96582L1900.44 1.97266ZM2048.44 1.97266L2048.44 8.19434L2042.33 8.20215L2042.32 14.4238L2036.21 14.4307L2036.2 20.6533L2030.09 20.6602L2030.09 26.8818L2023.98 26.8887L2023.97 33.1113L2030.08 33.1045L2030.08 39.3262L2036.19 39.3193L2036.18 45.542L2042.29 45.5352L2042.29 51.7568L2048.4 51.75L2048.39 57.9727L2054.51 57.9658L2054.51 51.7432L2060.62 51.7363L2060.63 45.5146L2066.74 45.5078L2066.74 39.2852L2072.85 39.2783L2072.86 33.0566L2078.97 33.0498L2078.98 26.8271L2072.87 26.834L2072.87 20.6123L2066.76 20.6191L2066.77 14.3965L2060.65 14.4033L2060.66 8.18066L2054.55 8.1875L2054.56 1.96582L2048.44 1.97266ZM1242.06 28.832L1248.25 28.8252L1248.24 35.0352L1242.05 35.042L1242.04 41.2529L1235.85 41.2598L1235.86 35.0488L1229.67 35.0566L1229.67 28.8457L1235.86 28.8389L1235.87 22.6279L1242.06 22.6211L1242.06 28.832ZM1390.07 28.832L1396.26 28.8252L1396.25 35.0352L1390.06 35.042L1390.06 41.2529L1383.86 41.2598L1383.87 35.0488L1377.68 35.0566L1377.68 28.8457L1383.87 28.8389L1383.88 22.6279L1390.07 22.6211L1390.07 28.832ZM1167.53 27.8613L1173.64 27.8545L1173.64 34.0771L1167.53 34.084L1167.52 40.3057L1161.41 40.3125L1161.42 34.0908L1155.31 34.0977L1155.31 27.875L1161.42 27.8682L1161.43 21.6465L1167.54 21.6387L1167.53 27.8613ZM1315.53 27.8613L1321.64 27.8545L1321.64 34.0771L1315.53 34.084L1315.52 40.3057L1309.41 40.3125L1309.42 34.0908L1303.31 34.0977L1303.31 27.875L1309.42 27.8682L1309.43 21.6465L1315.54 21.6387L1315.53 27.8613ZM1463.53 27.8613L1469.64 27.8545L1469.64 34.0771L1463.53 34.084L1463.52 40.3057L1457.41 40.3125L1457.42 34.0908L1451.31 34.0977L1451.31 27.875L1457.42 27.8682L1457.43 21.6465L1463.54 21.6387L1463.53 27.8613ZM1611.54 27.8477L1617.65 27.8408L1617.65 34.0635L1611.53 34.0703L1611.53 40.292L1605.42 40.2988L1605.42 34.0771L1599.31 34.084L1599.32 27.8613L1605.43 27.8545L1605.43 21.6328L1611.54 21.626L1611.54 27.8477ZM1094.07 27.832L1100.26 27.8252L1100.25 34.0352L1094.06 34.042L1094.05 40.2529L1087.86 40.2598L1087.87 34.0488L1081.68 34.0566L1081.68 27.8457L1087.87 27.8389L1087.88 21.6279L1094.07 21.6211L1094.07 27.832ZM1537.77 27.832L1543.94 27.8252L1543.94 34.0361L1537.77 34.043L1537.76 40.2529L1531.6 40.2598L1531.6 34.0498L1525.44 34.0566L1525.44 27.8457L1531.61 27.8389L1531.61 21.6289L1537.78 21.6221L1537.77 27.832ZM1833.06 27.832L1839.25 27.8252L1839.24 34.0352L1833.05 34.042L1833.04 40.2529L1826.85 40.2598L1826.86 34.0488L1820.67 34.0566L1820.67 27.8457L1826.86 27.8389L1826.87 21.6279L1833.06 21.6211L1833.06 27.832ZM1981.07 27.832L1987.26 27.8252L1987.25 34.0352L1981.06 34.042L1981.05 40.2529L1974.86 40.2598L1974.87 34.0488L1968.68 34.0566L1968.68 27.8457L1974.87 27.8389L1974.88 21.6279L1981.07 21.6211L1981.07 27.832ZM1758.53 26.8613L1764.64 26.8545L1764.64 33.0771L1758.53 33.084L1758.52 39.3057L1752.41 39.3125L1752.42 33.0908L1746.31 33.0977L1746.31 26.875L1752.42 26.8682L1752.43 20.6465L1758.54 20.6387L1758.53 26.8613ZM1906.53 26.8613L1912.64 26.8545L1912.64 33.0771L1906.53 33.084L1906.52 39.3057L1900.41 39.3125L1900.42 33.0908L1894.31 33.0977L1894.31 26.875L1900.42 26.8682L1900.43 20.6465L1906.54 20.6387L1906.53 26.8613ZM2054.53 26.8613L2060.64 26.8545L2060.64 33.0771L2054.53 33.084L2054.52 39.3057L2048.41 39.3125L2048.42 33.0908L2042.31 33.0977L2042.31 26.875L2048.42 26.8682L2048.43 20.6465L2054.54 20.6387L2054.53 26.8613ZM1685.07 26.832L1691.26 26.8252L1691.25 33.0352L1685.06 33.042L1685.05 39.2529L1678.86 39.2598L1678.87 33.0488L1672.68 33.0566L1672.68 26.8457L1678.87 26.8389L1678.88 20.6279L1685.07 20.6211L1685.07 26.832ZM1026.65 35.0635L1024.01 35.0664L1024.01 28.8438L1026.65 28.8408L1026.65 35.0635ZM2121.01 33.0508L2116.44 33.0566L2116.44 26.8457L2121.01 26.8398L2121.01 33.0508ZM1242.08 3.97656L1235.89 3.9834L1235.9 -1H1242.09L1242.08 3.97656ZM1390.09 3.97656L1383.9 3.9834L1383.91 -1H1390.1L1390.09 3.97656ZM1094.09 2.97656L1087.9 2.9834L1087.91 -1H1094.1L1094.09 2.97656ZM1537.8 2.97656L1531.64 2.9834L1531.64 -1H1537.81L1537.8 2.97656ZM1833.08 2.97656L1826.89 2.9834L1826.9 -1H1833.09L1833.08 2.97656ZM1981.09 2.97656L1974.9 2.9834L1974.91 -1H1981.1L1981.09 2.97656ZM1685.09 1.97656L1678.9 1.9834L1678.9 -1H1685.1L1685.09 1.97656Z" fill="#C43418"/>
</g>
<defs>
<clipPath id="clip0_1726_889">
<rect width="1034" height="63" fill="white" transform="translate(1087)"/>
</clipPath>
</defs>
</svg>
