<svg width="470" height="246" viewBox="0 0 470 246" fill="none" xmlns="http://www.w3.org/2000/svg">
<path d="M9 1V246" stroke="#C43418"/>
<path d="M85 0V245" stroke="#C43418"/>
<path d="M161 0V245" stroke="#C43418"/>
<path d="M236 0V245" stroke="#C43418"/>
<path d="M311 0V245" stroke="#C43418"/>
<path d="M386 0V245" stroke="#C43418"/>
<path d="M462 0V245" stroke="#C43418"/>
<circle cx="8.5" cy="88.5" r="5.5" fill="#C43418"/>
<circle cx="160.5" cy="88.5" r="5.5" fill="#C43418"/>
<circle cx="310.5" cy="88.5" r="5.5" fill="#C43418"/>
<circle cx="461.5" cy="88.5" r="5.5" fill="#C43418"/>
<circle cx="84.5" cy="129.5" r="5.5" fill="#C43418"/>
<circle cx="235.5" cy="129.5" r="5.5" fill="#C43418"/>
<circle cx="385.5" cy="129.5" r="5.5" fill="#C43418"/>
<circle cx="8.5" cy="131.5" r="5.5" fill="#C43418"/>
<circle cx="160.5" cy="131.5" r="5.5" fill="#C43418"/>
<circle cx="310.5" cy="131.5" r="5.5" fill="#C43418"/>
<circle cx="461.5" cy="131.5" r="5.5" fill="#C43418"/>
<circle cx="84.5" cy="172.5" r="5.5" fill="#C43418"/>
<circle cx="235.5" cy="172.5" r="5.5" fill="#C43418"/>
<circle cx="385.5" cy="172.5" r="5.5" fill="#C43418"/>
<circle cx="8.5" cy="207.5" r="5.5" fill="#C43418"/>
<circle cx="160.5" cy="207.5" r="5.5" fill="#C43418"/>
<circle cx="310.5" cy="207.5" r="5.5" fill="#C43418"/>
<circle cx="461.5" cy="207.5" r="5.5" fill="#C43418"/>
<circle cx="84.5" cy="221.5" r="5.5" fill="#C43418"/>
<circle cx="235.5" cy="221.5" r="5.5" fill="#C43418"/>
<circle cx="385.5" cy="221.5" r="5.5" fill="#C43418"/>
<circle cx="84.5" cy="88.5" r="5.5" fill="#C43418"/>
<circle cx="235.5" cy="88.5" r="5.5" fill="#C43418"/>
<circle cx="385.5" cy="88.5" r="5.5" fill="#C43418"/>
<circle cx="8.5" cy="109.5" r="8.5" fill="#C43418"/>
<circle cx="160.5" cy="109.5" r="8.5" fill="#C43418"/>
<circle cx="310.5" cy="109.5" r="8.5" fill="#C43418"/>
<circle cx="461.5" cy="109.5" r="8.5" fill="#C43418"/>
<circle cx="84.5" cy="150.5" r="8.5" fill="#C43418"/>
<circle cx="235.5" cy="150.5" r="8.5" fill="#C43418"/>
<circle cx="385.5" cy="150.5" r="8.5" fill="#C43418"/>
<circle cx="8.5" cy="186.5" r="8.5" fill="#C43418"/>
<circle cx="160.5" cy="186.5" r="8.5" fill="#C43418"/>
<circle cx="310.5" cy="185.5" r="8.5" fill="#C43418"/>
<circle cx="461.5" cy="186.5" r="8.5" fill="#C43418"/>
</svg>
