<svg width="1375" height="246" viewBox="0 0 1375 246" fill="none" xmlns="http://www.w3.org/2000/svg">
<path d="M9.5 83.0918C12.06 83.5621 14 85.804 14 88.5C14 91.1959 12.0599 93.4368 9.5 93.9072V101.06C13.7231 101.555 17 105.144 17 109.5C17 113.856 13.723 117.444 9.5 117.939V126.092C12.06 126.562 14 128.804 14 131.5C14 134.196 12.0599 136.437 9.5 136.907V178.06C13.7231 178.555 17 182.144 17 186.5C17 190.856 13.723 194.444 9.5 194.939V202.092C12.06 202.562 14 204.804 14 207.5C14 210.196 12.0599 212.437 9.5 212.907V246H8.5V213C5.46243 213 3 210.538 3 207.5C3 204.462 5.46243 202 8.5 202V195C3.80558 195 0 191.194 0 186.5C0 181.806 3.80558 178 8.5 178V137C5.46243 137 3 134.538 3 131.5C3 128.462 5.46243 126 8.5 126V118C3.80558 118 0 114.194 0 109.5C0 104.806 3.80558 101 8.5 101V94C5.46243 94 3 91.5376 3 88.5C3 85.4624 5.46243 83 8.5 83V1H9.5V83.0918Z" fill="#C43418"/>
<path d="M85.5 83.0918C88.06 83.5621 90 85.804 90 88.5C90 91.1959 88.0599 93.4368 85.5 93.9072V124.092C88.06 124.562 90 126.804 90 129.5C90 132.196 88.0599 134.437 85.5 134.907V142.06C89.7231 142.555 93 146.144 93 150.5C93 154.856 89.723 158.444 85.5 158.939V167.092C88.06 167.562 90 169.804 90 172.5C90 175.196 88.0599 177.437 85.5 177.907V216.092C88.06 216.562 90 218.804 90 221.5C90 224.196 88.0599 226.437 85.5 226.907V245H84.5V227C81.4624 227 79 224.538 79 221.5C79 218.462 81.4624 216 84.5 216V178C81.4624 178 79 175.538 79 172.5C79 169.462 81.4624 167 84.5 167V159C79.8056 159 76 155.194 76 150.5C76 145.806 79.8056 142 84.5 142V135C81.4624 135 79 132.538 79 129.5C79 126.462 81.4624 124 84.5 124V94C81.4624 94 79 91.5376 79 88.5C79 85.4624 81.4624 83 84.5 83V0H85.5V83.0918Z" fill="#C43418"/>
<path d="M161.5 83.0918C164.06 83.5621 166 85.804 166 88.5C166 91.1959 164.06 93.4368 161.5 93.9072V101.06C165.723 101.555 169 105.144 169 109.5C169 113.856 165.723 117.444 161.5 117.939V126.092C164.06 126.562 166 128.804 166 131.5C166 134.196 164.06 136.437 161.5 136.907V178.06C165.723 178.555 169 182.144 169 186.5C169 190.856 165.723 194.444 161.5 194.939V202.092C164.06 202.562 166 204.804 166 207.5C166 210.196 164.06 212.437 161.5 212.907V245H160.5V213C157.462 213 155 210.538 155 207.5C155 204.462 157.462 202 160.5 202V195C155.806 195 152 191.194 152 186.5C152 181.806 155.806 178 160.5 178V137C157.462 137 155 134.538 155 131.5C155 128.462 157.462 126 160.5 126V118C155.806 118 152 114.194 152 109.5C152 104.806 155.806 101 160.5 101V94C157.462 94 155 91.5376 155 88.5C155 85.4624 157.462 83 160.5 83V0H161.5V83.0918Z" fill="#C43418"/>
<path d="M236.5 83.0918C239.06 83.5621 241 85.804 241 88.5C241 91.1959 239.06 93.4368 236.5 93.9072V124.092C239.06 124.562 241 126.804 241 129.5C241 132.196 239.06 134.437 236.5 134.907V142.06C240.723 142.555 244 146.144 244 150.5C244 154.856 240.723 158.444 236.5 158.939V167.092C239.06 167.562 241 169.804 241 172.5C241 175.196 239.06 177.437 236.5 177.907V216.092C239.06 216.562 241 218.804 241 221.5C241 224.196 239.06 226.437 236.5 226.907V245H235.5V227C232.462 227 230 224.538 230 221.5C230 218.462 232.462 216 235.5 216V178C232.462 178 230 175.538 230 172.5C230 169.462 232.462 167 235.5 167V159C230.806 159 227 155.194 227 150.5C227 145.806 230.806 142 235.5 142V135C232.462 135 230 132.538 230 129.5C230 126.462 232.462 124 235.5 124V94C232.462 94 230 91.5376 230 88.5C230 85.4624 232.462 83 235.5 83V0H236.5V83.0918Z" fill="#C43418"/>
<path d="M311.5 83.0918C314.06 83.5621 316 85.804 316 88.5C316 91.1959 314.06 93.4368 311.5 93.9072V101.06C315.723 101.555 319 105.144 319 109.5C319 113.856 315.723 117.444 311.5 117.939V126.092C314.06 126.562 316 128.804 316 131.5C316 134.196 314.06 136.437 311.5 136.907V177.06C315.723 177.555 319 181.144 319 185.5C319 189.856 315.723 193.444 311.5 193.939V202.092C314.06 202.562 316 204.804 316 207.5C316 210.196 314.06 212.437 311.5 212.907V245H310.5V213C307.462 213 305 210.538 305 207.5C305 204.462 307.462 202 310.5 202V194C305.806 194 302 190.194 302 185.5C302 180.806 305.806 177 310.5 177V137C307.462 137 305 134.538 305 131.5C305 128.462 307.462 126 310.5 126V118C305.806 118 302 114.194 302 109.5C302 104.806 305.806 101 310.5 101V94C307.462 94 305 91.5376 305 88.5C305 85.4624 307.462 83 310.5 83V0H311.5V83.0918Z" fill="#C43418"/>
<path d="M386.5 83.0918C389.06 83.5621 391 85.804 391 88.5C391 91.1959 389.06 93.4368 386.5 93.9072V124.092C389.06 124.562 391 126.804 391 129.5C391 132.196 389.06 134.437 386.5 134.907V142.06C390.723 142.555 394 146.144 394 150.5C394 154.856 390.723 158.444 386.5 158.939V167.092C389.06 167.562 391 169.804 391 172.5C391 175.196 389.06 177.437 386.5 177.907V216.092C389.06 216.562 391 218.804 391 221.5C391 224.196 389.06 226.437 386.5 226.907V245H385.5V227C382.462 227 380 224.538 380 221.5C380 218.462 382.462 216 385.5 216V178C382.462 178 380 175.538 380 172.5C380 169.462 382.462 167 385.5 167V159C380.806 159 377 155.194 377 150.5C377 145.806 380.806 142 385.5 142V135C382.462 135 380 132.538 380 129.5C380 126.462 382.462 124 385.5 124V94C382.462 94 380 91.5376 380 88.5C380 85.4624 382.462 83 385.5 83V0H386.5V83.0918Z" fill="#C43418"/>
<path d="M462.5 83.0918C465.06 83.5621 467 85.804 467 88.5C467 91.1959 465.06 93.4368 462.5 93.9072V101.06C466.723 101.555 470 105.144 470 109.5C470 113.856 466.723 117.444 462.5 117.939V126.092C465.06 126.562 467 128.804 467 131.5C467 134.196 465.06 136.437 462.5 136.907V178.06C466.723 178.555 470 182.144 470 186.5C470 190.856 466.723 194.444 462.5 194.939V202.092C465.06 202.562 467 204.804 467 207.5C467 210.196 465.06 212.437 462.5 212.907V245H461.5V213C458.462 213 456 210.538 456 207.5C456 204.462 458.462 202 461.5 202V195C456.806 195 453 191.194 453 186.5C453 181.806 456.806 178 461.5 178V137C458.462 137 456 134.538 456 131.5C456 128.462 458.462 126 461.5 126V118C456.806 118 453 114.194 453 109.5C453 104.806 456.806 101 461.5 101V94C458.462 94 456 91.5376 456 88.5C456 85.4624 458.462 83 461.5 83V0H462.5V83.0918Z" fill="#C43418"/>
<path d="M537.5 83.0918C540.06 83.5621 542 85.804 542 88.5C542 91.1959 540.06 93.4368 537.5 93.9072V124.092C540.06 124.562 542 126.804 542 129.5C542 132.196 540.06 134.437 537.5 134.907V142.06C541.723 142.555 545 146.144 545 150.5C545 154.856 541.723 158.444 537.5 158.939V167.092C540.06 167.562 542 169.804 542 172.5C542 175.196 540.06 177.437 537.5 177.907V216.092C540.06 216.562 542 218.804 542 221.5C542 224.196 540.06 226.437 537.5 226.907V245H536.5V227C533.462 227 531 224.538 531 221.5C531 218.462 533.462 216 536.5 216V178C533.462 178 531 175.538 531 172.5C531 169.462 533.462 167 536.5 167V159C531.806 159 528 155.194 528 150.5C528 145.806 531.806 142 536.5 142V135C533.462 135 531 132.538 531 129.5C531 126.462 533.462 124 536.5 124V94C533.462 94 531 91.5376 531 88.5C531 85.4624 533.462 83 536.5 83V0H537.5V83.0918Z" fill="#C43418"/>
<path d="M613.5 83.0918C616.06 83.5621 618 85.804 618 88.5C618 91.1959 616.06 93.4368 613.5 93.9072V101.06C617.723 101.555 621 105.144 621 109.5C621 113.856 617.723 117.444 613.5 117.939V126.092C616.06 126.562 618 128.804 618 131.5C618 134.196 616.06 136.437 613.5 136.907V178.06C617.723 178.555 621 182.144 621 186.5C621 190.856 617.723 194.444 613.5 194.939V202.092C616.06 202.562 618 204.804 618 207.5C618 210.196 616.06 212.437 613.5 212.907V245H612.5V213C609.462 213 607 210.538 607 207.5C607 204.462 609.462 202 612.5 202V195C607.806 195 604 191.194 604 186.5C604 181.806 607.806 178 612.5 178V137C609.462 137 607 134.538 607 131.5C607 128.462 609.462 126 612.5 126V118C607.806 118 604 114.194 604 109.5C604 104.806 607.806 101 612.5 101V94C609.462 94 607 91.5376 607 88.5C607 85.4624 609.462 83 612.5 83V0H613.5V83.0918Z" fill="#C43418"/>
<path d="M688.5 83.0918C691.06 83.5621 693 85.804 693 88.5C693 91.1959 691.06 93.4368 688.5 93.9072V124.092C691.06 124.562 693 126.804 693 129.5C693 132.196 691.06 134.437 688.5 134.907V142.06C692.723 142.555 696 146.144 696 150.5C696 154.856 692.723 158.444 688.5 158.939V167.092C691.06 167.562 693 169.804 693 172.5C693 175.196 691.06 177.437 688.5 177.907V216.092C691.06 216.562 693 218.804 693 221.5C693 224.196 691.06 226.437 688.5 226.907V245H687.5V227C684.462 227 682 224.538 682 221.5C682 218.462 684.462 216 687.5 216V178C684.462 178 682 175.538 682 172.5C682 169.462 684.462 167 687.5 167V159C682.806 159 679 155.194 679 150.5C679 145.806 682.806 142 687.5 142V135C684.462 135 682 132.538 682 129.5C682 126.462 684.462 124 687.5 124V94C684.462 94 682 91.5376 682 88.5C682 85.4624 684.462 83 687.5 83V0H688.5V83.0918Z" fill="#C43418"/>
<path d="M764.5 83.0918C767.06 83.5621 769 85.804 769 88.5C769 91.1959 767.06 93.4368 764.5 93.9072V101.06C768.723 101.555 772 105.144 772 109.5C772 113.856 768.723 117.444 764.5 117.939V126.092C767.06 126.562 769 128.804 769 131.5C769 134.196 767.06 136.437 764.5 136.907V178.06C768.723 178.555 772 182.144 772 186.5C772 190.856 768.723 194.444 764.5 194.939V202.092C767.06 202.562 769 204.804 769 207.5C769 210.196 767.06 212.437 764.5 212.907V245H763.5V213C760.462 213 758 210.538 758 207.5C758 204.462 760.462 202 763.5 202V195C758.806 195 755 191.194 755 186.5C755 181.806 758.806 178 763.5 178V137C760.462 137 758 134.538 758 131.5C758 128.462 760.462 126 763.5 126V118C758.806 118 755 114.194 755 109.5C755 104.806 758.806 101 763.5 101V94C760.462 94 758 91.5376 758 88.5C758 85.4624 760.462 83 763.5 83V0H764.5V83.0918Z" fill="#C43418"/>
<path d="M839.5 83.0918C842.06 83.5621 844 85.804 844 88.5C844 91.1959 842.06 93.4368 839.5 93.9072V124.092C842.06 124.562 844 126.804 844 129.5C844 132.196 842.06 134.437 839.5 134.907V142.06C843.723 142.555 847 146.144 847 150.5C847 154.856 843.723 158.444 839.5 158.939V167.092C842.06 167.562 844 169.804 844 172.5C844 175.196 842.06 177.437 839.5 177.907V216.092C842.06 216.562 844 218.804 844 221.5C844 224.196 842.06 226.437 839.5 226.907V245H838.5V227C835.462 227 833 224.538 833 221.5C833 218.462 835.462 216 838.5 216V178C835.462 178 833 175.538 833 172.5C833 169.462 835.462 167 838.5 167V159C833.806 159 830 155.194 830 150.5C830 145.806 833.806 142 838.5 142V135C835.462 135 833 132.538 833 129.5C833 126.462 835.462 124 838.5 124V94C835.462 94 833 91.5376 833 88.5C833 85.4624 835.462 83 838.5 83V0H839.5V83.0918Z" fill="#C43418"/>
<path d="M915.5 83.0918C918.06 83.5621 920 85.804 920 88.5C920 91.1959 918.06 93.4368 915.5 93.9072V101.06C919.723 101.555 923 105.144 923 109.5C923 113.856 919.723 117.444 915.5 117.939V126.092C918.06 126.562 920 128.804 920 131.5C920 134.196 918.06 136.437 915.5 136.907V178.06C919.723 178.555 923 182.144 923 186.5C923 190.856 919.723 194.444 915.5 194.939V202.092C918.06 202.562 920 204.804 920 207.5C920 210.196 918.06 212.437 915.5 212.907V245H914.5V213C911.462 213 909 210.538 909 207.5C909 204.462 911.462 202 914.5 202V195C909.806 195 906 191.194 906 186.5C906 181.806 909.806 178 914.5 178V137C911.462 137 909 134.538 909 131.5C909 128.462 911.462 126 914.5 126V118C909.806 118 906 114.194 906 109.5C906 104.806 909.806 101 914.5 101V94C911.462 94 909 91.5376 909 88.5C909 85.4624 911.462 83 914.5 83V0H915.5V83.0918Z" fill="#C43418"/>
<path d="M990.5 83.0918C993.06 83.5621 995 85.804 995 88.5C995 91.1959 993.06 93.4368 990.5 93.9072V124.092C993.06 124.562 995 126.804 995 129.5C995 132.196 993.06 134.437 990.5 134.907V142.06C994.723 142.555 998 146.144 998 150.5C998 154.856 994.723 158.444 990.5 158.939V167.092C993.06 167.562 995 169.804 995 172.5C995 175.196 993.06 177.437 990.5 177.907V216.092C993.06 216.562 995 218.804 995 221.5C995 224.196 993.06 226.437 990.5 226.907V245H989.5V227C986.462 227 984 224.538 984 221.5C984 218.462 986.462 216 989.5 216V178C986.462 178 984 175.538 984 172.5C984 169.462 986.462 167 989.5 167V159C984.806 159 981 155.194 981 150.5C981 145.806 984.806 142 989.5 142V135C986.462 135 984 132.538 984 129.5C984 126.462 986.462 124 989.5 124V94C986.462 94 984 91.5376 984 88.5C984 85.4624 986.462 83 989.5 83V0H990.5V83.0918Z" fill="#C43418"/>
<path d="M1066.5 83.0918C1069.06 83.5621 1071 85.804 1071 88.5C1071 91.1959 1069.06 93.4368 1066.5 93.9072V101.06C1070.72 101.555 1074 105.144 1074 109.5C1074 113.856 1070.72 117.444 1066.5 117.939V126.092C1069.06 126.562 1071 128.804 1071 131.5C1071 134.196 1069.06 136.437 1066.5 136.907V178.06C1070.72 178.555 1074 182.144 1074 186.5C1074 190.856 1070.72 194.444 1066.5 194.939V202.092C1069.06 202.562 1071 204.804 1071 207.5C1071 210.196 1069.06 212.437 1066.5 212.907V245H1065.5V213C1062.46 213 1060 210.538 1060 207.5C1060 204.462 1062.46 202 1065.5 202V195C1060.81 195 1057 191.194 1057 186.5C1057 181.806 1060.81 178 1065.5 178V137C1062.46 137 1060 134.538 1060 131.5C1060 128.462 1062.46 126 1065.5 126V118C1060.81 118 1057 114.194 1057 109.5C1057 104.806 1060.81 101 1065.5 101V94C1062.46 94 1060 91.5376 1060 88.5C1060 85.4624 1062.46 83 1065.5 83V0H1066.5V83.0918Z" fill="#C43418"/>
<path d="M1141.5 83.0918C1144.06 83.5621 1146 85.804 1146 88.5C1146 91.1959 1144.06 93.4368 1141.5 93.9072V124.092C1144.06 124.562 1146 126.804 1146 129.5C1146 132.196 1144.06 134.437 1141.5 134.907V142.06C1145.72 142.555 1149 146.144 1149 150.5C1149 154.856 1145.72 158.444 1141.5 158.939V167.092C1144.06 167.562 1146 169.804 1146 172.5C1146 175.196 1144.06 177.437 1141.5 177.907V216.092C1144.06 216.562 1146 218.804 1146 221.5C1146 224.196 1144.06 226.437 1141.5 226.907V245H1140.5V227C1137.46 227 1135 224.538 1135 221.5C1135 218.462 1137.46 216 1140.5 216V178C1137.46 178 1135 175.538 1135 172.5C1135 169.462 1137.46 167 1140.5 167V159C1135.81 159 1132 155.194 1132 150.5C1132 145.806 1135.81 142 1140.5 142V135C1137.46 135 1135 132.538 1135 129.5C1135 126.462 1137.46 124 1140.5 124V94C1137.46 94 1135 91.5376 1135 88.5C1135 85.4624 1137.46 83 1140.5 83V0H1141.5V83.0918Z" fill="#C43418"/>
<path d="M1217.5 83.0918C1220.06 83.5621 1222 85.804 1222 88.5C1222 91.1959 1220.06 93.4368 1217.5 93.9072V101.06C1221.72 101.555 1225 105.144 1225 109.5C1225 113.856 1221.72 117.444 1217.5 117.939V126.092C1220.06 126.562 1222 128.804 1222 131.5C1222 134.196 1220.06 136.437 1217.5 136.907V178.06C1221.72 178.555 1225 182.144 1225 186.5C1225 190.856 1221.72 194.444 1217.5 194.939V202.092C1220.06 202.562 1222 204.804 1222 207.5C1222 210.196 1220.06 212.437 1217.5 212.907V245H1216.5V213C1213.46 213 1211 210.538 1211 207.5C1211 204.462 1213.46 202 1216.5 202V195C1211.81 195 1208 191.194 1208 186.5C1208 181.806 1211.81 178 1216.5 178V137C1213.46 137 1211 134.538 1211 131.5C1211 128.462 1213.46 126 1216.5 126V118C1211.81 118 1208 114.194 1208 109.5C1208 104.806 1211.81 101 1216.5 101V94C1213.46 94 1211 91.5376 1211 88.5C1211 85.4624 1213.46 83 1216.5 83V0H1217.5V83.0918Z" fill="#C43418"/>
<path d="M1292.5 83.0918C1295.06 83.5621 1297 85.804 1297 88.5C1297 91.1959 1295.06 93.4368 1292.5 93.9072V124.092C1295.06 124.562 1297 126.804 1297 129.5C1297 132.196 1295.06 134.437 1292.5 134.907V142.06C1296.72 142.555 1300 146.144 1300 150.5C1300 154.856 1296.72 158.444 1292.5 158.939V167.092C1295.06 167.562 1297 169.804 1297 172.5C1297 175.196 1295.06 177.437 1292.5 177.907V216.092C1295.06 216.562 1297 218.804 1297 221.5C1297 224.196 1295.06 226.437 1292.5 226.907V245H1291.5V227C1288.46 227 1286 224.538 1286 221.5C1286 218.462 1288.46 216 1291.5 216V178C1288.46 178 1286 175.538 1286 172.5C1286 169.462 1288.46 167 1291.5 167V159C1286.81 159 1283 155.194 1283 150.5C1283 145.806 1286.81 142 1291.5 142V135C1288.46 135 1286 132.538 1286 129.5C1286 126.462 1288.46 124 1291.5 124V94C1288.46 94 1286 91.5376 1286 88.5C1286 85.4624 1288.46 83 1291.5 83V0H1292.5V83.0918Z" fill="#C43418"/>
<path d="M1367.5 83.0918C1370.06 83.5621 1372 85.804 1372 88.5C1372 91.1959 1370.06 93.4368 1367.5 93.9072V101.06C1371.72 101.555 1375 105.144 1375 109.5C1375 113.856 1371.72 117.444 1367.5 117.939V126.092C1370.06 126.562 1372 128.804 1372 131.5C1372 134.196 1370.06 136.437 1367.5 136.907V178.06C1371.72 178.555 1375 182.144 1375 186.5C1375 190.856 1371.72 194.444 1367.5 194.939V202.092C1370.06 202.562 1372 204.804 1372 207.5C1372 210.196 1370.06 212.437 1367.5 212.907V245H1366.5V213C1363.46 213 1361 210.538 1361 207.5C1361 204.462 1363.46 202 1366.5 202V195C1361.81 195 1358 191.194 1358 186.5C1358 181.806 1361.81 178 1366.5 178V137C1363.46 137 1361 134.538 1361 131.5C1361 128.462 1363.46 126 1366.5 126V118C1361.81 118 1358 114.194 1358 109.5C1358 104.806 1361.81 101 1366.5 101V94C1363.46 94 1361 91.5376 1361 88.5C1361 85.4624 1363.46 83 1366.5 83V0H1367.5V83.0918Z" fill="#C43418"/>
</svg>
