<svg width="33" height="33" viewBox="0 0 33 33" fill="none" xmlns="http://www.w3.org/2000/svg">
<path d="M11.55 33C11.1124 33 10.6927 32.8262 10.3833 32.5167C10.0738 32.2073 9.9 31.7876 9.9 31.35V26.4H3.3C2.42479 26.4 1.58542 26.0523 0.966547 25.4335C0.347677 24.8146 0 23.9752 0 23.1V3.3C0 1.4685 1.485 0 3.3 0H29.7C30.5752 0 31.4146 0.347677 32.0335 0.966547C32.6523 1.58542 33 2.42479 33 3.3V23.1C33 23.9752 32.6523 24.8146 32.0335 25.4335C31.4146 26.0523 30.5752 26.4 29.7 26.4H19.635L13.53 32.5215C13.2 32.835 12.7875 33 12.375 33H11.55ZM13.2 23.1V28.182L18.282 23.1H29.7V3.3H3.3V23.1H13.2ZM6.6 8.25H26.4V11.55H6.6V8.25ZM6.6 14.85H21.45V18.15H6.6V14.85Z" fill="#C4321A"/>
</svg>
