<svg width="18" height="18" viewBox="0 0 18 18" fill="none" xmlns="http://www.w3.org/2000/svg">
<path d="M12.405 4.13997C12.5917 3.95331 12.8949 3.95338 13.0816 4.13997L14.86 5.91841C15.0467 6.10507 15.0467 6.40833 14.86 6.59499L6.45502 15H4V12.545L12.405 4.13997ZM10.858 7.03942L4.95592 12.9415V14.0441H6.0585L11.9606 8.142L12.0674 8.03587L10.9641 6.93255L10.858 7.03942ZM11.7468 6.14983L11.6407 6.2567L11.7468 6.36357L12.6364 7.25316L12.7433 7.35929L12.8502 7.25316L13.7397 6.36357L13.8459 6.2567L13.7397 6.14983L12.7433 5.15338L11.7468 6.14983Z" fill="#929090"/>
</svg>
