<svg width="768" height="264" viewBox="0 0 768 264" fill="none" xmlns="http://www.w3.org/2000/svg">
<path d="M-900.692 255.223L-886.92 255.207L-886.931 269.218L-900.704 269.233L-914.475 269.248L-928.247 269.264L-928.235 255.254L-914.464 255.238L-914.452 241.213L-900.681 241.197L-900.692 255.223ZM-735.778 254.906L-722.012 254.891L-722.023 268.901L-735.79 268.917L-749.572 268.932L-763.339 268.947L-763.327 254.938L-749.561 254.922L-749.549 240.896L-735.767 240.881L-735.778 254.906ZM-307.021 17.1045L-293.252 17.0889L-293.263 31.0674L-279.42 31.0518L-279.431 45.0312L-265.586 45.0156L-265.598 58.9941L-279.442 59.0098L-279.453 72.9893L-293.298 73.0049L-293.286 59.0254L-307.13 59.041L-307.12 45.0625L-320.888 45.0781L-320.877 31.0986L-334.721 31.1143L-334.733 45.0938L-348.577 45.1094L-348.588 59.0879L-334.744 59.0723L-334.756 73.0508L-320.911 73.0352L-320.923 87.0146L-307.079 86.999L-307.09 100.978L-320.934 100.993L-320.946 114.973L-334.789 114.988L-334.778 101.009L-348.623 101.024L-348.611 87.0459L-362.456 87.0615L-362.444 73.082L-376.288 73.0977L-376.3 87.0771L-390.144 87.0928L-390.155 101.071L-376.311 101.056L-376.323 115.035L-362.478 115.02L-362.489 128.998L-348.646 128.982L-348.657 142.961L-362.501 142.977L-362.512 156.956L-376.357 156.972L-376.369 170.95L-390.212 170.966L-390.224 184.945L-376.38 184.93L-376.392 198.908L-362.547 198.893L-362.535 184.914L-348.692 184.898L-348.68 170.919L-334.835 170.903L-334.824 156.925L-320.98 156.909L-320.992 170.888L-307.147 170.872L-307.158 184.852L-321.003 184.867L-321.015 198.846L-334.858 198.861L-334.87 212.841L-348.715 212.856L-348.725 226.835L-334.881 226.819L-334.893 240.798L-321.048 240.782L-321.037 226.804L-293.423 226.772L-293.4 198.8L-279.557 198.784L-279.568 212.763L-265.723 212.747L-265.735 226.681L-279.58 226.696L-279.591 240.676L-293.435 240.691L-293.446 254.67L-307.216 254.686L-307.227 268.664L-348.775 268.711L-348.764 254.732L-362.607 254.748L-362.596 240.769L-376.441 240.784L-376.429 226.806L-390.273 226.821L-390.261 212.842L-404.106 212.857L-404.095 198.879L-417.938 198.895L-417.95 212.873L-431.795 212.889L-431.806 226.868L-445.65 226.884L-445.661 240.862L-459.506 240.878L-459.518 254.857L-473.361 254.873L-473.373 268.852L-514.921 268.898L-514.909 254.92L-528.753 254.936L-528.741 240.956L-542.586 240.972L-542.575 226.993L-556.419 227.009L-556.408 213.029L-542.563 213.014L-542.552 199.035L-528.708 199.02L-528.719 212.998L-514.875 212.982L-514.886 226.962L-501.042 226.946L-501.053 240.925L-487.209 240.909L-487.198 226.931L-473.354 226.915L-473.342 212.936L-487.186 212.951L-487.175 198.973L-501.019 198.988L-501.008 185.009L-514.852 185.024L-514.84 171.046L-500.996 171.03L-500.985 157.052L-487.14 157.036L-487.152 171.015L-473.308 170.999L-473.319 184.979L-459.475 184.963L-459.486 198.941L-445.642 198.926L-445.631 184.947L-431.786 184.932L-431.775 170.952L-445.619 170.968L-445.608 156.989L-459.452 157.005L-459.44 143.025L-473.285 143.041L-473.273 129.062L-459.429 129.047L-459.418 115.067L-445.573 115.052L-445.562 101.073L-431.718 101.058L-431.707 87.0791L-445.55 87.0947L-445.539 73.1152L-459.384 73.1309L-459.395 87.1104L-473.239 87.126L-473.25 101.104L-487.095 101.12L-487.107 115.099L-500.95 115.114L-500.939 101.136L-514.784 101.151L-514.772 87.1729L-500.927 87.1572L-500.916 73.1777L-487.072 73.1621L-487.061 59.1836L-473.216 59.168L-473.204 45.1885L-487.049 45.2041L-487.038 31.2256L-500.881 31.2412L-500.893 45.2197L-514.738 45.2354L-514.749 59.2148L-528.593 59.2305L-528.604 73.209L-542.449 73.2246L-542.438 59.2461L-556.281 59.2617L-556.27 45.2822L-542.426 45.2666L-542.415 31.2881L-528.57 31.2725L-528.558 17.293L-514.715 17.2773L-514.703 3.29883L-473.155 3.25195L-473.167 17.2314L-459.323 17.2158L-459.335 31.1943L-445.49 31.1787L-445.501 45.1572L-431.657 45.1416L-431.668 59.1211L-417.824 59.1055L-417.836 73.084L-403.991 73.0684L-403.98 59.0898L-390.136 59.0742L-390.124 45.0947L-376.28 45.0801L-376.269 31.1006L-362.424 31.085L-362.413 17.1064L-348.569 17.0908L-348.558 3.11133L-307.01 3.06445L-307.021 17.1045ZM-569.412 254.754L-555.641 254.738L-555.652 268.749L-569.424 268.765L-583.196 268.779L-596.968 268.795L-596.956 254.785L-583.185 254.77L-583.173 240.744L-569.402 240.729L-569.412 254.754ZM25.7559 16.7998L39.4815 16.7842L39.471 30.7627L53.3167 30.7471L53.3052 44.7266L67.1519 44.7109L67.1404 58.6895L53.2937 58.7051L53.2822 72.6846L39.4365 72.7002L39.448 58.7207L25.6013 58.7363L25.6128 44.7578L11.8863 44.7734L11.8978 30.7939L-1.94892 30.8096L-1.96042 44.7891L-15.8061 44.8047L-15.8176 58.7832L-1.97094 58.7676L-1.98244 72.7461L11.8633 72.7305L11.8518 86.71L25.6984 86.6943L25.6869 100.673L11.8403 100.688L11.8288 114.668L-2.01694 114.684L-2.00544 100.704L-15.8521 100.72L-15.8406 86.7412L-29.6873 86.7568L-29.6758 72.7773L-43.5225 72.793L-43.533 86.7725L-57.3797 86.7881L-57.3912 100.767L-43.5445 100.751L-43.556 114.73L-29.7103 114.715L-29.7218 128.693L-15.8751 128.678L-15.8866 142.656L-29.7333 142.672L-29.7448 156.651L-43.5905 156.667L-43.602 170.646L-57.4487 170.661L-57.4602 184.641L-43.6135 184.625L-43.625 198.604L-29.7783 198.588L-29.7668 184.609L-15.9211 184.594L-15.9096 170.614L-2.06294 170.599L-2.05144 156.62L11.7952 156.604L11.7837 170.583L25.6294 170.567L25.6179 184.547L11.7722 184.562L11.7607 198.541L-2.08594 198.557L-2.09744 212.536L-15.9441 212.552L-15.9546 226.53L-2.10894 226.515L-2.12044 240.493L11.7262 240.478L11.7377 226.499L39.31 226.468L39.333 198.495L53.1797 198.479L53.1682 212.458L67.0148 212.442L67.0033 226.376L53.1566 226.392L53.1451 240.371L39.2985 240.387L39.2879 254.365L25.5614 254.381L25.5499 268.359L-16.0048 268.406L-15.9933 254.428L-29.839 254.443L-29.8275 240.464L-43.6742 240.479L-43.6627 226.501L-57.5093 226.517L-57.4978 212.537L-71.3445 212.553L-71.333 198.574L-85.1787 198.59L-85.1902 212.568L-99.0369 212.584L-99.0484 226.563L-112.895 226.579L-112.907 240.558L-126.752 240.573L-126.764 254.553L-140.61 254.568L-140.622 268.547L-182.176 268.594L-182.164 254.615L-196.011 254.631L-195.999 240.651L-209.846 240.667L-209.834 226.688L-223.68 226.704L-223.67 212.725L-209.823 212.709L-209.811 198.73L-195.965 198.715L-195.976 212.693L-182.13 212.678L-182.141 226.657L-168.295 226.642L-168.307 240.62L-154.46 240.604L-154.449 226.626L-140.602 226.61L-140.591 212.631L-154.437 212.646L-154.426 198.668L-168.272 198.684L-168.261 184.704L-182.108 184.72L-182.096 170.741L-168.249 170.726L-168.238 156.747L-154.391 156.731L-154.403 170.71L-140.557 170.694L-140.569 184.674L-126.722 184.658L-126.733 198.637L-112.887 198.621L-112.875 184.643L-99.0285 184.627L-99.018 170.647L-112.864 170.663L-112.852 156.685L-126.699 156.7L-126.687 142.721L-140.534 142.736L-140.523 128.758L-126.676 128.742L-126.664 114.763L-112.818 114.747L-112.806 100.769L-98.9605 100.753L-98.949 86.7744L-112.796 86.79L-112.784 72.8105L-126.63 72.8262L-126.641 86.8057L-140.488 86.8213L-140.5 100.8L-154.346 100.815L-154.357 114.794L-168.203 114.81L-168.192 100.831L-182.039 100.847L-182.027 86.8682L-168.18 86.8525L-168.169 72.873L-154.323 72.8574L-154.312 58.8789L-140.465 58.8633L-140.454 44.8838L-154.3 44.8994L-154.289 30.9209L-168.134 30.9365L-168.146 44.915L-181.993 44.9307L-182.004 58.9102L-195.851 58.9258L-195.862 72.9043L-209.708 72.9199L-209.696 58.9414L-223.543 58.957L-223.532 44.9775L-209.686 44.9619L-209.674 30.9834L-195.828 30.9678L-195.816 16.9883L-181.97 16.9727L-181.958 2.99414L-140.404 2.94727L-140.416 16.9268L-126.569 16.9111L-126.581 30.8896L-112.734 30.874L-112.746 44.8525L-98.8999 44.8369L-98.9114 58.8164L-85.0647 58.8008L-85.0762 72.7793L-71.2295 72.7637L-71.218 58.7852L-57.3723 58.7695L-57.3608 44.79L-43.5141 44.7744L-43.5026 30.7959L-29.656 30.7803L-29.6445 16.8018L-15.7988 16.7861L-15.7873 2.80664L25.7674 2.75977L25.7559 16.7998ZM-404.521 254.438L-390.738 254.422L-390.75 268.433L-404.532 268.448L-418.299 268.463L-432.065 268.479L-432.054 254.469L-418.287 254.453L-418.276 240.428L-404.509 240.412L-404.521 254.438ZM-238.15 254.285L-224.367 254.27L-224.379 268.279L-238.161 268.295L-265.694 268.326L-265.683 254.316L-251.916 254.301L-251.905 240.275L-238.138 240.26L-238.15 254.285ZM357.137 14.6348L368.211 14.623L368.2 28.6367L381.981 28.6211L381.97 42.6504L395.737 42.6348L395.726 56.6494L381.958 56.665L381.947 70.6787L368.165 70.6943L368.177 56.6807L354.41 56.6953L354.42 44.2158L343.262 44.2285L343.274 30.249L329.421 30.2646L329.41 44.2441L315.557 44.2598L315.546 58.2383L329.398 58.2227L329.387 72.2021L343.239 72.1865L343.228 86.165L357.079 86.1494L357.068 100.129L343.216 100.145L343.205 114.123L329.352 114.139L329.364 100.16L315.512 100.176L315.523 86.1963L301.671 86.2119L301.682 72.2334L287.83 72.249L287.818 86.2275L273.967 86.2432L273.955 100.223L287.807 100.207L287.796 114.186L301.648 114.17L301.636 128.148L315.489 128.133L315.477 142.112L301.625 142.128L301.613 156.106L287.762 156.122L287.75 170.102L273.898 170.117L273.886 184.096L287.739 184.08L287.727 198.059L301.58 198.043L301.59 184.064L315.443 184.049L315.454 170.07L329.307 170.055L329.318 156.075L343.17 156.06L343.159 170.039L357.011 170.023L357 184.002L343.147 184.018L343.136 197.996L329.284 198.012L329.273 211.991L315.42 212.007L315.408 225.985L329.261 225.97L329.25 239.949L343.101 239.934L343.113 225.954L354.18 225.941L354.181 225.329L367.947 225.313L367.959 211.299L367.97 197.285L381.753 197.27L381.741 211.283L395.508 211.269L395.496 225.282L381.73 225.298L381.718 239.312L367.936 239.327L367.924 253.356L356.942 253.368L356.931 267.891L315.359 267.938L315.371 253.959L301.518 253.975L301.53 239.995L287.678 240.011L287.69 226.032L273.837 226.048L273.849 212.068L259.996 212.084L260.008 198.105L246.156 198.121L246.145 212.1L232.292 212.115L232.281 226.095L218.429 226.11L218.418 240.089L204.565 240.104L204.553 254.084L190.702 254.1L190.69 268.078L149.119 268.125L149.131 254.146L135.278 254.161L135.29 240.183L121.437 240.198L121.449 226.22L107.597 226.235L107.609 212.256L121.46 212.24L121.472 198.262L135.324 198.246L135.313 212.225L149.164 212.209L149.153 226.188L163.005 226.173L162.994 240.151L176.846 240.136L176.858 226.157L190.709 226.142L190.721 212.162L176.869 212.178L176.881 198.199L163.028 198.215L163.04 184.235L149.187 184.251L149.199 170.272L163.051 170.257L163.063 156.278L176.914 156.263L176.903 170.241L190.755 170.226L190.744 184.204L204.596 184.188L204.585 198.168L218.436 198.152L218.448 184.173L232.3 184.157L232.312 170.179L218.459 170.194L218.471 156.216L204.619 156.231L204.63 142.252L190.778 142.268L190.79 128.289L204.641 128.273L204.653 114.294L218.505 114.278L218.517 100.3L232.368 100.284L232.38 86.3057L218.528 86.3213L218.54 72.3418L204.687 72.3574L204.676 86.3369L190.824 86.3525L190.813 100.331L176.96 100.347L176.949 114.325L163.097 114.341L163.109 100.362L149.256 100.378L149.268 86.3994L163.119 86.3838L163.131 72.4043L176.983 72.3887L176.995 58.4102L190.846 58.3945L190.858 44.415L177.006 44.4307L177.018 30.4521L163.165 30.4678L163.154 44.4463L149.302 44.4619L149.291 58.4414L135.438 58.457L135.427 72.4355L121.575 72.4512L121.587 58.4727L107.734 58.4883L107.746 44.5088L121.598 44.4932L121.61 30.5146L135.461 30.499L135.473 16.5195L149.325 16.5039L149.336 2.52539L190.908 2.47852L190.896 16.457L204.748 16.4414L204.737 30.4209L218.589 30.4053L218.578 44.3838L232.43 44.3682L232.419 58.3477L246.27 58.332L246.259 72.3105L260.111 72.2949L260.123 58.3164L273.974 58.3008L273.986 44.3213L287.838 44.3057L287.85 30.3271L301.701 30.3115L301.713 16.333L315.565 16.3174L315.577 2.33789L343.281 2.30664H343.296L357.148 2.29102L357.137 14.6348ZM-73.2219 253.963L-59.4553 253.947L-59.4668 267.958L-73.2334 267.974L-87 267.988L-100.782 268.004L-100.771 253.994L-86.9885 253.979L-86.977 239.953L-73.2105 239.938L-73.2219 253.963ZM-638.092 16.1045L-624.365 16.0889L-624.377 30.0674L-610.53 30.0518L-610.542 44.0312L-596.696 44.0156L-596.707 57.9941L-610.553 58.0098L-610.565 71.9893L-624.411 72.0049L-624.4 58.0254L-638.247 58.041L-638.235 44.0625L-651.962 44.0781L-651.95 30.0986L-665.796 30.1143L-665.807 44.0938L-679.654 44.1094L-679.665 58.0879L-665.819 58.0723L-665.83 72.0508L-651.984 72.0352L-651.995 86.0146L-638.149 85.999L-638.161 99.9775L-652.007 99.9932L-652.018 113.973L-665.865 113.988L-665.853 100.009L-679.7 100.024L-679.688 86.0459L-693.535 86.0615L-693.524 72.082L-707.369 72.0977L-707.381 86.0771L-721.228 86.0928L-721.239 100.071L-707.392 100.056L-707.404 114.035L-693.557 114.02L-693.569 127.998L-679.723 127.982L-679.734 141.961L-693.58 141.977L-693.592 155.956L-707.438 155.972L-707.45 169.95L-721.297 169.966L-721.307 183.945L-707.461 183.93L-707.473 197.908L-693.626 197.893L-693.615 183.914L-679.768 183.898L-679.757 169.919L-665.911 169.903L-665.899 155.925L-652.053 155.909L-652.064 169.888L-638.217 169.872L-638.229 183.852L-652.076 183.867L-652.087 197.846L-665.934 197.861L-665.945 211.841L-679.791 211.856L-679.803 225.835L-665.957 225.819L-665.968 239.798L-652.122 239.782L-652.11 225.804L-624.537 225.772L-624.514 197.8L-610.668 197.784L-610.68 211.763L-596.833 211.747L-596.845 225.681L-610.691 225.696L-610.703 239.676L-624.548 239.691L-624.56 253.67L-638.286 253.686L-638.298 267.664L-679.852 267.711L-679.84 253.732L-693.687 253.748L-693.675 239.769L-707.522 239.784L-707.511 225.806L-721.357 225.821L-721.346 211.842L-735.191 211.857L-735.18 197.879L-749.027 197.895L-749.038 211.873L-762.885 211.889L-762.896 225.868L-776.742 225.884L-776.753 239.862L-790.6 239.878L-790.612 253.857L-804.458 253.873L-804.47 267.852L-846.023 267.898L-846.012 253.92L-859.859 253.935L-859.847 239.956L-873.693 239.972L-873.682 225.993L-887.528 226.009L-887.517 212.029L-873.671 212.014L-873.659 198.035L-859.813 198.02L-859.824 211.998L-845.977 211.982L-845.989 225.962L-832.142 225.946L-832.154 239.925L-818.308 239.909L-818.297 225.931L-804.45 225.915L-804.438 211.936L-818.285 211.951L-818.274 197.973L-832.12 197.988L-832.109 184.009L-845.954 184.024L-845.943 170.046L-832.097 170.03L-832.086 156.052L-818.239 156.036L-818.251 170.015L-804.404 169.999L-804.415 183.978L-790.57 183.963L-790.581 197.941L-776.735 197.926L-776.723 183.947L-762.876 183.932L-762.865 169.952L-776.712 169.968L-776.7 155.989L-790.547 156.005L-790.535 142.025L-804.381 142.041L-804.369 128.062L-790.524 128.047L-790.512 114.067L-776.666 114.052L-776.654 100.073L-762.808 100.058L-762.797 86.0791L-776.643 86.0947L-776.631 72.1152L-790.478 72.1309L-790.489 86.1104L-804.336 86.126L-804.347 100.104L-818.193 100.12L-818.205 114.099L-832.051 114.114L-832.04 100.136L-845.886 100.151L-845.875 86.1729L-832.028 86.1572L-832.017 72.1777L-818.17 72.1621L-818.159 58.1836L-804.313 58.168L-804.301 44.1885L-818.148 44.2041L-818.137 30.2256L-831.982 30.2412L-831.994 44.2197L-845.84 44.2354L-845.852 58.2148L-859.699 58.2305L-859.709 72.209L-873.556 72.2246L-873.544 58.2461L-887.391 58.2617L-887.38 44.2822L-873.533 44.2666L-873.521 30.2881L-859.676 30.2725L-859.664 16.293L-845.817 16.2773L-845.806 2.29883L-804.252 2.25195L-804.264 16.2314L-790.417 16.2158L-790.429 30.1943L-776.582 30.1787L-776.593 44.1572L-762.747 44.1416L-762.758 58.1211L-748.913 58.1055L-748.924 72.084L-735.077 72.0684L-735.066 58.0898L-721.219 58.0742L-721.208 44.0947L-707.362 44.0791L-707.35 30.1006L-693.504 30.085L-693.492 16.1064L-679.646 16.0908L-679.634 2.11133L-638.08 2.06445L-638.092 16.1045ZM93.1384 253.812L106.91 253.797L106.898 267.808L93.1269 267.823L79.3544 267.838L65.5829 267.854L65.5944 253.844L79.3659 253.828L79.3774 239.803L93.1499 239.787L93.1384 253.812ZM259.514 253.664L273.281 253.648L273.269 267.659L259.503 267.675L245.721 267.689L231.954 267.705L231.965 253.695L245.732 253.68L245.744 239.654L259.526 239.639L259.514 253.664ZM424.421 253.344L438.194 253.328L438.182 267.339L424.41 267.354L410.638 267.369L396.867 267.385L396.878 253.375L410.65 253.359L410.661 239.334L424.433 239.318L424.421 253.344ZM589.335 253.025L603.102 253.01L603.091 267.021L589.324 267.036L575.542 267.051L561.775 267.066L561.787 253.057L575.553 253.041L575.565 239.016L589.347 239L589.335 253.025ZM1018.09 15.2236L1031.86 15.208L1031.85 29.1865L1045.69 29.1709L1045.68 43.1504L1059.53 43.1348L1059.52 57.1133L1045.67 57.1289L1045.66 71.1084L1031.82 71.124L1031.83 57.1445L1017.98 57.1602L1017.99 43.1816L1004.23 43.1973L1004.24 29.2178L990.392 29.2334L990.381 43.2129L976.537 43.2285L976.526 57.207L990.369 57.1914L990.358 71.1699L1004.2 71.1543L1004.19 85.1338L1018.03 85.1182L1018.02 99.0967L1004.18 99.1123L1004.17 113.092L990.324 113.107L990.336 99.1279L976.491 99.1436L976.503 85.165L962.658 85.1807L962.669 71.2012L948.826 71.2168L948.814 85.1963L934.969 85.2119L934.959 99.1904L948.803 99.1748L948.791 113.154L962.636 113.139L962.624 127.117L976.468 127.102L976.457 141.08L962.613 141.096L962.601 155.075L948.757 155.091L948.745 169.069L934.901 169.085L934.89 183.064L948.734 183.049L948.722 197.027L962.567 197.012L962.578 183.033L976.422 183.018L976.434 169.038L990.278 169.022L990.29 155.044L1004.13 155.028L1004.12 169.007L1017.97 168.991L1017.96 182.971L1004.11 182.986L1004.1 196.965L990.255 196.98L990.244 210.96L976.399 210.976L976.389 224.954L990.232 224.938L990.221 238.917L1004.07 238.901L1004.08 224.923L1031.69 224.892L1031.71 196.919L1045.56 196.903L1045.55 210.882L1059.39 210.866L1059.38 224.8L1045.53 224.815L1045.52 238.795L1031.68 238.811L1031.67 252.789L1017.9 252.805L1017.89 266.783L976.339 266.83L976.35 252.852L962.506 252.867L962.518 238.888L948.673 238.903L948.685 224.925L934.841 224.94L934.852 210.961L921.008 210.977L921.019 196.998L907.175 197.014L907.164 210.992L893.319 211.008L893.308 224.987L879.464 225.003L879.452 238.981L865.608 238.997L865.596 252.977L851.752 252.992L851.741 266.971L810.193 267.018L810.205 253.039L796.361 253.055L796.372 239.075L782.528 239.091L782.539 225.112L768.694 225.128L768.706 211.148L782.551 211.133L782.562 197.154L796.406 197.139L796.394 211.117L810.239 211.102L810.228 225.081L824.071 225.065L824.061 239.044L837.905 239.028L837.916 225.05L851.76 225.034L851.771 211.055L837.928 211.07L837.939 197.092L824.094 197.107L824.106 183.128L810.262 183.144L810.274 169.165L824.117 169.149L824.129 155.171L837.974 155.155L837.962 169.134L851.806 169.118L851.794 183.098L865.639 183.082L865.627 197.061L879.471 197.045L879.483 183.066L893.327 183.051L893.339 169.071L879.494 169.087L879.506 155.108L865.662 155.124L865.673 141.145L851.829 141.16L851.84 127.182L865.685 127.166L865.696 113.187L879.54 113.171L879.552 99.1924L893.395 99.1768L893.407 85.1982L879.563 85.2139L879.575 71.2344L865.73 71.25L865.719 85.2295L851.875 85.2451L851.863 99.2236L838.019 99.2393L838.007 113.218L824.163 113.233L824.175 99.2549L810.33 99.2705L810.342 85.292L824.186 85.2764L824.198 71.2969L838.042 71.2812L838.053 57.3027L851.898 57.2871L851.909 43.3076L838.065 43.3232L838.076 29.3447L824.232 29.3604L824.221 43.3389L810.376 43.3545L810.365 57.334L796.521 57.3496L796.509 71.3281L782.665 71.3438L782.676 57.3652L768.832 57.3809L768.844 43.4014L782.688 43.3857L782.699 29.4072L796.544 29.3916L796.555 15.4121L810.399 15.3965L810.411 1.41797L851.958 1.37109L851.947 15.3506L865.791 15.335L865.779 29.3135L879.624 29.2979L879.612 43.2764L893.457 43.2607L893.446 57.2402L907.289 57.2246L907.278 71.2031L921.123 71.1875L921.134 57.209L934.978 57.1934L934.989 43.2139L948.834 43.1992L948.845 29.2197L962.689 29.2041L962.701 15.2256L976.545 15.21L976.556 1.23047L1018.1 1.18359L1018.09 15.2236ZM755.702 252.875L769.473 252.859L769.462 266.87L755.69 266.886L741.918 266.9L728.146 266.916L728.158 252.906L741.929 252.891L741.941 238.865L755.712 238.85L755.702 252.875ZM1350.87 14.9209L1364.6 14.9053L1364.59 28.8838L1378.43 28.8682L1378.42 42.8477L1392.27 42.832L1392.26 56.8105L1378.41 56.8262L1378.4 70.8057L1364.55 70.8213L1364.57 56.8418L1350.72 56.8574L1350.73 42.8789L1337 42.8945L1337.02 28.915L1323.17 28.9307L1323.16 42.9102L1309.31 42.9258L1309.3 56.9043L1323.15 56.8887L1323.14 70.8672L1336.98 70.8525L1336.97 84.8311L1350.82 84.8154L1350.8 98.7939L1336.96 98.8096L1336.95 112.789L1323.1 112.805L1323.11 98.8252L1309.27 98.8408L1309.28 84.8623L1295.43 84.8779L1295.44 70.8984L1281.6 70.9141L1281.58 84.8936L1267.74 84.9092L1267.73 98.8877L1281.57 98.8721L1281.56 112.852L1295.41 112.836L1295.4 126.814L1309.24 126.799L1309.23 140.778L1295.39 140.794L1295.37 154.772L1281.53 154.788L1281.52 168.767L1267.67 168.782L1267.66 182.762L1281.5 182.746L1281.49 196.725L1295.34 196.709L1295.35 182.73L1309.2 182.715L1309.21 168.735L1323.05 168.72L1323.07 154.741L1336.91 154.726L1336.9 168.704L1350.75 168.688L1350.74 182.668L1336.89 182.684L1336.88 196.662L1323.03 196.678L1323.02 210.657L1309.17 210.673L1309.16 224.651L1323.01 224.636L1323 238.614L1336.84 238.599L1336.86 224.62L1364.43 224.589L1364.45 196.616L1378.3 196.601L1378.29 210.579L1392.13 210.563L1392.12 224.497L1378.27 224.513L1378.26 238.492L1364.42 238.508L1364.41 252.486L1350.68 252.502L1350.67 266.48L1309.11 266.527L1309.13 252.549L1295.28 252.564L1295.29 238.585L1281.44 238.601L1281.45 224.622L1267.61 224.638L1267.62 210.659L1253.77 210.675L1253.79 196.695L1239.94 196.711L1239.93 210.69L1226.08 210.705L1226.07 224.685L1212.22 224.7L1212.21 238.679L1198.37 238.694L1198.35 252.674L1184.51 252.689L1184.5 266.668L1142.94 266.715L1142.95 252.736L1129.11 252.752L1129.12 238.772L1115.27 238.788L1115.28 224.81L1101.44 224.825L1101.45 210.846L1115.29 210.83L1115.31 196.852L1129.15 196.836L1129.14 210.814L1142.99 210.799L1142.98 224.778L1156.82 224.763L1156.81 238.741L1170.66 238.726L1170.67 224.747L1184.52 224.731L1184.53 210.752L1170.68 210.768L1170.69 196.789L1156.85 196.805L1156.86 182.826L1143.01 182.842L1143.02 168.862L1156.87 168.847L1156.88 154.868L1170.73 154.853L1170.71 168.831L1184.56 168.815L1184.55 182.795L1198.4 182.779L1198.38 196.758L1212.23 196.742L1212.24 182.764L1226.09 182.748L1226.1 168.769L1212.25 168.784L1212.27 154.806L1198.42 154.821L1198.43 140.842L1184.58 140.857L1184.6 126.879L1198.44 126.863L1198.45 112.885L1212.3 112.869L1212.31 98.8896L1226.16 98.874L1226.17 84.8955L1212.32 84.9111L1212.33 70.9316L1198.49 70.9473L1198.48 84.9268L1184.63 84.9424L1184.62 98.9209L1170.77 98.9365L1170.76 112.916L1156.91 112.932L1156.93 98.9521L1143.08 98.9678L1143.09 84.9893L1156.94 84.9736L1156.95 70.9941L1170.8 70.9785L1170.81 57L1184.65 56.9844L1184.66 43.0049L1170.82 43.0205L1170.83 29.042L1156.98 29.0576L1156.97 43.0361L1143.13 43.0518L1143.11 57.0312L1129.27 57.0469L1129.26 71.0254L1115.41 71.041L1115.42 57.0625L1101.57 57.0781L1101.59 43.0986L1115.43 43.083L1115.44 29.1045L1129.29 29.0889L1129.3 15.1104L1143.15 15.0947L1143.16 1.11523L1184.71 1.06836L1184.7 15.0479L1198.55 15.0322L1198.54 29.0107L1212.38 28.9951L1212.37 42.9736L1226.22 42.959L1226.21 56.9375L1240.05 56.9219L1240.04 70.9004L1253.89 70.8848L1253.9 56.9062L1267.75 56.8906L1267.76 42.9121L1281.6 42.8965L1281.61 28.917L1295.46 28.9014L1295.47 14.9229L1309.32 14.9072L1309.33 0.927734L1350.89 0.880859L1350.87 14.9209ZM920.597 252.557L934.379 252.541L934.368 266.552L920.585 266.567L906.819 266.582L893.052 266.598L893.064 252.588L906.83 252.572L906.842 238.547L920.608 238.531L920.597 252.557ZM1086.96 252.406L1100.75 252.391L1100.73 266.401L1086.95 266.417L1073.19 266.432L1059.42 266.447L1059.43 252.438L1073.2 252.422L1073.21 238.396L1086.98 238.381L1086.96 252.406ZM1682.23 42.334L1668.38 42.3496L1668.39 28.3701L1654.53 28.3857L1654.52 42.3652L1640.67 42.3809L1640.66 56.3594L1654.51 56.3438L1654.5 70.3232L1668.35 70.3076L1668.34 84.2861L1682.19 84.2705L1682.18 98.25L1668.33 98.2656L1668.32 112.244L1654.47 112.26L1654.48 98.2812L1640.63 98.2969L1640.64 84.3174L1626.78 84.333L1626.8 70.3545L1612.94 70.3701L1612.93 84.3486L1599.08 84.3643L1599.07 98.3438L1612.92 98.3281L1612.91 112.307L1626.76 112.291L1626.75 126.27L1640.6 126.254L1640.59 140.233L1626.74 140.249L1626.73 154.228L1612.88 154.243L1612.86 168.223L1599.01 168.238L1599 182.217L1612.85 182.201L1612.84 196.18L1626.69 196.164L1626.7 182.186L1640.56 182.17L1640.57 168.191L1654.42 168.176L1654.43 154.196L1668.28 154.181L1668.27 168.16L1682.12 168.145L1682.11 182.123L1668.26 182.139L1668.25 196.117L1654.4 196.133L1654.39 210.112L1640.53 210.128L1640.52 224.106L1654.37 224.091L1654.36 238.07L1668.21 238.055L1668.23 224.075L1682.08 224.06L1682.04 266.012L1640.47 266.059L1640.48 252.08L1626.63 252.096L1626.64 238.116L1612.79 238.132L1612.8 224.153L1598.95 224.169L1598.96 210.189L1585.11 210.205L1585.12 196.227L1571.27 196.242L1571.26 210.221L1557.41 210.236L1557.39 224.216L1543.54 224.231L1543.53 238.21L1529.68 238.226L1529.67 252.205L1515.82 252.221L1515.8 266.199L1474.23 266.246L1474.24 252.268L1460.39 252.282L1460.4 238.304L1446.55 238.319L1446.56 224.341L1432.71 224.356L1432.72 210.377L1446.57 210.361L1446.59 196.383L1460.44 196.367L1460.43 210.346L1474.28 210.33L1474.27 224.31L1488.12 224.294L1488.11 238.272L1501.96 238.257L1501.97 224.278L1515.82 224.263L1515.83 210.283L1501.98 210.299L1501.99 196.32L1488.14 196.336L1488.15 182.356L1474.3 182.372L1474.31 168.394L1488.16 168.378L1488.18 154.399L1502.03 154.384L1502.02 168.362L1515.87 168.347L1515.86 182.325L1529.71 182.31L1529.7 196.289L1543.55 196.273L1543.56 182.294L1557.41 182.279L1557.43 168.3L1543.57 168.315L1543.58 154.337L1529.73 154.353L1529.74 140.373L1515.89 140.389L1515.9 126.41L1529.76 126.395L1529.77 112.415L1543.62 112.399L1543.63 98.4209L1557.48 98.4053L1557.49 84.4268L1543.64 84.4424L1543.65 70.4629L1529.8 70.4785L1529.79 84.458L1515.94 84.4736L1515.93 98.4521L1502.07 98.4678L1502.06 112.446L1488.21 112.462L1488.22 98.4834L1474.37 98.499L1474.38 84.5205L1488.23 84.5049L1488.24 70.5254L1502.1 70.5098L1502.11 56.5312L1515.96 56.5156L1515.97 42.5361L1502.12 42.5518L1502.13 28.5732L1488.28 28.5889L1488.27 42.5674L1474.42 42.583L1474.4 56.5625L1460.55 56.5781L1460.54 70.5566L1446.69 70.5723L1446.7 56.5938L1432.85 56.6094L1432.86 42.6299L1446.71 42.6143L1446.72 28.6357L1460.57 28.6201L1460.59 14.6406L1474.44 14.625L1474.45 0.646484L1516.02 0.599609L1516.01 14.5781L1529.86 14.5625L1529.85 28.542L1543.7 28.5264L1543.69 42.5049L1557.54 42.4893L1557.53 56.4688L1571.38 56.4531L1571.37 70.4316L1585.22 70.416L1585.24 56.4375L1599.09 56.4219L1599.1 42.4424L1612.95 42.4268L1612.96 28.4482L1626.82 28.4326L1626.83 14.4541L1640.68 14.4385L1640.69 0.458984L1668.39 0.427734H1668.41L1682.26 0.412109L1682.23 42.334ZM1251.89 252.084L1265.65 252.068L1265.64 266.079L1251.88 266.095L1238.11 266.109L1224.33 266.125L1224.34 252.115L1238.12 252.1L1238.13 238.074L1251.9 238.059L1251.89 252.084ZM687.018 14.2236L700.744 14.208L700.733 28.1865L714.58 28.1709L714.568 42.1504L728.414 42.1348L728.402 56.1133L714.557 56.1289L714.545 70.1084L700.698 70.124L700.71 56.1445L686.863 56.1602L686.875 42.1816L673.148 42.1973L673.16 28.2178L659.314 28.2334L659.302 42.2129L645.456 42.2285L645.444 56.207L659.291 56.1914L659.279 70.1699L673.126 70.1543L673.115 84.1338L686.96 84.1182L686.949 98.0967L673.103 98.1123L673.092 112.092L659.245 112.107L659.256 98.1279L645.41 98.1436L645.421 84.165L631.575 84.1807L631.586 70.2012L617.74 70.2168L617.729 84.1963L603.882 84.2119L603.871 98.1904L617.717 98.1748L617.706 112.154L631.553 112.139L631.541 126.117L645.387 126.102L645.375 140.08L631.53 140.096L631.518 154.075L617.671 154.091L617.66 168.069L603.813 168.085L603.803 182.064L617.648 182.049L617.637 196.027L631.484 196.012L631.495 182.033L645.342 182.018L645.353 168.038L659.199 168.022L659.21 154.044L673.057 154.028L673.046 168.007L686.892 167.991L686.881 181.971L673.034 181.986L673.023 195.965L659.176 195.98L659.164 209.96L645.319 209.976L645.307 223.954L659.153 223.938L659.141 237.917L672.988 237.901L673 223.923L700.573 223.892L700.596 195.919L714.442 195.903L714.43 209.882L728.277 209.866L728.265 223.8L714.419 223.815L714.407 237.795L700.561 237.811L700.55 251.789L686.823 251.805L686.812 265.783L645.258 265.83L645.27 251.852L631.423 251.867L631.434 237.888L617.588 237.903L617.599 223.925L603.753 223.94L603.764 209.961L589.918 209.977L589.93 195.998L576.083 196.014L576.072 209.992L562.225 210.008L562.214 223.987L548.368 224.003L548.356 237.981L534.51 237.997L534.498 251.977L520.652 251.992L520.64 265.971L479.086 266.018L479.098 252.039L465.251 252.054L465.263 238.075L451.417 238.091L451.427 224.112L437.582 224.128L437.593 210.148L451.439 210.133L451.45 196.154L465.297 196.139L465.286 210.117L479.132 210.102L479.121 224.081L492.967 224.065L492.956 238.044L506.802 238.028L506.813 224.05L520.66 224.034L520.671 210.055L506.825 210.07L506.836 196.092L492.99 196.107L493.001 182.128L479.155 182.144L479.167 168.165L493.013 168.149L493.024 154.171L506.871 154.155L506.859 168.134L520.706 168.118L520.694 182.097L534.54 182.082L534.529 196.061L548.375 196.045L548.387 182.066L562.233 182.051L562.245 168.071L548.398 168.087L548.41 154.108L534.563 154.124L534.575 140.145L520.729 140.16L520.74 126.182L534.586 126.166L534.598 112.187L548.444 112.171L548.456 98.1924L562.301 98.1768L562.313 84.1982L548.467 84.2139L548.479 70.2344L534.632 70.25L534.621 84.2295L520.774 84.2451L520.762 98.2236L506.917 98.2393L506.905 112.218L493.059 112.233L493.07 98.2549L479.223 98.2705L479.235 84.292L493.082 84.2764L493.093 70.2969L506.94 70.2812L506.951 56.3027L520.797 56.2871L520.808 42.3076L506.962 42.3232L506.973 28.3447L493.128 28.3604L493.116 42.3389L479.269 42.3545L479.258 56.334L465.411 56.3496L465.401 70.3281L451.554 70.3438L451.565 56.3652L437.719 56.3809L437.73 42.4014L451.577 42.3857L451.588 28.4072L465.434 28.3916L465.446 14.4121L479.292 14.3965L479.304 0.417969L520.858 0.371094L520.846 14.3506L534.693 14.335L534.681 28.3135L548.528 28.2979L548.516 42.2764L562.363 42.2607L562.352 56.2402L576.197 56.2246L576.186 70.2031L590.032 70.1875L590.044 56.209L603.891 56.1934L603.902 42.2139L617.748 42.1982L617.759 28.2197L631.606 28.2041L631.617 14.2256L645.464 14.21L645.476 0.230469L687.029 0.183594L687.018 14.2236ZM1418.25 251.938L1432.03 251.922L1432.01 265.933L1418.24 265.948L1404.47 265.963L1390.7 265.979L1390.71 251.969L1404.48 251.953L1404.49 237.928L1418.27 237.912L1418.25 251.938ZM1584.63 251.785L1598.4 251.77L1598.39 265.78L1584.62 265.796L1570.84 265.811L1557.07 265.826L1557.08 251.816L1570.85 251.801L1570.86 237.775L1584.64 237.76L1584.63 251.785ZM-943.373 213.162L-929.606 213.147L-929.618 227.161L-943.384 227.177L-943.396 241.19L-957.177 241.206L-957.188 255.235L-970.956 255.251L-970.944 241.222L-970.933 227.208L-957.165 227.192L-957.154 213.178L-957.142 199.164L-943.361 199.148L-943.373 213.162ZM-900.906 86.9209L-887.134 86.9053L-887.145 100.841L-873.374 100.825L-873.385 114.761L-859.613 114.746L-859.624 128.682L-845.853 128.666L-845.864 142.602L-859.636 142.617L-859.647 156.553L-873.419 156.568L-873.43 170.504L-887.203 170.52L-887.214 184.455L-900.986 184.471L-900.997 198.407L-914.769 198.423L-914.757 184.486L-928.53 184.502L-928.518 170.566L-942.29 170.582L-942.278 156.646L-956.05 156.662L-956.039 142.726L-969.81 142.741L-969.799 128.806L-956.027 128.79L-956.016 114.854L-942.243 114.839L-942.233 100.903L-928.46 100.888L-928.449 86.9521L-914.677 86.9365L-914.666 73L-900.894 72.9854L-900.906 86.9209ZM-569.629 86.4521L-555.856 86.4365L-555.868 100.372L-542.096 100.356L-542.108 114.292L-528.335 114.277L-528.347 128.213L-514.575 128.197L-514.587 142.133L-528.358 142.148L-528.37 156.084L-542.141 156.1L-542.153 170.035L-555.925 170.051L-555.936 183.987L-569.708 184.002L-569.72 197.938L-583.491 197.954L-583.48 184.018L-597.251 184.033L-597.241 170.098L-611.012 170.113L-611.001 156.178L-624.772 156.193L-624.761 142.257L-638.533 142.272L-638.522 128.337L-624.75 128.321L-624.739 114.386L-610.966 114.37L-610.955 100.435L-597.183 100.419L-597.172 86.4834L-583.4 86.4678L-583.389 72.5312L-569.617 72.5166L-569.629 86.4521ZM-238.355 85.9834L-224.583 85.9678L-224.595 99.9033L-210.823 99.8877L-210.835 113.823L-197.062 113.809L-197.074 127.744L-183.302 127.729L-183.314 141.664L-197.085 141.68L-197.097 155.615L-210.868 155.631L-210.88 169.566L-224.651 169.582L-224.663 183.519L-238.435 183.533L-238.447 197.47L-252.218 197.485L-252.207 183.549L-265.978 183.564L-265.967 169.629L-279.739 169.645L-279.727 155.709L-293.499 155.725L-293.487 141.788L-307.26 141.804L-307.248 127.868L-293.477 127.853L-293.465 113.917L-279.693 113.901L-279.681 99.9658L-265.91 99.9502L-265.898 86.0146L-252.127 85.999L-252.115 72.0625L-238.344 72.0479L-238.355 85.9834ZM92.9246 85.5146L106.696 85.499L106.685 99.4346L120.457 99.4189L120.446 113.354L134.217 113.34L134.206 127.275L147.978 127.26L147.966 141.195L134.194 141.211L134.182 155.146L120.411 155.162L120.4 169.098L106.628 169.113L106.617 183.05L92.845 183.064L92.8335 197.001L79.0611 197.017L79.0726 183.08L65.3011 183.096L65.3126 169.16L51.5402 169.176L51.5517 155.24L37.7802 155.256L37.7917 141.319L24.0192 141.335L24.0308 127.399L37.8032 127.384L37.8147 113.448L51.5862 113.433L51.5977 99.4971L65.3692 99.4814L65.3807 85.5459L79.1522 85.5303L79.1637 71.5938L92.9362 71.5791L92.9246 85.5146ZM424.208 85.042L437.98 85.0264L437.969 98.9619L451.74 98.9463L451.729 112.882L465.501 112.867L465.49 126.803L479.261 126.787L479.25 140.723L465.478 140.738L465.467 154.674L451.695 154.689L451.684 168.625L437.911 168.641L437.9 182.576L424.128 182.592L424.117 196.528L410.345 196.544L410.357 182.607L396.584 182.623L396.596 168.688L382.824 168.703L382.836 154.768L369.063 154.783L369.075 140.847L355.303 140.862L355.315 126.927L369.086 126.911L369.098 112.976L382.87 112.96L382.881 99.0244L396.653 99.0088L396.665 85.0732L410.436 85.0576L410.448 71.1211L424.219 71.1064L424.208 85.042ZM755.485 84.5732L769.257 84.5576L769.246 98.4932L783.017 98.4775L783.006 112.413L796.778 112.398L796.767 126.334L810.538 126.318L810.527 140.254L796.755 140.27L796.744 154.205L782.972 154.221L782.961 168.156L769.188 168.172L769.178 182.108L755.405 182.123L755.394 196.06L741.622 196.075L741.634 182.139L727.862 182.154L727.873 168.219L714.101 168.234L714.113 154.299L700.341 154.314L700.353 140.378L686.58 140.394L686.592 126.458L700.363 126.442L700.375 112.507L714.147 112.491L714.159 98.5557L727.93 98.54L727.942 84.6045L741.713 84.5889L741.725 70.6523L755.496 70.6377L755.485 84.5732ZM1086.77 84.1045L1100.54 84.0889L1100.53 98.0244L1114.3 98.0088L1114.28 111.944L1128.06 111.93L1128.05 125.865L1141.82 125.85L1141.81 139.785L1128.03 139.801L1128.02 153.736L1114.25 153.752L1114.24 167.688L1100.47 167.703L1100.46 181.64L1086.68 181.654L1086.67 195.591L1072.9 195.606L1072.91 181.67L1059.14 181.686L1059.15 167.75L1045.38 167.766L1045.39 153.83L1031.62 153.846L1031.63 139.909L1017.86 139.925L1017.87 125.989L1031.64 125.974L1031.65 112.038L1045.43 112.022L1045.44 98.0869L1059.21 98.0713L1059.22 84.1357L1072.99 84.1201L1073 70.1836L1086.78 70.1689L1086.77 84.1045ZM1418.04 83.6357L1431.81 83.6201L1431.8 97.5557L1445.57 97.54L1445.56 111.476L1459.33 111.461L1459.32 125.396L1473.09 125.381L1473.08 139.316L1459.31 139.332L1459.3 153.268L1445.52 153.283L1445.51 167.219L1431.74 167.234L1431.73 181.171L1417.96 181.186L1417.95 195.122L1404.17 195.138L1404.19 181.201L1390.41 181.217L1390.43 167.281L1376.65 167.297L1376.67 153.361L1362.89 153.377L1362.91 139.44L1349.13 139.456L1349.14 125.521L1362.92 125.505L1362.93 111.569L1376.7 111.554L1376.71 97.6182L1390.48 97.6025L1390.49 83.667L1404.27 83.6514L1404.28 69.7148L1418.05 69.7002L1418.04 83.6357ZM-417.885 115.052L-417.896 129.03L-431.741 129.046L-431.752 143.024L-417.908 143.009L-417.919 156.988L-404.075 156.973L-404.063 142.993L-390.22 142.978L-390.208 128.999L-404.053 129.015L-404.041 115.036L-417.885 115.052ZM-85.1253 114.747L-85.1368 128.726L-98.9835 128.741L-98.995 142.72L-85.1483 142.704L-85.1598 156.684L-71.3131 156.668L-71.3016 142.688L-57.4559 142.673L-57.4444 128.694L-71.2901 128.71L-71.2786 114.731L-85.1253 114.747ZM-914.685 114.793L-914.696 128.729L-928.469 128.744L-928.48 142.68L-914.708 142.664L-914.719 156.6L-900.948 156.584L-900.936 142.648L-887.165 142.633L-887.153 128.697L-900.925 128.713L-900.913 114.777L-914.685 114.793ZM246.21 114.277L246.198 128.257L232.345 128.272L232.335 142.251L246.187 142.235L246.175 156.215L260.028 156.199L260.039 142.22L273.891 142.204L273.902 128.226L260.051 128.241L260.062 114.262L246.21 114.277ZM-583.423 114.354L-583.435 128.29L-597.206 128.306L-597.218 142.241L-583.445 142.226L-583.457 156.161L-569.685 156.146L-569.674 142.21L-555.902 142.194L-555.891 128.259L-569.662 128.274L-569.651 114.339L-583.423 114.354ZM-748.973 114.052L-748.985 128.03L-762.83 128.046L-762.842 142.024L-748.996 142.009L-749.008 155.988L-735.161 155.973L-735.15 141.993L-721.303 141.978L-721.291 127.999L-735.138 128.015L-735.127 114.036L-748.973 114.052ZM-252.15 113.886L-252.161 127.821L-265.933 127.837L-265.944 141.772L-252.172 141.757L-252.184 155.692L-238.412 155.677L-238.401 141.741L-224.629 141.726L-224.618 127.79L-238.389 127.806L-238.378 113.87L-252.15 113.886ZM79.1301 113.417L79.1186 127.353L65.3462 127.368L65.3356 141.304L79.1071 141.288L79.0956 155.224L92.8671 155.208L92.8786 141.272L106.651 141.257L106.662 127.321L92.8901 127.337L92.9016 113.401L79.1301 113.417ZM907.229 113.171L907.217 127.149L893.372 127.165L893.362 141.144L907.206 141.128L907.194 155.107L921.039 155.092L921.05 141.112L934.894 141.097L934.906 127.118L921.061 127.134L921.072 113.155L907.229 113.171ZM1239.99 112.868L1239.98 126.847L1226.13 126.862L1226.12 140.841L1239.97 140.825L1239.96 154.805L1253.8 154.789L1253.82 140.81L1267.66 140.795L1267.67 126.815L1253.83 126.831L1253.84 112.853L1239.99 112.868ZM410.429 112.914L410.417 126.85L396.645 126.865L396.633 140.801L410.406 140.785L410.394 154.721L424.166 154.705L424.177 140.77L437.949 140.754L437.96 126.818L424.189 126.834L424.2 112.898L410.429 112.914ZM1571.32 112.398L1571.31 126.378L1557.46 126.394L1557.45 140.372L1571.3 140.356L1571.29 154.336L1585.14 154.32L1585.15 140.341L1599 140.325L1599.02 126.347L1585.16 126.362L1585.18 112.383L1571.32 112.398ZM741.69 112.476L741.679 126.411L727.907 126.427L727.896 140.362L741.668 140.347L741.657 154.282L755.428 154.267L755.44 140.331L769.211 140.315L769.223 126.38L755.451 126.396L755.463 112.46L741.69 112.476ZM576.137 112.171L576.125 126.149L562.279 126.165L562.268 140.144L576.114 140.128L576.102 154.107L589.949 154.092L589.96 140.112L603.807 140.097L603.818 126.118L589.972 126.134L589.983 112.155L576.137 112.171ZM1072.97 112.007L1072.96 125.942L1059.19 125.958L1059.18 139.894L1072.95 139.878L1072.94 153.813L1086.71 153.798L1086.72 139.862L1100.49 139.847L1100.5 125.911L1086.73 125.927L1086.74 111.991L1072.97 112.007ZM1404.24 111.538L1404.23 125.474L1390.46 125.489L1390.45 139.425L1404.22 139.409L1404.21 153.345L1417.98 153.329L1417.99 139.394L1431.76 139.378L1431.78 125.442L1418 125.458L1418.02 111.522L1404.24 111.538ZM-956.914 30.5176L-943.133 30.502L-943.144 44.5312L-929.377 44.5156L-929.388 58.5303L-943.156 58.5459L-943.167 72.5596L-956.948 72.5752L-956.937 58.5615L-970.703 58.5762L-970.692 44.5625L-970.68 30.5332L-970.669 16.5195L-956.902 16.5039L-956.914 30.5176ZM-887.763 17.4551L-901.536 17.4707L-901.547 31.4893L-915.319 31.5039L-915.307 17.4863L-929.079 17.502L-929.067 3.48438L-901.524 3.45312L-887.752 3.4375L-887.763 17.4551ZM-721.392 17.3027L-735.16 17.3184L-735.171 31.3369L-748.953 31.3516L-748.941 17.334L-762.708 17.3496L-762.696 3.33203L-748.93 3.31641L-735.148 3.30078L-721.381 3.28516L-721.392 17.3027ZM-556.484 16.9863L-570.257 17.002L-570.268 31.0205L-584.04 31.0352L-584.028 17.0176L-597.8 17.0332L-597.788 3.01562L-570.245 2.98438L-556.473 2.96875L-556.484 16.9863ZM-390.113 16.834L-403.895 16.8496L-403.907 30.8682L-417.674 30.8828L-417.662 16.8652L-431.429 16.8809L-431.417 2.86328L-403.884 2.83203L-390.102 2.81641L-390.113 16.834ZM-223.742 16.6816L-237.524 16.6973L-237.536 30.7158L-251.302 30.7305L-251.291 16.7129L-265.058 16.7285L-265.046 2.71094L-237.513 2.67969L-223.731 2.66406L-223.742 16.6816ZM-58.836 16.3652L-72.6026 16.3809L-72.6141 30.3994L-86.3817 30.4141L-86.3702 16.3965L-100.151 16.4121L-100.14 2.39453L-86.3587 2.37891L-72.5911 2.36328L-58.8245 2.34766L-58.836 16.3652ZM107.531 16.2129L93.7597 16.2285L93.7482 30.2471L79.9757 30.2617L79.9872 16.2441L66.2157 16.2598L66.2272 2.24219L79.9987 2.22656L93.7712 2.21094L107.543 2.19531L107.531 16.2129ZM272.443 15.8965L258.677 15.9121L258.665 29.9307L244.883 29.9453L244.894 15.9277L231.128 15.9434L231.139 1.92578L244.906 1.91016L258.688 1.89453L272.455 1.87891L272.443 15.8965ZM437.35 15.5742L423.578 15.5898L423.566 29.6084L409.795 29.623L409.806 15.6055L396.035 15.6211L396.046 1.60352L423.589 1.57227L437.362 1.55664L437.35 15.5742ZM603.727 15.4238L589.96 15.4395L589.948 29.458L576.167 29.4727L576.178 15.4551L562.412 15.4707L562.423 1.45312L576.19 1.4375L589.971 1.42188L603.739 1.40625L603.727 15.4238ZM768.629 15.1055L754.857 15.1211L754.846 29.1396L741.074 29.1543L741.086 15.1367L727.314 15.1523L727.326 1.13477L754.868 1.10352L768.641 1.08789L768.629 15.1055ZM935.004 14.9551L921.222 14.9707L921.211 28.9893L907.444 29.0039L907.456 14.9863L893.689 15.002L893.7 0.984375L921.234 0.953125L935.016 0.9375L935.004 14.9551ZM1101.37 14.8027L1087.59 14.8184L1087.58 28.8369L1073.81 28.8516L1073.82 14.834L1060.06 14.8496L1060.07 0.832031L1087.6 0.800781L1101.38 0.785156L1101.37 14.8027ZM1266.28 14.4863L1252.51 14.502L1252.5 28.5205L1238.73 28.5352L1238.75 14.5176L1224.96 14.5332L1224.98 0.515625L1238.76 0.5L1252.52 0.484375L1266.29 0.46875L1266.28 14.4863ZM1432.65 14.334L1418.88 14.3496L1418.87 28.3682L1405.1 28.3828L1405.11 14.3652L1391.34 14.3809L1391.35 0.363281L1405.12 0.347656L1418.89 0.332031L1432.66 0.316406L1432.65 14.334ZM1597.56 14.0176L1583.79 14.0332L1583.78 28.0518L1570 28.0664L1570.01 14.0488L1556.24 14.0645L1556.25 0.046875L1570.02 0.03125L1583.8 0.015625L1597.57 0L1597.56 14.0176Z" fill="#C4321A"/>
</svg>
