<svg width="768" height="521" viewBox="0 0 768 521" fill="none" xmlns="http://www.w3.org/2000/svg">
<path d="M-900.691 512.382L-886.919 512.366L-886.93 526.377L-928.246 526.423L-928.234 512.413L-914.463 512.397L-914.451 498.372L-900.68 498.356L-900.691 512.382ZM-735.777 512.065L-722.011 512.05L-722.022 526.061L-763.338 526.106L-763.326 512.097L-749.56 512.081L-749.548 498.056L-735.766 498.04L-735.777 512.065ZM-307.02 274.264L-293.251 274.248L-293.262 288.227L-279.419 288.211L-279.43 302.19L-265.585 302.175L-265.597 316.153L-279.441 316.169L-279.452 330.148L-293.297 330.164L-293.285 316.185L-307.129 316.2L-307.119 302.222L-320.887 302.237L-320.876 288.258L-334.72 288.273L-334.732 302.253L-348.576 302.269L-348.587 316.247L-334.743 316.231L-334.755 330.21L-320.91 330.194L-320.922 344.174L-307.078 344.158L-307.089 358.137L-320.933 358.152L-320.945 372.132L-334.788 372.147L-334.777 358.168L-348.622 358.184L-348.61 344.205L-362.455 344.221L-362.443 330.241L-376.287 330.257L-376.299 344.236L-390.143 344.252L-390.154 358.23L-376.31 358.215L-376.322 372.194L-362.477 372.179L-362.488 386.157L-348.645 386.142L-348.656 400.12L-362.5 400.136L-362.511 414.115L-376.356 414.131L-376.368 428.109L-390.211 428.125L-390.223 442.104L-376.379 442.089L-376.391 456.067L-362.546 456.052L-362.534 442.073L-348.691 442.058L-348.679 428.078L-334.834 428.062L-334.823 414.084L-320.979 414.068L-320.991 428.047L-307.146 428.031L-307.157 442.011L-321.002 442.026L-321.014 456.005L-334.857 456.021L-334.869 470L-348.714 470.016L-348.724 483.994L-334.88 483.979L-334.892 497.957L-321.047 497.941L-321.036 483.963L-293.422 483.932L-293.399 455.959L-279.556 455.943L-279.567 469.922L-265.722 469.906L-265.734 483.84L-279.579 483.855L-279.59 497.835L-293.434 497.851L-293.445 511.829L-307.215 511.845L-307.227 525.823L-348.774 525.87L-348.763 511.892L-362.607 511.907L-362.595 497.928L-376.44 497.943L-376.428 483.965L-390.272 483.98L-390.261 470.001L-404.105 470.017L-404.094 456.038L-417.938 456.054L-417.949 470.032L-431.794 470.048L-431.805 484.027L-445.649 484.043L-445.661 498.021L-459.505 498.037L-459.517 512.017L-473.36 512.032L-473.372 526.011L-514.92 526.058L-514.908 512.079L-528.752 512.095L-528.741 498.115L-542.585 498.131L-542.574 484.152L-556.418 484.168L-556.407 470.188L-542.562 470.173L-542.551 456.194L-528.707 456.179L-528.719 470.157L-514.874 470.142L-514.885 484.121L-501.042 484.105L-501.052 498.084L-487.208 498.068L-487.197 484.09L-473.353 484.074L-473.342 470.095L-487.185 470.11L-487.174 456.132L-501.019 456.147L-501.007 442.168L-514.851 442.184L-514.839 428.205L-500.996 428.189L-500.984 414.211L-487.139 414.195L-487.151 428.174L-473.307 428.158L-473.319 442.138L-459.474 442.122L-459.485 456.101L-445.642 456.085L-445.63 442.106L-431.785 442.091L-431.774 428.111L-445.619 428.127L-445.607 414.148L-459.451 414.164L-459.439 400.185L-473.284 400.2L-473.273 386.222L-459.428 386.206L-459.417 372.227L-445.573 372.211L-445.561 358.232L-431.717 358.217L-431.706 344.238L-445.55 344.254L-445.538 330.274L-459.383 330.29L-459.394 344.27L-473.238 344.285L-473.25 358.264L-487.094 358.279L-487.106 372.258L-500.95 372.273L-500.938 358.295L-514.783 358.311L-514.771 344.332L-500.927 344.316L-500.915 330.337L-487.071 330.321L-487.06 316.343L-473.215 316.327L-473.204 302.348L-487.048 302.363L-487.037 288.385L-500.881 288.4L-500.892 302.379L-514.737 302.395L-514.748 316.374L-528.592 316.39L-528.604 330.368L-542.448 330.384L-542.437 316.405L-556.28 316.421L-556.269 302.441L-542.425 302.426L-542.414 288.447L-528.569 288.432L-528.558 274.452L-514.714 274.437L-514.702 260.458L-473.154 260.411L-473.166 274.391L-459.322 274.375L-459.334 288.354L-445.489 288.338L-445.5 302.316L-431.656 302.301L-431.667 316.28L-417.823 316.265L-417.835 330.243L-403.99 330.228L-403.979 316.249L-390.135 316.233L-390.124 302.254L-376.279 302.239L-376.268 288.26L-362.424 288.244L-362.412 274.266L-348.568 274.25L-348.557 260.271L-307.009 260.224L-307.02 274.264ZM-569.411 511.913L-555.64 511.897L-555.651 525.908L-596.967 525.954L-596.955 511.944L-583.184 511.929L-583.172 497.903L-569.401 497.888L-569.411 511.913ZM25.7568 273.959L39.4824 273.943L39.4719 287.922L53.3175 287.906L53.306 301.886L67.1527 301.87L67.1412 315.849L53.2946 315.864L53.2831 329.844L39.4373 329.859L39.4489 315.88L25.6022 315.896L25.6136 301.917L11.8871 301.933L11.8986 287.953L-1.94806 287.969L-1.95953 301.948L-15.8052 301.964L-15.8168 315.942L-1.97009 315.927L-1.98157 329.905L11.8641 329.89L11.8526 343.869L25.6993 343.854L25.6878 357.832L11.8411 357.848L11.8296 371.827L-2.01611 371.843L-2.00458 357.863L-15.8513 357.879L-15.8398 343.9L-29.6865 343.916L-29.6749 329.937L-43.5216 329.952L-43.5322 343.932L-57.3788 343.947L-57.3903 357.926L-43.5436 357.91L-43.5551 371.89L-29.7094 371.874L-29.7209 385.853L-15.8743 385.837L-15.8857 399.815L-29.7324 399.831L-29.744 413.811L-43.5897 413.826L-43.6011 427.805L-57.4478 427.82L-57.4593 441.8L-43.6126 441.784L-43.6241 455.763L-29.7775 455.747L-29.766 441.769L-15.9203 441.753L-15.9088 427.773L-2.06207 427.758L-2.0506 413.779L11.7961 413.764L11.7846 427.742L25.6303 427.727L25.6188 441.706L11.7731 441.722L11.7616 455.7L-2.08508 455.716L-2.09662 469.695L-15.9432 469.711L-15.9538 483.689L-2.10809 483.674L-2.11957 497.652L11.7271 497.637L11.7386 483.658L39.3109 483.627L39.3339 455.654L53.1805 455.639L53.1691 469.617L67.0157 469.602L67.0042 483.535L53.1575 483.551L53.146 497.53L39.2993 497.546L39.2888 511.524L25.5623 511.54L25.5507 525.519L-16.0039 525.565L-15.9924 511.587L-29.8381 511.603L-29.8266 497.623L-43.6733 497.639L-43.6618 483.66L-57.5085 483.676L-57.497 469.696L-71.3436 469.712L-71.3322 455.733L-85.1779 455.749L-85.1893 469.728L-99.036 469.743L-99.0475 483.723L-112.894 483.738L-112.906 497.717L-126.751 497.732L-126.763 511.712L-140.61 511.728L-140.621 525.706L-182.175 525.753L-182.163 511.774L-196.01 511.79L-195.998 497.811L-209.845 497.826L-209.834 483.848L-223.679 483.863L-223.669 469.884L-209.822 469.868L-209.811 455.89L-195.964 455.874L-195.975 469.853L-182.129 469.837L-182.14 483.816L-168.295 483.801L-168.306 497.779L-154.459 497.764L-154.448 483.785L-140.601 483.77L-140.59 469.79L-154.436 469.806L-154.425 455.827L-168.272 455.843L-168.26 441.863L-182.107 441.879L-182.095 427.9L-168.249 427.885L-168.237 413.906L-154.39 413.891L-154.402 427.869L-140.556 427.854L-140.568 441.833L-126.721 441.817L-126.733 455.796L-112.886 455.78L-112.874 441.802L-99.0276 441.786L-99.0172 427.807L-112.863 427.822L-112.851 413.844L-126.698 413.859L-126.687 399.88L-140.533 399.896L-140.522 385.917L-126.675 385.901L-126.664 371.922L-112.817 371.906L-112.805 357.928L-98.9597 357.912L-98.9482 343.934L-112.795 343.949L-112.783 329.97L-126.629 329.985L-126.641 343.965L-140.487 343.98L-140.499 357.959L-154.345 357.975L-154.356 371.953L-168.203 371.969L-168.191 357.99L-182.038 358.006L-182.026 344.027L-168.18 344.012L-168.168 330.032L-154.322 330.017L-154.311 316.038L-140.464 316.022L-140.453 302.043L-154.299 302.059L-154.288 288.08L-168.134 288.096L-168.145 302.074L-181.992 302.09L-182.003 316.069L-195.85 316.085L-195.861 330.063L-209.707 330.079L-209.696 316.101L-223.542 316.116L-223.531 302.137L-209.685 302.121L-209.674 288.143L-195.827 288.127L-195.815 274.147L-181.969 274.132L-181.957 260.153L-140.404 260.106L-140.415 274.086L-126.568 274.07L-126.58 288.049L-112.733 288.033L-112.745 302.012L-98.899 301.996L-98.9105 315.976L-85.0638 315.96L-85.0753 329.938L-71.2286 329.923L-71.2172 315.944L-57.3715 315.929L-57.3599 301.949L-43.5133 301.934L-43.5018 287.955L-29.6551 287.939L-29.6436 273.961L-15.7979 273.945L-15.7864 259.966L25.7682 259.919L25.7568 273.959ZM-404.52 511.597L-390.738 511.581L-390.749 525.592L-432.064 525.638L-432.053 511.628L-418.286 511.612L-418.275 497.587L-404.508 497.571L-404.52 511.597ZM-238.149 511.444L-224.367 511.429L-224.378 525.438L-265.693 525.485L-265.682 511.476L-251.915 511.46L-251.904 497.435L-238.137 497.419L-238.149 511.444ZM357.138 271.794L368.21 271.782L368.199 285.796L381.98 285.78L381.969 299.81L395.736 299.794L395.725 313.809L381.957 313.824L381.946 327.838L368.164 327.854L368.176 313.84L354.409 313.854L354.419 301.375L343.263 301.388L343.274 287.408L329.422 287.424L329.41 301.403L315.558 301.419L315.547 315.397L329.399 315.382L329.387 329.361L343.24 329.346L343.228 343.324L357.08 343.309L357.068 357.288L343.217 357.304L343.205 371.282L329.353 371.298L329.364 357.319L315.513 357.335L315.524 343.355L301.672 343.371L301.683 329.393L287.831 329.408L287.819 343.387L273.968 343.402L273.956 357.382L287.808 357.366L287.797 371.345L301.649 371.329L301.637 385.308L315.49 385.292L315.478 399.271L301.626 399.287L301.614 413.266L287.763 413.281L287.751 427.261L273.899 427.276L273.887 441.255L287.74 441.239L287.728 455.218L301.581 455.202L301.591 441.224L315.444 441.208L315.455 427.229L329.308 427.214L329.318 413.234L343.171 413.219L343.159 427.198L357.012 427.183L357 441.161L343.148 441.177L343.136 455.155L329.285 455.171L329.273 469.15L315.421 469.166L315.409 483.145L329.262 483.129L329.25 497.108L343.102 497.093L343.113 483.113L354.179 483.101L354.18 482.488L367.946 482.473L367.969 454.444L381.751 454.429L381.74 468.442L395.507 468.428L395.495 482.441L381.729 482.457L381.717 496.471L367.935 496.486L367.923 510.516L356.943 510.527L356.932 525.05L315.36 525.097L315.372 511.118L301.519 511.134L301.531 497.154L287.679 497.17L287.691 483.191L273.838 483.207L273.85 469.228L259.997 469.243L260.009 455.265L246.157 455.28L246.146 469.259L232.293 469.274L232.281 483.254L218.43 483.27L218.418 497.248L204.566 497.264L204.554 511.243L190.703 511.259L190.691 525.237L149.12 525.284L149.131 511.306L135.279 511.32L135.291 497.342L121.438 497.357L121.449 483.379L107.598 483.395L107.609 469.415L121.461 469.399L121.472 455.421L135.325 455.405L135.313 469.384L149.165 469.368L149.154 483.348L163.006 483.332L162.995 497.311L176.847 497.295L176.859 483.316L190.71 483.301L190.722 469.321L176.87 469.337L176.882 455.358L163.029 455.374L163.041 441.395L149.188 441.41L149.2 427.432L163.052 427.416L163.064 413.438L176.915 413.422L176.904 427.4L190.756 427.385L190.745 441.363L204.597 441.348L204.586 455.327L218.437 455.312L218.449 441.332L232.301 441.316L232.313 427.338L218.46 427.354L218.472 413.375L204.62 413.391L204.631 399.411L190.779 399.427L190.791 385.448L204.642 385.433L204.654 371.453L218.506 371.438L218.518 357.459L232.369 357.443L232.381 343.465L218.529 343.48L218.541 329.501L204.688 329.517L204.677 343.496L190.825 343.512L190.814 357.49L176.961 357.506L176.95 371.484L163.098 371.5L163.11 357.521L149.257 357.537L149.269 343.559L163.12 343.543L163.132 329.563L176.984 329.548L176.996 315.569L190.847 315.554L190.859 301.574L177.007 301.59L177.019 287.611L163.166 287.627L163.155 301.605L149.303 301.621L149.292 315.601L135.439 315.616L135.427 329.595L121.576 329.61L121.587 315.632L107.735 315.647L107.746 301.668L121.599 301.652L121.61 287.674L135.462 287.658L135.474 273.679L149.326 273.663L149.337 259.685L190.909 259.638L190.897 273.616L204.749 273.601L204.737 287.58L218.59 287.564L218.578 301.543L232.431 301.527L232.419 315.507L246.271 315.491L246.26 329.47L260.112 329.454L260.124 315.476L273.975 315.46L273.987 301.48L287.839 301.465L287.851 287.486L301.702 287.471L301.714 273.492L315.566 273.477L315.578 259.497L343.282 259.466H343.297L357.149 259.45L357.138 271.794ZM-73.2211 511.122L-59.4545 511.106L-59.466 525.117L-100.781 525.163L-100.77 511.153L-86.9877 511.138L-86.9762 497.112L-73.2096 497.097L-73.2211 511.122ZM-638.091 273.264L-624.365 273.248L-624.376 287.227L-610.529 287.211L-610.541 301.19L-596.695 301.175L-596.707 315.153L-610.552 315.169L-610.564 329.148L-624.411 329.164L-624.399 315.185L-638.246 315.2L-638.234 301.222L-651.961 301.237L-651.949 287.258L-665.795 287.273L-665.806 301.253L-679.653 301.269L-679.665 315.247L-665.818 315.231L-665.829 329.21L-651.983 329.194L-651.994 343.174L-638.149 343.158L-638.16 357.137L-652.006 357.152L-652.017 371.132L-665.864 371.147L-665.852 357.168L-679.699 357.184L-679.688 343.205L-693.534 343.221L-693.523 329.241L-707.368 329.257L-707.38 343.236L-721.227 343.252L-721.238 357.23L-707.392 357.215L-707.403 371.194L-693.556 371.179L-693.568 385.157L-679.722 385.142L-679.734 399.12L-693.579 399.136L-693.591 413.115L-707.438 413.131L-707.449 427.109L-721.296 427.125L-721.306 441.104L-707.461 441.089L-707.472 455.067L-693.625 455.052L-693.614 441.073L-679.767 441.058L-679.756 427.078L-665.91 427.062L-665.898 413.084L-652.052 413.068L-652.063 427.047L-638.217 427.031L-638.228 441.011L-652.075 441.026L-652.086 455.005L-665.933 455.021L-665.944 469L-679.79 469.016L-679.802 482.994L-665.956 482.979L-665.967 496.957L-652.121 496.941L-652.109 482.963L-624.536 482.932L-624.513 454.959L-610.667 454.943L-610.679 468.922L-596.832 468.906L-596.844 482.84L-610.69 482.855L-610.702 496.835L-624.548 496.851L-624.559 510.829L-638.286 510.845L-638.297 524.823L-679.851 524.87L-679.839 510.892L-693.686 510.907L-693.674 496.928L-707.521 496.943L-707.51 482.965L-721.356 482.98L-721.345 469.001L-735.191 469.017L-735.179 455.038L-749.026 455.054L-749.037 469.032L-762.884 469.048L-762.895 483.027L-776.741 483.043L-776.753 497.021L-790.599 497.037L-790.611 511.017L-804.457 511.032L-804.469 525.011L-846.023 525.058L-846.011 511.079L-859.858 511.094L-859.846 497.115L-873.692 497.131L-873.681 483.152L-887.527 483.168L-887.516 469.188L-873.67 469.173L-873.658 455.194L-859.812 455.179L-859.823 469.157L-845.977 469.142L-845.988 483.121L-832.141 483.105L-832.153 497.084L-818.307 497.068L-818.296 483.09L-804.449 483.074L-804.438 469.095L-818.284 469.11L-818.273 455.132L-832.119 455.147L-832.108 441.168L-845.954 441.184L-845.942 427.205L-832.096 427.189L-832.085 413.211L-818.238 413.195L-818.25 427.174L-804.403 427.158L-804.415 441.137L-790.569 441.122L-790.58 455.101L-776.734 455.085L-776.722 441.106L-762.876 441.091L-762.864 427.111L-776.711 427.127L-776.699 413.148L-790.546 413.164L-790.534 399.185L-804.38 399.2L-804.369 385.222L-790.523 385.206L-790.511 371.227L-776.665 371.211L-776.653 357.232L-762.808 357.217L-762.796 343.238L-776.642 343.254L-776.63 329.274L-790.477 329.29L-790.488 343.27L-804.335 343.285L-804.347 357.264L-818.192 357.279L-818.204 371.258L-832.05 371.273L-832.039 357.295L-845.886 357.311L-845.874 343.332L-832.027 343.316L-832.016 329.337L-818.169 329.321L-818.158 315.343L-804.312 315.327L-804.301 301.348L-818.147 301.363L-818.136 287.385L-831.981 287.4L-831.993 301.379L-845.84 301.395L-845.851 315.374L-859.698 315.39L-859.708 329.368L-873.555 329.384L-873.543 315.405L-887.39 315.421L-887.379 301.441L-873.532 301.426L-873.52 287.447L-859.675 287.432L-859.663 273.452L-845.817 273.437L-845.805 259.458L-804.251 259.411L-804.263 273.391L-790.416 273.375L-790.428 287.354L-776.581 287.338L-776.593 301.316L-762.746 301.301L-762.757 315.28L-748.912 315.265L-748.923 329.243L-735.077 329.228L-735.065 315.249L-721.218 315.233L-721.207 301.254L-707.361 301.238L-707.35 287.26L-693.503 287.244L-693.491 273.266L-679.645 273.25L-679.633 259.271L-638.08 259.224L-638.091 273.264ZM93.1393 510.972L106.911 510.956L106.899 524.967L65.5837 525.013L65.5953 511.003L79.3668 510.987L79.3783 496.962L93.1508 496.946L93.1393 510.972ZM259.515 510.823L273.282 510.808L273.27 524.818L231.955 524.864L231.966 510.854L245.733 510.839L245.744 496.813L259.527 496.798L259.515 510.823ZM424.42 510.503L438.193 510.487L438.181 524.498L396.866 524.544L396.877 510.534L410.649 510.519L410.66 496.493L424.432 496.478L424.42 510.503ZM589.334 510.185L603.101 510.169L603.089 524.18L561.774 524.226L561.786 510.216L575.552 510.2L575.564 496.175L589.346 496.159L589.334 510.185ZM1018.09 272.383L1031.86 272.367L1031.85 286.346L1045.69 286.33L1045.68 300.31L1059.53 300.294L1059.51 314.272L1045.67 314.288L1045.66 328.268L1031.81 328.283L1031.83 314.304L1017.98 314.319L1017.99 300.341L1004.22 300.356L1004.24 286.377L990.391 286.393L990.38 300.372L976.536 300.388L976.525 314.366L990.368 314.351L990.357 328.329L1004.2 328.313L1004.19 342.293L1018.03 342.277L1018.02 356.256L1004.18 356.271L1004.17 370.251L990.323 370.267L990.335 356.287L976.49 356.303L976.502 342.324L962.657 342.34L962.668 328.36L948.825 328.376L948.813 342.355L934.968 342.371L934.958 356.35L948.802 356.334L948.79 370.313L962.635 370.298L962.623 384.276L976.467 384.261L976.456 398.239L962.612 398.255L962.6 412.234L948.756 412.25L948.744 426.229L934.9 426.244L934.889 440.224L948.733 440.208L948.721 454.187L962.566 454.171L962.577 440.192L976.421 440.177L976.433 426.197L990.277 426.182L990.289 412.203L1004.13 412.188L1004.12 426.166L1017.97 426.15L1017.95 440.13L1004.11 440.146L1004.1 454.124L990.254 454.14L990.243 468.119L976.398 468.135L976.388 482.113L990.231 482.098L990.22 496.076L1004.06 496.061L1004.08 482.082L1031.69 482.051L1031.71 454.078L1045.56 454.062L1045.54 468.041L1059.39 468.025L1059.38 481.959L1045.53 481.975L1045.52 495.954L1031.68 495.97L1031.67 509.948L1017.9 509.964L1017.89 523.942L976.337 523.989L976.349 510.011L962.505 510.026L962.517 496.047L948.672 496.062L948.683 482.084L934.84 482.1L934.851 468.12L921.006 468.136L921.018 454.157L907.174 454.173L907.163 468.151L893.318 468.167L893.307 482.146L879.463 482.162L879.451 496.141L865.607 496.156L865.595 510.136L851.751 510.151L851.74 524.13L810.192 524.177L810.203 510.198L796.36 510.214L796.371 496.234L782.526 496.25L782.538 482.271L768.693 482.287L768.705 468.308L782.549 468.292L782.561 454.313L796.405 454.298L796.393 468.276L810.238 468.261L810.226 482.24L824.07 482.225L824.06 496.203L837.903 496.188L837.915 482.209L851.759 482.193L851.77 468.214L837.926 468.229L837.938 454.251L824.093 454.267L824.105 440.287L810.261 440.303L810.272 426.324L824.116 426.309L824.128 412.33L837.972 412.314L837.961 426.293L851.805 426.277L851.793 440.257L865.638 440.241L865.626 454.22L879.47 454.204L879.482 440.226L893.326 440.21L893.338 426.23L879.493 426.246L879.505 412.268L865.661 412.283L865.672 398.304L851.828 398.319L851.839 384.341L865.684 384.325L865.694 370.346L879.539 370.33L879.551 356.352L893.394 356.336L893.406 342.357L879.562 342.373L879.574 328.394L865.729 328.409L865.717 342.389L851.874 342.404L851.862 356.383L838.017 356.398L838.006 370.377L824.162 370.393L824.174 356.414L810.329 356.43L810.34 342.451L824.185 342.436L824.197 328.456L838.04 328.44L838.052 314.462L851.897 314.446L851.908 300.467L838.063 300.482L838.075 286.504L824.231 286.52L824.22 300.498L810.375 300.514L810.364 314.493L796.52 314.509L796.508 328.487L782.663 328.503L782.675 314.524L768.831 314.54L768.843 300.561L782.687 300.545L782.698 286.566L796.543 286.551L796.554 272.571L810.398 272.556L810.409 258.577L851.957 258.53L851.946 272.51L865.79 272.494L865.778 286.473L879.623 286.457L879.611 300.436L893.456 300.42L893.444 314.399L907.288 314.384L907.277 328.362L921.121 328.347L921.133 314.368L934.977 314.353L934.988 300.373L948.833 300.358L948.844 286.379L962.688 286.363L962.7 272.385L976.543 272.369L976.555 258.39L1018.1 258.343L1018.09 272.383ZM755.7 510.034L769.472 510.019L769.46 524.029L728.145 524.075L728.156 510.065L741.928 510.05L741.939 496.024L755.711 496.009L755.7 510.034ZM1350.87 272.08L1364.6 272.064L1364.59 286.043L1378.43 286.027L1378.42 300.007L1392.27 299.991L1392.26 313.97L1378.41 313.985L1378.4 327.965L1364.55 327.98L1364.56 314.001L1350.72 314.017L1350.73 300.038L1337 300.054L1337.01 286.074L1323.17 286.09L1323.16 300.069L1309.31 300.085L1309.3 314.063L1323.15 314.048L1323.13 328.026L1336.98 328.012L1336.97 341.99L1350.81 341.975L1350.8 355.953L1336.96 355.969L1336.95 369.948L1323.1 369.964L1323.11 355.984L1309.26 356L1309.28 342.021L1295.43 342.037L1295.44 328.058L1281.59 328.073L1281.58 342.053L1267.74 342.068L1267.73 356.047L1281.57 356.031L1281.56 370.011L1295.41 369.995L1295.4 383.974L1309.24 383.958L1309.23 397.938L1295.38 397.953L1295.37 411.932L1281.53 411.947L1281.51 425.926L1267.67 425.941L1267.66 439.921L1281.5 439.905L1281.49 453.884L1295.34 453.868L1295.35 439.89L1309.2 439.874L1309.21 425.895L1323.05 425.879L1323.07 411.9L1336.91 411.885L1336.9 425.863L1350.75 425.848L1350.74 439.827L1336.89 439.843L1336.88 453.821L1323.03 453.837L1323.02 467.816L1309.17 467.832L1309.16 481.811L1323.01 481.795L1323 495.773L1336.84 495.758L1336.85 481.779L1364.43 481.748L1364.45 453.775L1378.3 453.76L1378.28 467.738L1392.13 467.723L1392.12 481.656L1378.27 481.672L1378.26 495.651L1364.42 495.667L1364.4 509.646L1350.68 509.661L1350.67 523.64L1309.11 523.687L1309.12 509.708L1295.28 509.724L1295.29 495.744L1281.44 495.76L1281.45 481.781L1267.61 481.797L1267.62 467.818L1253.77 467.834L1253.78 453.854L1239.94 453.87L1239.93 467.85L1226.08 467.864L1226.07 481.844L1212.22 481.859L1212.21 495.838L1198.36 495.854L1198.35 509.833L1184.51 509.849L1184.49 523.827L1142.94 523.874L1142.95 509.896L1129.11 509.911L1129.12 495.932L1115.27 495.947L1115.28 481.969L1101.44 481.984L1101.45 468.005L1115.29 467.989L1115.3 454.011L1129.15 453.995L1129.14 467.974L1142.99 467.958L1142.98 481.938L1156.82 481.922L1156.81 495.9L1170.66 495.885L1170.67 481.906L1184.51 481.891L1184.53 467.911L1170.68 467.927L1170.69 453.948L1156.84 453.964L1156.86 439.985L1143.01 440.001L1143.02 426.021L1156.87 426.006L1156.88 412.027L1170.73 412.012L1170.71 425.99L1184.56 425.975L1184.55 439.954L1198.39 439.938L1198.38 453.917L1212.23 453.901L1212.24 439.923L1226.09 439.907L1226.1 425.928L1212.25 425.943L1212.26 411.965L1198.42 411.98L1198.43 398.001L1184.58 398.017L1184.59 384.038L1198.44 384.022L1198.45 370.044L1212.3 370.028L1212.31 356.049L1226.16 356.033L1226.17 342.055L1212.32 342.07L1212.33 328.091L1198.49 328.106L1198.48 342.086L1184.63 342.102L1184.62 356.08L1170.77 356.096L1170.76 370.075L1156.91 370.091L1156.92 356.111L1143.08 356.127L1143.09 342.148L1156.94 342.133L1156.95 328.153L1170.79 328.138L1170.8 314.159L1184.65 314.144L1184.66 300.164L1170.82 300.18L1170.83 286.201L1156.98 286.217L1156.97 300.195L1143.12 300.211L1143.11 314.19L1129.27 314.206L1129.25 328.185L1115.41 328.2L1115.42 314.222L1101.57 314.237L1101.58 300.258L1115.43 300.242L1115.44 286.264L1129.29 286.248L1129.3 272.27L1143.15 272.254L1143.16 258.274L1184.71 258.228L1184.7 272.207L1198.55 272.191L1198.54 286.17L1212.38 286.154L1212.37 300.133L1226.22 300.118L1226.21 314.097L1240.05 314.081L1240.04 328.06L1253.89 328.044L1253.9 314.065L1267.75 314.05L1267.76 300.071L1281.6 300.056L1281.61 286.076L1295.46 286.061L1295.47 272.082L1309.32 272.066L1309.33 258.087L1350.88 258.04L1350.87 272.08ZM920.596 509.716L934.378 509.7L934.367 523.711L893.051 523.757L893.063 509.747L906.829 509.731L906.841 495.706L920.607 495.69L920.596 509.716ZM1086.96 509.565L1100.75 509.55L1100.73 523.561L1059.42 523.606L1059.43 509.597L1073.2 509.581L1073.21 495.556L1086.97 495.54L1086.96 509.565ZM1682.23 299.493L1668.37 299.509L1668.39 285.529L1654.53 285.545L1654.52 299.524L1640.67 299.54L1640.66 313.519L1654.51 313.503L1654.5 327.482L1668.35 327.467L1668.34 341.445L1682.19 341.43L1682.18 355.409L1668.33 355.425L1668.32 369.403L1654.46 369.419L1654.48 355.44L1640.62 355.456L1640.64 341.477L1626.78 341.492L1626.8 327.514L1612.94 327.529L1612.93 341.508L1599.08 341.523L1599.07 355.503L1612.92 355.487L1612.91 369.466L1626.76 369.45L1626.75 383.429L1640.6 383.413L1640.59 397.393L1626.74 397.408L1626.73 411.387L1612.87 411.402L1612.86 425.382L1599.01 425.397L1599 439.376L1612.85 439.36L1612.84 453.339L1626.69 453.323L1626.7 439.345L1640.56 439.329L1640.57 425.351L1654.42 425.335L1654.43 411.355L1668.28 411.34L1668.27 425.319L1682.12 425.304L1682.11 439.282L1668.26 439.298L1668.25 453.276L1654.4 453.292L1654.39 467.271L1640.53 467.287L1640.52 481.266L1654.37 481.25L1654.36 495.229L1668.21 495.214L1668.23 481.234L1682.08 481.219L1682.04 523.171L1640.47 523.218L1640.48 509.239L1626.63 509.255L1626.64 495.275L1612.79 495.291L1612.8 481.312L1598.95 481.328L1598.96 467.349L1585.11 467.364L1585.12 453.386L1571.27 453.401L1571.26 467.38L1557.4 467.396L1557.39 481.375L1543.54 481.391L1543.53 495.369L1529.68 495.385L1529.67 509.364L1515.81 509.38L1515.8 523.358L1474.23 523.405L1474.24 509.427L1460.39 509.441L1460.4 495.463L1446.55 495.479L1446.56 481.5L1432.71 481.516L1432.72 467.536L1446.57 467.521L1446.58 453.542L1460.44 453.526L1460.43 467.505L1474.28 467.489L1474.27 481.469L1488.12 481.453L1488.11 495.432L1501.96 495.416L1501.97 481.438L1515.82 481.422L1515.83 467.442L1501.98 467.458L1501.99 453.479L1488.14 453.495L1488.15 439.516L1474.3 439.531L1474.31 425.553L1488.16 425.537L1488.18 411.559L1502.03 411.543L1502.02 425.521L1515.87 425.506L1515.86 439.484L1529.71 439.469L1529.7 453.448L1543.55 453.433L1543.56 439.453L1557.41 439.438L1557.42 425.459L1543.57 425.475L1543.58 411.496L1529.73 411.512L1529.74 397.532L1515.89 397.548L1515.9 383.569L1529.75 383.554L1529.77 369.574L1543.62 369.559L1543.63 355.58L1557.48 355.564L1557.49 341.586L1543.64 341.602L1543.65 327.622L1529.8 327.638L1529.79 341.617L1515.94 341.633L1515.93 355.611L1502.07 355.627L1502.06 369.605L1488.21 369.621L1488.22 355.643L1474.37 355.658L1474.38 341.68L1488.23 341.664L1488.24 327.685L1502.1 327.669L1502.11 313.69L1515.96 313.675L1515.97 299.695L1502.12 299.711L1502.13 285.732L1488.28 285.748L1488.27 299.727L1474.41 299.742L1474.4 313.722L1460.55 313.737L1460.54 327.716L1446.69 327.731L1446.7 313.753L1432.85 313.769L1432.86 299.789L1446.71 299.773L1446.72 285.795L1460.57 285.779L1460.59 271.8L1474.44 271.784L1474.45 257.806L1516.02 257.759L1516.01 271.737L1529.86 271.722L1529.85 285.701L1543.7 285.686L1543.69 299.664L1557.54 299.648L1557.53 313.628L1571.38 313.612L1571.37 327.591L1585.22 327.575L1585.24 313.597L1599.09 313.581L1599.1 299.602L1612.95 299.586L1612.96 285.607L1626.81 285.592L1626.83 271.613L1640.68 271.598L1640.69 257.618L1668.39 257.587H1668.41L1682.26 257.571L1682.23 299.493ZM1251.89 509.243L1265.65 509.228L1265.64 523.238L1224.33 523.284L1224.34 509.274L1238.12 509.259L1238.13 495.233L1251.9 495.218L1251.89 509.243ZM687.017 271.383L700.743 271.367L700.732 285.346L714.578 285.33L714.567 299.31L728.413 299.294L728.401 313.272L714.556 313.288L714.544 327.268L700.697 327.283L700.709 313.304L686.862 313.319L686.874 299.341L673.147 299.356L673.159 285.377L659.313 285.393L659.301 299.372L645.455 299.388L645.443 313.366L659.29 313.351L659.278 327.329L673.125 327.313L673.114 341.293L686.959 341.277L686.948 355.256L673.102 355.271L673.091 369.251L659.244 369.267L659.255 355.287L645.409 355.303L645.42 341.324L631.573 341.34L631.585 327.36L617.739 327.376L617.728 341.355L603.881 341.371L603.87 355.35L617.716 355.334L617.705 369.313L631.552 369.298L631.54 383.276L645.386 383.261L645.374 397.239L631.529 397.255L631.517 411.234L617.67 411.25L617.659 425.229L603.812 425.244L603.802 439.224L617.647 439.208L617.636 453.187L631.483 453.171L631.494 439.192L645.341 439.177L645.352 425.197L659.198 425.182L659.209 411.203L673.056 411.188L673.045 425.166L686.891 425.15L686.88 439.13L673.033 439.146L673.022 453.124L659.175 453.14L659.163 467.119L645.318 467.135L645.306 481.113L659.152 481.098L659.14 495.076L672.987 495.061L672.999 481.082L700.572 481.051L700.595 453.078L714.441 453.062L714.429 467.041L728.276 467.025L728.264 480.959L714.417 480.975L714.406 494.954L700.56 494.97L700.549 508.948L686.822 508.964L686.811 522.942L645.257 522.989L645.269 509.011L631.422 509.026L631.433 495.047L617.587 495.062L617.598 481.084L603.751 481.1L603.763 467.12L589.917 467.136L589.929 453.157L576.082 453.173L576.071 467.151L562.224 467.167L562.212 481.146L548.367 481.162L548.355 495.141L534.509 495.156L534.497 509.136L520.65 509.151L520.639 523.13L479.085 523.177L479.097 509.198L465.25 509.213L465.261 495.234L451.416 495.25L451.426 481.271L437.581 481.287L437.592 467.308L451.438 467.292L451.449 453.313L465.296 453.298L465.285 467.276L479.131 467.261L479.12 481.24L492.966 481.225L492.955 495.203L506.801 495.188L506.812 481.209L520.659 481.193L520.67 467.214L506.824 467.229L506.835 453.251L492.988 453.267L493 439.287L479.154 439.303L479.166 425.324L493.011 425.309L493.023 411.33L506.87 411.314L506.858 425.293L520.705 425.277L520.693 439.256L534.539 439.241L534.527 453.22L548.374 453.204L548.386 439.226L562.232 439.21L562.244 425.23L548.397 425.246L548.409 411.268L534.562 411.283L534.573 397.304L520.728 397.319L520.739 383.341L534.585 383.325L534.596 369.346L548.443 369.33L548.455 355.352L562.3 355.336L562.312 341.357L548.466 341.373L548.478 327.394L534.631 327.409L534.62 341.389L520.773 341.404L520.761 355.383L506.916 355.398L506.904 369.377L493.057 369.393L493.069 355.414L479.222 355.43L479.234 341.451L493.08 341.436L493.092 327.456L506.939 327.44L506.95 313.462L520.796 313.446L520.807 299.467L506.961 299.482L506.972 285.504L493.126 285.52L493.115 299.498L479.268 299.514L479.257 313.493L465.41 313.509L465.4 327.487L451.553 327.503L451.564 313.524L437.718 313.54L437.729 299.561L451.576 299.545L451.587 285.566L465.433 285.551L465.445 271.571L479.291 271.556L479.303 257.577L520.856 257.53L520.845 271.51L534.692 271.494L534.68 285.473L548.527 285.457L548.515 299.436L562.362 299.42L562.35 313.399L576.196 313.384L576.185 327.362L590.031 327.347L590.043 313.368L603.89 313.353L603.901 299.373L617.747 299.357L617.758 285.379L631.605 285.363L631.616 271.385L645.463 271.369L645.475 257.39L687.028 257.343L687.017 271.383ZM1418.25 509.097L1432.02 509.081L1432.01 523.092L1390.7 523.138L1390.71 509.128L1404.48 509.112L1404.49 495.087L1418.26 495.071L1418.25 509.097ZM1584.63 508.944L1598.4 508.929L1598.38 522.939L1557.07 522.985L1557.08 508.976L1570.85 508.96L1570.86 494.935L1584.64 494.919L1584.63 508.944ZM-943.372 470.321L-929.605 470.307L-929.617 484.32L-943.383 484.336L-943.395 498.35L-957.176 498.365L-957.188 512.395L-970.955 512.41L-970.932 484.367L-957.165 484.352L-957.142 456.323L-943.36 456.308L-943.372 470.321ZM-900.905 344.08L-887.133 344.064L-887.144 358L-873.373 357.984L-873.384 371.92L-859.612 371.905L-859.623 385.841L-845.852 385.825L-845.863 399.761L-859.635 399.776L-859.646 413.712L-873.418 413.728L-873.429 427.663L-887.202 427.679L-887.213 441.614L-900.985 441.63L-900.996 455.566L-914.768 455.582L-914.756 441.646L-928.529 441.661L-928.517 427.726L-942.289 427.741L-942.277 413.806L-956.05 413.821L-956.038 399.885L-969.81 399.9L-969.798 385.965L-956.027 385.949L-956.015 372.014L-942.243 371.998L-942.232 358.062L-928.46 358.047L-928.448 344.111L-914.677 344.096L-914.665 330.159L-900.894 330.145L-900.905 344.08ZM-569.628 343.611L-555.855 343.596L-555.867 357.531L-542.096 357.516L-542.107 371.451L-528.335 371.437L-528.346 385.372L-514.575 385.356L-514.586 399.292L-528.358 399.308L-528.369 413.243L-542.141 413.259L-542.152 427.194L-555.925 427.21L-555.935 441.146L-569.708 441.161L-569.719 455.098L-583.491 455.113L-583.479 441.177L-597.251 441.192L-597.24 427.257L-611.011 427.272L-611 413.337L-624.771 413.353L-624.76 399.416L-638.532 399.432L-638.521 385.496L-624.749 385.48L-624.738 371.545L-610.965 371.529L-610.954 357.594L-597.182 357.578L-597.171 343.643L-583.399 343.627L-583.388 329.69L-569.616 329.676L-569.628 343.611ZM-238.354 343.143L-224.582 343.127L-224.594 357.062L-210.822 357.047L-210.834 370.982L-197.061 370.968L-197.073 384.903L-183.301 384.888L-183.313 398.823L-197.084 398.839L-197.096 412.774L-210.867 412.79L-210.879 426.726L-224.65 426.741L-224.662 440.678L-238.434 440.692L-238.446 454.629L-252.217 454.645L-252.206 440.708L-265.977 440.724L-265.966 426.788L-279.738 426.804L-279.727 412.868L-293.498 412.884L-293.487 398.947L-307.259 398.963L-307.248 385.027L-293.476 385.012L-293.465 371.076L-279.692 371.061L-279.681 357.125L-265.909 357.109L-265.898 343.174L-252.126 343.158L-252.115 329.222L-238.343 329.207L-238.354 343.143ZM92.9255 342.674L106.697 342.658L106.685 356.594L120.458 356.578L120.446 370.514L134.218 370.499L134.206 384.435L147.979 384.419L147.967 398.354L134.195 398.37L134.183 412.306L120.412 412.321L120.4 426.257L106.629 426.272L106.617 440.209L92.8459 440.224L92.8344 454.16L79.0619 454.176L79.0735 440.239L65.302 440.255L65.3135 426.319L51.541 426.335L51.5525 412.399L37.7811 412.415L37.7925 398.479L24.0201 398.494L24.0316 384.559L37.8041 384.543L37.8156 370.607L51.587 370.592L51.5986 356.656L65.37 356.641L65.3816 342.705L79.1531 342.689L79.1646 328.753L92.937 328.738L92.9255 342.674ZM424.207 342.201L437.979 342.186L437.968 356.121L451.739 356.105L451.728 370.041L465.5 370.026L465.489 383.962L479.26 383.946L479.248 397.882L465.477 397.897L465.465 411.833L451.694 411.849L451.682 425.784L437.91 425.8L437.898 439.735L424.127 439.751L424.115 453.688L410.344 453.703L410.355 439.767L396.583 439.782L396.595 425.847L382.823 425.862L382.835 411.927L369.062 411.942L369.074 398.006L355.302 398.021L355.314 384.086L369.085 384.07L369.097 370.135L382.869 370.119L382.88 356.184L396.652 356.168L396.664 342.232L410.435 342.217L410.447 328.28L424.218 328.266L424.207 342.201ZM755.484 341.732L769.256 341.717L769.245 355.652L783.016 355.637L783.005 369.572L796.777 369.558L796.766 383.493L810.537 383.478L810.526 397.413L796.754 397.429L796.743 411.364L782.971 411.38L782.96 425.315L769.187 425.331L769.177 439.268L755.404 439.282L755.393 453.219L741.621 453.234L741.633 439.298L727.861 439.313L727.872 425.378L714.1 425.394L714.112 411.458L700.34 411.474L700.352 397.537L686.579 397.553L686.591 383.617L700.362 383.602L700.374 369.666L714.146 369.65L714.158 355.715L727.929 355.699L727.941 341.764L741.712 341.748L741.724 327.812L755.495 327.797L755.484 341.732ZM1086.76 341.264L1100.54 341.248L1100.52 355.184L1114.3 355.168L1114.28 369.104L1128.06 369.089L1128.04 383.024L1141.82 383.009L1141.8 396.944L1128.03 396.96L1128.02 410.896L1114.25 410.911L1114.24 424.847L1100.47 424.862L1100.46 438.799L1086.68 438.813L1086.67 452.75L1072.9 452.766L1072.91 438.829L1059.14 438.845L1059.15 424.909L1045.38 424.925L1045.39 410.989L1031.62 411.005L1031.63 397.068L1017.86 397.084L1017.87 383.148L1031.64 383.133L1031.65 369.197L1045.43 369.182L1045.44 355.246L1059.21 355.23L1059.22 341.295L1072.99 341.279L1073 327.343L1086.77 327.328L1086.76 341.264ZM1418.04 340.795L1431.81 340.779L1431.8 354.715L1445.57 354.699L1445.56 368.635L1459.33 368.62L1459.32 382.556L1473.09 382.54L1473.08 396.476L1459.31 396.491L1459.3 410.427L1445.52 410.442L1445.51 424.378L1431.74 424.394L1431.73 438.33L1417.96 438.345L1417.95 452.281L1404.17 452.297L1404.19 438.36L1390.41 438.376L1390.43 424.44L1376.65 424.456L1376.66 410.521L1362.89 410.536L1362.9 396.6L1349.13 396.615L1349.14 382.68L1362.92 382.664L1362.93 368.729L1376.7 368.713L1376.71 354.777L1390.48 354.762L1390.49 340.826L1404.26 340.811L1404.28 326.874L1418.05 326.859L1418.04 340.795ZM-417.884 372.211L-417.896 386.189L-431.74 386.205L-431.751 400.184L-417.907 400.168L-417.919 414.147L-404.074 414.132L-404.062 400.152L-390.219 400.137L-390.207 386.158L-404.052 386.174L-404.04 372.195L-417.884 372.211ZM-85.1245 371.906L-85.136 385.885L-98.9827 385.9L-98.9941 399.879L-85.1475 399.863L-85.159 413.843L-71.3123 413.827L-71.3008 399.848L-57.4551 399.832L-57.4436 385.854L-71.2893 385.869L-71.2778 371.891L-85.1245 371.906ZM-914.684 371.952L-914.696 385.888L-928.468 385.903L-928.48 399.839L-914.707 399.823L-914.719 413.759L-900.947 413.743L-900.936 399.808L-887.164 399.792L-887.153 385.856L-900.924 385.872L-900.913 371.937L-914.684 371.952ZM246.21 371.437L246.199 385.416L232.346 385.432L232.336 399.41L246.187 399.395L246.176 413.374L260.028 413.358L260.04 399.379L273.891 399.363L273.903 385.385L260.051 385.4L260.063 371.421L246.21 371.437ZM-583.422 371.514L-583.434 385.449L-597.205 385.465L-597.217 399.4L-583.444 399.385L-583.456 413.32L-569.685 413.305L-569.673 399.369L-555.902 399.354L-555.89 385.418L-569.661 385.434L-569.65 371.498L-583.422 371.514ZM-748.972 371.211L-748.984 385.189L-762.83 385.205L-762.841 399.184L-748.995 399.168L-749.007 413.147L-735.16 413.132L-735.149 399.152L-721.302 399.137L-721.29 385.158L-735.137 385.174L-735.126 371.195L-748.972 371.211ZM-252.149 371.045L-252.16 384.98L-265.932 384.996L-265.944 398.932L-252.171 398.916L-252.183 412.852L-238.411 412.836L-238.4 398.9L-224.628 398.885L-224.617 384.949L-238.388 384.965L-238.377 371.029L-252.149 371.045ZM79.131 370.576L79.1195 384.512L65.347 384.527L65.3365 398.463L79.108 398.447L79.0964 412.383L92.8679 412.367L92.8794 398.432L106.652 398.416L106.662 384.48L92.891 384.496L92.9025 370.561L79.131 370.576ZM907.228 370.33L907.216 384.309L893.371 384.324L893.361 398.303L907.205 398.287L907.193 412.267L921.038 412.251L921.049 398.271L934.893 398.256L934.905 384.277L921.06 384.293L921.071 370.314L907.228 370.33ZM1239.99 370.027L1239.98 384.006L1226.13 384.021L1226.12 398L1239.97 397.984L1239.96 411.964L1253.8 411.948L1253.81 397.969L1267.66 397.954L1267.67 383.975L1253.83 383.99L1253.84 370.012L1239.99 370.027ZM410.428 370.073L410.416 384.009L396.644 384.024L396.632 397.96L410.405 397.944L410.393 411.88L424.165 411.864L424.176 397.929L437.948 397.913L437.959 383.978L424.188 383.993L424.199 370.058L410.428 370.073ZM1571.32 369.558L1571.31 383.537L1557.46 383.553L1557.45 397.531L1571.3 397.516L1571.29 411.495L1585.14 411.479L1585.15 397.5L1599 397.484L1599.01 383.506L1585.16 383.521L1585.17 369.542L1571.32 369.558ZM741.689 369.635L741.678 383.57L727.906 383.586L727.895 397.521L741.667 397.506L741.656 411.441L755.427 411.426L755.439 397.49L769.21 397.475L769.222 383.539L755.45 383.555L755.462 369.619L741.689 369.635ZM576.135 369.33L576.124 383.309L562.278 383.324L562.267 397.303L576.113 397.287L576.101 411.267L589.948 411.251L589.959 397.271L603.806 397.256L603.817 383.277L589.971 383.293L589.982 369.314L576.135 369.33ZM1072.97 369.166L1072.96 383.102L1059.19 383.117L1059.17 397.053L1072.95 397.037L1072.93 410.973L1086.71 410.957L1086.72 397.021L1100.49 397.006L1100.5 383.07L1086.73 383.086L1086.74 369.15L1072.97 369.166ZM1404.24 368.697L1404.23 382.633L1390.46 382.648L1390.45 396.584L1404.22 396.568L1404.21 410.504L1417.98 410.488L1417.99 396.553L1431.76 396.537L1431.77 382.602L1418 382.617L1418.01 368.682L1404.24 368.697ZM-956.913 287.677L-943.132 287.661L-943.143 301.69L-929.376 301.675L-929.387 315.689L-943.155 315.705L-943.166 329.719L-956.947 329.734L-956.936 315.721L-970.703 315.735L-970.668 273.679L-956.902 273.663L-956.913 287.677ZM-887.763 274.614L-901.535 274.63L-901.546 288.648L-915.318 288.663L-915.306 274.646L-929.078 274.661L-929.066 260.644L-887.751 260.597L-887.763 274.614ZM-721.391 274.462L-735.159 274.478L-735.171 288.496L-748.952 288.511L-748.94 274.493L-762.707 274.509L-762.695 260.491L-721.38 260.444L-721.391 274.462ZM-556.483 274.146L-570.256 274.161L-570.267 288.18L-584.039 288.194L-584.027 274.177L-597.799 274.192L-597.787 260.175L-556.472 260.128L-556.483 274.146ZM-390.112 273.993L-403.895 274.009L-403.906 288.027L-417.673 288.042L-417.661 274.024L-431.428 274.04L-431.416 260.022L-390.101 259.976L-390.112 273.993ZM-223.741 273.841L-237.523 273.856L-237.535 287.875L-251.302 287.89L-251.29 273.872L-265.057 273.888L-265.045 259.87L-223.73 259.823L-223.741 273.841ZM-58.8351 273.524L-72.6017 273.54L-72.6132 287.559L-86.3808 287.573L-86.3693 273.556L-100.151 273.571L-100.139 259.554L-58.8237 259.507L-58.8351 273.524ZM107.532 273.372L93.7605 273.388L93.749 287.406L79.9766 287.421L79.988 273.403L66.2166 273.419L66.228 259.401L107.543 259.354L107.532 273.372ZM272.444 273.056L258.677 273.071L258.666 287.09L244.884 287.104L244.895 273.087L231.129 273.103L231.14 259.085L272.456 259.038L272.444 273.056ZM437.349 272.733L423.577 272.749L423.565 286.768L409.794 286.782L409.805 272.765L396.034 272.78L396.045 258.763L437.361 258.716L437.349 272.733ZM603.726 272.583L589.958 272.599L589.947 286.617L576.166 286.632L576.177 272.614L562.411 272.63L562.422 258.612L603.738 258.565L603.726 272.583ZM768.628 272.265L754.856 272.28L754.844 286.299L741.073 286.313L741.084 272.296L727.313 272.312L727.324 258.294L768.64 258.247L768.628 272.265ZM935.003 272.114L921.221 272.13L921.21 286.148L907.443 286.163L907.454 272.146L893.688 272.161L893.699 258.144L935.015 258.097L935.003 272.114ZM1101.37 271.962L1087.59 271.978L1087.58 285.996L1073.81 286.011L1073.82 271.993L1060.06 272.009L1060.07 257.991L1101.38 257.944L1101.37 271.962ZM1266.28 271.646L1252.51 271.661L1252.5 285.68L1238.73 285.694L1238.74 271.677L1224.96 271.692L1224.97 257.675L1266.29 257.628L1266.28 271.646ZM1432.65 271.493L1418.88 271.509L1418.87 285.527L1405.09 285.542L1405.11 271.524L1391.33 271.54L1391.35 257.522L1432.66 257.476L1432.65 271.493ZM1597.56 271.177L1583.79 271.192L1583.78 285.211L1570 285.226L1570.01 271.208L1556.24 271.224L1556.25 257.206L1597.57 257.159L1597.56 271.177Z" fill="#C4321A"/>
<path d="M-900.691 255.223L-886.919 255.207L-886.93 269.218L-928.246 269.264L-928.234 255.254L-914.463 255.238L-914.451 241.213L-900.68 241.197L-900.691 255.223ZM-735.777 254.906L-722.011 254.891L-722.022 268.901L-763.338 268.947L-763.326 254.938L-749.56 254.922L-749.548 240.896L-735.766 240.881L-735.777 254.906ZM-307.02 17.1045L-293.251 17.0889L-293.262 31.0674L-279.419 31.0518L-279.43 45.0312L-265.585 45.0156L-265.597 58.9941L-279.441 59.0098L-279.452 72.9893L-293.297 73.0049L-293.285 59.0254L-307.129 59.041L-307.119 45.0625L-320.887 45.0781L-320.876 31.0986L-334.72 31.1143L-334.732 45.0938L-348.576 45.1094L-348.587 59.0879L-334.743 59.0723L-334.755 73.0508L-320.91 73.0352L-320.922 87.0146L-307.078 86.999L-307.089 100.978L-320.933 100.993L-320.945 114.973L-334.788 114.988L-334.777 101.009L-348.622 101.024L-348.61 87.0459L-362.455 87.0615L-362.443 73.082L-376.287 73.0977L-376.299 87.0771L-390.143 87.0928L-390.154 101.071L-376.31 101.056L-376.322 115.035L-362.477 115.02L-362.488 128.998L-348.645 128.982L-348.656 142.961L-362.5 142.977L-362.511 156.956L-376.356 156.972L-376.368 170.95L-390.211 170.966L-390.223 184.945L-376.379 184.93L-376.391 198.908L-362.546 198.893L-362.534 184.914L-348.691 184.898L-348.679 170.919L-334.834 170.903L-334.823 156.925L-320.979 156.909L-320.991 170.888L-307.146 170.872L-307.157 184.852L-321.002 184.867L-321.014 198.846L-334.857 198.861L-334.869 212.841L-348.714 212.856L-348.724 226.835L-334.88 226.819L-334.892 240.798L-321.047 240.782L-321.036 226.804L-293.422 226.772L-293.399 198.8L-279.556 198.784L-279.567 212.763L-265.722 212.747L-265.734 226.681L-279.579 226.696L-279.59 240.676L-293.434 240.691L-293.445 254.67L-307.215 254.686L-307.227 268.664L-348.774 268.711L-348.763 254.732L-362.607 254.748L-362.595 240.769L-376.44 240.784L-376.428 226.806L-390.272 226.821L-390.261 212.842L-404.105 212.857L-404.094 198.879L-417.938 198.895L-417.949 212.873L-431.794 212.889L-431.805 226.868L-445.649 226.884L-445.661 240.862L-459.505 240.878L-459.517 254.857L-473.36 254.873L-473.372 268.852L-514.92 268.898L-514.908 254.92L-528.752 254.936L-528.741 240.956L-542.585 240.972L-542.574 226.993L-556.418 227.009L-556.407 213.029L-542.562 213.014L-542.551 199.035L-528.707 199.02L-528.719 212.998L-514.874 212.982L-514.885 226.962L-501.042 226.946L-501.052 240.925L-487.208 240.909L-487.197 226.931L-473.353 226.915L-473.342 212.936L-487.185 212.951L-487.174 198.973L-501.019 198.988L-501.007 185.009L-514.851 185.024L-514.839 171.046L-500.996 171.03L-500.984 157.052L-487.139 157.036L-487.151 171.015L-473.307 170.999L-473.319 184.979L-459.474 184.963L-459.485 198.941L-445.642 198.926L-445.63 184.947L-431.785 184.932L-431.774 170.952L-445.619 170.968L-445.607 156.989L-459.451 157.005L-459.439 143.025L-473.284 143.041L-473.273 129.062L-459.428 129.047L-459.417 115.067L-445.573 115.052L-445.561 101.073L-431.717 101.058L-431.706 87.0791L-445.55 87.0947L-445.538 73.1152L-459.383 73.1309L-459.394 87.1104L-473.238 87.126L-473.25 101.104L-487.094 101.12L-487.106 115.099L-500.95 115.114L-500.938 101.136L-514.783 101.151L-514.771 87.1729L-500.927 87.1572L-500.915 73.1777L-487.071 73.1621L-487.06 59.1836L-473.215 59.168L-473.204 45.1885L-487.048 45.2041L-487.037 31.2256L-500.881 31.2412L-500.892 45.2197L-514.737 45.2354L-514.748 59.2148L-528.592 59.2305L-528.604 73.209L-542.448 73.2246L-542.437 59.2461L-556.28 59.2617L-556.269 45.2822L-542.425 45.2666L-542.414 31.2881L-528.569 31.2725L-528.558 17.293L-514.714 17.2773L-514.702 3.29883L-473.154 3.25195L-473.166 17.2314L-459.322 17.2158L-459.334 31.1943L-445.489 31.1787L-445.5 45.1572L-431.656 45.1416L-431.667 59.1211L-417.823 59.1055L-417.835 73.084L-403.99 73.0684L-403.979 59.0898L-390.135 59.0742L-390.124 45.0947L-376.279 45.0801L-376.268 31.1006L-362.424 31.085L-362.412 17.1064L-348.568 17.0908L-348.557 3.11133L-307.009 3.06445L-307.02 17.1045ZM-569.411 254.754L-555.64 254.738L-555.651 268.749L-596.967 268.795L-596.955 254.785L-583.184 254.77L-583.172 240.744L-569.401 240.729L-569.411 254.754ZM25.7568 16.7998L39.4824 16.7842L39.4719 30.7627L53.3175 30.7471L53.306 44.7266L67.1527 44.7109L67.1412 58.6895L53.2946 58.7051L53.2831 72.6846L39.4373 72.7002L39.4489 58.7207L25.6022 58.7363L25.6136 44.7578L11.8871 44.7734L11.8986 30.7939L-1.94806 30.8096L-1.95953 44.7891L-15.8052 44.8047L-15.8168 58.7832L-1.97009 58.7676L-1.98157 72.7461L11.8641 72.7305L11.8526 86.71L25.6993 86.6943L25.6878 100.673L11.8411 100.688L11.8296 114.668L-2.01611 114.684L-2.00458 100.704L-15.8513 100.72L-15.8398 86.7412L-29.6865 86.7568L-29.6749 72.7773L-43.5216 72.793L-43.5322 86.7725L-57.3788 86.7881L-57.3903 100.767L-43.5436 100.751L-43.5551 114.73L-29.7094 114.715L-29.7209 128.693L-15.8743 128.678L-15.8857 142.656L-29.7324 142.672L-29.744 156.651L-43.5897 156.667L-43.6011 170.646L-57.4478 170.661L-57.4593 184.641L-43.6126 184.625L-43.6241 198.604L-29.7775 198.588L-29.766 184.609L-15.9203 184.594L-15.9088 170.614L-2.06207 170.599L-2.0506 156.62L11.7961 156.604L11.7846 170.583L25.6303 170.567L25.6188 184.547L11.7731 184.562L11.7616 198.541L-2.08508 198.557L-2.09662 212.536L-15.9432 212.552L-15.9538 226.53L-2.10809 226.515L-2.11957 240.493L11.7271 240.478L11.7386 226.499L39.3109 226.468L39.3339 198.495L53.1805 198.479L53.1691 212.458L67.0157 212.442L67.0042 226.376L53.1575 226.392L53.146 240.371L39.2993 240.387L39.2888 254.365L25.5623 254.381L25.5507 268.359L-16.0039 268.406L-15.9924 254.428L-29.8381 254.443L-29.8266 240.464L-43.6733 240.479L-43.6618 226.501L-57.5085 226.517L-57.497 212.537L-71.3436 212.553L-71.3322 198.574L-85.1779 198.59L-85.1893 212.568L-99.036 212.584L-99.0475 226.563L-112.894 226.579L-112.906 240.558L-126.751 240.573L-126.763 254.553L-140.61 254.568L-140.621 268.547L-182.175 268.594L-182.163 254.615L-196.01 254.631L-195.998 240.651L-209.845 240.667L-209.834 226.688L-223.679 226.704L-223.669 212.725L-209.822 212.709L-209.811 198.73L-195.964 198.715L-195.975 212.693L-182.129 212.678L-182.14 226.657L-168.295 226.642L-168.306 240.62L-154.459 240.604L-154.448 226.626L-140.601 226.61L-140.59 212.631L-154.436 212.646L-154.425 198.668L-168.272 198.684L-168.26 184.704L-182.107 184.72L-182.095 170.741L-168.249 170.726L-168.237 156.747L-154.39 156.731L-154.402 170.71L-140.556 170.694L-140.568 184.674L-126.721 184.658L-126.733 198.637L-112.886 198.621L-112.874 184.643L-99.0276 184.627L-99.0172 170.647L-112.863 170.663L-112.851 156.685L-126.698 156.7L-126.687 142.721L-140.533 142.736L-140.522 128.758L-126.675 128.742L-126.664 114.763L-112.817 114.747L-112.805 100.769L-98.9597 100.753L-98.9482 86.7744L-112.795 86.79L-112.783 72.8105L-126.629 72.8262L-126.641 86.8057L-140.487 86.8213L-140.499 100.8L-154.345 100.815L-154.356 114.794L-168.203 114.81L-168.191 100.831L-182.038 100.847L-182.026 86.8682L-168.18 86.8525L-168.168 72.873L-154.322 72.8574L-154.311 58.8789L-140.464 58.8633L-140.453 44.8838L-154.299 44.8994L-154.288 30.9209L-168.134 30.9365L-168.145 44.915L-181.992 44.9307L-182.003 58.9102L-195.85 58.9258L-195.861 72.9043L-209.707 72.9199L-209.696 58.9414L-223.542 58.957L-223.531 44.9775L-209.685 44.9619L-209.674 30.9834L-195.827 30.9678L-195.815 16.9883L-181.969 16.9727L-181.957 2.99414L-140.404 2.94727L-140.415 16.9268L-126.568 16.9111L-126.58 30.8896L-112.733 30.874L-112.745 44.8525L-98.899 44.8369L-98.9105 58.8164L-85.0638 58.8008L-85.0753 72.7793L-71.2286 72.7637L-71.2172 58.7852L-57.3715 58.7695L-57.3599 44.79L-43.5133 44.7744L-43.5018 30.7959L-29.6551 30.7803L-29.6436 16.8018L-15.7979 16.7861L-15.7864 2.80664L25.7682 2.75977L25.7568 16.7998ZM-404.52 254.438L-390.738 254.422L-390.749 268.433L-432.064 268.479L-432.053 254.469L-418.286 254.453L-418.275 240.428L-404.508 240.412L-404.52 254.438ZM-238.149 254.285L-224.367 254.27L-224.378 268.279L-265.693 268.326L-265.682 254.316L-251.915 254.301L-251.904 240.275L-238.137 240.26L-238.149 254.285ZM357.138 14.6348L368.21 14.623L368.199 28.6367L381.98 28.6211L381.969 42.6504L395.736 42.6348L395.725 56.6494L381.957 56.665L381.946 70.6787L368.164 70.6943L368.176 56.6807L354.409 56.6953L354.419 44.2158L343.263 44.2285L343.274 30.249L329.422 30.2646L329.41 44.2441L315.558 44.2598L315.547 58.2383L329.399 58.2227L329.387 72.2021L343.24 72.1865L343.228 86.165L357.08 86.1494L357.068 100.129L343.217 100.145L343.205 114.123L329.353 114.139L329.364 100.16L315.513 100.176L315.524 86.1963L301.672 86.2119L301.683 72.2334L287.831 72.249L287.819 86.2275L273.968 86.2432L273.956 100.223L287.808 100.207L287.797 114.186L301.649 114.17L301.637 128.148L315.49 128.133L315.478 142.112L301.626 142.128L301.614 156.106L287.763 156.122L287.751 170.102L273.899 170.117L273.887 184.096L287.74 184.08L287.728 198.059L301.581 198.043L301.591 184.064L315.444 184.049L315.455 170.07L329.308 170.055L329.318 156.075L343.171 156.06L343.159 170.039L357.012 170.023L357 184.002L343.148 184.018L343.136 197.996L329.285 198.012L329.273 211.991L315.421 212.007L315.409 225.985L329.262 225.97L329.25 239.949L343.102 239.934L343.113 225.954L354.179 225.941L354.18 225.329L367.946 225.313L367.969 197.285L381.751 197.27L381.74 211.283L395.507 211.269L395.495 225.282L381.729 225.298L381.717 239.312L367.935 239.327L367.923 253.356L356.943 253.368L356.932 267.891L315.36 267.938L315.372 253.959L301.519 253.975L301.531 239.995L287.679 240.011L287.691 226.032L273.838 226.048L273.85 212.068L259.997 212.084L260.009 198.105L246.157 198.121L246.146 212.1L232.293 212.115L232.281 226.095L218.43 226.11L218.418 240.089L204.566 240.104L204.554 254.084L190.703 254.1L190.691 268.078L149.12 268.125L149.131 254.146L135.279 254.161L135.291 240.183L121.438 240.198L121.449 226.22L107.598 226.235L107.609 212.256L121.461 212.24L121.472 198.262L135.325 198.246L135.313 212.225L149.165 212.209L149.154 226.188L163.006 226.173L162.995 240.151L176.847 240.136L176.859 226.157L190.71 226.142L190.722 212.162L176.87 212.178L176.882 198.199L163.029 198.215L163.041 184.235L149.188 184.251L149.2 170.272L163.052 170.257L163.064 156.278L176.915 156.263L176.904 170.241L190.756 170.226L190.745 184.204L204.597 184.188L204.586 198.168L218.437 198.152L218.449 184.173L232.301 184.157L232.313 170.179L218.46 170.194L218.472 156.216L204.62 156.231L204.631 142.252L190.779 142.268L190.791 128.289L204.642 128.273L204.654 114.294L218.506 114.278L218.518 100.3L232.369 100.284L232.381 86.3057L218.529 86.3213L218.541 72.3418L204.688 72.3574L204.677 86.3369L190.825 86.3525L190.814 100.331L176.961 100.347L176.95 114.325L163.098 114.341L163.11 100.362L149.257 100.378L149.269 86.3994L163.12 86.3838L163.132 72.4043L176.984 72.3887L176.996 58.4102L190.847 58.3945L190.859 44.415L177.007 44.4307L177.019 30.4521L163.166 30.4678L163.155 44.4463L149.303 44.4619L149.292 58.4414L135.439 58.457L135.427 72.4355L121.576 72.4512L121.587 58.4727L107.735 58.4883L107.746 44.5088L121.599 44.4932L121.61 30.5146L135.462 30.499L135.474 16.5195L149.326 16.5039L149.337 2.52539L190.909 2.47852L190.897 16.457L204.749 16.4414L204.737 30.4209L218.59 30.4053L218.578 44.3838L232.431 44.3682L232.419 58.3477L246.271 58.332L246.26 72.3105L260.112 72.2949L260.124 58.3164L273.975 58.3008L273.987 44.3213L287.839 44.3057L287.851 30.3271L301.702 30.3115L301.714 16.333L315.566 16.3174L315.578 2.33789L343.282 2.30664H343.297L357.149 2.29102L357.138 14.6348ZM-73.2211 253.963L-59.4545 253.947L-59.466 267.958L-100.781 268.004L-100.77 253.994L-86.9877 253.979L-86.9762 239.953L-73.2096 239.938L-73.2211 253.963ZM-638.091 16.1045L-624.365 16.0889L-624.376 30.0674L-610.529 30.0518L-610.541 44.0312L-596.695 44.0156L-596.707 57.9941L-610.552 58.0098L-610.564 71.9893L-624.411 72.0049L-624.399 58.0254L-638.246 58.041L-638.234 44.0625L-651.961 44.0781L-651.949 30.0986L-665.795 30.1143L-665.806 44.0938L-679.653 44.1094L-679.665 58.0879L-665.818 58.0723L-665.829 72.0508L-651.983 72.0352L-651.994 86.0146L-638.149 85.999L-638.16 99.9775L-652.006 99.9932L-652.017 113.973L-665.864 113.988L-665.852 100.009L-679.699 100.024L-679.688 86.0459L-693.534 86.0615L-693.523 72.082L-707.368 72.0977L-707.38 86.0771L-721.227 86.0928L-721.238 100.071L-707.392 100.056L-707.403 114.035L-693.556 114.02L-693.568 127.998L-679.722 127.982L-679.734 141.961L-693.579 141.977L-693.591 155.956L-707.438 155.972L-707.449 169.95L-721.296 169.966L-721.306 183.945L-707.461 183.93L-707.472 197.908L-693.625 197.893L-693.614 183.914L-679.767 183.898L-679.756 169.919L-665.91 169.903L-665.898 155.925L-652.052 155.909L-652.063 169.888L-638.217 169.872L-638.228 183.852L-652.075 183.867L-652.086 197.846L-665.933 197.861L-665.944 211.841L-679.79 211.856L-679.802 225.835L-665.956 225.819L-665.967 239.798L-652.121 239.782L-652.109 225.804L-624.536 225.772L-624.513 197.8L-610.667 197.784L-610.679 211.763L-596.832 211.747L-596.844 225.681L-610.69 225.696L-610.702 239.676L-624.548 239.691L-624.559 253.67L-638.286 253.686L-638.297 267.664L-679.851 267.711L-679.839 253.732L-693.686 253.748L-693.674 239.769L-707.521 239.784L-707.51 225.806L-721.356 225.821L-721.345 211.842L-735.191 211.857L-735.179 197.879L-749.026 197.895L-749.037 211.873L-762.884 211.889L-762.895 225.868L-776.741 225.884L-776.753 239.862L-790.599 239.878L-790.611 253.857L-804.457 253.873L-804.469 267.852L-846.023 267.898L-846.011 253.92L-859.858 253.935L-859.846 239.956L-873.692 239.972L-873.681 225.993L-887.527 226.009L-887.516 212.029L-873.67 212.014L-873.658 198.035L-859.812 198.02L-859.823 211.998L-845.977 211.982L-845.988 225.962L-832.141 225.946L-832.153 239.925L-818.307 239.909L-818.296 225.931L-804.449 225.915L-804.438 211.936L-818.284 211.951L-818.273 197.973L-832.119 197.988L-832.108 184.009L-845.954 184.024L-845.942 170.046L-832.096 170.03L-832.085 156.052L-818.238 156.036L-818.25 170.015L-804.403 169.999L-804.415 183.978L-790.569 183.963L-790.58 197.941L-776.734 197.926L-776.722 183.947L-762.876 183.932L-762.864 169.952L-776.711 169.968L-776.699 155.989L-790.546 156.005L-790.534 142.025L-804.38 142.041L-804.369 128.062L-790.523 128.047L-790.511 114.067L-776.665 114.052L-776.653 100.073L-762.808 100.058L-762.796 86.0791L-776.642 86.0947L-776.63 72.1152L-790.477 72.1309L-790.488 86.1104L-804.335 86.126L-804.347 100.104L-818.192 100.12L-818.204 114.099L-832.05 114.114L-832.039 100.136L-845.886 100.151L-845.874 86.1729L-832.027 86.1572L-832.016 72.1777L-818.169 72.1621L-818.158 58.1836L-804.312 58.168L-804.301 44.1885L-818.147 44.2041L-818.136 30.2256L-831.981 30.2412L-831.993 44.2197L-845.84 44.2354L-845.851 58.2148L-859.698 58.2305L-859.708 72.209L-873.555 72.2246L-873.543 58.2461L-887.39 58.2617L-887.379 44.2822L-873.532 44.2666L-873.52 30.2881L-859.675 30.2725L-859.663 16.293L-845.817 16.2773L-845.805 2.29883L-804.251 2.25195L-804.263 16.2314L-790.416 16.2158L-790.428 30.1943L-776.581 30.1787L-776.593 44.1572L-762.746 44.1416L-762.757 58.1211L-748.912 58.1055L-748.923 72.084L-735.077 72.0684L-735.065 58.0898L-721.218 58.0742L-721.207 44.0947L-707.361 44.0791L-707.35 30.1006L-693.503 30.085L-693.491 16.1064L-679.645 16.0908L-679.633 2.11133L-638.08 2.06445L-638.091 16.1045ZM93.1393 253.812L106.911 253.797L106.899 267.808L65.5837 267.854L65.5953 253.844L79.3668 253.828L79.3783 239.803L93.1508 239.787L93.1393 253.812ZM259.515 253.664L273.282 253.648L273.27 267.659L231.955 267.705L231.966 253.695L245.733 253.68L245.744 239.654L259.527 239.639L259.515 253.664ZM424.42 253.344L438.193 253.328L438.181 267.339L396.866 267.385L396.877 253.375L410.649 253.359L410.66 239.334L424.432 239.318L424.42 253.344ZM589.334 253.025L603.101 253.01L603.089 267.021L561.774 267.066L561.786 253.057L575.552 253.041L575.564 239.016L589.346 239L589.334 253.025ZM1018.09 15.2236L1031.86 15.208L1031.85 29.1865L1045.69 29.1709L1045.68 43.1504L1059.53 43.1348L1059.51 57.1133L1045.67 57.1289L1045.66 71.1084L1031.81 71.124L1031.83 57.1445L1017.98 57.1602L1017.99 43.1816L1004.22 43.1973L1004.24 29.2178L990.391 29.2334L990.38 43.2129L976.536 43.2285L976.525 57.207L990.368 57.1914L990.357 71.1699L1004.2 71.1543L1004.19 85.1338L1018.03 85.1182L1018.02 99.0967L1004.18 99.1123L1004.17 113.092L990.323 113.107L990.335 99.1279L976.49 99.1436L976.502 85.165L962.657 85.1807L962.668 71.2012L948.825 71.2168L948.813 85.1963L934.968 85.2119L934.958 99.1904L948.802 99.1748L948.79 113.154L962.635 113.139L962.623 127.117L976.467 127.102L976.456 141.08L962.612 141.096L962.6 155.075L948.756 155.091L948.744 169.069L934.9 169.085L934.889 183.064L948.733 183.049L948.721 197.027L962.566 197.012L962.577 183.033L976.421 183.018L976.433 169.038L990.277 169.022L990.289 155.044L1004.13 155.028L1004.12 169.007L1017.97 168.991L1017.95 182.971L1004.11 182.986L1004.1 196.965L990.254 196.98L990.243 210.96L976.398 210.976L976.388 224.954L990.231 224.938L990.22 238.917L1004.06 238.901L1004.08 224.923L1031.69 224.892L1031.71 196.919L1045.56 196.903L1045.54 210.882L1059.39 210.866L1059.38 224.8L1045.53 224.815L1045.52 238.795L1031.68 238.811L1031.67 252.789L1017.9 252.805L1017.89 266.783L976.337 266.83L976.349 252.852L962.505 252.867L962.517 238.888L948.672 238.903L948.683 224.925L934.84 224.94L934.851 210.961L921.006 210.977L921.018 196.998L907.174 197.014L907.163 210.992L893.318 211.008L893.307 224.987L879.463 225.003L879.451 238.981L865.607 238.997L865.595 252.977L851.751 252.992L851.74 266.971L810.192 267.018L810.203 253.039L796.36 253.055L796.371 239.075L782.526 239.091L782.538 225.112L768.693 225.128L768.705 211.148L782.549 211.133L782.561 197.154L796.405 197.139L796.393 211.117L810.238 211.102L810.226 225.081L824.07 225.065L824.06 239.044L837.903 239.028L837.915 225.05L851.759 225.034L851.77 211.055L837.926 211.07L837.938 197.092L824.093 197.107L824.105 183.128L810.261 183.144L810.272 169.165L824.116 169.149L824.128 155.171L837.972 155.155L837.961 169.134L851.805 169.118L851.793 183.098L865.638 183.082L865.626 197.061L879.47 197.045L879.482 183.066L893.326 183.051L893.338 169.071L879.493 169.087L879.505 155.108L865.661 155.124L865.672 141.145L851.828 141.16L851.839 127.182L865.684 127.166L865.694 113.187L879.539 113.171L879.551 99.1924L893.394 99.1768L893.406 85.1982L879.562 85.2139L879.574 71.2344L865.729 71.25L865.717 85.2295L851.874 85.2451L851.862 99.2236L838.017 99.2393L838.006 113.218L824.162 113.233L824.174 99.2549L810.329 99.2705L810.34 85.292L824.185 85.2764L824.197 71.2969L838.04 71.2812L838.052 57.3027L851.897 57.2871L851.908 43.3076L838.063 43.3232L838.075 29.3447L824.231 29.3604L824.22 43.3389L810.375 43.3545L810.364 57.334L796.52 57.3496L796.508 71.3281L782.663 71.3438L782.675 57.3652L768.831 57.3809L768.843 43.4014L782.687 43.3857L782.698 29.4072L796.543 29.3916L796.554 15.4121L810.398 15.3965L810.409 1.41797L851.957 1.37109L851.946 15.3506L865.79 15.335L865.778 29.3135L879.623 29.2979L879.611 43.2764L893.456 43.2607L893.444 57.2402L907.288 57.2246L907.277 71.2031L921.121 71.1875L921.133 57.209L934.977 57.1934L934.988 43.2139L948.833 43.1992L948.844 29.2197L962.688 29.2041L962.7 15.2256L976.543 15.21L976.555 1.23047L1018.1 1.18359L1018.09 15.2236ZM755.7 252.875L769.472 252.859L769.46 266.87L728.145 266.916L728.156 252.906L741.928 252.891L741.939 238.865L755.711 238.85L755.7 252.875ZM1350.87 14.9209L1364.6 14.9053L1364.59 28.8838L1378.43 28.8682L1378.42 42.8477L1392.27 42.832L1392.26 56.8105L1378.41 56.8262L1378.4 70.8057L1364.55 70.8213L1364.56 56.8418L1350.72 56.8574L1350.73 42.8789L1337 42.8945L1337.01 28.915L1323.17 28.9307L1323.16 42.9102L1309.31 42.9258L1309.3 56.9043L1323.15 56.8887L1323.13 70.8672L1336.98 70.8525L1336.97 84.8311L1350.81 84.8154L1350.8 98.7939L1336.96 98.8096L1336.95 112.789L1323.1 112.805L1323.11 98.8252L1309.26 98.8408L1309.28 84.8623L1295.43 84.8779L1295.44 70.8984L1281.59 70.9141L1281.58 84.8936L1267.74 84.9092L1267.73 98.8877L1281.57 98.8721L1281.56 112.852L1295.41 112.836L1295.4 126.814L1309.24 126.799L1309.23 140.778L1295.38 140.794L1295.37 154.772L1281.53 154.788L1281.51 168.767L1267.67 168.782L1267.66 182.762L1281.5 182.746L1281.49 196.725L1295.34 196.709L1295.35 182.73L1309.2 182.715L1309.21 168.735L1323.05 168.72L1323.07 154.741L1336.91 154.726L1336.9 168.704L1350.75 168.688L1350.74 182.668L1336.89 182.684L1336.88 196.662L1323.03 196.678L1323.02 210.657L1309.17 210.673L1309.16 224.651L1323.01 224.636L1323 238.614L1336.84 238.599L1336.85 224.62L1364.43 224.589L1364.45 196.616L1378.3 196.601L1378.28 210.579L1392.13 210.563L1392.12 224.497L1378.27 224.513L1378.26 238.492L1364.42 238.508L1364.4 252.486L1350.68 252.502L1350.67 266.48L1309.11 266.527L1309.12 252.549L1295.28 252.564L1295.29 238.585L1281.44 238.601L1281.45 224.622L1267.61 224.638L1267.62 210.659L1253.77 210.675L1253.78 196.695L1239.94 196.711L1239.93 210.69L1226.08 210.705L1226.07 224.685L1212.22 224.7L1212.21 238.679L1198.36 238.694L1198.35 252.674L1184.51 252.689L1184.49 266.668L1142.94 266.715L1142.95 252.736L1129.11 252.752L1129.12 238.772L1115.27 238.788L1115.28 224.81L1101.44 224.825L1101.45 210.846L1115.29 210.83L1115.3 196.852L1129.15 196.836L1129.14 210.814L1142.99 210.799L1142.98 224.778L1156.82 224.763L1156.81 238.741L1170.66 238.726L1170.67 224.747L1184.51 224.731L1184.53 210.752L1170.68 210.768L1170.69 196.789L1156.84 196.805L1156.86 182.826L1143.01 182.842L1143.02 168.862L1156.87 168.847L1156.88 154.868L1170.73 154.853L1170.71 168.831L1184.56 168.815L1184.55 182.795L1198.39 182.779L1198.38 196.758L1212.23 196.742L1212.24 182.764L1226.09 182.748L1226.1 168.769L1212.25 168.784L1212.26 154.806L1198.42 154.821L1198.43 140.842L1184.58 140.857L1184.59 126.879L1198.44 126.863L1198.45 112.885L1212.3 112.869L1212.31 98.8896L1226.16 98.874L1226.17 84.8955L1212.32 84.9111L1212.33 70.9316L1198.49 70.9473L1198.48 84.9268L1184.63 84.9424L1184.62 98.9209L1170.77 98.9365L1170.76 112.916L1156.91 112.932L1156.92 98.9521L1143.08 98.9678L1143.09 84.9893L1156.94 84.9736L1156.95 70.9941L1170.79 70.9785L1170.8 57L1184.65 56.9844L1184.66 43.0049L1170.82 43.0205L1170.83 29.042L1156.98 29.0576L1156.97 43.0361L1143.12 43.0518L1143.11 57.0312L1129.27 57.0469L1129.25 71.0254L1115.41 71.041L1115.42 57.0625L1101.57 57.0781L1101.58 43.0986L1115.43 43.083L1115.44 29.1045L1129.29 29.0889L1129.3 15.1104L1143.15 15.0947L1143.16 1.11523L1184.71 1.06836L1184.7 15.0479L1198.55 15.0322L1198.54 29.0107L1212.38 28.9951L1212.37 42.9736L1226.22 42.959L1226.21 56.9375L1240.05 56.9219L1240.04 70.9004L1253.89 70.8848L1253.9 56.9062L1267.75 56.8906L1267.76 42.9121L1281.6 42.8965L1281.61 28.917L1295.46 28.9014L1295.47 14.9229L1309.32 14.9072L1309.33 0.927734L1350.88 0.880859L1350.87 14.9209ZM920.596 252.557L934.378 252.541L934.367 266.552L893.051 266.598L893.063 252.588L906.829 252.572L906.841 238.547L920.607 238.531L920.596 252.557ZM1086.96 252.406L1100.75 252.391L1100.73 266.401L1059.42 266.447L1059.43 252.438L1073.2 252.422L1073.21 238.396L1086.97 238.381L1086.96 252.406ZM1682.23 42.334L1668.37 42.3496L1668.39 28.3701L1654.53 28.3857L1654.52 42.3652L1640.67 42.3809L1640.66 56.3594L1654.51 56.3438L1654.5 70.3232L1668.35 70.3076L1668.34 84.2861L1682.19 84.2705L1682.18 98.25L1668.33 98.2656L1668.32 112.244L1654.46 112.26L1654.48 98.2812L1640.62 98.2969L1640.64 84.3174L1626.78 84.333L1626.8 70.3545L1612.94 70.3701L1612.93 84.3486L1599.08 84.3643L1599.07 98.3438L1612.92 98.3281L1612.91 112.307L1626.76 112.291L1626.75 126.27L1640.6 126.254L1640.59 140.233L1626.74 140.249L1626.73 154.228L1612.87 154.243L1612.86 168.223L1599.01 168.238L1599 182.217L1612.85 182.201L1612.84 196.18L1626.69 196.164L1626.7 182.186L1640.56 182.17L1640.57 168.191L1654.42 168.176L1654.43 154.196L1668.28 154.181L1668.27 168.16L1682.12 168.145L1682.11 182.123L1668.26 182.139L1668.25 196.117L1654.4 196.133L1654.39 210.112L1640.53 210.128L1640.52 224.106L1654.37 224.091L1654.36 238.07L1668.21 238.055L1668.23 224.075L1682.08 224.06L1682.04 266.012L1640.47 266.059L1640.48 252.08L1626.63 252.096L1626.64 238.116L1612.79 238.132L1612.8 224.153L1598.95 224.169L1598.96 210.189L1585.11 210.205L1585.12 196.227L1571.27 196.242L1571.26 210.221L1557.4 210.236L1557.39 224.216L1543.54 224.231L1543.53 238.21L1529.68 238.226L1529.67 252.205L1515.81 252.221L1515.8 266.199L1474.23 266.246L1474.24 252.268L1460.39 252.282L1460.4 238.304L1446.55 238.319L1446.56 224.341L1432.71 224.356L1432.72 210.377L1446.57 210.361L1446.58 196.383L1460.44 196.367L1460.43 210.346L1474.28 210.33L1474.27 224.31L1488.12 224.294L1488.11 238.272L1501.96 238.257L1501.97 224.278L1515.82 224.263L1515.83 210.283L1501.98 210.299L1501.99 196.32L1488.14 196.336L1488.15 182.356L1474.3 182.372L1474.31 168.394L1488.16 168.378L1488.18 154.399L1502.03 154.384L1502.02 168.362L1515.87 168.347L1515.86 182.325L1529.71 182.31L1529.7 196.289L1543.55 196.273L1543.56 182.294L1557.41 182.279L1557.42 168.3L1543.57 168.315L1543.58 154.337L1529.73 154.353L1529.74 140.373L1515.89 140.389L1515.9 126.41L1529.75 126.395L1529.77 112.415L1543.62 112.399L1543.63 98.4209L1557.48 98.4053L1557.49 84.4268L1543.64 84.4424L1543.65 70.4629L1529.8 70.4785L1529.79 84.458L1515.94 84.4736L1515.93 98.4521L1502.07 98.4678L1502.06 112.446L1488.21 112.462L1488.22 98.4834L1474.37 98.499L1474.38 84.5205L1488.23 84.5049L1488.24 70.5254L1502.1 70.5098L1502.11 56.5312L1515.96 56.5156L1515.97 42.5361L1502.12 42.5518L1502.13 28.5732L1488.28 28.5889L1488.27 42.5674L1474.41 42.583L1474.4 56.5625L1460.55 56.5781L1460.54 70.5566L1446.69 70.5723L1446.7 56.5938L1432.85 56.6094L1432.86 42.6299L1446.71 42.6143L1446.72 28.6357L1460.57 28.6201L1460.59 14.6406L1474.44 14.625L1474.45 0.646484L1516.02 0.599609L1516.01 14.5781L1529.86 14.5625L1529.85 28.542L1543.7 28.5264L1543.69 42.5049L1557.54 42.4893L1557.53 56.4688L1571.38 56.4531L1571.37 70.4316L1585.22 70.416L1585.24 56.4375L1599.09 56.4219L1599.1 42.4424L1612.95 42.4268L1612.96 28.4482L1626.81 28.4326L1626.83 14.4541L1640.68 14.4385L1640.69 0.458984L1668.39 0.427734H1668.41L1682.26 0.412109L1682.23 42.334ZM1251.89 252.084L1265.65 252.068L1265.64 266.079L1224.33 266.125L1224.34 252.115L1238.12 252.1L1238.13 238.074L1251.9 238.059L1251.89 252.084ZM687.017 14.2236L700.743 14.208L700.732 28.1865L714.578 28.1709L714.567 42.1504L728.413 42.1348L728.401 56.1133L714.556 56.1289L714.544 70.1084L700.697 70.124L700.709 56.1445L686.862 56.1602L686.874 42.1816L673.147 42.1973L673.159 28.2178L659.313 28.2334L659.301 42.2129L645.455 42.2285L645.443 56.207L659.29 56.1914L659.278 70.1699L673.125 70.1543L673.114 84.1338L686.959 84.1182L686.948 98.0967L673.102 98.1123L673.091 112.092L659.244 112.107L659.255 98.1279L645.409 98.1436L645.42 84.165L631.573 84.1807L631.585 70.2012L617.739 70.2168L617.728 84.1963L603.881 84.2119L603.87 98.1904L617.716 98.1748L617.705 112.154L631.552 112.139L631.54 126.117L645.386 126.102L645.374 140.08L631.529 140.096L631.517 154.075L617.67 154.091L617.659 168.069L603.812 168.085L603.802 182.064L617.647 182.049L617.636 196.027L631.483 196.012L631.494 182.033L645.341 182.018L645.352 168.038L659.198 168.022L659.209 154.044L673.056 154.028L673.045 168.007L686.891 167.991L686.88 181.971L673.033 181.986L673.022 195.965L659.175 195.98L659.163 209.96L645.318 209.976L645.306 223.954L659.152 223.938L659.14 237.917L672.987 237.901L672.999 223.923L700.572 223.892L700.595 195.919L714.441 195.903L714.429 209.882L728.276 209.866L728.264 223.8L714.417 223.815L714.406 237.795L700.56 237.811L700.549 251.789L686.822 251.805L686.811 265.783L645.257 265.83L645.269 251.852L631.422 251.867L631.433 237.888L617.587 237.903L617.598 223.925L603.751 223.94L603.763 209.961L589.917 209.977L589.929 195.998L576.082 196.014L576.071 209.992L562.224 210.008L562.212 223.987L548.367 224.003L548.355 237.981L534.509 237.997L534.497 251.977L520.65 251.992L520.639 265.971L479.085 266.018L479.097 252.039L465.25 252.054L465.261 238.075L451.416 238.091L451.426 224.112L437.581 224.128L437.592 210.148L451.438 210.133L451.449 196.154L465.296 196.139L465.285 210.117L479.131 210.102L479.12 224.081L492.966 224.065L492.955 238.044L506.801 238.028L506.812 224.05L520.659 224.034L520.67 210.055L506.824 210.07L506.835 196.092L492.988 196.107L493 182.128L479.154 182.144L479.166 168.165L493.011 168.149L493.023 154.171L506.87 154.155L506.858 168.134L520.705 168.118L520.693 182.097L534.539 182.082L534.527 196.061L548.374 196.045L548.386 182.066L562.232 182.051L562.244 168.071L548.397 168.087L548.409 154.108L534.562 154.124L534.573 140.145L520.728 140.16L520.739 126.182L534.585 126.166L534.596 112.187L548.443 112.171L548.455 98.1924L562.3 98.1768L562.312 84.1982L548.466 84.2139L548.478 70.2344L534.631 70.25L534.62 84.2295L520.773 84.2451L520.761 98.2236L506.916 98.2393L506.904 112.218L493.057 112.233L493.069 98.2549L479.222 98.2705L479.234 84.292L493.08 84.2764L493.092 70.2969L506.939 70.2812L506.95 56.3027L520.796 56.2871L520.807 42.3076L506.961 42.3232L506.972 28.3447L493.126 28.3604L493.115 42.3389L479.268 42.3545L479.257 56.334L465.41 56.3496L465.4 70.3281L451.553 70.3438L451.564 56.3652L437.718 56.3809L437.729 42.4014L451.576 42.3857L451.587 28.4072L465.433 28.3916L465.445 14.4121L479.291 14.3965L479.303 0.417969L520.856 0.371094L520.845 14.3506L534.692 14.335L534.68 28.3135L548.527 28.2979L548.515 42.2764L562.362 42.2607L562.35 56.2402L576.196 56.2246L576.185 70.2031L590.031 70.1875L590.043 56.209L603.89 56.1934L603.901 42.2139L617.747 42.1982L617.758 28.2197L631.605 28.2041L631.616 14.2256L645.463 14.21L645.475 0.230469L687.028 0.183594L687.017 14.2236ZM1418.25 251.938L1432.02 251.922L1432.01 265.933L1390.7 265.979L1390.71 251.969L1404.48 251.953L1404.49 237.928L1418.26 237.912L1418.25 251.938ZM1584.63 251.785L1598.4 251.77L1598.38 265.78L1557.07 265.826L1557.08 251.816L1570.85 251.801L1570.86 237.775L1584.64 237.76L1584.63 251.785ZM-943.372 213.162L-929.605 213.147L-929.617 227.161L-943.383 227.177L-943.395 241.19L-957.176 241.206L-957.188 255.235L-970.955 255.251L-970.932 227.208L-957.165 227.192L-957.142 199.164L-943.36 199.148L-943.372 213.162ZM-900.905 86.9209L-887.133 86.9053L-887.144 100.841L-873.373 100.825L-873.384 114.761L-859.612 114.746L-859.623 128.682L-845.852 128.666L-845.863 142.602L-859.635 142.617L-859.646 156.553L-873.418 156.568L-873.429 170.504L-887.202 170.52L-887.213 184.455L-900.985 184.471L-900.996 198.407L-914.768 198.423L-914.756 184.486L-928.529 184.502L-928.517 170.566L-942.289 170.582L-942.277 156.646L-956.05 156.662L-956.038 142.726L-969.81 142.741L-969.798 128.806L-956.027 128.79L-956.015 114.854L-942.243 114.839L-942.232 100.903L-928.46 100.888L-928.448 86.9521L-914.677 86.9365L-914.665 73L-900.894 72.9854L-900.905 86.9209ZM-569.628 86.4521L-555.855 86.4365L-555.867 100.372L-542.096 100.356L-542.107 114.292L-528.335 114.277L-528.346 128.213L-514.575 128.197L-514.586 142.133L-528.358 142.148L-528.369 156.084L-542.141 156.1L-542.152 170.035L-555.925 170.051L-555.935 183.987L-569.708 184.002L-569.719 197.938L-583.491 197.954L-583.479 184.018L-597.251 184.033L-597.24 170.098L-611.011 170.113L-611 156.178L-624.771 156.193L-624.76 142.257L-638.532 142.272L-638.521 128.337L-624.749 128.321L-624.738 114.386L-610.965 114.37L-610.954 100.435L-597.182 100.419L-597.171 86.4834L-583.399 86.4678L-583.388 72.5312L-569.616 72.5166L-569.628 86.4521ZM-238.354 85.9834L-224.582 85.9678L-224.594 99.9033L-210.822 99.8877L-210.834 113.823L-197.061 113.809L-197.073 127.744L-183.301 127.729L-183.313 141.664L-197.084 141.68L-197.096 155.615L-210.867 155.631L-210.879 169.566L-224.65 169.582L-224.662 183.519L-238.434 183.533L-238.446 197.47L-252.217 197.485L-252.206 183.549L-265.977 183.564L-265.966 169.629L-279.738 169.645L-279.727 155.709L-293.498 155.725L-293.487 141.788L-307.259 141.804L-307.248 127.868L-293.476 127.853L-293.465 113.917L-279.692 113.901L-279.681 99.9658L-265.909 99.9502L-265.898 86.0146L-252.126 85.999L-252.115 72.0625L-238.343 72.0479L-238.354 85.9834ZM92.9255 85.5146L106.697 85.499L106.685 99.4346L120.458 99.4189L120.446 113.354L134.218 113.34L134.206 127.275L147.979 127.26L147.967 141.195L134.195 141.211L134.183 155.146L120.412 155.162L120.4 169.098L106.629 169.113L106.617 183.05L92.8459 183.064L92.8344 197.001L79.0619 197.017L79.0735 183.08L65.302 183.096L65.3135 169.16L51.541 169.176L51.5525 155.24L37.7811 155.256L37.7925 141.319L24.0201 141.335L24.0316 127.399L37.8041 127.384L37.8156 113.448L51.587 113.433L51.5986 99.4971L65.37 99.4814L65.3816 85.5459L79.1531 85.5303L79.1646 71.5938L92.937 71.5791L92.9255 85.5146ZM424.207 85.042L437.979 85.0264L437.968 98.9619L451.739 98.9463L451.728 112.882L465.5 112.867L465.489 126.803L479.26 126.787L479.248 140.723L465.477 140.738L465.465 154.674L451.694 154.689L451.682 168.625L437.91 168.641L437.898 182.576L424.127 182.592L424.115 196.528L410.344 196.544L410.355 182.607L396.583 182.623L396.595 168.688L382.823 168.703L382.835 154.768L369.062 154.783L369.074 140.847L355.302 140.862L355.314 126.927L369.085 126.911L369.097 112.976L382.869 112.96L382.88 99.0244L396.652 99.0088L396.664 85.0732L410.435 85.0576L410.447 71.1211L424.218 71.1064L424.207 85.042ZM755.484 84.5732L769.256 84.5576L769.245 98.4932L783.016 98.4775L783.005 112.413L796.777 112.398L796.766 126.334L810.537 126.318L810.526 140.254L796.754 140.27L796.743 154.205L782.971 154.221L782.96 168.156L769.187 168.172L769.177 182.108L755.404 182.123L755.393 196.06L741.621 196.075L741.633 182.139L727.861 182.154L727.872 168.219L714.1 168.234L714.112 154.299L700.34 154.314L700.352 140.378L686.579 140.394L686.591 126.458L700.362 126.442L700.374 112.507L714.146 112.491L714.158 98.5557L727.929 98.54L727.941 84.6045L741.712 84.5889L741.724 70.6523L755.495 70.6377L755.484 84.5732ZM1086.76 84.1045L1100.54 84.0889L1100.52 98.0244L1114.3 98.0088L1114.28 111.944L1128.06 111.93L1128.04 125.865L1141.82 125.85L1141.8 139.785L1128.03 139.801L1128.02 153.736L1114.25 153.752L1114.24 167.688L1100.47 167.703L1100.46 181.64L1086.68 181.654L1086.67 195.591L1072.9 195.606L1072.91 181.67L1059.14 181.686L1059.15 167.75L1045.38 167.766L1045.39 153.83L1031.62 153.846L1031.63 139.909L1017.86 139.925L1017.87 125.989L1031.64 125.974L1031.65 112.038L1045.43 112.022L1045.44 98.0869L1059.21 98.0713L1059.22 84.1357L1072.99 84.1201L1073 70.1836L1086.77 70.1689L1086.76 84.1045ZM1418.04 83.6357L1431.81 83.6201L1431.8 97.5557L1445.57 97.54L1445.56 111.476L1459.33 111.461L1459.32 125.396L1473.09 125.381L1473.08 139.316L1459.31 139.332L1459.3 153.268L1445.52 153.283L1445.51 167.219L1431.74 167.234L1431.73 181.171L1417.96 181.186L1417.95 195.122L1404.17 195.138L1404.19 181.201L1390.41 181.217L1390.43 167.281L1376.65 167.297L1376.66 153.361L1362.89 153.377L1362.9 139.44L1349.13 139.456L1349.14 125.521L1362.92 125.505L1362.93 111.569L1376.7 111.554L1376.71 97.6182L1390.48 97.6025L1390.49 83.667L1404.26 83.6514L1404.28 69.7148L1418.05 69.7002L1418.04 83.6357ZM-417.884 115.052L-417.896 129.03L-431.74 129.046L-431.751 143.024L-417.907 143.009L-417.919 156.988L-404.074 156.973L-404.062 142.993L-390.219 142.978L-390.207 128.999L-404.052 129.015L-404.04 115.036L-417.884 115.052ZM-85.1245 114.747L-85.136 128.726L-98.9827 128.741L-98.9941 142.72L-85.1475 142.704L-85.159 156.684L-71.3123 156.668L-71.3008 142.688L-57.4551 142.673L-57.4436 128.694L-71.2893 128.71L-71.2778 114.731L-85.1245 114.747ZM-914.684 114.793L-914.696 128.729L-928.468 128.744L-928.48 142.68L-914.707 142.664L-914.719 156.6L-900.947 156.584L-900.936 142.648L-887.164 142.633L-887.153 128.697L-900.924 128.713L-900.913 114.777L-914.684 114.793ZM246.21 114.277L246.199 128.257L232.346 128.272L232.336 142.251L246.187 142.235L246.176 156.215L260.028 156.199L260.04 142.22L273.891 142.204L273.903 128.226L260.051 128.241L260.063 114.262L246.21 114.277ZM-583.422 114.354L-583.434 128.29L-597.205 128.306L-597.217 142.241L-583.444 142.226L-583.456 156.161L-569.685 156.146L-569.673 142.21L-555.902 142.194L-555.89 128.259L-569.661 128.274L-569.65 114.339L-583.422 114.354ZM-748.972 114.052L-748.984 128.03L-762.83 128.046L-762.841 142.024L-748.995 142.009L-749.007 155.988L-735.16 155.973L-735.149 141.993L-721.302 141.978L-721.29 127.999L-735.137 128.015L-735.126 114.036L-748.972 114.052ZM-252.149 113.886L-252.16 127.821L-265.932 127.837L-265.944 141.772L-252.171 141.757L-252.183 155.692L-238.411 155.677L-238.4 141.741L-224.628 141.726L-224.617 127.79L-238.388 127.806L-238.377 113.87L-252.149 113.886ZM79.131 113.417L79.1195 127.353L65.347 127.368L65.3365 141.304L79.108 141.288L79.0964 155.224L92.8679 155.208L92.8794 141.272L106.652 141.257L106.662 127.321L92.891 127.337L92.9025 113.401L79.131 113.417ZM907.228 113.171L907.216 127.149L893.371 127.165L893.361 141.144L907.205 141.128L907.193 155.107L921.038 155.092L921.049 141.112L934.893 141.097L934.905 127.118L921.06 127.134L921.071 113.155L907.228 113.171ZM1239.99 112.868L1239.98 126.847L1226.13 126.862L1226.12 140.841L1239.97 140.825L1239.96 154.805L1253.8 154.789L1253.81 140.81L1267.66 140.795L1267.67 126.815L1253.83 126.831L1253.84 112.853L1239.99 112.868ZM410.428 112.914L410.416 126.85L396.644 126.865L396.632 140.801L410.405 140.785L410.393 154.721L424.165 154.705L424.176 140.77L437.948 140.754L437.959 126.818L424.188 126.834L424.199 112.898L410.428 112.914ZM1571.32 112.398L1571.31 126.378L1557.46 126.394L1557.45 140.372L1571.3 140.356L1571.29 154.336L1585.14 154.32L1585.15 140.341L1599 140.325L1599.01 126.347L1585.16 126.362L1585.17 112.383L1571.32 112.398ZM741.689 112.476L741.678 126.411L727.906 126.427L727.895 140.362L741.667 140.347L741.656 154.282L755.427 154.267L755.439 140.331L769.21 140.315L769.222 126.38L755.45 126.396L755.462 112.46L741.689 112.476ZM576.135 112.171L576.124 126.149L562.278 126.165L562.267 140.144L576.113 140.128L576.101 154.107L589.948 154.092L589.959 140.112L603.806 140.097L603.817 126.118L589.971 126.134L589.982 112.155L576.135 112.171ZM1072.97 112.007L1072.96 125.942L1059.19 125.958L1059.17 139.894L1072.95 139.878L1072.93 153.813L1086.71 153.798L1086.72 139.862L1100.49 139.847L1100.5 125.911L1086.73 125.927L1086.74 111.991L1072.97 112.007ZM1404.24 111.538L1404.23 125.474L1390.46 125.489L1390.45 139.425L1404.22 139.409L1404.21 153.345L1417.98 153.329L1417.99 139.394L1431.76 139.378L1431.77 125.442L1418 125.458L1418.01 111.522L1404.24 111.538ZM-956.913 30.5176L-943.132 30.502L-943.143 44.5312L-929.376 44.5156L-929.387 58.5303L-943.155 58.5459L-943.166 72.5596L-956.947 72.5752L-956.936 58.5615L-970.703 58.5762L-970.668 16.5195L-956.902 16.5039L-956.913 30.5176ZM-887.763 17.4551L-901.535 17.4707L-901.546 31.4893L-915.318 31.5039L-915.306 17.4863L-929.078 17.502L-929.066 3.48438L-887.751 3.4375L-887.763 17.4551ZM-721.391 17.3027L-735.159 17.3184L-735.171 31.3369L-748.952 31.3516L-748.94 17.334L-762.707 17.3496L-762.695 3.33203L-721.38 3.28516L-721.391 17.3027ZM-556.483 16.9863L-570.256 17.002L-570.267 31.0205L-584.039 31.0352L-584.027 17.0176L-597.799 17.0332L-597.787 3.01562L-556.472 2.96875L-556.483 16.9863ZM-390.112 16.834L-403.895 16.8496L-403.906 30.8682L-417.673 30.8828L-417.661 16.8652L-431.428 16.8809L-431.416 2.86328L-390.101 2.81641L-390.112 16.834ZM-223.741 16.6816L-237.523 16.6973L-237.535 30.7158L-251.302 30.7305L-251.29 16.7129L-265.057 16.7285L-265.045 2.71094L-223.73 2.66406L-223.741 16.6816ZM-58.8351 16.3652L-72.6017 16.3809L-72.6132 30.3994L-86.3808 30.4141L-86.3693 16.3965L-100.151 16.4121L-100.139 2.39453L-58.8237 2.34766L-58.8351 16.3652ZM107.532 16.2129L93.7605 16.2285L93.749 30.2471L79.9766 30.2617L79.988 16.2441L66.2166 16.2598L66.228 2.24219L107.543 2.19531L107.532 16.2129ZM272.444 15.8965L258.677 15.9121L258.666 29.9307L244.884 29.9453L244.895 15.9277L231.129 15.9434L231.14 1.92578L272.456 1.87891L272.444 15.8965ZM437.349 15.5742L423.577 15.5898L423.565 29.6084L409.794 29.623L409.805 15.6055L396.034 15.6211L396.045 1.60352L437.361 1.55664L437.349 15.5742ZM603.726 15.4238L589.958 15.4395L589.947 29.458L576.166 29.4727L576.177 15.4551L562.411 15.4707L562.422 1.45312L603.738 1.40625L603.726 15.4238ZM768.628 15.1055L754.856 15.1211L754.844 29.1396L741.073 29.1543L741.084 15.1367L727.313 15.1523L727.324 1.13477L768.64 1.08789L768.628 15.1055ZM935.003 14.9551L921.221 14.9707L921.21 28.9893L907.443 29.0039L907.454 14.9863L893.688 15.002L893.699 0.984375L935.015 0.9375L935.003 14.9551ZM1101.37 14.8027L1087.59 14.8184L1087.58 28.8369L1073.81 28.8516L1073.82 14.834L1060.06 14.8496L1060.07 0.832031L1101.38 0.785156L1101.37 14.8027ZM1266.28 14.4863L1252.51 14.502L1252.5 28.5205L1238.73 28.5352L1238.74 14.5176L1224.96 14.5332L1224.97 0.515625L1266.29 0.46875L1266.28 14.4863ZM1432.65 14.334L1418.88 14.3496L1418.87 28.3682L1405.09 28.3828L1405.11 14.3652L1391.33 14.3809L1391.35 0.363281L1432.66 0.316406L1432.65 14.334ZM1597.56 14.0176L1583.79 14.0332L1583.78 28.0518L1570 28.0664L1570.01 14.0488L1556.24 14.0645L1556.25 0.046875L1597.57 0L1597.56 14.0176Z" fill="#C4321A"/>
</svg>
