<svg width="348" height="88" viewBox="0 0 348 88" fill="none" xmlns="http://www.w3.org/2000/svg">
<path d="M3 0V88" stroke="#C43418" stroke-width="0.486246"/>
<circle cx="3" cy="46" r="2" fill="#C43418"/>
<circle cx="3" cy="62" r="2" fill="#C43418"/>
<circle cx="3" cy="79" r="2" fill="#C43418"/>
<circle cx="3" cy="54" r="3" fill="#C43418"/>
<path d="M29 0V88" stroke="#C43418" stroke-width="0.486246"/>
<circle cx="29" cy="47" r="2" fill="#C43418"/>
<circle cx="29" cy="75" r="2" fill="#C43418"/>
<circle cx="29" cy="67" r="3" fill="#C43418"/>
<path d="M55 0V88" stroke="#C43418" stroke-width="0.486246"/>
<circle cx="55" cy="46" r="2" fill="#C43418"/>
<circle cx="55" cy="62" r="2" fill="#C43418"/>
<circle cx="55" cy="79" r="2" fill="#C43418"/>
<circle cx="55" cy="54" r="3" fill="#C43418"/>
<path d="M81 0V88" stroke="#C43418" stroke-width="0.486246"/>
<circle cx="81" cy="47" r="2" fill="#C43418"/>
<circle cx="81" cy="75" r="2" fill="#C43418"/>
<circle cx="81" cy="67" r="3" fill="#C43418"/>
<path d="M107 0V88" stroke="#C43418" stroke-width="0.486246"/>
<circle cx="107" cy="46" r="2" fill="#C43418"/>
<circle cx="107" cy="62" r="2" fill="#C43418"/>
<circle cx="107" cy="79" r="2" fill="#C43418"/>
<circle cx="107" cy="54" r="3" fill="#C43418"/>
<path d="M133 0V88" stroke="#C43418" stroke-width="0.486246"/>
<circle cx="133" cy="47" r="2" fill="#C43418"/>
<circle cx="133" cy="75" r="2" fill="#C43418"/>
<circle cx="133" cy="67" r="3" fill="#C43418"/>
<path d="M159 0V88" stroke="#C43418" stroke-width="0.486246"/>
<circle cx="159" cy="46" r="2" fill="#C43418"/>
<circle cx="159" cy="62" r="2" fill="#C43418"/>
<circle cx="159" cy="79" r="2" fill="#C43418"/>
<circle cx="159" cy="54" r="3" fill="#C43418"/>
<path d="M185 0V88" stroke="#C43418" stroke-width="0.486246"/>
<circle cx="185" cy="47" r="2" fill="#C43418"/>
<circle cx="185" cy="75" r="2" fill="#C43418"/>
<circle cx="185" cy="67" r="3" fill="#C43418"/>
<path d="M211 0V88" stroke="#C43418" stroke-width="0.486246"/>
<circle cx="211" cy="46" r="2" fill="#C43418"/>
<circle cx="211" cy="62" r="2" fill="#C43418"/>
<circle cx="211" cy="79" r="2" fill="#C43418"/>
<circle cx="211" cy="54" r="3" fill="#C43418"/>
<path d="M237 0V88" stroke="#C43418" stroke-width="0.486246"/>
<circle cx="237" cy="47" r="2" fill="#C43418"/>
<circle cx="237" cy="75" r="2" fill="#C43418"/>
<circle cx="237" cy="67" r="3" fill="#C43418"/>
<path d="M263 0V88" stroke="#C43418" stroke-width="0.486246"/>
<circle cx="263" cy="46" r="2" fill="#C43418"/>
<circle cx="263" cy="62" r="2" fill="#C43418"/>
<circle cx="263" cy="79" r="2" fill="#C43418"/>
<circle cx="263" cy="54" r="3" fill="#C43418"/>
<path d="M289 0V88" stroke="#C43418" stroke-width="0.486246"/>
<circle cx="289" cy="47" r="2" fill="#C43418"/>
<circle cx="289" cy="75" r="2" fill="#C43418"/>
<circle cx="289" cy="67" r="3" fill="#C43418"/>
<path d="M315 0V88" stroke="#C43418" stroke-width="0.486246"/>
<circle cx="315" cy="46" r="2" fill="#C43418"/>
<circle cx="315" cy="62" r="2" fill="#C43418"/>
<circle cx="315" cy="79" r="2" fill="#C43418"/>
<circle cx="315" cy="54" r="3" fill="#C43418"/>
<path d="M341 0V88" stroke="#C43418" stroke-width="0.486246"/>
<circle cx="341" cy="47" r="2" fill="#C43418"/>
<circle cx="341" cy="75" r="2" fill="#C43418"/>
<circle cx="341" cy="67" r="3" fill="#C43418"/>
</svg>
