<svg width="364" height="17" viewBox="0 0 364 17" fill="none" xmlns="http://www.w3.org/2000/svg">
<g clip-path="url(#clip0_1975_39556)">
<rect width="373" height="17" transform="translate(-7)" fill="white"/>
<path d="M-6.19042 1.46302L-7.84704 1.46499L-7.84857 3.19923L-9.50471 3.20119L-9.50625 4.93543L-7.84963 4.93347L-7.85116 6.66771L-6.19502 6.66574L-6.19349 4.9315L-4.53735 4.92953L-4.53581 3.19529L-2.87919 3.19333L-2.87766 1.45909L-1.22152 1.45712L-1.22305 3.19136L0.433565 3.18939L0.432031 4.92363L-1.22459 4.9256L-1.22612 6.65984L-2.88226 6.6618L-2.8838 8.39653L-4.53994 8.3985L-4.54147 10.1327L-2.88533 10.1308L-2.88687 11.865L-1.23025 11.863L-1.23178 13.5978L0.424359 13.5958L0.422825 15.33L-1.23332 15.332L-1.23485 17.0663L-2.89147 17.0682L-2.88993 15.334L-4.54608 15.3359L-4.54454 13.6012L-6.20116 13.6032L-6.19963 11.8689L-7.85577 11.8709L-7.8573 13.6052L-9.51344 13.6071L-9.51498 15.3418L-7.85884 15.3399L-7.86037 17.0741L-6.20375 17.0722L-6.20451 18H-11.1739L-11.1731 17.0781L-12.8293 17.08L-12.83 18H-14.9963L-14.9968 15.4353L-14.2982 15.4348L-14.2966 13.7119L-12.6623 13.7099L-12.6608 11.987L-11.026 11.985L-11.0245 10.2616L-9.39019 10.2601L-9.38865 8.53667L-11.0229 8.53864L-11.0219 6.81571L-12.6562 6.81767L-12.6546 5.09475L-14.2894 5.09671L-14.2879 3.37329L-14.9993 3.37378L-15 0.277524H-12.8148L-12.8159 1.4704L-11.1593 1.46843L-11.1586 0.277524H-6.18925L-6.19042 1.46302ZM3.7352 18H2.07858L2.07933 17.0623L3.73595 17.0604L3.7352 18ZM33.3951 1.73985L31.739 1.74182L31.7374 3.47606L30.0813 3.47802L30.0798 5.21226L31.7359 5.2103L31.7344 6.94453L33.3905 6.94306L33.392 5.20833L35.0482 5.20636L35.0497 3.47212L36.7059 3.47016L36.7074 1.73592L38.3635 1.73395L38.362 3.46819L40.0181 3.46622L40.0166 5.20046L38.3605 5.20243L38.3589 6.93716L36.7028 6.93913L36.7013 8.67336L35.0451 8.67533L35.0436 10.4096L36.6997 10.4076L36.6982 12.1418L38.3543 12.1399L38.3528 13.8746L40.0089 13.8726L40.0074 15.6069L38.3513 15.6088L38.3497 17.3431L36.6941 17.3451L36.6951 15.6108L35.0394 15.6128L35.0405 13.8785L33.3848 13.8805L33.3864 12.1458L31.7302 12.1477L31.7287 13.8825L30.0726 13.8839L30.071 15.6187L31.7272 15.6167L31.7256 17.351L33.3818 17.349L33.381 18H28.413L28.4133 17.3549L26.7572 17.3569L26.7569 18H18.6296L18.6303 17.0486L16.9742 17.0505L16.9734 18H12.0188L12.0195 17.0584L13.6757 17.0564L13.6772 15.3222L15.3333 15.3202L15.3349 13.5855L13.6787 13.5875L13.6803 11.8532L12.0236 11.8552L12.0221 13.5894L10.366 13.5914L10.3644 15.3256L8.70829 15.3276L8.70675 17.0623L7.05014 17.0643L7.05167 15.3296L5.39553 15.3315L5.39706 13.5973L7.0532 13.5953L7.05474 11.8611L8.71136 11.8591L8.71242 10.1249L10.369 10.1229L10.3706 8.38818L8.71395 8.39014L8.71548 6.6559L7.05934 6.65787L7.06087 4.92363L5.40426 4.9256L5.40579 3.19087L7.06241 3.18939L7.06394 1.45466L8.72009 1.4527L8.71855 3.18743L10.3747 3.18546L10.3736 4.9197L12.0298 4.91773L12.0282 6.65197L13.6844 6.65L13.6859 4.91576L15.3425 4.9138L15.3441 3.17956L13.6875 3.18153L13.689 1.4468L12.0328 1.44876L12.034 0.277524H16.9887L16.9875 1.44335L18.6436 1.44139L18.6448 0.277524H26.7721L26.771 1.74772L28.4267 1.74575L28.4278 0.277524H33.3962L33.3951 1.73985ZM43.3192 18H41.6631L41.6639 17.3392L43.32 17.3372L43.3192 18ZM73.2508 1.73985L71.5947 1.74182L71.5931 3.47606L69.9365 3.47802L69.935 5.21226L71.5916 5.2103L71.5901 6.94453L73.2462 6.94306L73.2477 5.20833L74.9044 5.20636L74.9054 3.47212L76.562 3.47016L76.5636 1.73592L78.2197 1.73395L78.2182 3.46819L79.8748 3.46622L79.8733 5.20046L78.2167 5.20243L78.2151 6.93716L76.559 6.93913L76.5574 8.67336L74.9013 8.67533L74.8998 10.4096L76.5559 10.4076L76.5544 12.1418L78.211 12.1399L78.2094 13.8746L79.8656 13.8726L79.8641 15.6069L78.2079 15.6088L78.2064 17.3431L76.5502 17.3451L76.5513 15.6108L74.8952 15.6128L74.8967 13.8785L73.2405 13.8805L73.2416 12.1458L71.5855 12.1477L71.5839 13.8825L69.9278 13.8839L69.9263 15.6187L71.5824 15.6167L71.5809 17.351L73.2375 17.349L73.2367 18H68.2682L68.2686 17.3549L66.612 17.3569L66.6116 18H58.2169L58.2173 17.3254L56.5616 17.3274L56.5608 18H51.6014L51.6022 17.3352L53.2583 17.3333L53.2599 15.599L54.9155 15.597L54.9171 13.8628L53.2614 13.8643L53.2625 12.13L51.6068 12.132L51.6053 13.8662L49.9491 13.8682L49.9476 15.6029L48.2914 15.6049L48.2899 17.3392L46.6338 17.3411L46.6353 15.6069L44.9792 15.6084L44.9807 13.8741L46.6368 13.8721L46.6384 12.1379L48.2945 12.1359L48.296 10.4017L49.9522 10.3997L49.9537 8.6655L48.2976 8.66746L48.2991 6.93273L46.643 6.9347L46.6445 5.20046L44.9884 5.20243L44.9899 3.46819L46.646 3.46622L46.6471 1.73149L48.3032 1.73002L48.3017 3.46426L49.9578 3.46229L49.9563 5.19653L51.6125 5.19456L51.6109 6.9288L53.2671 6.92683L53.2686 5.19259L54.9247 5.19063L54.9263 3.45639L53.2701 3.45836L53.2717 1.72412L51.6155 1.72608L51.6166 0.277524H56.576L56.5749 1.72018L58.2311 1.71822L58.2322 0.277524H66.6264L66.6253 1.74772L68.2819 1.74575L68.283 0.277524H73.2519L73.2508 1.73985ZM83.1764 18H81.5202L81.521 17.3392L83.1772 17.3372L83.1764 18ZM112.803 1.46302L111.153 1.46499L111.151 3.19923L109.502 3.20119L109.501 4.93543L111.15 4.93347L111.148 6.66771L112.798 6.66574L112.799 4.9315L114.448 4.92953L114.45 3.19529L116.099 3.19333L116.101 1.45909L117.75 1.45712L117.748 3.19136L119.398 3.18939L119.396 4.92363L117.747 4.9256L117.745 6.66033L116.096 6.6623L116.095 8.39653L114.445 8.3985L114.444 10.1327L116.093 10.1308L116.092 11.865L117.741 11.863L117.74 13.5978L119.389 13.5958L119.387 15.33L117.738 15.332L117.737 17.0663L116.087 17.0682L116.089 15.334L114.44 15.3359L114.441 13.6017L112.792 13.6032L112.793 11.8689L111.144 11.8709L111.143 13.6052L109.493 13.6071L109.492 15.3418L111.141 15.3399L111.14 17.0741L112.789 17.0722L112.788 18H107.84L107.841 17.0781L106.192 17.08L106.191 18H98.0707L98.0715 17.3254L96.4154 17.3274L96.4146 18H91.4599L91.4607 17.3352L93.1169 17.3333L93.1184 15.599L94.7746 15.597L94.7761 13.8628L93.12 13.8643L93.1215 12.13L91.4649 12.132L91.4638 13.8662L89.8072 13.8682L89.8057 15.6029L88.1495 15.6049L88.148 17.3392L86.4914 17.3411L86.4929 15.6069L84.8368 15.6084L84.8383 13.8741L86.4944 13.8721L86.496 12.1379L88.1526 12.1359L88.1541 10.4017L89.8103 10.3997L89.8118 8.6655L88.1552 8.66746L88.1567 6.93273L86.5006 6.9347L86.5021 5.20046L84.8455 5.20243L84.847 3.46819L86.5036 3.46622L86.5052 1.73149L88.1613 1.72952L88.1598 3.46426L89.8164 3.46229L89.8149 5.19653L91.471 5.19456L91.4695 6.9288L93.1261 6.92683L93.1276 5.19259L94.7838 5.19063L94.7853 3.45639L93.1287 3.45836L93.1302 1.72412L91.4741 1.72608L91.4752 0.277524H96.4299L96.4287 1.72018L98.0849 1.71822L98.086 0.277524H106.207L106.205 1.4704L107.854 1.46843L107.856 0.277524H112.804L112.803 1.46302ZM122.685 18H121.036L121.037 17.0623L122.686 17.0604L122.685 18ZM151.889 1.18472L150.233 1.18668L150.231 2.92141L148.575 2.92338L148.573 4.65762L150.23 4.65565L150.228 6.38989L151.885 6.38793L151.886 4.65369L153.542 4.65172L153.544 2.91748L155.2 2.91551L155.202 1.18078L156.858 1.17931L156.857 2.91355L158.513 2.91158L158.512 4.64582L156.855 4.64779L156.854 6.38203L155.197 6.38399L155.196 8.11872L153.54 8.1202L153.538 9.85493L155.194 9.85296L155.193 11.5872L156.849 11.5852L156.848 13.3195L158.504 13.3175L158.502 15.0522L156.846 15.0542L156.845 16.7884L155.188 16.7904L155.19 15.0562L153.534 15.0581L153.535 13.3234L151.878 13.3254L151.88 11.5911L150.224 11.5931L150.222 13.3273L148.566 13.3293L148.565 15.0635L150.221 15.0616L150.219 16.7963L151.876 16.7943L151.875 18H146.905L146.907 16.8002L145.25 16.8022L145.249 18H136.928L136.928 17.1646L135.323 17.1666L135.322 18H130.933L130.934 17.049L132.584 17.0471L132.585 15.3128L134.234 15.3109L134.236 13.5766L132.587 13.5781L132.588 11.8439L130.939 11.8458L130.937 13.5801L129.288 13.582L129.287 15.3168L127.637 15.3187L127.636 17.053L125.987 17.0549L125.988 15.3202L124.339 15.3222L124.34 13.5879L125.99 13.586L125.991 11.8517L127.64 11.8498L127.642 10.1155L129.291 10.1136L129.292 8.37932L127.643 8.3808L127.645 6.64656L125.995 6.64853L125.997 4.91429L124.348 4.91626L124.349 3.18202L125.998 3.18005L126 1.44532L127.649 1.44335L127.648 3.17808L129.297 3.17612L129.295 4.91036L130.945 4.90839L130.943 6.64263L132.592 6.64066L132.594 4.90642L134.243 4.90446L134.245 3.17022L132.595 3.17218L132.597 1.43794L130.948 1.43991L130.949 0.277524H135.318L135.316 1.38238L136.923 1.38042L136.924 0.277524H145.264L145.264 1.19258L146.92 1.19062L146.921 0.277524H151.89L151.889 1.18472ZM161.814 18H160.158L160.159 16.7845L161.816 16.7825L161.814 18ZM191.475 1.46204L189.819 1.464L189.817 3.19824L188.161 3.20021L188.159 4.93445L189.816 4.93248L189.814 6.66672L191.47 6.66475L191.472 4.93052L193.128 4.92855L193.129 3.19431L194.785 3.19234L194.787 1.4581L196.443 1.45614L196.442 3.19038L198.098 3.18841L198.096 4.92265L196.44 4.92462L196.439 6.65935L194.782 6.66082L194.781 8.39555L193.125 8.39752L193.123 10.1318L194.779 10.1298L194.778 11.864L196.434 11.8621L196.432 13.5968L198.089 13.5948L198.087 15.3291L196.431 15.331L196.429 17.0653L194.774 17.0672L194.775 15.333L193.119 15.335L193.12 13.6002L191.464 13.6022L191.466 11.868L189.81 11.8699L189.808 13.6042L188.152 13.6061L188.151 15.3409L189.807 15.3389L189.805 17.0731L191.461 17.0712L191.461 18H186.492L186.493 17.0771L184.837 17.079L184.836 18H176.709L176.71 16.7707L175.054 16.7727L175.053 18H170.098L170.099 16.7806L171.755 16.7786L171.757 15.0439L173.413 15.0419L173.415 13.3077L171.758 13.3096L171.76 11.5754L170.103 11.5774L170.102 13.3116L168.446 13.3136L168.444 15.0478L166.788 15.0498L166.786 16.784L165.13 16.786L165.131 15.0517L163.475 15.0537L163.477 13.3195L165.133 13.3175L165.134 11.5833L166.791 11.5813L166.792 9.84657L168.449 9.8446L168.45 8.11036L166.794 8.11233L166.795 6.37809L165.139 6.38006L165.141 4.64582L163.484 4.64779L163.485 2.91306L165.142 2.91109L165.144 1.17685L166.8 1.17488L166.798 2.90912L168.454 2.90716L168.453 4.64189L170.109 4.63992L170.108 6.37416L171.764 6.37219L171.766 4.63795L173.422 4.63599L173.424 2.90175L171.767 2.90371L171.769 1.16898L170.112 1.17095L170.113 0.277524H175.068L175.067 1.16505L176.723 1.16308L176.724 0.277524H184.851L184.851 1.46941L186.506 1.46745L186.507 0.277524H191.476L191.475 1.46204ZM201.399 18H199.743L199.744 17.0613L201.4 17.0594L201.399 18ZM231.33 1.46204L229.674 1.464L229.673 3.19824L228.016 3.20021L228.015 4.93445L229.671 4.93248L229.67 6.66672L231.326 6.66475L231.327 4.93052L232.984 4.92855L232.985 3.19431L234.642 3.19234L234.643 1.4581L236.299 1.45614L236.298 3.19038L237.954 3.18841L237.953 4.92265L236.296 4.92462L236.295 6.65885L234.639 6.66082L234.637 8.39555L232.981 8.39752L232.979 10.1318L234.636 10.1298L234.634 11.864L236.291 11.8621L236.289 13.5968L237.945 13.5948L237.944 15.3291L236.288 15.331L236.286 17.0653L234.63 17.0672L234.631 15.333L232.975 15.335L232.976 13.6002L231.32 13.6022L231.321 11.868L229.665 11.8699L229.664 13.6042L228.007 13.6061L228.006 15.3409L229.662 15.3389L229.661 17.0731L231.317 17.0712L231.316 18H226.347L226.348 17.0771L224.692 17.079L224.691 18H216.296L216.297 17.0476L214.641 17.0495L214.64 18H209.681L209.682 17.0574L211.338 17.0554L211.34 15.3212L212.996 15.3192L212.997 13.5845L211.341 13.5865L211.342 11.8522L209.686 11.8542L209.685 13.5884L208.029 13.5904L208.027 15.3246L206.371 15.3266L206.37 17.0613L204.713 17.0633L204.715 15.3286L203.059 15.3305L203.06 13.5963L204.716 13.5943L204.718 11.8601L206.374 11.8581L206.376 10.1239L208.032 10.1219L208.033 8.38719L206.377 8.38916L206.379 6.65492L204.723 6.65689L204.724 4.92265L203.068 4.92462L203.07 3.18988L204.726 3.18841L204.727 1.45368L206.383 1.45171L206.381 3.18644L208.037 3.18448L208.036 4.91872L209.692 4.91675L209.691 6.65099L211.347 6.64902L211.348 4.91478L213.004 4.91281L213.006 3.17858L211.35 3.18054L211.351 1.44581L209.695 1.44778L209.696 0.277524H214.656L214.655 1.44237L216.311 1.4404L216.312 0.277524H224.706L224.705 1.46941L226.362 1.46745L226.363 0.277524H231.332L231.33 1.46204ZM241.256 18H239.6L239.601 17.0613L241.257 17.0594L241.256 18ZM270.882 1.18472L269.233 1.18668L269.231 2.92141L267.582 2.92338L267.581 4.65762L269.23 4.65565L269.228 6.38989L270.878 6.38793L270.879 4.65369L272.528 4.65172L272.53 2.91748L274.179 2.91551L274.181 1.18128L275.83 1.17931L275.828 2.91355L277.478 2.91158L277.476 4.64582L275.827 4.64779L275.825 6.38203L274.176 6.38399L274.175 8.11872L272.525 8.12069L272.524 9.85493L274.173 9.85296L274.171 11.5872L275.821 11.5852L275.819 13.3195L277.468 13.318L277.467 15.0522L275.818 15.0542L275.816 16.7884L274.167 16.7904L274.168 15.0562L272.519 15.0581L272.521 13.3234L270.871 13.3254L270.873 11.5911L269.224 11.5931L269.222 13.3273L267.573 13.3293L267.571 15.0635L269.221 15.0616L269.219 16.7963L270.868 16.7943L270.867 18H265.92L265.921 16.8002L264.271 16.8022L264.27 18H256.15L256.151 17.0476L254.495 17.0495L254.494 18H249.54L249.54 17.0574L251.197 17.0554L251.198 15.3212L252.854 15.3192L252.856 13.5845L251.2 13.5865L251.201 11.8522L249.544 11.8542L249.543 13.5884L247.887 13.5904L247.885 15.3246L246.229 15.3266L246.228 17.0613L244.571 17.0633L244.573 15.3286L242.916 15.3305L242.918 13.5963L244.574 13.5943L244.576 11.8601L246.232 11.8581L246.234 10.1239L247.89 10.1219L247.891 8.38719L246.235 8.38916L246.236 6.65492L244.58 6.65689L244.582 4.92265L242.925 4.92462L242.927 3.18988L244.583 3.18841L244.585 1.45368L246.241 1.45171L246.239 3.18644L247.896 3.18448L247.895 4.91872L249.551 4.91675L249.549 6.65099L251.206 6.64902L251.207 4.91478L252.863 4.91281L252.865 3.17858L251.208 3.18054L251.21 1.44581L249.554 1.44778L249.555 0.277524H254.51L254.508 1.44237L256.165 1.4404L256.166 0.277524H264.286L264.285 1.19258L265.934 1.19062L265.935 0.277524H270.883L270.882 1.18472ZM21.7636 1.65429L21.7626 3.37722L20.1278 3.37919L20.1263 5.10212L18.4915 5.10409L18.4904 6.82702L16.8556 6.82898L16.8541 8.5524L15.2193 8.55388L15.2178 10.2773L16.8526 10.2753L16.851 11.9983L18.4858 11.9963L18.4843 13.7192L20.119 13.7173L20.1175 15.4407L21.7518 15.4387L21.7503 17.1616L23.385 17.1597L23.3866 15.4367L25.0213 15.4348L25.0229 13.7119L26.6572 13.7099L26.6587 11.987L28.2935 11.985L28.295 10.2621L29.9293 10.2601L29.9308 8.53667L28.2961 8.53864L28.2976 6.81571L26.6633 6.81767L26.6649 5.09475L25.0301 5.09671L25.0316 3.37329L23.3969 3.37526L23.3984 1.65233L21.7636 1.65429ZM61.3505 1.65429L61.3494 3.37722L59.7147 3.37919L59.7131 5.10212L58.0784 5.10409L58.0773 6.82702L56.4425 6.82898L56.441 8.5524L54.8062 8.55388L54.8052 10.2773L56.4395 10.2753L56.4379 11.9983L58.0727 11.9963L58.0712 13.7192L59.7059 13.7173L59.7044 15.4407L61.3387 15.4387L61.3376 17.1616L62.9719 17.1597L62.9735 15.4367L64.6082 15.4348L64.6098 13.7119L66.2441 13.7099L66.2456 11.987L67.8804 11.985L67.8819 10.2621L69.5162 10.2601L69.5177 8.53667L67.883 8.53864L67.8845 6.81571L66.2502 6.81767L66.2517 5.09475L64.617 5.09671L64.6185 3.37329L62.9837 3.37526L62.9853 1.65233L61.3505 1.65429ZM100.938 1.37747L100.936 3.10039L99.3015 3.10236L99.3 4.82529L97.6657 4.82726L97.6641 6.55019L96.0294 6.55215L96.0278 8.27508L94.3935 8.27705L94.392 9.99998L96.0263 9.99851L96.0248 11.7214L97.6595 11.7195L97.658 13.4424L99.2928 13.4404L99.2912 15.1634L100.926 15.1619L100.924 16.8848L102.559 16.8828L102.56 15.1599L104.195 15.158L104.197 13.435L105.831 13.4331L105.832 11.7096L107.467 11.7082L107.469 9.98474L109.103 9.98277L109.105 8.25984L107.47 8.26181L107.472 6.53888L105.837 6.54085L105.839 4.81792L104.204 4.81988L104.205 3.09646L102.571 3.09843L102.572 1.3755L100.938 1.37747ZM140.524 1.37648L140.523 3.09941L138.888 3.10138L138.886 4.82431L137.252 4.82627L137.251 6.5492L135.616 6.55117L135.614 8.2741L133.98 8.27607L133.978 9.999L135.613 9.99752L135.611 11.7205L137.246 11.7185L137.244 13.4414L138.879 13.4394L138.878 15.1624L140.512 15.1609L140.511 16.8838L142.145 16.8819L142.147 15.1589L143.781 15.157L143.783 13.434L145.417 13.4321L145.419 11.7087L147.054 11.7072L147.055 9.98375L148.689 9.98179L148.691 8.25886L147.057 8.26082L147.058 6.5379L145.423 6.53986L145.425 4.81693L143.79 4.8189L143.792 3.09548L142.157 3.09744L142.159 1.37451L140.524 1.37648ZM179.843 1.37648L179.842 3.09941L178.207 3.10138L178.206 4.82431L176.571 4.82627L176.57 6.5492L174.935 6.55117L174.934 8.2741L173.299 8.27607L173.297 9.999L174.932 9.99752L174.931 11.7205L176.565 11.7185L176.564 13.4414L178.199 13.4394L178.197 15.1624L179.831 15.1609L179.83 16.8838L181.465 16.8819L181.466 15.1589L183.101 15.157L183.103 13.434L184.737 13.4321L184.738 11.7087L186.373 11.7072L186.375 9.98375L188.009 9.98179L188.01 8.25886L186.376 8.26082L186.377 6.5379L184.743 6.53986L184.744 4.81693L183.11 4.8189L183.111 3.09548L181.476 3.09744L181.478 1.37451L179.843 1.37648ZM219.43 1.37648L219.429 3.09941L217.794 3.10138L217.793 4.82431L216.158 4.82627L216.157 6.5492L214.522 6.55117L214.521 8.2741L212.886 8.27607L212.885 9.999L214.519 9.99752L214.518 11.7205L216.152 11.7185L216.151 13.4414L217.786 13.4394L217.784 15.1624L219.418 15.1609L219.417 16.8838L221.052 16.8819L221.053 15.1589L222.688 15.157L222.689 13.434L224.324 13.4321L224.325 11.7087L225.96 11.7072L225.962 9.98375L227.596 9.98179L227.597 8.25886L225.963 8.26082L225.964 6.5379L224.33 6.53986L224.331 4.81693L222.697 4.8189L222.698 3.09548L221.063 3.09744L221.065 1.37451L219.43 1.37648ZM259.017 1.09965L259.016 2.82258L257.381 2.82455L257.38 4.54748L255.745 4.54945L255.744 6.27238L254.109 6.27434L254.107 7.99727L252.473 7.99924L252.472 9.72217L254.106 9.7202L254.104 11.4436L255.739 11.4417L255.738 13.1646L257.372 13.1626L257.371 14.8855L259.006 14.8836L259.004 16.607L260.638 16.605L260.64 14.8816L262.275 14.8801L262.276 13.1567L263.911 13.1548L263.912 11.4318L265.547 11.4299L265.548 9.70693L267.183 9.70496L267.184 7.98203L265.55 7.984L265.551 6.26107L263.917 6.26303L263.918 4.53961L262.283 4.54158L262.285 2.81865L260.65 2.82062L260.652 1.09769L259.017 1.09965ZM43.3258 8.66943L44.9815 8.66746L44.9804 10.4017L43.3243 10.4037L43.3228 12.1379L41.6666 12.1399L41.6681 10.4056L40.012 10.4076L40.0135 8.67336L41.6697 8.6714L41.6712 6.93667L43.3269 6.9347L43.3258 8.66943ZM83.183 8.66943L84.8391 8.66746L84.8376 10.4017L83.1814 10.4037L83.1799 12.1379L81.5233 12.1399L81.5248 10.4056L79.8687 10.4076L79.8702 8.67336L81.5263 8.6714L81.5279 6.93667L83.1845 6.9347L83.183 8.66943ZM23.3927 8.5465L25.027 8.54454L25.0255 10.2675L23.3912 10.2694L23.3896 11.9924L21.7549 11.9943L21.7564 10.2714L20.1216 10.2734L20.1232 8.55044L21.7579 8.54847L21.7595 6.82505L23.3938 6.82358L23.3927 8.5465ZM62.9796 8.5465L64.6139 8.54454L64.6124 10.2675L62.9781 10.2694L62.9765 11.9924L61.3418 11.9943L61.3433 10.2714L59.7085 10.2734L59.7101 8.55044L61.3448 8.54847L61.3464 6.82505L62.9807 6.82358L62.9796 8.5465ZM3.74172 8.3926L5.39787 8.39063L5.39633 10.1249L3.74019 10.1268L3.73865 11.8611L2.08204 11.863L2.08357 10.1288L0.427428 10.1308L0.428963 8.39604L2.0851 8.39457L2.08664 6.65984L3.74278 6.65787L3.74172 8.3926ZM122.692 8.3926L124.341 8.39063L124.339 10.1249L122.69 10.1268L122.689 11.8611L121.04 11.863L121.041 10.1288L119.392 10.1308L119.393 8.39653L121.042 8.39457L121.044 6.65984L122.693 6.65787L122.692 8.3926ZM201.405 8.39162L203.061 8.38965L203.06 10.1239L201.404 10.1259L201.402 11.8601L199.746 11.8621L199.748 10.1278L198.092 10.1298L198.093 8.39506L199.749 8.39358L199.751 6.65885L201.407 6.65689L201.405 8.39162ZM241.263 8.39162L242.919 8.38965L242.917 10.1239L241.261 10.1259L241.26 11.8601L239.603 11.8621L239.604 10.1278L237.948 10.1298L237.95 8.39506L239.606 8.39358L239.607 6.65885L241.264 6.65689L241.263 8.39162ZM102.566 8.26968L104.201 8.26771L104.199 9.99064L102.565 9.99261L102.563 11.7155L100.929 11.7175L100.93 9.99457L99.2958 9.99654L99.2969 8.27312L100.932 8.27164L100.933 6.54822L102.568 6.54625L102.566 8.26968ZM181.472 8.26869L183.107 8.26672L183.105 9.98965L181.471 9.99162L181.469 11.7146L179.835 11.7165L179.836 9.99359L178.201 9.99555L178.203 8.27213L179.838 8.27066L179.839 6.54724L181.473 6.54527L181.472 8.26869ZM221.059 8.26869L222.694 8.26672L222.692 9.98965L221.058 9.99162L221.056 11.7146L219.421 11.7165L219.423 9.99359L217.788 9.99555L217.79 8.27213L219.424 8.27066L219.426 6.54724L221.06 6.54527L221.059 8.26869ZM142.154 8.26476L143.789 8.26279L143.788 9.98572L142.153 9.98769L142.152 11.7106L140.517 11.7126L140.518 9.98965L138.884 9.99162L138.885 8.26869L140.52 8.26672L140.522 6.5438L142.156 6.54183L142.154 8.26476ZM161.821 8.1143L163.477 8.11233L163.476 9.84706L161.82 9.84903L161.818 11.5833L160.162 11.5852L160.163 9.85099L158.507 9.85296L158.509 8.11823L160.165 8.11626L160.166 6.38203L161.822 6.38006L161.821 8.1143ZM260.646 7.99137L262.28 7.9899L262.279 9.71283L260.645 9.71479L260.643 11.4377L259.008 11.4397L259.01 9.71676L257.375 9.71823L257.377 7.99531L259.011 7.99334L259.013 6.27041L260.648 6.26844L260.646 7.99137ZM-14.2921 10.2635L-14.9979 10.264L-14.9983 8.5411L-14.2906 8.5406L-14.2921 10.2635ZM278.427 9.85149L277.471 9.85296L277.473 8.11823L278.426 8.11676L278.427 9.85149ZM43.3334 1.72805L41.6772 1.73002L41.6784 0.277524H43.3345L43.3334 1.72805ZM83.1905 1.72805L81.5344 1.73002L81.5355 0.277524H83.1916L83.1905 1.72805ZM3.74928 1.45122L2.09314 1.45319L2.09432 0.277524H3.75046L3.74928 1.45122ZM122.699 1.45122L121.05 1.45319L121.052 0.277524H122.701L122.699 1.45122ZM201.413 1.45024L199.757 1.4522L199.758 0.277524H201.414L201.413 1.45024ZM241.27 1.45024L239.614 1.4522L239.615 0.277524H241.271L241.27 1.45024ZM161.829 1.17341L160.173 1.17537L160.174 0.277524H161.83L161.829 1.17341Z" fill="#C43418"/>
<path d="M270.383 1.11174L268.726 1.11371L268.725 2.83369L267.069 2.83566L267.067 4.55514L268.724 4.55318L268.722 6.27316L270.378 6.27119L270.38 4.5517L272.036 4.54973L272.038 2.82975L273.694 2.82779L273.696 1.10781L275.352 1.10633L275.35 2.82582L277.007 2.82385L277.005 4.54383L275.349 4.5458L275.347 6.26529L273.691 6.26726L273.69 7.98723L272.033 7.9892L272.032 9.70869L273.688 9.70721L273.687 11.4267L275.343 11.4247L275.342 13.1447L276.998 13.1427L276.996 14.8627L275.34 14.8642L275.339 16.5842L273.682 16.5861L273.683 14.8662L272.027 14.8681L272.029 13.1486L270.372 13.1506L270.374 11.4306L268.718 11.4326L268.716 13.1526L267.06 13.1541L267.058 14.874L268.715 14.8721L268.713 16.592L270.37 16.5901L270.368 17.7225H265.4L265.4 16.596L263.744 16.5979L263.743 17.7225H261.577L261.577 15.1573L262.275 15.1568L262.276 13.4338L263.911 13.4319L263.913 11.7089L265.547 11.707L265.549 9.98404L267.183 9.98208L267.185 8.25866L265.55 8.26062L265.552 6.53769L263.917 6.53966L263.919 4.81673L262.284 4.8187L262.286 3.09527L261.574 3.09577L261.573 0H263.759L263.757 1.11961L265.414 1.11764L265.415 0H270.384L270.383 1.11174ZM280.308 17.7225H278.652L278.653 16.5802L280.309 16.5783L280.308 17.7225ZM309.969 1.38857L308.312 1.39054L308.311 3.11052L306.655 3.11248L306.653 4.83246L308.309 4.8305L308.308 6.54998L309.964 6.54802L309.965 4.82853L311.622 4.82656L311.623 3.10658L313.279 3.10462L313.281 1.38513L314.937 1.38316L314.935 3.10265L316.592 3.10068L316.59 4.82066L314.934 4.82263L314.932 6.54261L313.276 6.54458L313.275 8.26406L311.618 8.26603L311.617 9.98601L313.273 9.98404L313.272 11.7035L314.928 11.7016L314.926 13.4215L316.582 13.4196L316.581 15.1396L314.925 15.1415L314.923 16.861L313.267 16.863L313.269 15.1435L311.613 15.1455L311.614 13.4255L309.958 13.4274L309.96 11.7075L308.304 11.7094L308.302 13.4294L306.646 13.4314L306.644 15.1509L308.301 15.1489L308.299 16.8689L309.955 16.8669L309.954 17.7225H304.986L304.987 16.8728L303.331 16.8748L303.33 17.7225H295.203L295.204 16.5665L293.548 16.5684L293.546 17.7225H288.592L288.593 16.5763L290.249 16.5743L290.251 14.8544L291.907 14.8524L291.908 13.1329L290.252 13.1349L290.254 11.4149L288.597 11.4169L288.596 13.1368L286.939 13.1388L286.938 14.8583L285.282 14.8603L285.28 16.5802L283.624 16.5822L283.625 14.8622L281.969 14.8642L281.97 13.1442L283.627 13.1423L283.628 11.4228L285.285 11.4208L285.286 9.70082L286.942 9.69886L286.944 7.97937L285.287 7.98133L285.289 6.26135L283.633 6.26332L283.634 4.54334L281.978 4.54531L281.979 2.82582L283.636 2.82385L283.637 1.10387L285.293 1.10191L285.292 2.82189L286.948 2.81992L286.947 4.53941L288.603 4.53793L288.602 6.25742L290.258 6.25545L290.259 4.53597L291.916 4.534L291.917 2.81402L290.261 2.81599L290.262 1.09601L288.606 1.09797L288.607 0H293.562L293.561 1.09257L295.217 1.0906L295.218 0H303.345L303.344 1.39644L305 1.39447L305.001 0H309.97L309.969 1.38857ZM319.893 17.7225H318.237L318.237 16.8571L319.893 16.8556L319.893 17.7225ZM349.557 1.38857L347.9 1.39054L347.899 3.11052L346.243 3.11248L346.241 4.83246L347.898 4.8305L347.896 6.54998L349.552 6.54802L349.554 4.82853L351.21 4.82656L351.211 3.10658L352.868 3.10462L352.87 1.38513L354.526 1.38316L354.524 3.10265L356.18 3.10068L356.179 4.82066L354.523 4.82263L354.521 6.54261L352.865 6.54458L352.863 8.26406L351.207 8.26603L351.206 9.98601L352.862 9.98404L352.86 11.7035L354.517 11.7016L354.515 13.4215L356.172 13.4196L356.17 15.1396L354.514 15.1415L354.512 16.861L352.856 16.863L352.857 15.1435L351.201 15.1455L351.203 13.4255L349.546 13.4274L349.548 11.7075L347.891 11.7094L347.89 13.4294L346.234 13.4314L346.232 15.1509L347.888 15.1489L347.887 16.8689L349.543 16.8669L349.543 17.7225H344.574L344.574 16.8728L342.918 16.8748L342.917 17.7225H334.79L334.791 16.8438L333.135 16.8458L333.134 17.7225H328.175L328.176 16.8531L329.832 16.8512L329.833 15.1317L331.489 15.1297L331.49 13.4097L329.835 13.4117L329.836 11.6917L328.18 11.6937L328.179 13.4137L326.523 13.4156L326.521 15.1351L324.865 15.1371L324.863 16.8571L323.207 16.859L323.209 15.1391L321.553 15.141L321.554 13.4215L323.21 13.4196L323.212 11.6996L324.868 11.6976L324.869 9.97765L326.526 9.97618L326.527 8.2562L324.871 8.25816L324.873 6.53818L323.216 6.54015L323.218 4.82066L321.562 4.82214L321.563 3.10265L323.219 3.10068L323.22 1.3807L324.877 1.37874L324.875 3.09872L326.531 3.09675L326.53 4.81673L328.186 4.81476L328.184 6.53425L329.84 6.53228L329.842 4.8128L331.498 4.81083L331.5 3.09085L329.844 3.09282L329.845 1.37333L328.189 1.3753L328.19 0H333.149L333.148 1.36939L334.804 1.36743L334.806 0H342.932L342.931 1.39644L344.588 1.39447L344.589 0H349.558L349.557 1.38857ZM359.482 17.7225H357.826L357.827 16.8571L359.483 16.8556L359.482 17.7225ZM389.108 1.11174L387.459 1.11371L387.457 2.83369L385.808 2.83566L385.807 4.55514L387.456 4.55367L387.454 6.27316L389.104 6.27119L389.105 4.5517L390.754 4.54973L390.756 2.82975L392.405 2.82779L392.407 1.1083L394.056 1.10633L394.055 2.82582L395.704 2.82385L395.702 4.54383L394.053 4.5458L394.051 6.26578L392.402 6.26726L392.401 7.98723L390.751 7.9892L390.75 9.70918L392.399 9.70721L392.398 11.4267L394.047 11.4247L394.046 13.1447L395.695 13.1427L395.693 14.8627L394.044 14.8647L394.043 16.5842L392.393 16.5861L392.395 14.8667L390.746 14.8681L390.747 13.1486L389.098 13.1506L389.099 11.4306L387.45 11.4326L387.449 13.1526L385.799 13.1545L385.798 14.874L387.447 14.8721L387.446 16.592L389.095 16.5901L389.094 17.7225H384.146L384.147 16.596L382.498 16.5979L382.496 17.7225H374.377L374.378 16.8438L372.721 16.8458L372.721 17.7225H367.766L367.767 16.8531L369.423 16.8512L369.424 15.1317L371.081 15.1297L371.082 13.4097L369.426 13.4117L369.427 11.6917L367.771 11.6937L367.769 13.4137L366.113 13.4156L366.112 15.1351L364.456 15.1371L364.454 16.8571L362.797 16.859L362.799 15.1391L361.143 15.141L361.144 13.4215L362.8 13.4196L362.802 11.6996L364.459 11.6976L364.46 9.97765L366.116 9.97618L366.118 8.2562L364.461 8.25816L364.463 6.53818L362.807 6.54015L362.808 4.82066L361.152 4.82214L361.153 3.10265L362.81 3.10068L362.811 1.3807L364.467 1.37874L364.466 3.09872L366.122 3.09675L366.121 4.81673L367.777 4.81476L367.775 6.53425L369.432 6.53228L369.433 4.8128L371.09 4.81083L371.091 3.09085L369.435 3.09282L369.436 1.37333L367.78 1.3753L367.781 0H372.736L372.735 1.36939L374.391 1.36743L374.392 0H382.512L382.511 1.11961L384.161 1.11764L384.162 0H389.109L389.108 1.11174ZM398.991 17.7225H397.342L397.343 16.5802L398.992 16.5788L398.991 17.7225ZM428.463 0.835405L426.806 0.837371L426.804 2.55735L425.148 2.55932L425.147 4.27881L426.803 4.27684L426.802 5.99682L428.458 5.99485L428.46 4.27487L430.116 4.2729L430.117 2.55342L431.774 2.55145L431.775 0.831471L433.432 0.829504L433.43 2.54948L435.087 2.54752L435.085 4.2675L433.428 4.26946L433.427 5.98895L431.771 5.99092L431.769 7.7109L430.113 7.71286L430.112 9.43235L431.768 9.43038L431.766 11.1504L433.423 11.1484L433.421 12.8684L435.077 12.8664L435.076 14.5859L433.42 14.5879L433.418 16.3078L431.762 16.3098L431.763 14.5898L430.107 14.5918L430.108 12.8723L428.452 12.8738L428.453 11.1543L426.797 11.1563L426.796 12.8758L425.14 12.8777L425.138 14.5977L426.794 14.5957L426.793 16.3157L428.449 16.3137L428.448 17.7225H423.479L423.48 16.3192L421.824 16.3211L421.823 17.7225H413.501L413.502 16.6112L411.896 16.6127L411.895 17.7225H407.239L407.24 16.567L408.89 16.565L408.891 14.8455L410.54 14.8436L410.542 13.1236L408.893 13.1255L408.894 11.4056L407.245 11.4075L407.243 13.1275L405.594 13.1295L405.593 14.8495L403.943 14.8509L403.942 16.5709L402.293 16.5729L402.294 14.8529L400.645 14.8549L400.646 13.1354L402.296 13.1334L402.297 11.4134L403.946 11.4115L403.948 9.69197L405.597 9.69L405.598 7.97003L403.949 7.97199L403.951 6.25201L402.301 6.25398L402.303 4.53449L400.654 4.53646L400.655 2.81648L402.304 2.81451L402.306 1.09453L403.955 1.09257L403.954 2.81255L405.603 2.81058L405.601 4.53056L407.251 4.52859L407.249 6.24857L408.898 6.2466L408.9 4.52662L410.549 4.52466L410.551 2.80468L408.901 2.80664L408.903 1.08716L407.253 1.08912L407.255 0H411.891L411.89 0.828521L413.496 0.827046L413.497 0H421.838L421.837 0.843272L423.494 0.841305L423.494 0H428.463L428.463 0.835405ZM438.388 17.7225H436.732L436.732 16.3039L438.389 16.3019L438.388 17.7225ZM468.048 1.11223L466.392 1.1142L466.39 2.83418L464.734 2.83615L464.733 4.55563L466.389 4.55367L466.387 6.27365L468.044 6.27168L468.045 4.55219L469.701 4.55023L469.703 2.83025L471.359 2.82828L471.36 1.1083L473.017 1.10682L473.015 2.82631L474.671 2.82435L474.67 4.54433L473.014 4.54629L473.012 6.26578L471.356 6.26775L471.354 7.98773L469.698 7.98969L469.697 9.70918L471.353 9.70771L471.351 11.4272L473.007 11.4252L473.006 13.1452L474.662 13.1432L474.66 14.8632L473.004 14.8652L473.003 16.5847L471.347 16.5866L471.349 14.8667L469.692 14.8686L469.694 13.1491L468.038 13.1511L468.039 11.4311L466.383 11.4331L466.382 13.1531L464.726 13.1545L464.724 14.8745L466.38 14.8726L466.379 16.5925L468.035 16.5906L468.034 17.7225H463.065L463.066 16.5965L461.41 16.5984L461.41 17.7225H453.282L453.283 16.2901L451.627 16.2921L451.626 17.7225H446.671L446.673 16.3L448.329 16.298L448.33 14.578L449.986 14.5761L449.988 12.8566L448.332 12.8585L448.333 11.1386L446.677 11.1405L446.675 12.86L445.019 12.862L445.017 14.582L443.361 14.5839L443.36 16.3039L441.703 16.3054L441.705 14.5859L440.049 14.5879L440.05 12.8679L441.706 12.8659L441.708 11.1464L443.364 11.1445L443.365 9.42448L445.022 9.42252L445.024 7.70303L443.367 7.7045L443.369 5.98502L441.712 5.98698L441.714 4.267L440.057 4.26897L440.059 2.54899L441.715 2.54752L441.717 0.827537L443.373 0.82557L443.372 2.54555L445.028 2.54358L445.027 4.26307L446.683 4.2611L446.681 5.98108L448.337 5.97912L448.339 4.25914L449.996 4.25766L449.997 2.53768L448.34 2.53965L448.342 0.81967L446.686 0.821637L446.687 0H451.641L451.641 0.815736L453.297 0.814261L453.297 0H461.425L461.424 1.1201L463.08 1.11813L463.081 0H468.049L468.048 1.11223ZM477.972 17.7225H476.316L476.317 16.5807L477.973 16.5788L477.972 17.7225ZM507.636 1.11223L505.98 1.1142L505.978 2.83418L504.322 2.83615L504.321 4.55563L505.977 4.55367L505.976 6.27365L507.632 6.27168L507.633 4.55219L509.29 4.55023L509.291 2.83025L510.948 2.82828L510.949 1.1083L512.605 1.10682L512.604 2.82631L514.26 2.82435L514.259 4.54433L512.602 4.54629L512.601 6.26578L510.945 6.26775L510.943 7.98773L509.287 7.98969L509.285 9.70918L510.942 9.70771L510.94 11.4272L512.597 11.4252L512.595 13.1452L514.251 13.1432L514.25 14.8632L512.594 14.8652L512.592 16.5847L510.935 16.5866L510.937 14.8667L509.281 14.8686L509.282 13.1491L507.626 13.1511L507.627 11.4311L505.971 11.4331L505.97 13.1531L504.313 13.1545L504.312 14.8745L505.968 14.8726L505.966 16.5925L507.623 16.5906L507.622 17.7225H502.653L502.654 16.5965L500.998 16.5984L500.996 17.7225H492.87L492.871 16.567L491.215 16.5689L491.213 17.7225H486.254L486.255 16.5768L487.911 16.5748L487.913 14.8549L489.569 14.8529L489.57 13.1334L487.914 13.1354L487.916 11.4154L486.26 11.4174L486.258 13.1373L484.602 13.1393L484.601 14.8588L482.944 14.8608L482.943 16.5807L481.287 16.5827L481.288 14.8627L479.632 14.8647L479.634 13.1447L481.29 13.1427L481.291 11.4233L482.948 11.4213L482.949 9.70131L484.605 9.69935L484.607 7.97986L482.951 7.98183L482.952 6.26185L481.296 6.26381L481.298 4.54383L479.641 4.5458L479.643 2.82631L481.299 2.82435L481.3 1.10437L482.956 1.1024L482.955 2.82238L484.611 2.82041L484.609 4.54039L486.266 4.53842L486.264 6.25791L487.92 6.25595L487.922 4.53646L489.578 4.53449L489.579 2.81451L487.923 2.81648L487.925 1.0965L486.269 1.09847L486.27 0H491.229L491.228 1.09306L492.884 1.09109L492.885 0H501.012L501.011 1.1201L502.668 1.11813L502.668 0H507.638L507.636 1.11223ZM517.562 17.7225H515.906L515.906 16.5807L517.563 16.5788L517.562 17.7225ZM547.188 0.835405L545.539 0.837371L545.537 2.55735L543.888 2.55932L543.887 4.27881L545.536 4.27684L545.534 5.99682L547.184 5.99485L547.185 4.27487L548.834 4.2734L548.836 2.55342L550.485 2.55145L550.486 0.831471L552.136 0.829996L552.134 2.54948L553.783 2.54752L553.782 4.2675L552.133 4.26946L552.131 5.98895L550.482 5.99092L550.481 7.7109L548.831 7.71286L548.829 9.43235L550.479 9.43088L550.477 11.1504L552.126 11.1484L552.125 12.8684L553.774 12.8664L553.773 14.5864L552.124 14.5879L552.122 16.3078L550.473 16.3098L550.474 14.5898L548.825 14.5918L548.827 12.8723L547.177 12.8743L547.179 11.1543L545.529 11.1563L545.528 12.8758L543.879 12.8777L543.877 14.5977L545.527 14.5957L545.525 16.3157L547.174 16.3137L547.173 17.7225H542.226L542.227 16.3196L540.577 16.3211L540.576 17.7225H532.456L532.457 16.567L530.801 16.5689L530.8 17.7225H525.845L525.846 16.5768L527.503 16.5748L527.504 14.8549L529.16 14.8529L529.162 13.1334L527.506 13.1354L527.507 11.4154L525.851 11.4174L525.849 13.1373L524.193 13.1393L524.191 14.8588L522.535 14.8608L522.534 16.5807L520.877 16.5827L520.879 14.8627L519.222 14.8647L519.224 13.1447L520.88 13.1427L520.882 11.4233L522.538 11.4213L522.539 9.70131L524.196 9.69935L524.197 7.97986L522.541 7.98183L522.542 6.26185L520.886 6.26381L520.888 4.54383L519.231 4.5458L519.233 2.82631L520.889 2.82435L520.891 1.10437L522.547 1.1024L522.545 2.82238L524.202 2.82041L524.201 4.5399L525.857 4.53842L525.855 6.25791L527.511 6.25595L527.513 4.53646L529.169 4.53449L529.171 2.81451L527.514 2.81648L527.516 1.0965L525.86 1.09847L525.861 0H530.816L530.814 1.09306L532.471 1.09109L532.472 0H540.591L540.591 0.843272L542.24 0.841305L542.241 0H547.188L547.188 0.835405ZM417.098 1.09994L417.096 2.82287L415.461 2.82484L415.46 4.54777L413.825 4.54973L413.824 6.27266L412.189 6.27463L412.188 7.99756L410.553 7.99953L410.551 9.72246L412.186 9.72049L412.185 11.4439L413.819 11.4419L413.818 13.1649L415.453 13.1629L415.451 14.8858L417.085 14.8839L417.084 16.6073L418.719 16.6053L418.72 14.8824L420.355 14.8804L420.356 13.1575L421.991 13.1555L421.992 11.4321L423.627 11.4306L423.629 9.70721L425.263 9.70525L425.264 7.98232L423.63 7.98428L423.631 6.26135L421.997 6.26332L421.998 4.54039L420.364 4.54187L420.365 2.81894L418.73 2.8209L418.732 1.09797L417.098 1.09994ZM298.337 1.09945L298.336 2.82238L296.701 2.82435L296.7 4.54728L295.065 4.54924L295.064 6.27217L293.429 6.27414L293.427 7.99707L291.793 7.99904L291.791 9.72196L293.426 9.72L293.424 11.4434L295.059 11.4415L295.058 13.1644L296.692 13.1624L296.691 14.8853L298.325 14.8834L298.324 16.6068L299.958 16.6048L299.96 14.8819L301.594 14.8799L301.596 13.157L303.231 13.155L303.232 11.4316L304.867 11.4301L304.868 9.70672L306.503 9.70476L306.504 7.98183L304.869 7.98379L304.871 6.26086L303.237 6.26283L303.238 4.5399L301.603 4.54138L301.605 2.81845L299.97 2.82041L299.972 1.09748L298.337 1.09945ZM337.924 1.09945L337.923 2.82238L336.288 2.82435L336.287 4.54728L334.652 4.54924L334.651 6.27217L333.016 6.27414L333.014 7.99707L331.38 7.99904L331.379 9.72196L333.013 9.72L333.011 11.4434L334.646 11.4415L334.645 13.1644L336.279 13.1624L336.278 14.8853L337.912 14.8834L337.911 16.6068L339.545 16.6048L339.547 14.8819L341.182 14.8799L341.183 13.157L342.817 13.155L342.819 11.4316L344.454 11.4301L344.455 9.70672L346.09 9.70476L346.091 7.98183L344.456 7.98379L344.458 6.26086L342.824 6.26283L342.825 4.5399L341.19 4.54138L341.192 2.81845L339.557 2.82041L339.559 1.09748L337.924 1.09945ZM377.511 1.09945L377.51 2.82238L375.875 2.82435L375.873 4.54728L374.239 4.54924L374.238 6.27217L372.603 6.27414L372.601 7.99707L370.966 7.99904L370.965 9.72196L372.6 9.72L372.598 11.4434L374.233 11.4415L374.231 13.1644L375.866 13.1624L375.865 14.8853L377.499 14.8834L377.497 16.6068L379.132 16.6048L379.134 14.8819L380.768 14.8799L380.77 13.157L382.404 13.155L382.406 11.4316L384.041 11.4301L384.042 9.70672L385.676 9.70476L385.678 7.98183L384.044 7.98379L384.045 6.26086L382.41 6.26283L382.412 4.5399L380.777 4.54138L380.779 2.81845L379.144 2.82041L379.146 1.09748L377.511 1.09945ZM456.417 0.823112L456.416 2.54604L454.781 2.54801L454.779 4.27094L453.145 4.2729L453.143 5.99583L451.509 5.9978L451.507 7.72073L449.872 7.7227L449.871 9.44563L451.506 9.44366L451.504 11.1666L453.139 11.1651L453.137 12.888L454.772 12.8861L454.771 14.609L456.405 14.607L456.403 16.33L458.038 16.3285L458.04 14.6051L459.674 14.6036L459.675 12.8802L461.31 12.8782L461.312 11.1553L462.947 11.1533L462.948 9.43038L464.582 9.42842L464.584 7.70549L462.949 7.70746L462.951 5.98453L461.316 5.98649L461.318 4.26307L459.683 4.26504L459.685 2.54211L458.05 2.54407L458.051 0.821145L456.417 0.823112ZM496.004 0.823112L496.002 2.54604L494.368 2.54801L494.366 4.27094L492.731 4.2729L492.73 5.99583L491.096 5.9978L491.094 7.72073L489.459 7.7227L489.458 9.44563L491.092 9.44366L491.091 11.1666L492.726 11.1651L492.724 12.888L494.359 12.8861L494.357 14.609L495.992 14.607L495.99 16.33L497.625 16.3285L497.627 14.6051L499.261 14.6036L499.262 12.8802L500.897 12.8782L500.899 11.1553L502.533 11.1533L502.535 9.43038L504.169 9.42842L504.171 7.70549L502.536 7.70746L502.538 5.98453L500.903 5.98649L500.905 4.26307L499.27 4.26504L499.272 2.54211L497.637 2.54407L497.638 0.821145L496.004 0.823112ZM535.591 0.823112L535.589 2.54604L533.955 2.54801L533.953 4.27094L532.319 4.2729L532.317 5.99583L530.682 5.9978L530.681 7.72073L529.046 7.7227L529.045 9.44563L530.679 9.44366L530.678 11.1666L532.313 11.1651L532.311 12.888L533.946 12.8861L533.944 14.609L535.579 14.607L535.577 16.33L537.212 16.3285L537.213 14.6051L538.848 14.6036L538.85 12.8802L540.484 12.8782L540.485 11.1553L542.12 11.1533L542.122 9.43038L543.756 9.42842L543.758 7.70549L542.123 7.70746L542.124 5.98453L540.49 5.98649L540.492 4.26307L538.857 4.26504L538.858 2.54211L537.224 2.54407L537.225 0.821145L535.591 0.823112ZM319.899 8.26013L321.555 8.25816L321.554 9.97814L319.898 9.98011L319.896 11.6996L318.24 11.7016L318.242 9.98208L316.585 9.98355L316.587 8.26406L318.243 8.2621L318.245 6.54212L319.9 6.54015L319.899 8.26013ZM359.489 8.26013L361.145 8.25816L361.144 9.97814L359.487 9.98011L359.486 11.6996L357.829 11.7016L357.831 9.98208L356.175 9.98355L356.176 8.26406L357.832 8.2621L357.834 6.54212L359.49 6.54015L359.489 8.26013ZM299.966 7.99166L301.6 7.98969L301.599 9.71262L299.965 9.71459L299.963 11.4375L298.328 11.4395L298.33 9.71656L296.695 9.71852L296.697 7.9951L298.331 7.99313L298.333 6.27021L299.967 6.26824L299.966 7.99166ZM339.553 7.99166L341.187 7.98969L341.186 9.71262L339.551 9.71459L339.55 11.4375L337.915 11.4395L337.917 9.71656L336.282 9.71852L336.283 7.9951L337.918 7.99313L337.92 6.27021L339.554 6.26824L339.553 7.99166ZM379.14 7.99166L380.774 7.98969L380.773 9.71262L379.138 9.71459L379.137 11.4375L377.502 11.4395L377.504 9.71656L375.869 9.71852L375.87 7.9951L377.505 7.99313L377.507 6.27021L379.141 6.26824L379.14 7.99166ZM418.728 7.98822L420.362 7.98625L420.361 9.70918L418.726 9.71115L418.725 11.4341L417.09 11.436L417.092 9.71311L415.457 9.71508L415.459 7.99215L417.093 7.99018L417.095 6.26726L418.729 6.26529L418.728 7.98822ZM477.979 7.98379L479.635 7.98183L479.633 9.70181L477.977 9.70328L477.976 11.4233L476.32 11.4252L476.321 9.70525L474.665 9.70721L474.667 7.98773L476.323 7.98576L476.324 6.26578L477.98 6.26381L477.979 7.98379ZM517.569 7.98379L519.225 7.98183L519.223 9.70181L517.567 9.70328L517.565 11.4233L515.909 11.4252L515.91 9.70525L514.254 9.70721L514.256 7.98773L515.912 7.98576L515.914 6.26578L517.57 6.26381L517.569 7.98379ZM280.315 7.9833L281.971 7.98133L281.97 9.70131L280.314 9.70279L280.312 11.4228L278.655 11.4247L278.657 9.70476L277.001 9.70672L277.002 7.98723L278.659 7.98527L278.66 6.26529L280.317 6.26332L280.315 7.9833ZM398.998 7.9833L400.647 7.98133L400.645 9.70131L398.996 9.70328L398.995 11.4228L397.345 11.4247L397.347 9.70525L395.698 9.70672L395.699 7.98723L397.348 7.98527L397.35 6.26529L398.999 6.26332L398.998 7.9833ZM458.046 7.71483L459.68 7.71336L459.678 9.43629L458.044 9.43825L458.043 11.1612L456.408 11.1631L456.409 9.43973L454.775 9.44169L454.776 7.71876L456.411 7.7168L456.413 5.99387L458.047 5.9919L458.046 7.71483ZM497.633 7.71483L499.267 7.71336L499.265 9.43629L497.631 9.43825L497.63 11.1612L495.995 11.1631L495.996 9.43973L494.362 9.44169L494.363 7.71876L495.998 7.7168L495.999 5.99387L497.634 5.9919L497.633 7.71483ZM537.219 7.71483L538.854 7.71336L538.852 9.43629L537.218 9.43825L537.216 11.1612L535.582 11.1631L535.583 9.43973L533.948 9.44169L533.95 7.71876L535.585 7.7168L535.586 5.99387L537.221 5.9919L537.219 7.71483ZM438.395 7.70696L440.051 7.705L440.049 9.42448L438.393 9.42645L438.392 11.1464L436.735 11.1484L436.737 9.42842L435.08 9.43038L435.082 7.7109L436.738 7.70893L436.74 5.98895L438.396 5.98698L438.395 7.70696ZM262.281 9.98552L261.576 9.98601L261.575 8.26308L262.283 8.26259L262.281 9.98552ZM555 9.42891L553.777 9.43038L553.779 7.7109L555 7.70942L555 9.42891ZM319.907 1.37726L318.251 1.37923L318.252 0H319.908L319.907 1.37726ZM359.497 1.37726L357.84 1.37923L357.841 0H359.498L359.497 1.37726ZM477.986 1.10092L476.33 1.10289L476.331 0H477.988L477.986 1.10092ZM517.576 1.10092L515.92 1.10289L515.921 0H517.577L517.576 1.10092ZM280.323 1.10043L278.667 1.1024L278.668 0H280.324L280.323 1.10043ZM399.005 1.10043L397.356 1.1024L397.358 0H399.007L399.005 1.10043ZM438.402 0.824095L436.746 0.826062L436.747 0H438.403L438.402 0.824095Z" fill="#C43418"/>
</g>
<defs>
<clipPath id="clip0_1975_39556">
<rect width="373" height="17" fill="white" transform="translate(-7)"/>
</clipPath>
</defs>
</svg>
