<svg width="72" height="72" viewBox="0 0 72 72" fill="none" xmlns="http://www.w3.org/2000/svg">
<path d="M28.8 52.2V19.8L50.4 36M36 0C31.2724 0 26.5911 0.931168 22.2234 2.74034C17.8557 4.54951 13.8871 7.20125 10.5442 10.5442C3.79285 17.2955 0 26.4522 0 36C0 45.5478 3.79285 54.7045 10.5442 61.4558C13.8871 64.7988 17.8557 67.4505 22.2234 69.2597C26.5911 71.0688 31.2724 72 36 72C45.5478 72 54.7045 68.2072 61.4558 61.4558C68.2072 54.7045 72 45.5478 72 36C72 31.2724 71.0688 26.5911 69.2597 22.2234C67.4505 17.8557 64.7988 13.8871 61.4558 10.5442C58.1129 7.20125 54.1443 4.54951 49.7766 2.74034C45.4089 0.931168 40.7276 0 36 0Z" fill="#C4321A"/>
</svg>
