<svg width="20" height="20" viewBox="0 0 20 20" fill="none" xmlns="http://www.w3.org/2000/svg">
<path d="M4.17122 7.50228C4.63147 7.50228 5.00456 7.87537 5.00456 8.3356C6.36687 8.3356 7.62009 8.8026 8.61291 9.58519L10.4212 9.5856C11.5317 9.5856 12.5295 10.0684 13.2162 10.8354L15.8379 10.8356C17.4982 10.8356 18.9316 11.8067 19.6013 13.2118C17.6307 15.8123 14.4395 17.5023 10.8379 17.5023C8.51232 17.5023 6.54604 16.9996 4.95382 16.1207C4.83847 16.4403 4.53155 16.6689 4.17122 16.6689H1.67122C1.21099 16.6689 0.837891 16.2959 0.837891 15.8356V8.3356C0.837891 7.87537 1.21099 7.50228 1.67122 7.50228H4.17122ZM5.0054 10.0023L5.00456 14.1873L5.04236 14.2144C6.53721 15.2647 8.48632 15.8356 10.8379 15.8356C13.3412 15.8356 15.6701 14.8726 17.3672 13.2278L17.4779 13.1164L17.3786 13.0328C16.9919 12.7303 16.5176 12.5426 16.0087 12.508L15.8379 12.5023H14.0783C14.1392 12.7703 14.1712 13.0492 14.1712 13.3356V14.1689H6.67122V12.5023L12.3296 12.5014L12.3009 12.436C11.9838 11.7747 11.328 11.3067 10.5582 11.2567L10.4212 11.2523L7.98005 11.2522C7.22402 10.481 6.17059 10.0025 5.0054 10.0023ZM3.33789 9.16894H2.50456V15.0023H3.33789V9.16894ZM15.0046 4.16895C16.3852 4.16895 17.5046 5.28823 17.5046 6.66894C17.5046 8.04965 16.3852 9.16894 15.0046 9.16894C13.6238 9.16894 12.5046 8.04965 12.5046 6.66894C12.5046 5.28823 13.6238 4.16895 15.0046 4.16895ZM15.0046 5.83561C14.5443 5.83561 14.1712 6.2087 14.1712 6.66894C14.1712 7.12918 14.5443 7.50228 15.0046 7.50228C15.4648 7.50228 15.8379 7.12918 15.8379 6.66894C15.8379 6.2087 15.4648 5.83561 15.0046 5.83561ZM9.17124 1.66895C10.5519 1.66895 11.6712 2.78823 11.6712 4.16895C11.6712 5.54965 10.5519 6.66894 9.17124 6.66894C7.79052 6.66894 6.67122 5.54965 6.67122 4.16895C6.67122 2.78823 7.79052 1.66895 9.17124 1.66895ZM9.17124 3.33561C8.71099 3.33561 8.33791 3.7087 8.33791 4.16895C8.33791 4.62918 8.71099 5.00228 9.17124 5.00228C9.63149 5.00228 10.0046 4.62918 10.0046 4.16895C10.0046 3.7087 9.63149 3.33561 9.17124 3.33561Z" fill="black"/>
</svg>
