<svg width="20" height="20" viewBox="0 0 20 20" fill="none" xmlns="http://www.w3.org/2000/svg">
<path d="M5.14161 15.0003C5.4848 14.0293 6.41083 13.3337 7.49935 13.3337C8.58785 13.3337 9.51393 14.0293 9.8571 15.0003H18.3327V16.667H9.8571C9.51393 17.638 8.58785 18.3337 7.49935 18.3337C6.41083 18.3337 5.4848 17.638 5.14161 16.667H1.66602V15.0003H5.14161ZM10.1416 9.16699C10.4848 8.196 11.4108 7.50033 12.4993 7.50033C13.5878 7.50033 14.5139 8.196 14.8571 9.16699H18.3327V10.8337H14.8571C14.5139 11.8047 13.5878 12.5003 12.4993 12.5003C11.4108 12.5003 10.4848 11.8047 10.1416 10.8337H1.66602V9.16699H10.1416ZM5.14161 3.33366C5.4848 2.36267 6.41083 1.66699 7.49935 1.66699C8.58785 1.66699 9.51393 2.36267 9.8571 3.33366H18.3327V5.00033H9.8571C9.51393 5.97132 8.58785 6.66699 7.49935 6.66699C6.41083 6.66699 5.4848 5.97132 5.14161 5.00033H1.66602V3.33366H5.14161ZM7.49935 5.00033C7.95958 5.00033 8.33268 4.62723 8.33268 4.16699C8.33268 3.70676 7.95958 3.33366 7.49935 3.33366C7.03912 3.33366 6.66602 3.70676 6.66602 4.16699C6.66602 4.62723 7.03912 5.00033 7.49935 5.00033ZM12.4993 10.8337C12.9596 10.8337 13.3327 10.4606 13.3327 10.0003C13.3327 9.54008 12.9596 9.16699 12.4993 9.16699C12.0391 9.16699 11.666 9.54008 11.666 10.0003C11.666 10.4606 12.0391 10.8337 12.4993 10.8337ZM7.49935 16.667C7.95958 16.667 8.33268 16.2939 8.33268 15.8337C8.33268 15.3734 7.95958 15.0003 7.49935 15.0003C7.03912 15.0003 6.66602 15.3734 6.66602 15.8337C6.66602 16.2939 7.03912 16.667 7.49935 16.667Z" fill="black"/>
</svg>
