<svg width="20" height="20" viewBox="0 0 20 20" fill="none" xmlns="http://www.w3.org/2000/svg">
<path d="M1.66602 17.5V15.8333L3.33268 15.8331V4.02875C3.33268 3.62601 3.6207 3.2809 4.01694 3.20886L11.9099 1.77378C12.1816 1.72438 12.4419 1.90458 12.4913 2.17627C12.4966 2.20578 12.4993 2.23572 12.4993 2.26571V3.33313L15.8326 3.33327C16.2929 3.33327 16.666 3.70637 16.666 4.1666V15.8331L18.3326 15.8333V17.5H14.9993V4.99994L12.4993 4.99979V17.5H1.66602ZM10.8326 3.66363L4.99935 4.72424V15.8333H10.8326V3.66363ZM9.99931 9.16663V10.8333H8.33268V9.16663H9.99931Z" fill="#C4321A"/>
</svg>
