<?xml version="1.0" encoding="UTF-8"?>
<svg id="_Слой_1" data-name="Слой_1" xmlns="http://www.w3.org/2000/svg" version="1.1" viewBox="0 0 20 20">
  <!-- Generator: Adobe Illustrator 29.4.0, SVG Export Plug-In . SVG Version: 2.1.0 Build 152)  -->
  <path d="M11.79,9.86c1.18-.74,1.96-2.04,1.96-3.53,0-2.31-1.88-4.18-4.18-4.18s-4.18,1.88-4.18,4.18c0,.07.02.14.02.22-.16-.02-.32-.04-.48-.04-1.85,0-3.35,1.43-3.35,3.2,0,1.02.51,1.91,1.28,2.5-1.66.59-2.85,2.11-2.85,3.89v3.91h16.01v-4.29c0-2.72-1.77-5.03-4.22-5.85ZM9.56,3.11c1.77,0,3.21,1.44,3.21,3.21s-1.44,3.21-3.21,3.21-3.21-1.44-3.21-3.21,1.44-3.21,3.21-3.21ZM2.54,9.7c0-1.23,1.07-2.22,2.38-2.22.23,0,.46.04.68.1.32,1.01,1.01,1.85,1.92,2.37-1.06.41-1.97,1.09-2.66,1.97-1.28-.03-2.31-1.01-2.31-2.22ZM.98,19.02v-2.94c0-1.71,1.44-3.1,3.24-3.18-.43.84-.68,1.79-.68,2.8v3.32H.98ZM15.03,19.02H4.52v-3.32c0-2.87,2.33-5.2,5.2-5.2h.11c2.87,0,5.2,2.33,5.2,5.2v3.32Z"/>
  <polygon points="20 1.84 18.03 1.84 18.03 0 17.06 0 17.06 1.84 15.09 1.84 15.09 2.81 17.06 2.81 17.06 4.65 18.03 4.65 18.03 2.81 20 2.81 20 1.84"/>
</svg>